/* XPM */
static char *result[] = {
/* columns rows colors chars-per-pixel */
"64 64 239 2 ",
"   c #3B1F21",
".  c #3E2527",
"X  c #3E1C1E",
"o  c #7D1C1F",
"O  c #521E20",
"+  c #6B1E22",
"@  c #761E22",
"#  c #442123",
"$  c #4D2324",
"%  c #48292B",
"&  c #572729",
"*  c #4A2E31",
"=  c #572D31",
"-  c #5B3C3C",
";  c #563538",
":  c #4A3336",
">  c #632629",
",  c #68282B",
"<  c #78262A",
"1  c #7C2D32",
"2  c #663538",
"3  c #7A3538",
"4  c #682E32",
"5  c #4C1C1E",
"6  c #76403D",
"7  c #583E42",
"8  c #6B3E42",
"9  c #5A4446",
"0  c #5A4A53",
"q  c #545155",
"w  c #66474A",
"e  c #784848",
"r  c #6C4C53",
"t  c #7B4A55",
"y  c #695759",
"u  c #78565A",
"i  c #72524D",
"p  c #795665",
"a  c #6C596C",
"s  c #766477",
"d  c #72656C",
"f  c #98181D",
"g  c #B2121E",
"h  c #BC161D",
"j  c #B20F1C",
"k  c #871D23",
"l  c #AE1624",
"z  c #AE1B26",
"x  c #AC1E29",
"c  c #B11622",
"v  c #B31B24",
"b  c #B31D2A",
"n  c #BA1D26",
"m  c #B10E23",
"M  c #86252A",
"N  c #94242A",
"B  c #9C2E38",
"V  c #9C2C36",
"C  c #84373D",
"Z  c #9E313B",
"A  c #96343E",
"S  c #8B2C31",
"D  c #A7232E",
"F  c #AB222C",
"G  c #B2222C",
"H  c #BB242B",
"J  c #A62531",
"K  c #AB2532",
"L  c #A42A35",
"P  c #AC2A36",
"I  c #A42C3A",
"U  c #AB2C3B",
"Y  c #B22433",
"T  c #B32B35",
"R  c #B72C36",
"E  c #A3313C",
"W  c #AB323D",
"Q  c #AC363A",
"!  c #B3333C",
"~  c #B9353A",
"^  c #C7181B",
"/  c #C61D20",
"(  c #C92526",
")  c #C73636",
"_  c #CD322F",
"`  c #CE453E",
"'  c #873C44",
"]  c #9A3945",
"[  c #983F51",
"{  c #A43443",
"}  c #AC3442",
"|  c #AC3A45",
" . c #A43C4B",
".. c #AA3B4B",
"X. c #A63A47",
"o. c #B23444",
"O. c #B13C4C",
"+. c #B43A45",
"@. c #A63D51",
"#. c #B1344B",
"$. c #86454A",
"%. c #96424A",
"&. c #86534E",
"*. c #894B59",
"=. c #9D4453",
"-. c #9B4C5D",
";. c #974956",
":. c #895B56",
">. c #95545B",
",. c #A9434D",
"<. c #B2434A",
"1. c #A54254",
"2. c #AC4353",
"3. c #AC4A54",
"4. c #A44B5C",
"5. c #AC4B5C",
"6. c #A64658",
"7. c #B24454",
"8. c #B1455A",
"9. c #B24C5B",
"0. c #B54A56",
"q. c #A9555B",
"w. c #B85459",
"e. c #8C655C",
"r. c #95645B",
"t. c #AE685C",
"y. c #BA625A",
"u. c #885766",
"i. c #945364",
"p. c #9D5A6B",
"a. c #995667",
"s. c #9B5E72",
"d. c #8C5266",
"f. c #A94D62",
"g. c #AB5264",
"h. c #AB556A",
"j. c #A35A6C",
"k. c #AC5B6C",
"l. c #A65565",
"z. c #B35667",
"x. c #A45E72",
"c. c #AB5C73",
"v. c #AA5C76",
"b. c #B35C75",
"n. c #B24E61",
"m. c #89676A",
"M. c #966B67",
"N. c #9B766B",
"B. c #896577",
"V. c #996576",
"C. c #917577",
"Z. c #AA6866",
"A. c #A67467",
"S. c #B97666",
"D. c #AC657B",
"F. c #AD6A7C",
"G. c #A76477",
"H. c #B16373",
"J. c #B16C7E",
"K. c #B4677A",
"L. c #A47875",
"P. c #B4626F",
"I. c #D35D53",
"U. c #CD4F48",
"Y. c #CF6A5E",
"T. c #D1726B",
"R. c #E06B60",
"E. c #998277",
"W. c #A58578",
"Q. c #B78877",
"!. c #BB9278",
"~. c #B6866E",
"^. c #C38B76",
"/. c #C69379",
"(. c #D38B70",
"). c #E59074",
"_. c #EFA777",
"`. c #7C7287",
"'. c #737089",
"]. c #987489",
"[. c #8C748B",
"{. c #AC6C83",
"}. c #A96C85",
"|. c #B26C86",
" X c #A3748A",
".X c #AC738B",
"XX c #AD7A8B",
"oX c #A97587",
"OX c #B27B8B",
"+X c #B27587",
"@X c #A47C92",
"#X c #AB7B94",
"$X c #AC7A95",
"%X c #B27D93",
"&X c #B56E91",
"*X c #B07EA1",
"=X c #9B849A",
"-X c #8E8494",
";X c #AB8395",
":X c #A2859A",
">X c #AC849C",
",X c #A68799",
"<X c #B28697",
"1X c #B28B8F",
"2X c #988CA4",
"3X c #9F93A6",
"4X c #9F9CB2",
"5X c #AC8BA2",
"6X c #A78CA4",
"7X c #B48CA4",
"8X c #AC93AB",
"9X c #AC99AD",
"0X c #A694A8",
"qX c #B394A8",
"wX c #AA9CB2",
"eX c #A59CB2",
"rX c #B69CB6",
"tX c #A9A4B9",
"yX c #B2A6BA",
"uX c #D69C87",
"iX c #C7978A",
"pX c #DAA787",
"aX c #CAA497",
"sX c #D7AB98",
"dX c #DAB392",
"fX c #E5AE8C",
"gX c #CAAAAB",
"hX c #D9B7A7",
"jX c #D6A5AB",
"kX c #E8C6AB",
"lX c #E7C6B6",
"zX c #F0D8B3",
"xX c #AFABC1",
"cX c #EDD5CD",
"vX c #F2E6DB",
"bX c #EFE1D5",
"nX c #F5EDE6",
"mX c #F8F6F1",
"MX c None",
/* pixels */
"MXMXMXMXMXMXMXMXMXMXMXMXMXMXMXMXMXMXMXMXMXMXMXMXMXMXMXMXMXMXMXMXMXMXMXMXMXMXMXMXMXMXMXMXMXMXMXMXMXMXMXMXMXMXMXMXMXMXMXMXMXMXMXMX",
"MXMXMXMXMXMXMXMXMXMXMXMXMXMXMXMXMXMXMXMXMXMXMXMXMXMXMXMXMXMXMXMXMXMXMXMXMXMXMXMXMXMXMXMXMXMXMXMXMXMXMXMXMXMXMXMXMXMXMXMXMXMXMXMX",
"MXMXMXMXMXMXMXMXMXMXMXMXMXMXMXMXMXMXMXMXMXMXMXMXMXMXMXMXMXMXMXMXMXMXMXMXMXMXMXMXMXMXMXMXMXMXMXMXMXMXMXMXMXMXMXMXMXMXMXMXMXMXMXMX",
"MXMXMXMXMXMXMXMXMXMXMXMXMXMXMXMXMXMXMXMXMXMXMXMXMXMXMXMXMXMXMXMXMXMXMXMXMXMXMXMXMXMXMXMXMXMXMXMXMXMXMXMXMXMXMXMXMXMXMXMXMXMXMXMX",
"MXMXMXMXMXMXMXMXMXMXMXMXMXMXMXMXMXMXMXMXMXMXMXu.p d d d MXMXMXMXMXMXMXMXMXMXMXMXMXMXMXMXMXMXMXMXMXMXMXMXMXMXMXMXMXMXMXMXMXMXMXMX",
"MXMXMXMXMXMXMXMXMXMXMXMXMXMXMXMXMXMXMXm.A.t.6.@.e y w r y u m.M.MXMXMXMXMXMXMXMXMXMXMXMXMXMXMXMXMXMXMXMXMXMXMXMXMXMXMXMXMXMXMXMX",
"MXMXMXMXMXMXMXMXMXMXMXMXMXMXMXMXMXA.r.e.e $.' { ' 0 0 0 0 t ] | y.Z.C.MXMXMXMXMXMXMXMXMXMXMXMXMXMXMXMXMXMXMXMXMXMXMXMXMXMXMXMXMX",
"MXMXMXMXMXMXMXMXMXMXMXMXMXMXMXuX/.t.t 0 9 9 t f.g.*.$.t i -.f.6.w.0.n.N.C.MXMXMXMXMXMXMXMXMXMXMXMXMXMXMXMXMXMXMXMXMXMXMXMXMXMXMX",
"MXMXMXMXMXMXMXMXMXMXMXMXMXE.(.(.t.;.w 9 q 0 ' U U L L B ] { ] U T 7.z.g.l.N.MXMXMXMXMXMXMXMXMXMXMXMXMXMXMXMXMXMXMXMXMXMXMXMXMXMX",
"MXMXMXMXMXMXMXMXMXMX1XgXhXaX(.Y.%.$.w 0 8 8 B l l m x D V I L x g v U ,.9.5.Z.m.MXMXMXMXMXMXMXMXMXMXMXMXMXMXMXMXMXMXMXMXMXMXMXMX",
"MXMXMXMXMXMXMXMXMX!.!.1XdX).` Q L ] &.t ' V x x l j x L { ] L F z c F U } @.5.g.V.MXMXMXMXMXMXMXMXMXMXMXMXMXMXMXMXMXMXMXMXMXMXMX",
"MXMXMXMXMXMXMXMXM.~./.pXdXY._ n Q 1.-.%.B D x x x x L { V.f.B D F v l } U K U 8.n.M.MXMXMXMXMXMXMXMXMXMXMXMXMXMXMXMXMXMXMXMXMXMX",
"MXMXMXMXMXMXMXMX~./.pXkX(.U.H H <.3.%.A D F z G D D D { @X#X-.L J <.F ..v.O.F T @.z.v.MXMXMXMXMXMXMXMXMXMXMXMXMXMXMXMXMXMXMXMXMX",
"MXMXMXMXMXMXMXW.pXkXzXkX^.~ H <.3.,.L B D z z l D J D I j.9X}.} h.F.n.-.h..X5.F Y 8.z.v.MXMXMXMXMXMXMXMXMXMXMXMXMXMXMXMXMXMXMXMX",
"MXMXMXMXMXMXaXhXlXbXbX).U.Q R 0.3.K L L L J z z } W D D  .9X@XX.oX%X.Xf.X.G.@X{ v H 0.b.V.MXMXMXMXMXMXMXMXMXMXMXMXMXMXMXMXMXMXMX",
"MXMXMXMXMX^.1X1XgXbXcXR.` ] ,.3.| D D L B L F z ,.4.z z K +X6X3.D.>XD.h.{ =.,Xj.z j n O.h.V.MXMXMXMXMXMXMXMXMXMXMXMXMXMXMXMXMXMX",
"MXMXMXMXMXA.A.N.aXcXlXY.,.%.-. .U D F F L L F F =.V.D l F ,.7XJ.n.8Xv.v.{ I :X XI l l J 8.b.MXMXMXMXMXMXMXMXMXMXMXMXMXMXMXMXMXMX",
"MXMXMXMXMXM.A.!.cXnXlXz.%.%.q.o.F D z F D D F K f. XL J x T J.7X0.$X5X.X..K :X5X1.x x x I f.}.MXMXMXMXMXMXMXMXMXMXMXMXMXMXMXMXMX",
"MXMXMXMXMX~.iXaXvXnXhXt.%.{ 6.#.b G z G F D F U x.XXI I I @.{.yX|.|.wX8Xn.} ,XqX2.D x J J  .x.MXMXMXMXMXMXMXMXMXMXMXMXMXMXMXMXMX",
"MXMXMXMXW.iXdXlXnXnXaXm.&.] @.{ F F D F Y F U g.@XF.F K l. X0XtXrX|.5X6X9.g.9X7X..x x D V { i.B.MXMXMXMXMXMXMXMXMXMXMXMXMXMXMXMX",
"MXMXMXMX!.sXlXmXmXbX^.f.&.;.3.{ L J L I 2.z.+X7X5X8.l Y XXwX=XeXtX5X{.k.W F.wX.Xo.x x z V A %.s [.MXMXMXMXMXMXMXMXMXMXMXMXMXMXMX",
"MXMXMXW.Q.aXkXvXmXcXT.) R <.3.X.I L L 1.1XxXyX7XH.Y K 7.{.qX>X;XqX8X.X{ E :XtXk.! F D D Z Z B u.'.MXMXMXMXMXMXMXMXMXMXMXMXMXMXMX",
"MXMXMXL.N.N.W.hXnXcXR._ ^ +.3.Q I I { j.5X1XP.7.Y z ~ OX+X1X8X+X5XD.h.{ l.8X9X2.2.| F D J D x ] B.-XMXMXMXMXMXMXMXMXMXMXMXMXMXMX",
"MXMXMXp i u e.sXvXlXI._ ( +.3.! K I 4.}.}.| F D x x #.|.<X{.5X;X5X2.I  .>XyXOX3.j.v.W F F x l D 1.[.MXMXMXMXMXMXMXMXMXMXMXMXMXMX",
"MXMXMXu &.r.A.aXbXkXU.( h ! 9.o.Y +.F.qX#X6.J J L @.D.H.<X{.OX9X@X3.E s.0X8X9.H.@X;X..F l x D z } V.=XMXMXMXMXMXMXMXMXMXMXMXMXMX",
"MXMXMXM.q.t.A.sXzXdX` ^ ^ H 0.o.Y 8.+XXX{.v.I L ] p.0XoXOX7XD.>XXX}  .,X3X}.+.H.oX#XO.v x b l m x l.@XMXMXMXMXMXMXMXMXMXMXMXMXMX",
"MXMXMXC.y.S.~.sXzX/.U.( n H 7.o.l 8..X.XH.z.@.J =.].8X5XJ.wX{.v.>X1.G.wX7X| K k.,X3X3.z ..7.Y m m o.&XqXMXMXMXMXMXMXMXMXMXMXMXMX",
"MXMXMXL.S.^./.pXfX/.w.( G P 1.X.x 7.#X#Xb.z.c.{ f.].>X5X<XwX5X,.>X}.2XeXF.,.@.J.wX=Xx.{ M.#Xn.n m R b.7XMXMXMXMXMXMXMXMXMXMXMXMX",
"MXMXMXW.^./.dXdX_./.z.( b ] >.%.D ..$X$Xc..XD.V.@X Xl.}.tXyX9X8.{.8X4X5Xh..X8X9XwX Xx.f.L.0XK.o.n b 8.*XMXMXMXMXMXMXMXMXMXMXMXMX",
"MXMXMX~.!.aXiX^.)._.iX` ! $.p *.K P .X$X@.6.5.G.eX@XW X.>XyX8X].v.8X@Xl.{.5X<XH.F.OX{.h. X=X#X{.O.Y O.$XqXMXMXMXMXMXMXMXMXMXMXMX",
"MXMXMXS.!.W.p &.~._.kXT.6.p a u ] K b.8Xh.5..XoX5X5X8.K o.H..X2X@X$X>X5.%Xz.R G | ;XOX8.+X.X X6Xg.K @.&XqXMXMXMXMXMXMXMXMXMXMXMX",
"MXMXMX%.3 9 7 w r.).hX/.l.d.p p *.B 5.qX|.h.<XH.%X5X.XU F ..D.=X]. X.X.XqXK.R H Y F.>XK.OX>X,XeX X{  .&XqXMXMXMXMXMXMXMXMXMXMXMX",
"MXMXMXMX- w 8 i :.(.uXiXp.v.d.r p $. .oX=XF.8X+XD.+X8Xn.b o..X:XXXn.2.{.$X%Xw.K J 6.>X%XD.5X9XqXOX|  .{.qXMXMXMXMXMXMXMXMXMXMXMX",
"MXMXMXMXp e e t :.T.R.aXZ.@.d.p p >.E 9.0X:X#X,Xg.+X1X1XG #..X>XOXT 2.$X{.f.c.} L { V.5XP.OXxX<X0.F { {.qXMXMXMXMXMXMXMXMXMXMXMX",
"MXMXMXMXC.*.;.:.e.A.I.T.H.X.d.p u.a.[ 1.:X,X XL.q.F.g.H.H D.1X.Xk.v 7.>X{.q.F.X.p.x.G.>XOX{.>XF.Q x { G.$XMXMXMXMXMXMXMXMXMXMXMX",
"MXMXMXMXMXi.l.r.r.S.Y.I.z.@.u.'.u.-.,.L p.3X:Xp.-.G.o.H o.7XqXH.Y m ! qXH.F.+X..V.p.}.#X8XqXz.P F z o.G.].MXMXMXMXMXMXMXMXMXMXMX",
"MXMXMXMXMXr.M.N.S.Y.I.` U.,.p '.s u.q.W W }.tX8X>XXX{ P f.eXeXk.x m b >X+XO.#.U p.]. XH.+XqXk.D x F } D.$XMXMXMXMXMXMXMXMXMXMXMX",
"MXMXMXMXMXA.A.Q.T.` _ _ ` q.e.d s *.i.=.K O.%XxXyX{.K { @XtX3X .K x G {.7X| 6.{.}.,Xj.h.7.9...z j z ..|.7XMXMXMXMXMXMXMXMXMXMXMX",
"MXMXMXMXMXt.y.w.Q 1 f ) ` ) Q >.s p t p ] b } z.H.O.D X.0XtX@X{ x x g 5.6Xc.}. X.X6X@X{.2.v F x l K 6.%XrXMXMXMXMXMXMXMXMXMXMXMX",
"MXMXMXMXMX:.C + > & = 6 ~ ( _ <.s.d.p p ;.{ b Y T Y T 5.tXtX X{ D z z K ;X>X.X>XP.#XeX8Xz.c l D D { a.,XrXMXMXMXMXMXMXMXMXMXMXMX",
"MXMXMXMXMXMXy & $ = 4 3 Z ( / ~ n.f.>.*.*.[ J x b Y T g.tXtX}.] J l c l G.8X.X6XF.J.>X8Xz.F x D V [ [.-XqXMXMXMXMXMXMXMXMXMXMXMX",
"MXMXMXMXMXMXMXy 4 < 6 e %.~ / / R n.G.u.[ [ 1.L P Y G 3.tXtX#X{ L L b c } >X8X.XH.D.c.3.W z x J ] p [.2X@XMXMXMXMXMXMXMXMXMXMXMX",
"MXMXMXMXMXMXMXMX$.C C &.&.Q ( ^ b ..c.x. .{ 6.-.' U D ..3XxXeXx.{ X.| F L x.tX5Xk.H.H.R g g l K [ s [.2XMXMXMXMXMXMXMXMXMXMXMXMX",
"MXMXMXMXMXMXMXMXm.' $.&.:.q._ ^ / G X.4.f.@.@.*.t 8 { { p.3XxXeX@X{.| K J X.oX9X,X;XJ.o.g l x x [ [.2X2XMXMXMXMXMXMXMXMXMXMXMXMX",
"MXMXMXMXMXMXMXMXMX:.&.e.e.e.%.z h G Z %.-.v.f.[ r r $.] U 4.oXXXD.l.Y x x J 1.].4XeXz.n h b x } f.$X>XV.MXMXMXMXMXMXMXMXMXMXMXMX",
"MXMXMXMXMXMXMXMXMXC.M.C.d w ; < N V $.2 r s.}.p.*.t *.=.T G W #.} P Y G v D D { f.h.} c c x #.O.|.&X XMXMXMXMXMXMXMXMXMXMXMXMXMX",
"MXMXMXMXMXMXMXMXMXE.r.&.w : % % & 3 3 ; ; w u.P.h.f.6.6.2...L x c n n G F F G b G v x x z { f.b.|.}.i.MXMXMXMXMXMXMXMXMXMXMXMXMX",
"MXMXMXMXMXMXMXMXMXMX:.6 % % % % * ; 3 3 ; = e ,.2.n.5.1.i.i.=.{ x n c G G G Y H v c z L @.6.c.F.G.V.MXMXMXMXMXMXMXMXMXMXMXMXMXMX",
"MXMXMXMXMXMXMXMXMXMXMXy 9 = = & = : - 3 < 4 - C E <.3.h.a.m.s.d.*.] ] { G G Y Y T o.O.@.f.c.G.c.a.*.MXMXMXMXMXMXMXMXMXMXMXMXMXMX",
"MXMXMXMXMXMXMXMXMXMXMXMXMXr 4 , 4 ; w 2 @ k 4 = M f J l.oX3X2X[.'.s a *. .X.+.<.3.9.n.h.h.g.-.*.u.MXMXMXMXMXMXMXMXMXMXMXMXMXMXMX",
"MXMXMXMXMXMXMXMXMXMXMXMXMXMXr 2 2 w e w = , , > o f N C >.,XyX2X'.'.[.B.p.h.k.z.z.n.2.2.5. .' t MXMXMXMXMXMXMXMXMXMXMXMXMXMXMXMX",
"MXMXMXMXMXMXMXMXMXMXMXMXMXMXMXu 6 $.C 2 % . & > < < M 1 S $.s `.[.[.[.[.s.=.,.3.3.3.6.] S S *.MXMXMXMXMXMXMXMXMXMXMXMXMXMXMXMXMX",
"MXMXMXMXMXMXMXMXMXMXMXMXMXMXMXC.;.Q M > # X # % & < < , , < 2 9 8 8 a '.u.$.A E B N M < 3 MXMXMXMXMXMXMXMXMXMXMXMXMXMXMXMXMXMXMX",
"MXMXMXMXMXMXMXMXMXMXMXMXMXMXMXMX>.%.; % $ O O % % & 4 , < < , = ; 8 7 7 2 1 M k k 1 < , MXMXMXMXMXMXMXMXMXMXMXMXMXMXMXMXMXMXMXMX",
"MXMXMXMXMXMXMXMXMXMXMXMXMXMXMXMXMXs q 9 2 & 5 $ * 7 - * > + + > $ & O @ @ o o @ < 3 & MXMXMXMXMXMXMXMXMXMXMXMXMXMXMXMXMXMXMXMXMX",
"MXMXMXMXMXMXMXMXMXMXMXMXMXMXMXMXMXMXMXMXMXw = = - - : .   X X 5 O > + + @ > > & e MXMXMXMXMXMXMXMXMXMXMXMXMXMXMXMXMXMXMXMXMXMXMX",
"MXMXMXMXMXMXMXMXMXMXMXMXMXMXMXMXMXMXMXMXMXMXMX9 - ; = . # #   . # * $ O $ . % w MXMXMXMXMXMXMXMXMXMXMXMXMXMXMXMXMXMXMXMXMXMXMXMX",
"MXMXMXMXMXMXMXMXMXMXMXMXMXMXMXMXMXMXMXMXMXMXMX:.4 > ; ; & % . . * * $ & # # - MXMXMXMXMXMXMXMXMXMXMXMXMXMXMXMXMXMXMXMXMXMXMXMXMX",
"MXMXMXMXMXMXMXMXMXMXMXMXMXMXMXMXMXMXMXMXMXMXMXMXMXMXMXMXMXy - 4 7 MXMXMXMXMXMXMXMXMXMXMXMXMXMXMXMXMXMXMXMXMXMXMXMXMXMXMXMXMXMXMX",
"MXMXMXMXMXMXMXMXMXMXMXMXMXMXMXMXMXMXMXMXMXMXMXMXMXMXMXMXMXMXMXMXMXMXMXMXMXMXMXMXMXMXMXMXMXMXMXMXMXMXMXMXMXMXMXMXMXMXMXMXMXMXMXMX",
"MXMXMXMXMXMXMXMXMXMXMXMXMXMXMXMXMXMXMXMXMXMXMXMXMXMXMXMXMXMXMXMXMXMXMXMXMXMXMXMXMXMXMXMXMXMXMXMXMXMXMXMXMXMXMXMXMXMXMXMXMXMXMXMX",
"MXMXMXMXMXMXMXMXMXMXMXMXMXMXMXMXMXMXMXMXMXMXMXMXMXMXMXMXMXMXMXMXMXMXMXMXMXMXMXMXMXMXMXMXMXMXMXMXMXMXMXMXMXMXMXMXMXMXMXMXMXMXMXMX",
"MXMXMXMXMXMXMXMXMXMXMXMXMXMXMXMXMXMXMXMXMXMXMXMXMXMXMXMXMXMXMXMXMXMXMXMXMXMXMXMXMXMXMXMXMXMXMXMXMXMXMXMXMXMXMXMXMXMXMXMXMXMXMXMX",
"MXMXMXMXMXMXMXMXMXMXMXMXMXMXMXMXMXMXMXMXMXMXMXMXMXMXMXMXMXMXMXMXMXMXMXMXMXMXMXMXMXMXMXMXMXMXMXMXMXMXMXMXMXMXMXMXMXMXMXMXMXMXMXMX"
};
