/* XPM */
static char *result[] = {
/* columns rows colors chars-per-pixel */
"64 64 232 2 ",
"   c #442A2C",
".  c #4D2B2C",
"X  c #4A2728",
"o  c #5C2A2B",
"O  c #592728",
"+  c #522E32",
"@  c #4C3135",
"#  c #4B353A",
"$  c #5C353A",
"%  c #573539",
"&  c #632B2B",
"*  c #692425",
"=  c #742B2D",
"-  c #7C2B2D",
";  c #792426",
":  c #6B2E31",
">  c #623133",
",  c #693234",
"<  c #643A3C",
"1  c #69363C",
"2  c #733336",
"3  c #72383B",
"4  c #793439",
"5  c #6A413F",
"6  c #4D3C43",
"7  c #553C43",
"8  c #5B3B43",
"9  c #543F48",
"0  c #643C43",
"q  c #6D3943",
"w  c #733C43",
"e  c #53424A",
"r  c #5C434C",
"t  c #554347",
"y  c #5B4A54",
"u  c #5C4B57",
"i  c #5C515D",
"p  c #4E4247",
"a  c #63434B",
"s  c #6A434A",
"d  c #684648",
"f  c #74444B",
"g  c #7B434C",
"h  c #724846",
"j  c #644B51",
"k  c #664955",
"l  c #724B53",
"z  c #784A56",
"x  c #67555F",
"c  c #775659",
"v  c #645969",
"b  c #7A5866",
"n  c #6F5F73",
"m  c #786566",
"M  c #7A6A7A",
"N  c #6D6B79",
"B  c #5D5562",
"V  c #9A1D1F",
"C  c #8F1E20",
"Z  c #A21E21",
"A  c #872629",
"S  c #992527",
"D  c #842F31",
"F  c #8A383A",
"G  c #9A3739",
"H  c #9B2F31",
"J  c #A42528",
"K  c #B5292A",
"L  c #A7363A",
"P  c #BC3333",
"I  c #B63838",
"U  c #B02F31",
"Y  c #C82B28",
"T  c #C8302D",
"R  c #D4342D",
"E  c #C33A37",
"W  c #D73B32",
"Q  c #E03D31",
"!  c #B8423D",
"~  c #AE413F",
"^  c #C8413F",
"/  c #DA463B",
"(  c #E34939",
")  c #8E3E46",
"_  c #A83A45",
"`  c #AC3E51",
"'  c #884449",
"]  c #974647",
"[  c #88524E",
"{  c #894A5C",
"}  c #974959",
"|  c #985257",
" . c #8D5852",
".. c #A74647",
"X. c #B64846",
"o. c #A94955",
"O. c #B84957",
"+. c #A35759",
"@. c #B45758",
"#. c #AE5148",
"$. c #8B625C",
"%. c #96675C",
"&. c #AC6459",
"*. c #964F62",
"=. c #875868",
"-. c #975768",
";. c #8E5C71",
":. c #A75666",
">. c #A75A76",
",. c #AE536C",
"<. c #856969",
"1. c #876579",
"2. c #95687A",
"3. c #987C7B",
"4. c #927170",
"5. c #A57465",
"6. c #AE6E68",
"7. c #C84948",
"8. c #CB554D",
"9. c #DC5748",
"0. c #CD504D",
"q. c #E15644",
"w. c #D86959",
"e. c #D5634F",
"r. c #EA644C",
"t. c #F1694A",
"y. c #EA755A",
"u. c #EE7456",
"i. c #C77667",
"p. c #DA776A",
"a. c #E87B63",
"s. c #C35D70",
"d. c #9D817C",
"f. c #A98375",
"g. c #C48875",
"h. c #C79379",
"j. c #D5896F",
"k. c #EC8869",
"l. c #F29978",
"z. c #F49366",
"x. c #F7A86B",
"c. c #F4A67A",
"v. c #F9B36E",
"b. c #977186",
"n. c #946D83",
"m. c #A17882",
"M. c #AA7991",
"N. c #7D808E",
"B. c #A59694",
"V. c #B09287",
"C. c #A58EA6",
"Z. c #B5ABAA",
"A. c #B5A0B5",
"S. c #918C9F",
"D. c #D49787",
"F. c #EA9A86",
"G. c #D9B496",
"H. c #D1AB91",
"J. c #EDA786",
"K. c #F3A785",
"L. c #F4B685",
"P. c #E9AC95",
"I. c #EAB899",
"U. c #EEB089",
"Y. c #E4A8A0",
"T. c #F9CD89",
"R. c #FAD689",
"E. c #F4C797",
"W. c #FADC94",
"Q. c #FADB9A",
"!. c #F8D399",
"~. c #EEC19A",
"^. c #FAE394",
"/. c #FAE29C",
"(. c #FAEB9D",
"). c #FAEA97",
"_. c #FAF29D",
"`. c #EFCEA6",
"'. c #F9DAA3",
"]. c #F6D5AC",
"[. c #F8DDAC",
"{. c #F7D5A7",
"}. c #EAC7B4",
"|. c #F6DBB4",
" X c #F7DAB8",
".X c #F1CEAF",
"XX c #FAE4A4",
"oX c #FAECA3",
"OX c #F9E4AB",
"+X c #FAECAB",
"@X c #FAF2A5",
"#X c #FAF3AC",
"$X c #F9E4B4",
"%X c #FAECB4",
"&X c #F8E4BB",
"*X c #F9EBBC",
"=X c #F7E2BB",
"-X c #FAF3B3",
";X c #FAF4BB",
":X c #CFB6CF",
">X c #DDD3D2",
",X c #DAD6D6",
"<X c #D7C9CC",
"1X c #E4D8CC",
"2X c #E6DDD9",
"3X c #EBD1C7",
"4X c #F9E5C2",
"5X c #F9ECC4",
"6X c #F8E6CA",
"7X c #F9ECCB",
"8X c #F7E3C9",
"9X c #FAF4C4",
"0X c #FAF4CB",
"qX c #F9ECD3",
"wX c #F5ECDC",
"eX c #F9EDDB",
"rX c #F4E7D2",
"tX c #FAF5D4",
"yX c #FAF6DB",
"uX c #FAF8DC",
"iX c #F9F5D9",
"pX c #EAE3D2",
"aX c #E9E3E6",
"sX c #F5ECE6",
"dX c #F6F2E2",
"fX c #FAF6E3",
"gX c #FAF8E4",
"hX c #F9F5EB",
"jX c #FAF8EB",
"kX c #FAF9F3",
"lX c #FAF7F3",
"zX c None",
/* pixels */
"zXzXzXzXzXzXzXzXzXzXzXzXzXzXzXzXzXzXzXzXzXzXzXzXzXzXzXzXzXzXzXzXzXzXzXzXzXzXzXzXzXzXzXzXzXzXzXzXzXzXzXzXzXzXzXzXzXzXzXzXzXzXzXzX",
"zXzXzXzXzXzXzXzXzXzXzXzXzXzXzXzXzXzXzXzXzXzXzXzXzXzXzXzXzXzXzXzXzXzXzXzXzXzXzXzXzXzXzXzXzXzXzXzXzXzXzXzXzXzXzXzXzXzXzXzXzXzXzXzX",
"zXzXzXzXzXzXzXzXzXzXzXzXzXzXzXzXzXzXzXzXzXzXzXzXzXzXzXzXzXzXzXzXzXzXzXzXzXzXzXzXzXzXzXzXzXzXzXzXzXzXzXzXzXzXzXzXzXzXzXzXzXzXzXzX",
"zXzXzXzXzXzXzXzXzXzXzXzXzXzXzXzXzXzXzXzXzXzXzXzXzXzXzXzXzXzXzXzXzXzXzXzXzXzXzXzXzXzXzXzXzXzXzXzXzXzXzXzXzXzXzXzXzXzXzXzXzXzXzXzX",
"zXzXzXzXzXzXzXzXzXzXzXzXzXzXzXzXzXzXzXzXzXzXzXzXzXzXzXzXzXzXzXzXzXzXzXzXzXzXzXzXzXzXzXzXzXzXzXzXzXzXzXzXzXzXzXzXzXzXzXzXzXzXzXzX",
"zXzXzXzXzXzXzXzXzXzXzXzXzXzXzXzXzXzXzXzXzXzXzXzXzXzXzXzXzXzXzXzXzXB.H.I.I.I.J.z.p.i.6.zXzXzXzXzXzXzXzXzXzXzXzXzXzXzXzXzXzXzXzXzX",
"zXzXzXzXzXzXzXzXzXzXzXzXzXzXzXzXzXzXzXzXzXzXzXzXzXzXzXzXzXzXV.G.}.pXwXrXrX8X XK.k.j.6.5.5.zXzXzXzXzXzXzXzXzXzXzXzXzXzXzXzXzXzXzX",
"zXzXzXzXzXzXzXzXzXzXzXzXzXzXzXzXzXzXzXzXzXzXzXzXzXzXzXzXzXH.<XpXiXgXfXdXiX0X%X{.{.I.h.5.$.5.f.d.<.m zXzXzXzXzXzXzXzXzXzXzXzXzXzX",
"zXzXzXzXzXzXzXzXzXzXzXzXzXzXzXzXzXzXzXzXzXzXzXzXzXzXzXZ.pXrXiXiXiXtX0X0X9X-X-X;X0X7X].h.%.$.$.4.5.$.l zXzXzXzXzXzXzXzXzXzXzXzXzX",
"zXzXzXzXzXzXzXzXzXzXzXzXzXzXzXzXzXzXzXzXzXzXzXzXzXzX<XaXdXtX9X9X;X%X-X@X@X#X#X-X9XtXtX~.j.| [ $.f.V.<.zXzXzXzXzXzXzXzXzXzXzXzXzX",
"zXzXzXzXzXzXzXzXzXzXzXzXzXzXzXzXzXzXzXzXzXzXzXzXZ.1XeXiX0X%X+X%X/.).^.)._._.#X;X9X0X0XOXc.e.! ~ %.f.d.m <.<.zXzXzXzXzXzXzXzXzXzX",
"zXzXzXzXzXzXzXzXzXzXzXzXzXzXzXzXzXzXzXzXzXzXzXZ.2XdX7X%XoXW./.XX/.R.^.@X@X@X#X;X9X9X9X%X!.y./ P I 6.b.x j l l zXzXzXzXzXzXzXzXzX",
"zXzXzXzXzXzXzXzXzXzXzXzXzXzXzXzXzXzXzXzXzXzXZ.2XdX9X/.W.R.W.Q.XX^.R.oX-X-X#X-X9X0X9X9X-X%XK.9.~ ] O.>.-.0 q s zXzXzXzXzXzXzXzXzX",
"zXzXzXzXzXzXzXzXzXzXzXzXzXzXzXzXzXzXzXzXzXZ.pXwX7XOXW.R.T.W.Q.^.).(.#X-X#X;XtXtXtXtX9X-X%X{.k.#.] | :.:.g 4 2 zXzXzXzXzXzXzXzXzX",
"zXzXzXzXzXzXzXzXzXzXzXzXzXzXzXzXzXzXzXzXZ.2XiX0X%XOXW.R.R.!.Q.XX%X5X#X#X;XtXuXtXtXuXtX9X%X|.l.O...' | ,.} w w f zXzXzXzXzXzXzXzX",
"zXzXzXzXzXzXzXzXzXzXzXzXzXzXzXzXzXzXzXzX>XqX%XXXXXOX[.Q.R.W./.%X0X9X-X-X0XjXuXuXuX0XtXtX*X=XF.8.o.] _ O.>.1.l c zXzXzXzXzXzXzXzX",
"zXzXzXzXzXzXzXzXzXzXzXzXzXzXzXzXzXzXzX<XdX*XQ.Q.$X7XqXqX&X$X*XtX0X9X;X;XuXgXtXuXuX0XuXuX9X XF.e.....X.O.,.=.u v x zXzXzXzXzXzXzX",
"zXzXzXzXzXzXzXzXzXzXzXzXzXzXzXzXzXzX<XwX0XOX[. X6X7X5XtXfXfXiXtXtX9X9X0XgXtX0XuXuXuXgXtX9X4XK.q.I I L @.n.z 9 9 u k zXzXzXzXzXzX",
"zXzXzXzXzXzXzXzXzXzXzXzXzXzXzXzXzXzXpXtX%X=X4X6X5X$XXX*X9X0X;X0XuX0X9XuXgXuXuXuXuXuXgXiX0X=XK.q.T U L :.n.w 6 7 9 r zXzXzXzXzXzX",
"zXzXzXzXzXzXzXzXzXzXzXzXzXzXzXzXzX2XeX5X4XqX X=X*X+X*X;X;X9X;X0XgXuXtXgXgXuXgXuXuXgXjXgX0X[.l.q.E I G } ,.b 7 8 0 k zXzXzXzXzXzX",
"zXzXzXzXzXzXzXzXzXzXzXzXzXzXzXzX<XeX4X=X8X7X4X[.%X;X9X0X9X0XtXuXjXjXjXjXuXgXuXuXuXgXkXjX9X[.l.9.E I L } >.b 9 8 8 a zXzXzXzXzXzX",
"zXzXzXzXzXzXzXzXzXzXzXzXzXzXzXzX2X0X5X6X6X X6X*X*X0XtXtX0XgXiXgXgXjXkXgXgXgXuXuXuXjXkXjX9X[.l.( Y P P ` ,.1.v 9 0 0 zXzXzXzXzXzX",
"zXzXzXzXzXzXzXzXzXzXzXzXzXzXzX,XsX5X4XqX=X=X5X5XqXeXyXgXtXgXuXgXfXhXkXuXgXjXtXuXuXjXkXuX%X{.k./ Y K U o.>.1.N v k k zXzXzXzXzXzX",
"zXzXzXzXzXzXzXzXzXzXzXzXzXzXzXaXiX7XqX6X X4X7XfXsXfXfXtXgXuXjXgXgXyXhXiX0XuX0XuXjXjXkXuXXXE.y.W Y K G } >.M B v v x c zXzXzXzXzX",
"zXzXzXzXzXzXzXzXzXzXzXzXzXzX,XfXqXwXwXqXeXqXyXgXtXgXgXtXuXuXjXiXiX0XqX0X;X0XuXjXjXjXlXuXOXE.p.R Y U ) =.-.i e y i v n zXzXzXzXzX",
"zXzXzXzXzXzXzXzXzXzXzXzXzXzX2XtX0XeXeXqX7X0XfXiXtXjXjXfXiXiXuXiX9X9X0X0X0XgXjXjXgXjXlXgX$XL.r.R T L z n =.u e 9 r r v zXzXzXzXzX",
"zXzXzXzXzXzXzXzXzXzXzXzXzXaXdX7XqXqX6XqX5XuXgX0XtXjXjXuXtXuX9X0X0X0XuXgXjXjXgXuXgXlXkXfX Xl.( R I ) z n b e 9 0 w h zXzXzXzXzXzX",
"zXzXzXzXzXzXzXzXzXzXzXzXzXaXiX5XyXeX=X%X7XuXuX9X0XuXfX0XiXfXtXuXgXgXjXgXuXuXuXuXjXkXkXiX{.k.W R E ) x =.b y 9 q q h zXzXzXzXzXzX",
"zXzXzXzXzXzXzXzXzXzXzXzXzXaX7X&XdXeX6X*X*X0X9X0XiXuXfXtXfXhXjXjXgXyX9X;X9XuXuXgXkXkXkX0XE.t.R T P ' n -.=.u 7 q w g zXzXzXzXzXzX",
"zXzXzXzXzXzXzXzXzXzXzXzX>XdX%XQ.4XqX*X+X@X#X9XuXuXgXfXgXfXfXuX9X-X-X+X;XtXuXgXgXkXkXgX6XI.w.E ^ o.=.<.:.;.v 9 q q l zXzXzXzXzXzX",
"zXzXzXzXzXzXzXzXzXzXzXzX,XdXOXT.T.!.OX-X;X0XuXuXuXiXfXuX0X;X0X;X@X-X7X0XuXuXgXkXkXkXtX|.D.&.| } *.2.V.2.1.n n h s a zXzXzXzXzXzX",
"zXzXzXzXzXzXzXzXzXzXzXA.2XiX'.T.!.'.&XyXjXgXtXuX0X;X0XiXtXiXjXgXyXiXfXuXuXuXgXkXkXjXtX`.h.$.m =.;.n.2.z r i N 1.{ g zXzXzXzXzXzX",
"zXzXzXzXzXzXzXzXzXzXzX:XaX5X'.T.!.6XjXlXgXiX9X;X;X9XtXiX0X@X-XuXjXjXfX0XtXuXgXkXkXuX7XG.5.m M b.b.2.{ r 6 6 p k { [ zXzXzXzXzXzX",
"zXzXzXzXzXzXzXzXzXzXzX3XsX0XXX|.eXhXhXyX7X9X9X9X0XiX9X9X;X(._.-XfXtXtXuXtXuXjXkXjX5X|.D.m N N.S.C.1.z 7 e e 9 7 r zXzXzXzXzXzXzX",
"zXzXzXzXzXzXzXzXzXzXzX2XhXqX=XeXlXfXqX4X9X9X9X0XiX0XuX0X;X_._.9XeXiXiXgXgXgXkXkXtX[.G.f.m N S.C.M.{ k t y r a d zXzXzXzXzXzXzXzX",
"zXzXzXzXzXzXzXzXzXzXzX1XfX4X7XhXhX5X%X+X-X9X0XuXuXtX9X9X-X#X-XuX0XiXgXjXkXkXkXgX=XE.h.%.c c d.3.:.{ k r d d j s zXzXzXzXzXzXzXzX",
"zXzXzXzXzXzXzXzXzXzXzX2XyXOX5XlXqX|.+X#X#X9XuXuX9XtX9X;X-X-X0XgXiXgXjXlXkXjXuX*X{.J.6. .[ } -.*.} { 0 9 9 w z c zXzXzXzXzXzXzXzX",
"zXzXzXzXzXzXzXzXzXzXB.1XyX%XOXdXeX$X+X@X#X0XuX0X;X9X;XtX0X0XjXuXgXjXjXkXkXuX9X'.J.g.@.#.| :.o._ _ ) w 0 9 0 f zXzXzXzXzXzXzXzXzX",
"zXzXzXzXzXzXzXzXzXzXB.1XfX5X/.[.6X%X+X_.-XuXuX0XuX0X9XtX0XtXgXuXkXkXkXkXkXqX'.L.a.0.X.+.:.:._ Z J _ *.;.z 8 q zXzXzXzXzXzXzXzXzX",
"zXzXzXzXzXzXzXzXzXzXB.1XfX9X/./.XX+X%X;XtXgXgXgXuXiXeXqXtXjXuXjXkXkXkXjXgX&XT.k.9.^ 0.O.` G F D = : ) *.n.} q zXzXzXzXzXzXzXzXzX",
"zXzXzXzXzXzXzXzXzXzXzX>XfX;X^.^.oX+X-X0XuXgXuXgXuXjXuXuXuXjXjXjXkXkXkXgXqX].l.q.7.7.s.O.U C D 1 # @ + , ' *.=.zXzXzXzXzXzXzXzXzX",
"zXzXzXzXzXzXzXzXzXzXzX3XsX0X).^.oX+X-XtXgXuXtXtXjXjXtX0XuXkXjXkXkXjXuXqX].K.u.q.7.0.` _ Z S : % 7 % % @ $ c zXzXzXzXzXzXzXzXzXzX",
"zXzXzXzXzXzXzXzXzXzXzX}.sXfX-X(.@X-X9XuXjXtX0XuXjXkXtX9XuXjXjXjXlXuX7X{.x.t.( 7.0.` U Z Z A 1 9 0 q q 8 u zXzXzXzXzXzXzXzXzXzXzX",
"zXzXzXzXzXzXzXzXzXzXzXG.8XdX-X_.@X-X9XuXjXgXtX0XuXgXtXtXtXgXjXjXfX5X{.K.k.( ^ E ^ L Z Z V - 8 9 s w g l zXzXzXzXzXzXzXzXzXzXzXzX",
"zXzXzXzXzXzXzXzXzXzXzXzX}.0X;X_.@X#X;XtXuXtX9X0XtXtXuXuXtXtXuXtX$X'.L.k.r.R Y E U Z Z Z A q 9 9 k f z zXzXzXzXzXzXzXzXzXzXzXzXzX",
"zXzXzXzXzXzXzXzXzXzXzXzXH.|.;X@X_.#X;X9X0X-X#X0XtXuXuXuXtX9X*X[.E.c.j.e./ Y K J G S V C w k u 9 0 l c zXzXzXzXzXzXzXzXzXzXzXzXzX",
"zXzXzXzXzXzXzXzXzXzXzXzXB.I.OX;X(._.-X9X;X-X-XtXuXuXiXtX0X5X].E.U.j.5.#.U J F 2 D ; * O + 9 u u y j zXzXzXzXzXzXzXzXzXzXzXzXzXzX",
"zXzXzXzXzXzXzXzXzXzXzXzXzXh.L.XX+X@X#X-X-X#X-X9X9XtXtX0X*X$X X.XP.i.&.[ F 4 1 2 = o X       6 q g z zXzXzXzXzXzXzXzXzXzXzXzXzXzX",
"zXzXzXzXzXzXzXzXzXzXzXzXzXg.k.L./.+X#X@XoX+X@X+X-X9X5X&X X].8X}.j.&.] 5 0 < > 2 $ # @ @ X X . , ' zXzXzXzXzXzXzXzXzXzXzXzXzXzXzX",
"zXzXzXzXzXzXzXzXzXzXzXzXzXzXi.k.c.T.W.^.Q.Q.W.R.!.'.{.|.].P.Y.p.7.] F , , - = $ @ # % o * & $ a zXzXzXzXzXzXzXzXzXzXzXzXzXzXzXzX",
"zXzXzXzXzXzXzXzXzXzXzXzXzXzXzXp.y.k.x.v.v.v.x.z.x.c.l.P.D.w.9.I K A ; & ; ; $ 6 p 7 $ > : 3 zXzXzXzXzXzXzXzXzXzXzXzXzXzXzXzXzXzX",
"zXzXzXzXzXzXzXzXzXzXzXzXzXzXzXzXw.r.r.t.t.u.t.t.r.w.9.8.@.I U L H C ; * * + # 7 $ $ t < h zXzXzXzXzXzXzXzXzXzXzXzXzXzXzXzXzXzXzX",
"zXzXzXzXzXzXzXzXzXzXzXzXzXzXzXzXzXi.e.( ( ( Q ( 0.X.X.P L H D D - C * X       > - 3 8 j zXzXzXzXzXzXzXzXzXzXzXzXzXzXzXzXzXzXzXzX",
"zXzXzXzXzXzXzXzXzXzXzXzXzXzXzXzXzXzXb.@.! ! ! ! G F F H S S - = = * X   X X . O ; A ' zXzXzXzXzXzXzXzXzXzXzXzXzXzXzXzXzXzXzXzXzX",
"zXzXzXzXzXzXzXzXzXzXzXzXzXzXzXzXzXzXzXd. .' 5 5 5 4 2 - C ; = & $ # @ @ O * * o > A ' zXzXzXzXzXzXzXzXzXzXzXzXzXzXzXzXzXzXzXzXzX",
"zXzXzXzXzXzXzXzXzXzXzXzXzXzXzXzXzXzXzXzXzXb < 3 F D = O X .   + 7 p 6 # % o , h zXzXzXzXzXzXzXzXzXzXzXzXzXzXzXzXzXzXzXzXzXzXzXzX",
"zXzXzXzXzXzXzXzXzXzXzXzXzXzXzXzXzXzXzXzXzXzXc + $ 2 2 & @   . O o 7 p 7 7 j zXzXzXzXzXzXzXzXzXzXzXzXzXzXzXzXzXzXzXzXzXzXzXzXzXzX",
"zXzXzXzXzXzXzXzXzXzXzXzXzXzXzXzXzXzXzXzXzXzXzXg < l $.g > . o & = 3 s j x zXzXzXzXzXzXzXzXzXzXzXzXzXzXzXzXzXzXzXzXzXzXzXzXzXzXzX",
"zXzXzXzXzXzXzXzXzXzXzXzXzXzXzXzXzXzXzXzXzXzXzXzXzXzXzX4.' > a zXzXzXzXzXzXzXzXzXzXzXzXzXzXzXzXzXzXzXzXzXzXzXzXzXzXzXzXzXzXzXzXzX",
"zXzXzXzXzXzXzXzXzXzXzXzXzXzXzXzXzXzXzXzXzXzXzXzXzXzXzXzX1.m zXzXzXzXzXzXzXzXzXzXzXzXzXzXzXzXzXzXzXzXzXzXzXzXzXzXzXzXzXzXzXzXzXzX",
"zXzXzXzXzXzXzXzXzXzXzXzXzXzXzXzXzXzXzXzXzXzXzXzXzXzXzXzXzXzXzXzXzXzXzXzXzXzXzXzXzXzXzXzXzXzXzXzXzXzXzXzXzXzXzXzXzXzXzXzXzXzXzXzX",
"zXzXzXzXzXzXzXzXzXzXzXzXzXzXzXzXzXzXzXzXzXzXzXzXzXzXzXzXzXzXzXzXzXzXzXzXzXzXzXzXzXzXzXzXzXzXzXzXzXzXzXzXzXzXzXzXzXzXzXzXzXzXzXzX",
"zXzXzXzXzXzXzXzXzXzXzXzXzXzXzXzXzXzXzXzXzXzXzXzXzXzXzXzXzXzXzXzXzXzXzXzXzXzXzXzXzXzXzXzXzXzXzXzXzXzXzXzXzXzXzXzXzXzXzXzXzXzXzXzX",
"zXzXzXzXzXzXzXzXzXzXzXzXzXzXzXzXzXzXzXzXzXzXzXzXzXzXzXzXzXzXzXzXzXzXzXzXzXzXzXzXzXzXzXzXzXzXzXzXzXzXzXzXzXzXzXzXzXzXzXzXzXzXzXzX"
};
