/* XPM */
static char *result[] = {
/* columns rows colors chars-per-pixel */
"64 64 217 2 ",
"   c #3F2A2D",
".  c #452C2C",
"X  c #4A2E2D",
"o  c #532D2D",
"O  c #5B2D2C",
"+  c #4E302E",
"@  c #51312E",
"#  c #442E31",
"$  c #482E30",
"%  c #463134",
"&  c #4C3333",
"*  c #46353B",
"=  c #4B363A",
"-  c #4C393D",
";  c #47393E",
":  c #533433",
">  c #5B3533",
",  c #553936",
"<  c #5C3936",
"1  c #543B3B",
"2  c #5C3D3A",
"3  c #553638",
"4  c #6D2D2C",
"5  c #652E2E",
"6  c #722C2D",
"7  c #7A2829",
"8  c #65312F",
"9  c #69312F",
"0  c #6F2F30",
"q  c #633532",
"w  c #6B3533",
"e  c #643A36",
"r  c #6B3A36",
"t  c #633D3B",
"y  c #6C3C3B",
"u  c #623739",
"i  c #743534",
"p  c #723D3C",
"a  c #7C3B3C",
"s  c #753836",
"d  c #792F30",
"f  c #5B413D",
"g  c #63413C",
"h  c #6C423D",
"j  c #73443E",
"k  c #7D423F",
"l  c #4C3C42",
"z  c #473B43",
"x  c #533E43",
"c  c #5A3E42",
"v  c #683D41",
"b  c #783D40",
"n  c #4C4146",
"m  c #4E454B",
"M  c #544244",
"N  c #5B4244",
"B  c #53434A",
"V  c #5B454B",
"C  c #54494E",
"Z  c #5B494D",
"A  c #5B4C54",
"S  c #544E55",
"D  c #5E5157",
"F  c #644443",
"G  c #6B4543",
"H  c #6B4A44",
"J  c #644A4B",
"K  c #6C4C4A",
"L  c #644748",
"P  c #724544",
"I  c #7C4444",
"U  c #744A44",
"Y  c #7B4D45",
"T  c #744D49",
"R  c #7C4D49",
"E  c #724448",
"W  c #6D504D",
"Q  c #75534B",
"!  c #7B544D",
"~  c #765147",
"^  c #634D52",
"/  c #6C4B51",
"(  c #714E50",
")  c #615157",
"_  c #6C5352",
"`  c #63545B",
"'  c #6A5B5E",
"]  c #7C5A54",
"[  c #7A5C58",
"{  c #7B625F",
"}  c #5D5D61",
"|  c #675D64",
" . c #67666B",
".. c #6E666F",
"X. c #B8191B",
"o. c #A91B1E",
"O. c #B51D21",
"+. c #AB1F24",
"@. c #842C2C",
"#. c #97292B",
"$. c #8B3334",
"%. c #823B3A",
"&. c #8C3B3C",
"*. c #843437",
"=. c #943235",
"-. c #9B3C3E",
";. c #983639",
":. c #912E30",
">. c #AB2529",
",. c #A42D2E",
"<. c #A82829",
"1. c #B2292B",
"2. c #B82D35",
"3. c #A83335",
"4. c #B73A3C",
"5. c #A62C32",
"6. c #C01417",
"7. c #C72A28",
"8. c #D42B27",
"9. c #D9332D",
"0. c #CB3734",
"q. c #CD3332",
"w. c #E22C24",
"e. c #E8362B",
"r. c #86423F",
"t. c #A1423F",
"y. c #CA433B",
"u. c #DB4A3E",
"i. c #E84E3D",
"p. c #983E41",
"a. c #803D43",
"s. c #B83F44",
"d. c #854442",
"f. c #8A4343",
"g. c #894E49",
"h. c #8A4948",
"j. c #944443",
"k. c #9A4B4B",
"l. c #974C49",
"z. c #81544C",
"x. c #89524A",
"c. c #86564C",
"v. c #94554D",
"b. c #9D554E",
"n. c #865952",
"m. c #935C54",
"M. c #9D5B53",
"N. c #9B5451",
"B. c #AA4846",
"V. c #B54C44",
"C. c #A6554D",
"Z. c #A45551",
"A. c #A95C53",
"S. c #A65B56",
"D. c #B25856",
"F. c #BB4F4F",
"G. c #876259",
"H. c #986257",
"J. c #A7655B",
"K. c #B8665B",
"L. c #896E67",
"P. c #986864",
"I. c #997369",
"U. c #9D7771",
"Y. c #A96864",
"T. c #B66962",
"R. c #A17565",
"E. c #AD776D",
"W. c #B37467",
"Q. c #AF7D76",
"!. c #C44A45",
"~. c #DE4E40",
"^. c #C9554A",
"/. c #DC5748",
"(. c #C85D53",
"). c #D35A52",
"_. c #C76858",
"`. c #D76857",
"'. c #E86D57",
"]. c #CB7266",
"[. c #C3766A",
"{. c #D57768",
"}. c #C46E65",
"|. c #9C8276",
" X c #A9827B",
".X c #B68475",
"XX c #C38B74",
"oX c #C69477",
"OX c #DA8873",
"+X c #E48C7A",
"@X c #B78E86",
"#X c #B5988A",
"$X c #AF958B",
"%X c #ADA096",
"&X c #BBB3AC",
"*X c #C58D84",
"=X c #C7988A",
"-X c #D49785",
";X c #C69E92",
":X c #E89A84",
">X c #CCA496",
",X c #D4AA97",
"<X c #E4AB95",
"1X c #CCB8AA",
"2X c #DAB6A6",
"3X c #C4B7B5",
"4X c #D1AEA0",
"5X c #E8BBA7",
"6X c #E0BFB1",
"7X c #DEC8B9",
"8X c #E7C3AD",
"9X c #E5C9BC",
"0X c #EDD2BC",
"qX c #D6CCC3",
"wX c #DAD2CB",
"eX c #E8D5C5",
"rX c None",
/* pixels */
"rXrXrXrXrXrXrXrXrXrXrXrXrXrXrXrXrXrXrXrXrXrXrXrXrXrXrXrXrXrXrXrXrXrXrXrXrXrXrXrXrXrXrXrXrXrXrXrXrXrXrXrXrXrXrXrXrXrXrXrXrXrXrXrX",
"rXrXrXrXrXrXrXrXrXrXrXrXrXrXrXrXrXrXrXrXrXrXrXrXrXrXrXrXrXrXrXrXrXrXrXrXrXrXrXrXrXrXrXrXrXrXrXrXrXrXrXrXrXrXrXrXrXrXrXrXrXrXrXrX",
"rXrXrXrXrXrXrXrXrXrXrXrXrXrXrXrXrXrXrXrXrXrXrXrXrXrXrXrXrXrXrXrXrXrXrXrXrXrXrXrXrXrXrXrXrXrXrXrXrXrXrXrXrXrXrXrXrXrXrXrXrXrXrXrX",
"rXrXrXrXrXrXrXrXrXrXrXrXrXrXrXrXrXrXrXrXrXrXrXrXrXrXrXrXrXrXrXrXrXrXrXrXrXrXrXrXrXrXrXrXrXrXrXrXrXrXrXrXrXrXrXrXrXrXrXrXrXrXrXrX",
"rXrXrXrXrXrXrXrXrXrXrXrXrXrXrXrXrXrXrXrXrXrXrXrXrXrXrXrXrXrXrXrXrXrXrXrXrXrXrXrXrXrXrXrXrXrXrXrXrXrXrXrXrXrXrXrXrXrXrXrXrXrXrXrX",
"rXrXrXrXrXrXrXrXrXrXrXrXrXrXrXrXrXrXrXrXrXrXrXrXrXrXrXrXrXrXrXrXrXrXrXrXrXrXrXrXrXrXrXrXrXrXrXrXrXrXrXrXrXrXrXrXrXrXrXrXrXrXrXrX",
"rXrXrXrXrXrXrXrXrXrXrXrXrXrXrXrXrXrXrXrXrXrXrXrXrXrXrXrXrXrXrXrXrXrXrXrXrXrXrXrXrXrXrXrXrXrXrXrXrXrXrXrXrXrXrXrXrXrXrXrXrXrXrXrX",
"rXrXrXrXrXrXrXrXrXrXrXrXrXrXrXrXrXrXrXrXrXrXrXrXrXrXrXrXrXrXrXrXrXrXrXrXrXrXrXrXrXrXrXrXrXrXrXrXrXrXrXrXrXrXrXrXrXrXrXrXrXrXrXrX",
"rXrXrXrXrXrXrXrXrXrXrXrXrXrXrXrXrXrXrXrXrXrXrXrXrXrXrXrXrXrXrXrXrXrXrXrXrXrXrXrXrXrXrXR.E.*X;X%XrXrXrXrXrXrXrXrXrXrXrXrXrXrXrXrX",
"rXrXrXrXrXrXrXrXrXrXrXrXrXrXrXrXrXrXrXrXrXrXrXrXrXrXrXrXrXrXrXrXrXrXrXrXrXrXrXrXrXW.Y.Z.B.D.}.-X>XrXrXrXrXrXrXrXrXrXrXrXrXrXrXrX",
"rXrXrXrXrXrXrXrXrXrXrXrXrXrXrXrXrXrXrXrXrXrXrXrXrXrXrXrXrXrXrXrXrXrXrXrXrXrXrXR.m.c.! -.5.s.F.T.Q.@XrXrXrXrXrXrXrXrXrXrXrXrXrXrX",
"rXrXrXrXrXrXrXrXrXrXrXrXrXrXrXrXrXrXrXrXrXrXrXrXrXrXrXrXrXrXrXrXrXrXrXrXrX XL.Q K F k =.$.p.s.l.( _ ( rXrXrXrXrXrXrXrXrXrXrXrXrX",
"rXrXrXrXrXrXrXrXrXrXrXrXrXrXrXrXrXrXrXrXrXrXrXrXrXrXrXrXrXrXrXrXrXrXrX|.R.G._ N b *.$.b N v %.p.I t & l rXrXrXrXrXrXrXrXrXrXrXrX",
"rXrXrXrXrXrXrXrXrXrXrXrXrXrXrXrXrXrXrXrXrXrXrXrXrXrXrXrXrXrXrXrXrXrX.XI.] H p @.#.;.a M n - : u b d.a 5 O 1 rXrXrXrXrXrXrXrXrXrX",
"rXrXrXrXrXrXrXrXrXrXrXrXrXrXrXrXrXrXrXrXrXrXrXrXrXrXrXrXrXrXrXrX$XXX_.v.Z h =.#.;.b P M ; % $ & 3 s $.@.0 u 3 < rXrXrXrXrXrXrXrX",
"rXrXrXrXrXrXrXrXrXrXrXrXrXrXrXrXrXrXrXrXrXrXrXrXrXrXrXrXrXrXrX$X.X).t.=.a &.k P J A N f = X O O O q i i t u : & c rXrXrXrXrXrXrX",
"rXrXrXrXrXrXrXrXrXrXrXrXrXrXrXrXrXrXrXrXrXrXrXrXrXrXrXrXrXrX#XXX_.2.O.+.#.a.J B m m M N j 9 4 4 6 i j h f 1 : : M rXrXrXrXrXrXrX",
"rXrXrXrXrXrXrXrXrXrXrXrXrXrXrXrXrXrXrXrXrXrXrXrXrXrXrXrXrX#XoXJ.t.+.O.>.@.c l z - = 1 t a r.k j i I z.h , : & & M rXrXrXrXrXrXrX",
"rXrXrXrXrXrXrXrXrXrXrXrXrXrXrXrXrXrXrXrXrXrXrXrXrXrXrXrX;XOX(.4.,.+.o.#.v x - % @ > > e y I j g e P Y y < : : = rXrXrXrXrXrXrXrX",
"rXrXrXrXrXrXrXrXrXrXrXrXrXrXrXrXrXrXrXrXrXrXrXrXrXrXrX>X+X).7.X.X.X.=.b c l * o O 4 6 i p G g < < g h e f 1 1 N rXrXrXrXrXrXrXrX",
"rXrXrXrXrXrXrXrXrXrXrXrXrXrXrXrXrXrXrXrXrXrXrXrXrXrX,X+X/.s.2.O.1.t.! P N n - O 4 7 @.i r g g j h < , @ , , f rXrXrXrXrXrXrXrXrX",
"rXrXrXrXrXrXrXrXrXrXrXrXrXrXrXrXrXrXrXrXrXrXrXrXrX4X<X_.q.2.1.3.-.T G g F N N t 6 7 i s f < j x.U , X X + < g rXrXrXrXrXrXrXrXrX",
"rXrXrXrXrXrXrXrXrXrXrXrXrXrXrXrXrXrXrXrXrXrXrXrX1X<X[.l.2.+.5.f.v l x x L ) W K F t c u e e Y c.j e @ X # - rXrXrXrXrXrXrXrXrXrX",
"rXrXrXrXrXrXrXrXrXrXrXrXrXrXrXrXrXrXrXrXrXrXrX1X5X{.Z.a.1.5.g.L x l x 1 F _ ] ! c = 3 u q g U j g g , & ; rXrXrXrXrXrXrXrXrXrXrX",
"rXrXrXrXrXrXrXrXrXrXrXrXrXrXrXrXrXrXrXrXrXrX1X8X+Xq.1.,.,.G.' l z & 3 3 2 K Q F & : f f , , g e 2 f 1 - C rXrXrXrXrXrXrXrXrXrXrX",
"rXrXrXrXrXrXrXrXrXrXrXrXrXrXrXrXrXrXrXrXrX3X7X-X!.6.X.<.f.` M % # : 2 < y P F , X , f f f : @ + : 2 f V rXrXrXrXrXrXrXrXrXrXrXrX",
"rXrXrXrXrXrXrXrXrXrXrXrXrXrXrXrXrXrXrXrX3X7X>XJ.3.>.,.g.Q D B = $ : q w y h 2 : + 1 f j h @ X . X : M D rXrXrXrXrXrXrXrXrXrXrXrX",
"rXrXrXrXrXrXrXrXrXrXrXrXrXrXrXrXrXrXrX&X7X4XI.n.j.;.R A C ' ' L 3 O q p u @ & @ : , h U g , + + # + f rXrXrXrXrXrXrXrXrXrXrXrXrX",
"rXrXrXrXrXrXrXrXrXrXrXrXrXrXrXrXrXrX&XeX7X Xm.d.h./ B l B _ L.{ U w 8 u : % + @ @ , h h , - 1 ; ; m rXrXrXrXrXrXrXrXrXrXrXrXrXrX",
"rXrXrXrXrXrXrXrXrXrXrXrXrXrXrXrXrXrXqXeX;XP.k.=.L B l l N K ] U.S.r.< % $ X X @ + , g f , f m m S } rXrXrXrXrXrXrXrXrXrXrXrXrXrX",
"rXrXrXrXrXrXrXrXrXrXrXrXrXrXrXrXrXqX0X4XE.A.V.d.C l l l F Y c.G.L.O $ X & : : : + . & : , , f V D rXrXrXrXrXrXrXrXrXrXrXrXrXrXrX",
"rXrXrXrXrXrXrXrXrXrXrXrXrXrXrXrX3XeX8X@XR.!.V.! Z l 3 v j c.A.b.y & % % & : < 2 + . . + : f M ` rXrXrXrXrXrXrXrXrXrXrXrXrXrXrXrX",
"rXrXrXrXrXrXrXrXrXrXrXrXrXrXrX&XeX0X2X*X}.}.J.] V % , r *.j.C.z.: # $ . X 2 H < X . . X $ & rXrXrXrXrXrXrXrXrXrXrXrXrXrXrXrXrXrX",
"rXrXrXrXrXrXrXrXrXrXrXrXrXrXrXwXeX6X*XT.K.U.H.I.{ f > s r.r.r.< % # . . X G g : : % # % % l rXrXrXrXrXrXrXrXrXrXrXrXrXrXrXrXrXrX",
"rXrXrXrXrXrXrXrXrXrXrXrXrXrX3X9X6X*XT.M.K M h I.$Xc.f w *.d.< % % + X X : g , + % ; z m m rXrXrXrXrXrXrXrXrXrXrXrXrXrXrXrXrXrXrX",
"rXrXrXrXrXrXrXrXrXrXrXrXrX%X,X<X{.`.K.! = = f ] E.W.Y w s , % # $ X + @ : , & & z z l S rXrXrXrXrXrXrXrXrXrXrXrXrXrXrXrXrXrXrXrX",
"rXrXrXrXrXrXrXrXrXrXrXrXrX4X:X{.^._.J.V = 1 F ! M._.A.s > % # . X @ , @ X . . # ; m S ..rXrXrXrXrXrXrXrXrXrXrXrXrXrXrXrXrXrXrXrX",
"rXrXrXrXrXrXrXrXrXrXrXrX#X+X'.~.0.F.g.= = g ~ n.m.C.j.: % X X . X < , + X .     ; S  .rXrXrXrXrXrXrXrXrXrXrXrXrXrXrXrXrXrXrXrXrX",
"rXrXrXrXrXrXrXrXrXrXrXrX{.'.u.9.9.y.j.3 = g z.G.H.v.w $ . X . X @ @ + X + # .   - } rXrXrXrXrXrXrXrXrXrXrXrXrXrXrXrXrXrXrXrXrXrX",
"rXrXrXrXrXrXrXrXrXrXrX[./.e.9.q.8.8.y.f., g g.A.J.g.3 + . @ X @ @ + + % % * * z rXrXrXrXrXrXrXrXrXrXrXrXrXrXrXrXrXrXrXrXrXrXrXrX",
"rXrXrXrXrXrXrXrXrXrXrX{.i.w.8.1.@.@.V._.! 2 g.C.v.g > O X @ . @ + X * ; l n m rXrXrXrXrXrXrXrXrXrXrXrXrXrXrXrXrXrXrXrXrXrXrXrXrX",
"rXrXrXrXrXrXrXrXrXrXrX/.e.w.8.#.O , h._.R.h k c.h @ O O q O + . . X * n Z J  .rXrXrXrXrXrXrXrXrXrXrXrXrXrXrXrXrXrXrXrXrXrXrXrXrX",
"rXrXrXrXrXrXrXrXrXrX[./.e.w.7.7 X 2 R K.].v.e e O @ O q h q @ +   . X n D ..rXrXrXrXrXrXrXrXrXrXrXrXrXrXrXrXrXrXrXrXrXrXrXrXrXrX",
"rXrXrXrXrXrXrXrXrXrX}.(.u.e.7.7 : U v.A.K.H.> @ O > e r 8 > , , *     n  .rXrXrXrXrXrXrXrXrXrXrXrXrXrXrXrXrXrXrXrXrXrXrXrXrXrXrX",
"rXrXrXrXrXrXrXrXrXrXE.M.^.0.B.E N T b.D.C.U , , > 9 q 5 > 1 c c l * l rXrXrXrXrXrXrXrXrXrXrXrXrXrXrXrXrXrXrXrXrXrXrXrXrXrXrXrXrX",
"rXrXrXrXrXrXrXrXrXrXU.T.V.:.p [ J T M.D.l.< > 2 u 9 8 < , 1 N M m m rXrXrXrXrXrXrXrXrXrXrXrXrXrXrXrXrXrXrXrXrXrXrXrXrXrXrXrXrXrX",
"rXrXrXrXrXrXrXrXrXrXU.(.C.q X ~ ] T m.A.r.@ > w e < O 1 f N V N rXrXrXrXrXrXrXrXrXrXrXrXrXrXrXrXrXrXrXrXrXrXrXrXrXrXrXrXrXrXrXrX",
"rXrXrXrXrXrXrXrXrXrXrX_.Z.u : K H.! x.x.r O w e t N 1 : 2 V Z rXrXrXrXrXrXrXrXrXrXrXrXrXrXrXrXrXrXrXrXrXrXrXrXrXrXrXrXrXrXrXrXrX",
"rXrXrXrXrXrXrXrXrXrXrXrXP.U N ~ J.Z.I j @ O > u f N c 1 1 V D rXrXrXrXrXrXrXrXrXrXrXrXrXrXrXrXrXrXrXrXrXrXrXrXrXrXrXrXrXrXrXrXrX",
"rXrXrXrXrXrXrXrXrXrXrXrXrX{ Y R Z.B.a 8 > : & : c V c V A rXrXrXrXrXrXrXrXrXrXrXrXrXrXrXrXrXrXrXrXrXrXrXrXrXrXrXrXrXrXrXrXrXrXrX",
"rXrXrXrXrXrXrXrXrXrXrXrXrXrXk.h.N.p.4 : 1 - & X 3 Z ) ` ..rXrXrXrXrXrXrXrXrXrXrXrXrXrXrXrXrXrXrXrXrXrXrXrXrXrXrXrXrXrXrXrXrXrXrX",
"rXrXrXrXrXrXrXrXrXrXrXrXrXrXY.C.b.f.q : 1 B l = x ` | rXrXrXrXrXrXrXrXrXrXrXrXrXrXrXrXrXrXrXrXrXrXrXrXrXrXrXrXrXrXrXrXrXrXrXrXrX",
"rXrXrXrXrXrXrXrXrXrXrXrXrXrXrXY.k.G 3 : x A A l D rXrXrXrXrXrXrXrXrXrXrXrXrXrXrXrXrXrXrXrXrXrXrXrXrXrXrXrXrXrXrXrXrXrXrXrXrXrXrX",
"rXrXrXrXrXrXrXrXrXrXrXrXrXrXrXY.R 1 z l x A | | rXrXrXrXrXrXrXrXrXrXrXrXrXrXrXrXrXrXrXrXrXrXrXrXrXrXrXrXrXrXrXrXrXrXrXrXrXrXrXrX",
"rXrXrXrXrXrXrXrXrXrXrXrXrXrXrXrX] F Z Z Z rXrXrXrXrXrXrXrXrXrXrXrXrXrXrXrXrXrXrXrXrXrXrXrXrXrXrXrXrXrXrXrXrXrXrXrXrXrXrXrXrXrXrX",
"rXrXrXrXrXrXrXrXrXrXrXrXrXrXrXrXrX| | | rXrXrXrXrXrXrXrXrXrXrXrXrXrXrXrXrXrXrXrXrXrXrXrXrXrXrXrXrXrXrXrXrXrXrXrXrXrXrXrXrXrXrXrX",
"rXrXrXrXrXrXrXrXrXrXrXrXrXrXrXrXrXrXrXrXrXrXrXrXrXrXrXrXrXrXrXrXrXrXrXrXrXrXrXrXrXrXrXrXrXrXrXrXrXrXrXrXrXrXrXrXrXrXrXrXrXrXrXrX",
"rXrXrXrXrXrXrXrXrXrXrXrXrXrXrXrXrXrXrXrXrXrXrXrXrXrXrXrXrXrXrXrXrXrXrXrXrXrXrXrXrXrXrXrXrXrXrXrXrXrXrXrXrXrXrXrXrXrXrXrXrXrXrXrX",
"rXrXrXrXrXrXrXrXrXrXrXrXrXrXrXrXrXrXrXrXrXrXrXrXrXrXrXrXrXrXrXrXrXrXrXrXrXrXrXrXrXrXrXrXrXrXrXrXrXrXrXrXrXrXrXrXrXrXrXrXrXrXrXrX",
"rXrXrXrXrXrXrXrXrXrXrXrXrXrXrXrXrXrXrXrXrXrXrXrXrXrXrXrXrXrXrXrXrXrXrXrXrXrXrXrXrXrXrXrXrXrXrXrXrXrXrXrXrXrXrXrXrXrXrXrXrXrXrXrX",
"rXrXrXrXrXrXrXrXrXrXrXrXrXrXrXrXrXrXrXrXrXrXrXrXrXrXrXrXrXrXrXrXrXrXrXrXrXrXrXrXrXrXrXrXrXrXrXrXrXrXrXrXrXrXrXrXrXrXrXrXrXrXrXrX",
"rXrXrXrXrXrXrXrXrXrXrXrXrXrXrXrXrXrXrXrXrXrXrXrXrXrXrXrXrXrXrXrXrXrXrXrXrXrXrXrXrXrXrXrXrXrXrXrXrXrXrXrXrXrXrXrXrXrXrXrXrXrXrXrX",
"rXrXrXrXrXrXrXrXrXrXrXrXrXrXrXrXrXrXrXrXrXrXrXrXrXrXrXrXrXrXrXrXrXrXrXrXrXrXrXrXrXrXrXrXrXrXrXrXrXrXrXrXrXrXrXrXrXrXrXrXrXrXrXrX",
"rXrXrXrXrXrXrXrXrXrXrXrXrXrXrXrXrXrXrXrXrXrXrXrXrXrXrXrXrXrXrXrXrXrXrXrXrXrXrXrXrXrXrXrXrXrXrXrXrXrXrXrXrXrXrXrXrXrXrXrXrXrXrXrX"
};
