/* XPM */
static char *result[] = {
/* columns rows colors chars-per-pixel */
"64 64 240 2 ",
"   c #3B2428",
".  c #3C1D20",
"X  c #461C1E",
"o  c #5B1C1F",
"O  c #721A1C",
"+  c #461E21",
"@  c #551F21",
"#  c #49272B",
"$  c #552325",
"%  c #58282B",
"&  c #492E33",
"*  c #592D32",
"=  c #4A3339",
"-  c #563539",
";  c #63262A",
":  c #672528",
">  c #7A262A",
",  c #752D33",
"<  c #693538",
"1  c #7A3438",
"2  c #662E31",
"3  c #4D3B42",
"4  c #583E42",
"5  c #723D45",
"6  c #4D424A",
"7  c #574249",
"8  c #584955",
"9  c #5B555E",
"0  c #68494B",
"q  c #754549",
"w  c #694C58",
"e  c #784C56",
"r  c #6A555A",
"t  c #795559",
"y  c #79534F",
"u  c #5E5D62",
"i  c #645768",
"p  c #775863",
"a  c #6D5E73",
"s  c #6A666A",
"d  c #696676",
"f  c #706F77",
"g  c #5F6264",
"h  c #98181D",
"j  c #851B1F",
"k  c #A9191F",
"l  c #B8181A",
"z  c #8A1D22",
"x  c #941D23",
"c  c #AC1D22",
"v  c #B71D22",
"b  c #872227",
"n  c #9A242A",
"m  c #97353A",
"M  c #8C3136",
"N  c #A6262B",
"B  c #B82528",
"V  c #A72B35",
"C  c #A63539",
"Z  c #B83637",
"A  c #B12E30",
"S  c #C3191B",
"D  c #DB1E17",
"F  c #DC231C",
"G  c #D9291D",
"H  c #DD2621",
"J  c #DB2B24",
"K  c #D52E2B",
"L  c #DA2F28",
"P  c #D62C24",
"I  c #D5332C",
"U  c #DA332B",
"Y  c #DC382E",
"T  c #D93226",
"R  c #CD3A36",
"E  c #C93B38",
"W  c #D23432",
"Q  c #D43A34",
"!  c #DB3B33",
"~  c #D73B36",
"^  c #C62B2C",
"/  c #E0362B",
"(  c #AC413F",
")  c #CC443D",
"_  c #DD4236",
"`  c #D5433D",
"'  c #DB443C",
"]  c #D9493E",
"[  c #963B45",
"{  c #863D42",
"}  c #AC3C46",
"|  c #C83E40",
" . c #8B4649",
".. c #98464A",
"X. c #8A4C55",
"o. c #9A4A56",
"O. c #89585A",
"+. c #995654",
"@. c #97524D",
"#. c #A94849",
"$. c #B54747",
"%. c #B9544E",
"&. c #A35B57",
"*. c #B65954",
"=. c #AD4955",
"-. c #8F625C",
";. c #AF655B",
":. c #855663",
">. c #925B62",
",. c #B45768",
"<. c #AE5466",
"1. c #8A6768",
"2. c #956866",
"3. c #987C78",
"4. c #8E6F74",
"5. c #A96762",
"6. c #A7746A",
"7. c #B36E71",
"8. c #CD4B43",
"9. c #CA4746",
"0. c #D54B44",
"q. c #DB4C44",
"w. c #D74B47",
"e. c #C8534D",
"r. c #D5534D",
"t. c #DB534C",
"y. c #DC5A4D",
"u. c #D75145",
"i. c #C95955",
"p. c #D35553",
"a. c #D55A54",
"s. c #DB5B54",
"d. c #D35B59",
"f. c #D85B58",
"g. c #E15849",
"h. c #DB645C",
"j. c #D9655C",
"k. c #CD675C",
"l. c #E16859",
"z. c #E5775D",
"x. c #C86966",
"c. c #DC6B63",
"v. c #DA6D69",
"b. c #D56866",
"n. c #CB786B",
"m. c #D5726D",
"M. c #DC736C",
"N. c #DA7569",
"B. c #CD7874",
"V. c #D57572",
"C. c #DC7C74",
"Z. c #DA7D7A",
"A. c #D77975",
"S. c #D06D71",
"D. c #E17568",
"F. c #E17A71",
"G. c #B18474",
"H. c #9E8276",
"J. c #C9877A",
"K. c #D4817D",
"L. c #DC837B",
"P. c #D88975",
"I. c #D09174",
"U. c #E7876A",
"Y. c #E1867B",
"T. c #E49779",
"R. c #EA996B",
"E. c #D1A275",
"W. c #ECA372",
"Q. c #6D6B82",
"!. c #79748B",
"~. c #79728A",
"^. c #857C92",
"/. c #8F7388",
"(. c #A77A93",
"). c #D57F87",
"_. c #838198",
"`. c #AA9B94",
"'. c #A28D87",
"]. c #AD93AF",
"[. c #B6ABB2",
"{. c #9892A2",
"}. c #CC8C88",
"|. c #D58584",
" X c #DA8481",
".X c #D58986",
"XX c #DC8B85",
"oX c #DC8D8A",
"OX c #D38C8A",
"+X c #CB958B",
"@X c #DC928C",
"#X c #D89688",
"$X c #DB9592",
"%X c #DD9995",
"&X c #D49D9B",
"*X c #DB9C9B",
"=X c #D49593",
"-X c #CB9791",
";X c #E18E83",
":X c #E29689",
">X c #E19B93",
",X c #CCA39C",
"<X c #D5A19E",
"1X c #DDA49B",
"2X c #D8AC8B",
"3X c #E9A587",
"4X c #E2A49B",
"5X c #E5A998",
"6X c #E9B79A",
"7X c #E8B586",
"8X c #CDA9A7",
"9X c #D4A4A3",
"0X c #DCA5A2",
"qX c #DCABA4",
"wX c #D5ADAC",
"eX c #DBACAB",
"rX c #D4AAA6",
"tX c #DBB2AA",
"yX c #D5B4B3",
"uX c #DBB4B3",
"iX c #D4BDBD",
"pX c #DCBDBB",
"aX c #D9B9B5",
"sX c #CBB7B4",
"dX c #E2ABA4",
"fX c #E4B5AC",
"gX c #E2BAB5",
"hX c #EAD096",
"jX c #D7C6BA",
"kX c #D5C2B0",
"lX c #E6C6AD",
"zX c #E6C7B8",
"xX c #ECD9B0",
"cX c #CABEC2",
"vX c #D8C4C3",
"bX c #D8D0CA",
"nX c #E3CBC6",
"mX c #E4D8D0",
"MX c #E8E1D6",
"NX c None",
/* pixels */
"NXNXNXNXNXNXNXNXNXNXNXNXNXNXNXNXNXNXNXNXNXNXNXNXNXNXNXNXNXNXNXNXNXNXNXNXNXNXNXNXNXNXNXNXNXNXNXNXNXNXNXNXNXNXNXNXNXNXNXNXNXNXNXNX",
"NXNXNXNXNXNXNXNXNXNXNXNXNXNXNXNXNXNXNXNXNXNXNXNXNXNXNXNXNXNXNXNXNXNXNXNXNXNXNXNXNXNXNXNXNXNXNXNXNXNXNXNXNXNXNXNXNXNXNXNXNXNXNXNX",
"NXNXNXNXNXNXNXNXNXNXNXNXNXNXNXNXNXNXNXNXNXNXNXNXNXNXNXNXNXNXNXNXNXNXNXNXNXNXNXNXNXNXNXNXNXNXNXNXNXNXNXNXNXNXNXNXNXNXNXNXNXNXNXNX",
"NXNXNXNXNXNXNXNXNXNXNXNXNXNXNXNXNXNXNXNXNXNXNXNXNXNXNXNXNXNXNXNXNXNXNXNXNXNXNXNXNXNXNXNXNXNXNXNXNXNXNXNXNXNXNXNXNXNXNXNXNXNXNXNX",
"NXNXNXNXNXNXNXNXNXNXNXNXNXNXNXNXNXNXNXNXNXNXNXNXNXNXNXNXNXNXNXNXH.H.6.6.;.2.2.:.NXNXNXNXNXNXNXNXNXNXNXNXNXNXNXNXNXNXNXNXNXNXNXNX",
"NXNXNXNXNXNXNXNXNXNXNXNXNXNXNXNXNXNXNXNXNXNXNXNXNXNXNXNXI.E.E.I.G.6.5.;.*.#.#... .O.p NXNXNXNXNXNXNXNXNXNXNXNXNXNXNXNXNXNXNXNXNX",
"NXNXNXNXNXNXNXNXNXNXNXNXNXNXNXNXNXNXNXNXNXNXNXNXNXH.E.U.U.I.I.J.6.6.G.;.i.%.&.X.y q 0 y 1.NXNXNXNXNXNXNXNXNXNXNXNXNXNXNXNXNXNXNX",
"NXNXNXNXNXNXNXNXNXNXNXNXNXNXNXNXNXNXNXNXNXNXNXH.E.R.U.U.N.n.;.*.*.i.) _ ] i.;.2.y y q 0 0 r NXNXNXNXNXNXNXNXNXNXNXNXNXNXNXNXNXNX",
"NXNXNXNXNXNXNXNXNXNXNXNXNXNXNXNXNXNXNXNXNXNX2X7XW.U.z.a.e.9.) R ) Q G G U Q ) %.-.-.@...[ M  .O.4.3.NXNXNXNXNXNXNXNXNXNXNXNXNXNX",
"NXNXNXNXNXNXNXNXNXNXNXNXNXNXNXNXNXNXNXNX[.lXhXW.z.u.) 8.R I I I T T G F F L U ) $.%.7.i.^ v N A =.2.t NXNXNXNXNXNXNXNXNXNXNXNXNX",
"NXNXNXNXNXNXNXNXNXNXNXNXNXNXNXNXNXNXNX[.lX5XU.y._ Y Q E W U L H J T G F J L L W W E 0.p.f.W S B #.&.+.e NXNXNXNXNXNXNXNXNXNXNXNX",
"NXNXNXNXNXNXNXNXNXNXNXNXNXNXNXNXNXNXkXzX3Xj.] T J G I E W T F F L U T G U ~ w.9.R W K Y s.v.W v m  .&.2.NXNXNXNXNXNXNXNXNXNXNXNX",
"NXNXNXNXNXNXNXNXNXNXNXNXNXNXNXNXNXjXxX3Xg.U L T T L I W W L D J T I U W w..XV.0.W L H H U s.f.E C [ ..2.7.f NXNXNXNXNXNXNXNXNXNX",
"NXNXNXNXNXNXNXNXNXNXNXNXNXNXNXNXjXlXT.g.! J L L G T I I L U L t.T G K Y m.yXA.R L U L H J L s.9.v N [ +.S./.f NXNXNXNXNXNXNXNXNX",
"NXNXNXNXNXNXNXNXNXNXNXNXNXNXNXjXlX:Xs.R W U W L G K P G G R f.V.U D U q.@XiXoX' U U J H L L ~ p.E l n m <.4.i s NXNXNXNXNXNXNXNX",
"NXNXNXNXNXNXNXNXNXNXNXNXNXNXsXzXT.y.` W I W I P F G J G I b.|.p.U H U f.eX<Xv.u.c.h.Y H w.' W t.i.^ l n } 7.t 9 NXNXNXNXNXNXNXNX",
"NXNXNXNXNXNXNXNXNXNXNXNXNXsXjX:Xg.! W T I 0.M.C.v.c.s.s.V.OXV.9.U J U c.uXP.u.N.L.@Xs.U D.f.U q.d.) l c V <.(.4 8 NXNXNXNXNXNXNX",
"NXNXNXNXNXNXNXNXNXNXNXNXNXjX6Xj.! J ] b.S.B.*XaXnXgXdX0X*XV.| R W J ! L.fXl.j.dX#X%Xv.' Y.F.U U t.r.S k V o.(.~.w NXNXNXNXNXNXNX",
"NXNXNXNXNXNXNXNXNXNXNXNXvXlXU.] ! t.v.$X&XJ.b.N.Y.XXXXL.h.! Y p.d.t.t.dX1Xy.:XdXXX.Xb.~ ;X;X' H ' a.S v N } (.].p i NXNXNXNXNXNX",
"NXNXNXNXNXNXNXNXNXNXNXcXbX5Xy._ l..X&X.XXXm.R U I I ! U ! ' t.oX&X=XoXgX>Xc.qX:XC.c.0.~ oX%Xy.H ! f.) v S v (.].^.a d NXNXNXNXNX",
"NXNXNXNXNXNXNXNXNXNXNXmXzXD._ s.@X$X|.Z.b.c.I I K I T ' M.F.:XgXrXyXjXnXL.oXpX%X;Xs.U f.0X$Xq.J J t.p.S v c ,.].^.Q.d a NXNXNXNX",
"NXNXNXNXNXNXNXNXNXNXcXmX5Xy.' L.*X|.V.A.b.` W R ` f.t.s.gX>X*XgXL.tXvXvXL.dXnXtXC.t.q.;XuXL.Y F D ~ p.S v v [ /.d 9 i d NXNXNXNX",
"NXNXNXNXNXNXNXNXNXNXmXlXU.~ j.0X).S.K.V.d.` 8.i.V.rX;XP.gX:X4XgXA.yXyXiX=XL.0XXXq.q.;XzX*Xs./ F D ~ p.v l l [ Q.d 8 8 9 NXNXNXNX",
"NXNXNXNXNXNXNXNXNXsXMXfXc.q.XXeXb.r.m.b.k.V.n.+XwXgX;X5X1XL.fXdX4X<X@X9XV.q.q.q.h.$XzXfXD.' / J H q.p.S l k [ Q.Q.8 r i NXNXNXNX",
"NXNXNXNXNXNXNXNXNXMXmX#Xa.M.9XOXd.v.V.V.9XeXOX=X9XuXZ.fXoX#XgX#X%Xv.p.d.R 0.t.).fXpX0Xc.' _ Y Y L w.p.S v v [ Q.^.w e p NXNXNXNX",
"NXNXNXNXNXNXNXNXNXMXfXM.w.OX8XB.oX>XOX&XuX$Xt.b.eXgX:XuXA..XuX Xb.Q | p.d. XeXpXpX$Xs.Y Y _ ' ! W w.w.S v B [ ^.{.9 r r NXNXNXNX",
"NXNXNXNXNXNXNXNX[.mX6Xh.d.&X,X=XeXZ.v.dXdX).Y f.pXnXgXdXj.*X$Xw.] 0.b.=XaXvXpX1XZ.t.L L Y _ ] ' W 9.e.l l v [ ^.].Q.r 0 NXNXNXNX",
"NXNXNXNXNXNXNXNXbXzXY.q.v.wX}.}.*X Xv.%X>Xf.L q.tXvXaXM.s.tXP.V.#XrXyXsXrX=XZ.j.w.h.w.U _ _ q.w.~ i.=.c c N :.!.]._.!.r NXNXNXNX",
"NXNXNXNXNXNXNXNXmXnXD._ C.uX-XB.S.m.Z.%X$X~ L ' C.%X8Xm.C.pX<XjXaXyX&XK.p.! c.;X XN.0.T _ _ e.8.| *.2.q 5 { a !.^.i Q.:.p NXNXNX",
"NXNXNXNXNXNXNXNXMXxXl.U Z.vXwXS.b.v.L.4XZ.J ' v.L.#X,X9XqXyXqXuX*Xv.] T T h.>X0X%Xh.Y L Y _ ] Q 9.&.+.r i w 4./.d 3 7 e X.NXNXNX",
"NXNXNXNXNXNXNX`.MXfXl./ c.gXvX9X}.a.q.l.q.! c.>X<X<X+X8XtX.XC.v. XZ.c.0.y.1X&X9Xc.' U J Y _ _ W $.-.t d d a ^./.8 6 3 7 NXNXNXNX",
"NXNXNXNXNXNXNX`.xX5Xg./ _ C.>XC.p.R ! t.Y.>X>X0X*XXXC.K.$Xm.L.0XuXaXaXyXyXaXwX)._ J J H T _ T I %.p r Q.Q.~.^.:.8 8 8 9 NXNXNXNX",
"NXNXNXNXNXNXNX`.xX6Xy.Y T T Y Q W r.A.eXvXfX;X;XD.Y ' m.,XqX>X' q.c.;XeXiX=X}.p.U ! / H / _ U U $.p g f d !./.:.8 8 w NXNXNXNXNX",
"NXNXNXNXNXNXNX-XhX7Xy.I I G G Y b.<XyXaXyX$Xs./ L ! N.=XK. X%XT D / q.oX0XS.x.w.' C.F.! / ! / w.,.O.9 g 8 p :.p 8 4 0 NXNXNXNXNX",
"NXNXNXNXNXNXNX-XxX6Xk.T P G ] .XwXjXyX-Xb.0.Y H L c.4XZ.K.j.oXQ H H ! dXoXL.b.).$XuXF.! F H H 0.<.p p r O.X.@.X.8 4 w NXNXNXNXNX",
"NXNXNXNXNXNXNX`.hXhXn.R I u..XyXvXsXJ.i.R I L J g.4X>XM.Z.m.v.Q L W v.fX;XD.;X*X0XgXc.H D H q.i.O.p 1.O.+.[ m [ 4.e 8 NXNXNXNXNX",
"NXNXNXNXNXNXNX`.hXhXn.) W m.rXcXsXJ.9.E I U L ! ).dXD.Y.oXA.0.Q W ` $XeXZ.h.dX X&X0XF.! H H w.e...>.<.5.@.M b b [ o.O.f NXNXNXNX",
"NXNXNXNXNXNXNX'.7X7XJ.8.I K.iXvXB.9.R I L L U h.dX;X! s.b.0.x.|.B.e.&XdXc.:XdX;X0XdXl.' H q.p.| Z #.,.(.m M ; # $ , O.4.NXNXNXNX",
"NXNXNXNXNXNXNXNXT.R.U.` G b.sXvX|.9.E K L H q. XeXC.f.Z.v.a.}.S.}.A.uX Xc.fXfXdXgXdXf.U ~ f.e.Z Z =.).<.n , - = & & w NXNXNXNXNX",
"NXNXNXNXNXNXNXNXP.W.W.y.I _ Z.tX8X).w.K D H t.9X&XV.&X$X#XJ.,XK.&X*XgXc.:XnXnXgXgXZ.~ K p.9.^ Z #.<.=.V z < - 7 4 8 NXNXNXNXNXNX",
"NXNXNXNXNXNXNXNXB.W.3XD.0.I Y s.V.V.u.I I W M.pX9XOXrXB.0X8X}.V.Z.>XnXoXY.lXdXY.l.] Q r.e.B v C <.} V x z 4 7 e p NXNXNXNXNXNXNX",
"NXNXNXNXNXNXNXNXG.T.W.:Xa.I G P Q ! Y K I 8.#XzX1X9X*Xm.tXwXx.C.t.$XcXoXt.h.l.q.Y ! 9.e.) l B $.=.V h x , 4 w e a NXNXNXNXNXNXNX",
"NXNXNXNXNXNXNXNXNXI.3X3XP.Y F F G J P K K p.qXpXoXL.f.|.wXiX=Xc./ s.).s._ _ Y Y T 8.i.E S A $.} N c x z 4 4 4 w NXNXNXNXNXNXNXNX",
"NXNXNXNXNXNXNXNXNXG.3X3X#Xj.U D D G I K W d.9XyXM.h.c. X0XaX.X' L / q./ Y Y U J ' i.$.B B $.Z c h j z , 8 8 8 8 NXNXNXNXNXNXNXNX",
"NXNXNXNXNXNXNXNXNXNXI.2X6X#Xk.W F P L L K i.9XiX9XK.Y.t.y.h.w.J H Y U J L Y U w.p.%.[ [ } } C z z : o # = 8 e X.NXNXNXNXNXNXNXNX",
"NXNXNXNXNXNXNXNXNXNX'.+X2X7X}.t.U H J J P ~ B.8X&XZ.t.J J H J L L U U L L 0.r.i.9.[ t :.} [ , 2 ; #       & 5 :.NXNXNXNXNXNXNXNX",
"NXNXNXNXNXNXNXNXNXNXNXJ.P.3X:XY.s.U J J H L 0.p.t.! F D J H P W ~ E 9.8.e.i.i.$.A C t r 5 5 * * & & & % # 3 NXNXNXNXNXNXNXNXNXNX",
"NXNXNXNXNXNXNXNXNXNXNXNXG.J.#X>X;Xl.' U H H K W G F F D U J T E 9.%.*.;.5.5.o.Z } ..X.7 4 < * * 3 - ; < 0 NXNXNXNXNXNXNXNXNXNXNX",
"NXNXNXNXNXNXNXNXNXNXNXNXH.6.P.:XdX>XF.s.' _ I I P J J J U J ! e.5.6.6.-.&.@.@.#.#.M < * ; : - = 3 4 < e NXNXNXNXNXNXNXNXNXNXNXNX",
"NXNXNXNXNXNXNXNXNXNXNXNXNX3.x.h.;X5X5X>XM.h.t.t.r.w.w.q.q.w.s.x.6.6.1.-.#.m #.C k z : % ; * - 7 3 4 r NXNXNXNXNXNXNXNXNXNXNXNXNX",
"NXNXNXNXNXNXNXNXNXNXNXNXNXNX6.e.t.D.>X6X:XC.C.M.b.b.c.b.j.b.k.e.&.#.@.e m N x n b z O % # & * 1 < 0 NXNXNXNXNXNXNXNXNXNXNXNXNXNX",
"NXNXNXNXNXNXNXNXNXNXNXNXNXNXNX7.e.] q.l.L.F.c.c.f.p.0.] Q I R E ( A N M b b z > > : $ # .   o O b e NXNXNXNXNXNXNXNXNXNXNXNXNXNX",
"NXNXNXNXNXNXNXNXNXNXNXNXNXNXNXNX6.*.) R Q Q 0.d.p.9.| | ^ S A C m M h b b > ; : : % # X X X X o , NXNXNXNXNXNXNXNXNXNXNXNXNXNXNX",
"NXNXNXNXNXNXNXNXNXNXNXNXNXNXNXNXNXNX .m V B B B v A A v k c M M , 2 > j O : : * & & % : ; - NXNXNXNXNXNXNXNXNXNXNXNXNXNXNXNXNXNX",
"NXNXNXNXNXNXNXNXNXNXNXNXNXNXNXNXNXNXy 2 1  .m m m n n z z > 2 % $ @ : : o $ = 3 3 3 * - q NXNXNXNXNXNXNXNXNXNXNXNXNXNXNXNXNXNXNX",
"NXNXNXNXNXNXNXNXNXNXNXNXNXNXNXNXNXNXNX0 - q X. .1 2 % % $ % % % @ X X . X X & = 3 6 7 NXNXNXNXNXNXNXNXNXNXNXNXNXNXNXNXNXNXNXNXNX",
"NXNXNXNXNXNXNXNXNXNXNXNXNXNXNXNXNXNXNXNXNXNXNX2.q +   + $ $ 2 $ $ #   + X % - 7 6 7 NXNXNXNXNXNXNXNXNXNXNXNXNXNXNXNXNXNXNXNXNXNX",
"NXNXNXNXNXNXNXNXNXNXNXNXNXNXNXNXNXNXNXNXNXNXNXNX2.< # # % * - - % = & & - 9 s s g NXNXNXNXNXNXNXNXNXNXNXNXNXNXNXNXNXNXNXNXNXNXNX",
"NXNXNXNXNXNXNXNXNXNXNXNXNXNXNXNXNXNXNXNXNXNXNXNXNX-.0 g f f f s { < 6 NXNXNXNXNXNXNXNXNXNXNXNXNXNXNXNXNXNXNXNXNXNXNXNXNXNXNXNXNX",
"NXNXNXNXNXNXNXNXNXNXNXNXNXNXNXNXNXNXNXNXNXNXNXNXNXNXNXNXNXNXNXNXH.p NXNXNXNXNXNXNXNXNXNXNXNXNXNXNXNXNXNXNXNXNXNXNXNXNXNXNXNXNXNX",
"NXNXNXNXNXNXNXNXNXNXNXNXNXNXNXNXNXNXNXNXNXNXNXNXNXNXNXNXNXNXNXNXNXNXNXNXNXNXNXNXNXNXNXNXNXNXNXNXNXNXNXNXNXNXNXNXNXNXNXNXNXNXNXNX",
"NXNXNXNXNXNXNXNXNXNXNXNXNXNXNXNXNXNXNXNXNXNXNXNXNXNXNXNXNXNXNXNXNXNXNXNXNXNXNXNXNXNXNXNXNXNXNXNXNXNXNXNXNXNXNXNXNXNXNXNXNXNXNXNX",
"NXNXNXNXNXNXNXNXNXNXNXNXNXNXNXNXNXNXNXNXNXNXNXNXNXNXNXNXNXNXNXNXNXNXNXNXNXNXNXNXNXNXNXNXNXNXNXNXNXNXNXNXNXNXNXNXNXNXNXNXNXNXNXNX",
"NXNXNXNXNXNXNXNXNXNXNXNXNXNXNXNXNXNXNXNXNXNXNXNXNXNXNXNXNXNXNXNXNXNXNXNXNXNXNXNXNXNXNXNXNXNXNXNXNXNXNXNXNXNXNXNXNXNXNXNXNXNXNXNX"
};
