/* XPM */
static char *result[] = {
/* columns rows colors chars-per-pixel */
"64 64 213 2 ",
"   c #361D1E",
".  c #3B1D1F",
"X  c #361F21",
"o  c #372223",
"O  c #392325",
"+  c #392629",
"@  c #3B292D",
"#  c #3D2D31",
"$  c #581E20",
"%  c #442626",
"&  c #422728",
"*  c #442B2C",
"=  c #492D2D",
"-  c #4C2424",
";  c #5D252A",
":  c #59292B",
">  c #4A302F",
",  c #432E32",
"<  c #4A2E31",
"1  c #552E32",
"2  c #433136",
"3  c #4C3333",
"4  c #45333A",
"5  c #4B353A",
"6  c #47383D",
"7  c #4B393D",
"8  c #533434",
"9  c #5B3435",
"0  c #553936",
"q  c #5A3A36",
"w  c #53363A",
"e  c #5D363A",
"r  c #553A3B",
"t  c #5B3B3C",
"y  c #64292C",
"u  c #622D32",
"i  c #722F32",
"p  c #633335",
"a  c #6A3435",
"s  c #62353B",
"d  c #633A3D",
"f  c #6B3A3B",
"g  c #68373A",
"h  c #733A3B",
"j  c #783436",
"k  c #5C413D",
"l  c #63443E",
"z  c #68443E",
"x  c #6B483F",
"c  c #4B3C42",
"v  c #543C41",
"b  c #5C3B41",
"n  c #643B42",
"m  c #6A3D43",
"M  c #783C44",
"N  c #4D4145",
"B  c #4E434A",
"V  c #554344",
"C  c #5B4342",
"Z  c #51444A",
"A  c #5C494C",
"S  c #594849",
"D  c #534751",
"F  c #544A54",
"G  c #5B4B54",
"H  c #5D4E59",
"J  c #5B5456",
"K  c #4F4850",
"L  c #634543",
"P  c #6B4543",
"I  c #664B44",
"U  c #6C4B43",
"Y  c #60434B",
"T  c #6B4F49",
"R  c #634E4F",
"E  c #744444",
"W  c #7B4545",
"Q  c #744D44",
"!  c #7A4A49",
"~  c #69524E",
"^  c #765046",
"/  c #795247",
"(  c #755249",
")  c #7A554B",
"_  c #7D584E",
"`  c #77584F",
"'  c #664C55",
"]  c #7B4E58",
"[  c #6A5553",
"{  c #62525C",
"}  c #65585E",
"|  c #655455",
" . c #7E5B52",
".. c #745A53",
"X. c #7F665D",
"o. c #665863",
"O. c #735C64",
"+. c #765566",
"@. c #6D676A",
"#. c #776468",
"$. c #B8181C",
"%. c #A91E22",
"&. c #B41C21",
"*. c #9E302F",
"=. c #9C2F34",
"-. c #8A3738",
";. c #923C3A",
":. c #9B3439",
">. c #93282B",
",. c #A9272B",
"<. c #B4292B",
"1. c #A82F33",
"2. c #AD3333",
"3. c #A6363A",
"4. c #B73936",
"5. c #82403F",
"6. c #99413F",
"7. c #A0403F",
"8. c #873D45",
"9. c #A13E48",
"0. c #8E424A",
"q. c #864849",
"w. c #944749",
"e. c #84534B",
"r. c #805A4F",
"t. c #8D544C",
"y. c #835D52",
"u. c #8D5B51",
"i. c #8B5453",
"p. c #985953",
"a. c #8C4C58",
"s. c #A94549",
"d. c #B74945",
"f. c #A65953",
"g. c #BA5A50",
"h. c #846156",
"j. c #8A6256",
"k. c #85655B",
"l. c #8B6459",
"z. c #8B695C",
"x. c #9D645B",
"c. c #98675A",
"v. c #AB6B5D",
"b. c #A86256",
"n. c #B76658",
"m. c #BD705D",
"M. c #A95768",
"N. c #836A64",
"B. c #8C6A63",
"V. c #876468",
"C. c #956965",
"Z. c #8A7269",
"A. c #937165",
"S. c #9B7365",
"D. c #92736A",
"F. c #94786F",
"G. c #9C796C",
"H. c #98766C",
"J. c #896777",
"K. c #927972",
"L. c #A46B66",
"P. c #A37B6B",
"I. c #A87566",
"U. c #B57A68",
"Y. c #A8607F",
"T. c #A5707C",
"R. c #D3725B",
"E. c #A28062",
"W. c #A38174",
"Q. c #AA8574",
"!. c #AC8B7A",
"~. c #AD8C76",
"^. c #B48572",
"/. c #B68C78",
"(. c #B8977B",
"). c #D08467",
"_. c #C69E78",
"`. c #CD9173",
"'. c #E58A66",
"]. c #AA6D8B",
"[. c #B17E80",
"{. c #BF6F96",
"}. c #B27B98",
"|. c #BA7FA6",
" X c #A68A82",
".X c #B99588",
"XX c #AD8F85",
"oX c #B984A7",
"OX c #C8A48B",
"+X c #CBA792",
"@X c #D0AA98",
"#X c #C7B29E",
"$X c #D4B39E",
"%X c #EEBA8B",
"&X c #C080A8",
"*X c #D8B9A5",
"=X c #D9AEA0",
"-X c #E1BFA7",
";X c #DBC9BA",
":X c #D5C4B1",
">X c #E8D5A8",
",X c #E8D2AE",
"<X c #F5E6B7",
"1X c #E9D8C6",
"2X c #EADBD1",
"3X c #FAF2C2",
"4X c #EDE5DD",
"5X c #EFE0D0",
"6X c #F4E9CD",
"7X c #F5ECE4",
"8X c #F8F2E7",
"9X c #F8F6F2",
"0X c None",
/* pixels */
"0X0X0X0X0X0X0X0X0X0X0X0X0X0X0X0X0X0X0X0X0X0X0X0X0X0X0X0X0X0X0X0X0X0X0X0X0X0X0X0X0X0X0X0X0X0X0X0X0X0X0X0X0X0X0X0X0X0X0X0X0X0X0X0X",
"0X0X0X0X0X0X0X0X0X0X0X0X0X0X0X0X0X0X0X0X0X0X0X0X0X0X0X0X0X0X0X0X0X0X0X0X0X0X0X0X0X0X0X0X0X0X0X0X0X0X0X0X0X0X0X0X0X0X0X0X0X0X0X0X",
"0X0X0X0X0X0X0X0X0X0X0X0X0X0X0X0X0X0X0X0X0X0X0X0X0X0X0X0X0X0X0X0X0X0X0X0X0X0X0X0X0X0X0X0X0X0X0X0X0X0X0X0X0X0X0X0X0X0X0X0X0X0X0X0X",
"0X0X0X0X0X0X0X0X0X0X0X0X0X0X0X0X0X0X0X0X0X0X0X0X0X0X0X0X0X0X0X0X0X0X0X0X0X0X0X0X0X0X0X0X0X0X0X0X0X0X0X0X0X0X0X0X0X0X0X0X0X0X0X0X",
"0X0X0X0X0X0X0X0X0X0X0X0X0X0X0X0X0X0X0X0X0X0X0X0X0X0X0X0X0X0X0X0X0X0X0X0X0X0X0X0X0X0X0X0X0X0X0X0X0X0X0X0X0X0X0X0X0X0X0X0X0X0X0X0X",
"0X0X0X0X0X0X0X0X0X0X0X0X0X0X0X0X0X0X0X0X0X0X0X0X0X0X0X0X0X0X0X0X0X0X0X0X0X0X0X0X0X0X0X0X0X0X0X0X0X0X0X0X0X0X0X0X0X0X0X0X0X0X0X0X",
"0X0X0X0X0X0X0X0X0X0X0X0X0X0X0X0X0X0X0X0X0X0X0X0X0X0X0X0X0X0X0X0X0X0X0X0X0X0X0X0X0X0X0X0X0X0X0X0X0X0X0X0X0X0X0X0X0X0X0X0X0X0X0X0X",
"0X0X0X0X0X0X0X0X0X0X0X0X0X0X0X0X0X0X0X0X0X0X0X0X0X0X0X0X0X0X0X0X0X0X0X0X0X0X0X0X0X0X0X0X0X0X0X0X0X0X0X0X0X0X0X0X0X0X0X0X0X0X0X0X",
"0X0X0X0X0X0X0X0X0X0X0X0X0X0X0X0X0X0X0X0X0X0X0X0X0X0X0X0X0X0X0X0X0X0X0X0X0X0X0X0X0X0X0X0X0X0X0X0X0X0X0X0X0X0X0X0X0X0X0X0X0X0X0X0X",
"0X0X0X0X0X0X0X0X0X0X0X0X0X0X0X0X0X0X0X0X0X0X0X0X0X0X0X0X0X0X0X0X0X0X0X0X0X0X0X0X0X0X0X0X0X0X0X0X0X0X0X0X0X0X0X0X0X0X0X0X0X0X0X0X",
"0X0X0X0X0X0X0X0X0X0X0X0X0X0X0X0X0X0X0X0X0X0X0X0X0X0X0X0X0X0X0XF.D.F.S.H.D.J.0X0X0X0X0X0X0X0X0X0X0X0X0X0X0X0X0X0X0X0X0X0X0X0X0X0X",
"0X0X0X0X0X0X0X0X0X0X0X0X0X0X0X0X0X0X0X0X0X0X0X0X0XF.H.L.p._ e.i.a.3.2.w.3.1.1.4.d.f.c.0X0X0X0X0X0X0X0X0X0X0X0X0X0X0X0X0X0X0X0X0X",
"0X0X0X0X0X0X0X0X0X0X0X0X0X0X0X0X0X0X0X0X0X0X~.G.A.h.y.e.0.-.;.2.1.,.$.<.,.&.&.&.<.<.2.9.M.W.0X0X0X0X0X0X0X0X0X0X0X0X0X0X0X0X0X0X",
"0X0X0X0X0X0X0X0X0X0X0X0X0X0X0X0X0X0X0X_.(./.I.f.s.:.*.;.8.q.-.5.=.$.$.,.>.>.%.%.<.&.&.<.9.i.V.J.K.0X0X0X0X0X0X0X0X0X0X0X0X0X0X0X",
"0X0X0X0X0X0X0X0X0X0X0X0X0X0X0X0X0X0X_.).R.n.g.d.s.6.-.h n b d z 0.4.$.j e e u i >.=.:.8.! 8.8.a.M.L.0X0X0X0X0X0X0X0X0X0X0X0X0X0X",
"0X0X0X0X0X0X0X0X0X0X0X0X0X0X0X,X>X%X'.R.n.f.b.v.v.W m 7 7 4 5 k u.7.2.9 4 4 4 5 r Q ' G D A m M 8.M.Y.].0X0X0X0X0X0X0X0X0X0X0X0X",
"0X0X0X0X0X0X0X0X0X0X0X0X0X:X,X<X<X%X).b.u.`  .P.^.Q r 4 3 5 r L l.g.2.9 5 5 8 1 w T [ G c c 5 v m a.].{.|.0X0X0X0X0X0X0X0X0X0X0X",
"0X0X0X0X0X0X0X0X0X0X0X0X;X1X3X<X>XOXc.( L C ( P./.W 0 3 9 e h ! c.n.,.a 0 s i i p Q _ ! n v 5 5 1 ' V.].&XoX0X0X0X0X0X0X0X0X0X0X",
"0X0X0X0X0X0X0X0X0X0X0X2X8X3X<X3X>XE.U C L Q c.^.`.w.p 8 g h 5.t.u.q.i : 8 g j a g P ( E m e 9 < 1 n ] +.J.|.oX0X0X0X0X0X0X0X0X0X",
"0X0X0X0X0X0X0X0X0X0X4X9X7X:X+X*X@Xz.C P / t.U.U.c.W g 9 d f h x x 3 @ # < 8 9 e 8 8 5 2 8 g a p 8 h 8.] S O.}.[.0X0X0X0X0X0X0X0X",
"0X0X0X0X0X0X0X0X0X4X9X7X*XQ.A.+X+XN.l M w.f.b.V.v 8 e g d 1 w w w 5 5 5 * 3 , , < * + + * 1 a a s g 8.t.C c O.T.0X0X0X0X0X0X0X0X",
"0X0X0X0X0X0X0X0X4X9X7X:X XA.W.+X.XX.P q.0.q.P r 3 5 0 e t 1 3 5 1 9 9 w 1 8 w w 8 5 < @ # # = 1 1 1 9 g P 7 v O.N.0X0X0X0X0X0X0X",
"0X0X0X0X0X0X0X;X7X9X1X XK.W..X~.N.~ L P n 8 < 3 < 1 3 r t r 8 8 ; ; u e w w w 8 3 4 , , # # + @ + o X % p n w Z R 0X0X0X0X0X0X0X",
"0X0X0X0X0X0X#X2X;X5X#XD.D./.~.[ 4 4 2 2 3 3 5 w w v v 9 9 t b n n s s u e v v w 3 2 4 # # @ + o o o o X - a d e Y 0X0X0X0X0X0X0X",
"0X0X0X0X0X0X:X$X~.*XXXz.G.^.z.k # # # 2 < w w w w w w e y s e s s b n ; e n w w c < < , 4 4 # @ + o O o o - : 9 d 0X0X0X0X0X0X0X",
"0X0X0X0X0X.X=XI.S.@XS.c.v.h.C 4 4 4 4 6 w v b w q w 8 s e 9 y y u e a s u u 9 w w 5 5 3 4 4 , @ + O o O o O % 1 z t 0X0X0X0X0X0X",
"0X0X0X0X0X@XOXA.I.~.h.( z 3 # # 2 4 4 3 8 w b b t b t u n n n d d b y s n n b v 8 5 8 > < < , @ @ + o o o % = k Q E 0X0X0X0X0X0X",
"0X0X0X0X0X$X(.G.L.U 2 + @ @ @ # # * > 2 5 b e 9 p s t e g n d p p t w s s s e b w 3 w 5 2 2 , @ @ + o o o % - q Q E L 0X0X0X0X0X",
"0X0X0X0XXX@X!.~.v.0 O O o + @ # 4 4 5 4 3 v v b e 9 s s u u e p 9 8 b u 9 w q t q w 5 4 , # @ @ + o O O O % 1 l / e.E ~ 0X0X0X0X",
"0X0X0X0X!..XS.U.t.= o o o + @ # 4 2 4 4 5 v w e e s u a g b t b n ; e n b n b e e r w 5 6 # @ @ + o O O - = k z ) u./ E #.0X0X0X",
"0X0X0X0XW..XI.b.: O O o o O + @ # # # 6 5 3 - $ ; s s p 9 q 9 s s u s n t n b < 0 6 6 6 2 # + % % o O O = 1 d U r.y.r. .@.0X0X0X",
"0X0X0X0X!.L.t.0 % o o   o o + @ # 2 # , 5 w w v w w b b b 9 e s u s s w 8 < 5 5 > 3 4 # * @ + o o O o % > k U / ) ) l.l.0X0X0X0X",
"0X0X0X0XI.n 5 # + o o o o o o + + # @ , 4 6 c c 4 2 7 v v t t e w b b w v c , 2 4 4 4 2 O O o O o % % * 3 l ^ ^ _ ^ y. .0X0X0X0X",
"0X0X0X0XP.E 5 # @ + o X o o + @ + @ @ @ # # # # 4 7 4 3 8 0 5 r w w w 8 < 4 # 2 4 # @ * O O O o O % = > k U ( _ y./ / U 0X0X0X0X",
"0X0X0X0XP.W 5 # @ + @ @ + o o o o o + @ @ # # # # 6 7 7 6 4 6 # 5 4 5 < 2 # 2 # @ @ @ + O O O O . = = q U ) ) y.j.y.x T 0X0X0X0X",
"0X0X0X XP.n # + @ @ @ @ + o o o X X X o + @ # # # 2 # 4 4 4 4 # 4 4 4 4 < * * * @ @ + O % O O % > 8 k x _ ) U _ z.l._ [ 0X0X0X0X",
"0X0X0X X .Z 2 # @ # # # @ @ + X X   X X o o @ @ # @ @ # @ @ # @ @ # @ + @ & % & O + @ * & & * > 0 l x / _ ( I U j.A.k.0X0X0X0X0X",
"0X0X0X| B K c @ @ # 4 4 # # + X X X   X   o o o + @ @ @ @ @ @ @ O o O X X O O + + @ @ * * > > > k Q / / _ ^ l l u.x.0X0X0X0X0X0X",
"0X0X0X0XF F 6 # 4 4 4 4 # # # @ o o X X o o o o o + o o @ o o o o O O O O O * & , > = * > > 0 k z / _ r.y.) U k I u.0X0X0X0X0X0X",
"0X0X0X0X0XK 6 # 4 4 4 4 # 4 # # # + @ + @ + o o o o + o o O o + & * + @ * * * < > 3 = > 8 0 k k x Q ) r.y.r.) k 0 U 0X0X0X0X0X0X",
"0X0X0X0X0XY c 4 6 4 4 # # c c 4 # 4 # # # @ @ + O + + O + O + @ * = < * > > > > 3 3 > > r k k k l l k ( y.h. .[ S 0X0X0X0X0X0X0X",
"0X0X0X0XD.m c c c 4 # # # # # 4 4 4 # # # @ @ # * @ @ * @ @ @ @ * < 2 = > > > 3 k 0 k k k k k k l q 0 I h.N.z.#.0X0X0X0X0X0X0X0X",
"0X0X0X0XB.Y Z D B c # # # # 4 # # # # @ @ @ @ * @ @ * * O @ @ > * 2 > > > > > 8 k 0 3 k k l l l l k 3 t h.Z.Z.0X0X0X0X0X0X0X0X0X",
"0X0X0X0X0XO.o.{ D c # , # c 4 # # # @ @ @ @ # @ @ @ @ % O O @ + * = > 3 > 8 0 k k k 0 > 0 x ^ ^ x k 3 0 T k.0X0X0X0X0X0X0X0X0X0X",
"0X0X0X0X0X0X0XO.H c , 4 c 7 4 # @ + @ @ @ @ * * * O % % O * * @ * = > > 0 k l x k k 0 3 > x ) _ ` T V k | 0X0X0X0X0X0X0X0X0X0X0X",
"0X0X0X0X0X0X0X0XD c 4 Z B N c , @ * 2 * * * * < * * = % = * > > > 8 > > > l ( / x l k 0 3 k ) j.j.` 0X0X0X0X0X0X0X0X0X0X0X0X0X0X",
"0X0X0X0X0X0X0X0XJ B B D D K c , > 3 3 6 3 2 < 3 * > 8 > > > k l k 0 q 0 8 k ) / x T S k 0 k T k.B.0X0X0X0X0X0X0X0X0X0X0X0X0X0X0X",
"0X0X0X0X0X0X0X0X0X0X0Xo.H F N > 3 7 c N 7 5 3 w 8 8 8 0 3 > k x l l l k 8 k _ _ ) T I Z 6 0 T N.0X0X0X0X0X0X0X0X0X0X0X0X0X0X0X0X",
"0X0X0X0X0X0X0X0X0X0X0X0X0X{ c < 3 N Z K N 6 3 0 k k 6 7 5 0 0 k L L C t r r ` y.` I R A 0X0X0X0X0X0X0X0X0X0X0X0X0X0X0X0X0X0X0X0X",
"0X0X0X0X0X0X0X0X0X0X0X0X0X0XH Z D G H G Z c 8 r C S J K N 7 k k S Y S C v r Q  ...0X0X0X0X0X0X0X0X0X0X0X0X0X0X0X0X0X0X0X0X0X0X0X",
"0X0X0X0X0X0X0X0X0X0X0X0X0X0X0X0X@.@.O.o.J Z w k A H { H K N C I | | [ S v k P 0X0X0X0X0X0X0X0X0X0X0X0X0X0X0X0X0X0X0X0X0X0X0X0X0X",
"0X0X0X0X0X0X0X0X0X0X0X0X0X0X0X0X0X0X0X0X0X0Xc C { } } } G K l ~ } 0X0X0X0X0X0X0X0X0X0X0X0X0X0X0X0X0X0X0X0X0X0X0X0X0X0X0X0X0X0X0X",
"0X0X0X0X0X0X0X0X0X0X0X0X0X0X0X0X0X0X0X0X0X0X0X0X0X0X0X0X0X0X0X0X0X0X0X0X0X0X0X0X0X0X0X0X0X0X0X0X0X0X0X0X0X0X0X0X0X0X0X0X0X0X0X0X",
"0X0X0X0X0X0X0X0X0X0X0X0X0X0X0X0X0X0X0X0X0X0X0X0X0X0X0X0X0X0X0X0X0X0X0X0X0X0X0X0X0X0X0X0X0X0X0X0X0X0X0X0X0X0X0X0X0X0X0X0X0X0X0X0X",
"0X0X0X0X0X0X0X0X0X0X0X0X0X0X0X0X0X0X0X0X0X0X0X0X0X0X0X0X0X0X0X0X0X0X0X0X0X0X0X0X0X0X0X0X0X0X0X0X0X0X0X0X0X0X0X0X0X0X0X0X0X0X0X0X",
"0X0X0X0X0X0X0X0X0X0X0X0X0X0X0X0X0X0X0X0X0X0X0X0X0X0X0X0X0X0X0X0X0X0X0X0X0X0X0X0X0X0X0X0X0X0X0X0X0X0X0X0X0X0X0X0X0X0X0X0X0X0X0X0X",
"0X0X0X0X0X0X0X0X0X0X0X0X0X0X0X0X0X0X0X0X0X0X0X0X0X0X0X0X0X0X0X0X0X0X0X0X0X0X0X0X0X0X0X0X0X0X0X0X0X0X0X0X0X0X0X0X0X0X0X0X0X0X0X0X",
"0X0X0X0X0X0X0X0X0X0X0X0X0X0X0X0X0X0X0X0X0X0X0X0X0X0X0X0X0X0X0X0X0X0X0X0X0X0X0X0X0X0X0X0X0X0X0X0X0X0X0X0X0X0X0X0X0X0X0X0X0X0X0X0X",
"0X0X0X0X0X0X0X0X0X0X0X0X0X0X0X0X0X0X0X0X0X0X0X0X0X0X0X0X0X0X0X0X0X0X0X0X0X0X0X0X0X0X0X0X0X0X0X0X0X0X0X0X0X0X0X0X0X0X0X0X0X0X0X0X",
"0X0X0X0X0X0X0X0X0X0X0X0X0X0X0X0X0X0X0X0X0X0X0X0X0X0X0X0X0X0X0X0X0X0X0X0X0X0X0X0X0X0X0X0X0X0X0X0X0X0X0X0X0X0X0X0X0X0X0X0X0X0X0X0X",
"0X0X0X0X0X0X0X0X0X0X0X0X0X0X0X0X0X0X0X0X0X0X0X0X0X0X0X0X0X0X0X0X0X0X0X0X0X0X0X0X0X0X0X0X0X0X0X0X0X0X0X0X0X0X0X0X0X0X0X0X0X0X0X0X",
"0X0X0X0X0X0X0X0X0X0X0X0X0X0X0X0X0X0X0X0X0X0X0X0X0X0X0X0X0X0X0X0X0X0X0X0X0X0X0X0X0X0X0X0X0X0X0X0X0X0X0X0X0X0X0X0X0X0X0X0X0X0X0X0X",
"0X0X0X0X0X0X0X0X0X0X0X0X0X0X0X0X0X0X0X0X0X0X0X0X0X0X0X0X0X0X0X0X0X0X0X0X0X0X0X0X0X0X0X0X0X0X0X0X0X0X0X0X0X0X0X0X0X0X0X0X0X0X0X0X",
"0X0X0X0X0X0X0X0X0X0X0X0X0X0X0X0X0X0X0X0X0X0X0X0X0X0X0X0X0X0X0X0X0X0X0X0X0X0X0X0X0X0X0X0X0X0X0X0X0X0X0X0X0X0X0X0X0X0X0X0X0X0X0X0X"
};
