/* XPM */
static char *result[] = {
/* columns rows colors chars-per-pixel */
"64 64 226 2 ",
"   c #3E2728",
".  c #442A2B",
"X  c #582C2D",
"o  c #552F31",
"O  c #4C3335",
"+  c #4D353B",
"@  c #4A3337",
"#  c #543234",
"$  c #5B3335",
"%  c #53353A",
"&  c #533A3D",
"*  c #5A3A3B",
"=  c #59343B",
"-  c #452F33",
";  c #642B2C",
":  c #6B2C2D",
">  c #6B2626",
",  c #7B2C2D",
"<  c #772728",
"1  c #633435",
"2  c #6B3334",
"3  c #6C3639",
"4  c #633A3B",
"5  c #68383A",
"6  c #7B3134",
"7  c #733C3D",
"8  c #773538",
"9  c #653030",
"0  c #63403F",
"q  c #4E3E42",
"w  c #523D42",
"e  c #5B3D40",
"r  c #6B3D41",
"t  c #673E43",
"y  c #723E43",
"u  c #783940",
"i  c #4F4347",
"p  c #544045",
"a  c #5C4245",
"s  c #53464B",
"d  c #5B444A",
"f  c #5C4A4D",
"g  c #564C53",
"h  c #5C4B55",
"j  c #594E59",
"k  c #624346",
"l  c #6E4245",
"z  c #6C454B",
"x  c #6B4C4C",
"c  c #65464A",
"v  c #77484A",
"b  c #634C53",
"n  c #6A4D53",
"m  c #774D55",
"M  c #68535B",
"N  c #7A525B",
"B  c #76555B",
"V  c #77544E",
"C  c #5E5963",
"Z  c #685866",
"A  c #775A64",
"S  c #726569",
"D  c #7A6A75",
"F  c #6A636A",
"G  c #842B2C",
"H  c #8E2122",
"J  c #992628",
"K  c #872F31",
"L  c #873539",
"P  c #9B3639",
"I  c #9F2D33",
"U  c #A32326",
"Y  c #A3282C",
"T  c #AA262B",
"R  c #B62629",
"E  c #A62D33",
"W  c #B22C32",
"Q  c #A4343B",
"!  c #AB3C3D",
"~  c #A73639",
"^  c #BC3335",
"/  c #B5393B",
"(  c #C83938",
")  c #D33A36",
"_  c #CB2D2B",
"`  c #E43C33",
"'  c #DA463B",
"]  c #883C45",
"[  c #983E47",
"{  c #A33B44",
"}  c #87464A",
"|  c #92454B",
" . c #9A4849",
".. c #854B55",
"X. c #944B58",
"o. c #83545E",
"O. c #855755",
"+. c #975657",
"@. c #A5484A",
"#. c #BA4444",
"$. c #A45351",
"%. c #AD5056",
"&. c #98655B",
"*. c #8A645D",
"=. c #BD695A",
"-. c #AD655C",
";. c #895C63",
":. c #965662",
">. c #A25862",
",. c #8D6867",
"<. c #976668",
"1. c #896372",
"2. c #9A7778",
"3. c #897372",
"4. c #A96173",
"5. c #B26D78",
"6. c #AE6D68",
"7. c #D64B44",
"8. c #D5544B",
"9. c #C65D56",
"0. c #C74E4B",
"q. c #E85645",
"w. c #D76C58",
"e. c #E66456",
"r. c #E66A55",
"t. c #DB7366",
"y. c #CC716A",
"u. c #E36D62",
"i. c #F07A65",
"p. c #ED7965",
"a. c #A9867C",
"s. c #BE8D77",
"d. c #D79176",
"f. c #D08773",
"g. c #EE9175",
"h. c #DDA778",
"j. c #F3A076",
"k. c #927B81",
"l. c #AC798E",
"z. c #9B8799",
"x. c #9D948B",
"c. c #A58E87",
"v. c #A7968C",
"b. c #B99789",
"n. c #A48091",
"m. c #BAAC9B",
"M. c #AFA295",
"N. c #B599A1",
"B. c #D19D8B",
"V. c #EB9584",
"C. c #E89D8C",
"Z. c #CBA487",
"A. c #D7AA88",
"S. c #DBBA8C",
"D. c #C4AC99",
"F. c #D5AD96",
"G. c #CDBC98",
"H. c #D9B897",
"J. c #F3A888",
"K. c #E9A995",
"L. c #E9BB96",
"P. c #F3B497",
"I. c #F5B98F",
"U. c #D3BAA6",
"Y. c #CEB6A2",
"T. c #F2BAA3",
"R. c #DCC799",
"E. c #FACD84",
"W. c #F8CE8B",
"Q. c #FAD48B",
"!. c #FADA8D",
"~. c #F6D189",
"^. c #E6CA97",
"/. c #F9CD94",
"(. c #F6CB9C",
"). c #F8CB9A",
"_. c #F6C797",
"`. c #FADB94",
"'. c #F9D39B",
"]. c #F9DB9A",
"[. c #F6D596",
"{. c #E9CA91",
"}. c #FAE18F",
"|. c #F9E49C",
" X c #F8E297",
".X c #E6CCA6",
"XX c #F7CDA3",
"oX c #F4C7A7",
"OX c #F9D3A3",
"+X c #F9DCA4",
"@X c #F8D4AA",
"#X c #F9DCAC",
"$X c #F6D4A9",
"%X c #E9C9B4",
"&X c #F6D3B3",
"*X c #F7DAB6",
"=X c #F8DCB4",
"-X c #F5D4BC",
";X c #F7DABB",
":X c #F8DEBC",
">X c #F3CCB4",
",X c #F9E2A4",
"<X c #F9E3AD",
"1X c #F9E9AF",
"2X c #F9E3B5",
"3X c #F9E3BC",
"4X c #F8E6B9",
"5X c #F8DEC1",
"6X c #F7DEC5",
"7X c #EFD7C8",
"8X c #F7E2C5",
"9X c #F9E4C3",
"0X c #F9EAC4",
"qX c #F8E6CC",
"wX c #F9E9CC",
"eX c #F7E2CC",
"rX c #F8E6D2",
"tX c #F9EBD5",
"yX c #F9EDDB",
"uX c #F5E5D4",
"iX c #F9F0DA",
"pX c #F6EDE3",
"aX c #F9EEE2",
"sX c #F9F2E4",
"dX c #F8F2EB",
"fX c None",
/* pixels */
"fXfXfXfXfXfXfXfXfXfXfXfXfXfXfXfXfXfXfXfXfXfXfXfXfXfXfXfXfXfXfXfXfXfXfXfXfXfXfXfXfXfXfXfXfXfXfXfXfXfXfXfXfXfXfXfXfXfXfXfXfXfXfXfX",
"fXfXfXfXfXfXfXfXfXfXfXfXfXfXfXfXfXfXfXfXfXfXfXfXfXfXfXfXfXfXfXfXfXfXfXfXfXfXfXfXfXfXfXfXfXfXfXfXfXfXfXfXfXfXfXfXfXfXfXfXfXfXfXfX",
"fXfXfXfXfXfXfXfXfXfXfXfXfXfXfXfXfXfXfXfXfXfXfXfXfXfXfXfXfXfXfXfXfXfXfXfXfXfXfXfXfXfXfXfXfXfXfXfXfXfXfXfXfXfXfXfXfXfXfXfXfXfXfXfX",
"fXfXfXfXfXfXfXfXfXfXfXfXfXfXfXfXfXfXfXfXfXfXfXfXfXfXfXfXfXfXfXfXfXfXfXfXfXfXfXfXfXfXfXfXfXfXfXfXfXfXfXfXfXfXfXfXfXfXfXfXfXfXfXfX",
"fXfXfXfXfXfXfXfXfXfXfXfXfXfXfXfXfXfXfXfXfXfXfXfXfXfXfXfXfXfXfXfXfXfXfXfXfXfXfXfXfXfXfXfXfXfXfXfXfXfXfXfXfXfXfXfXfXfXfXfXfXfXfXfX",
"fXfXfXfXfXfXfXfXfXfXfXfXfXfXfXfXfXfXfXfXfXfXfXfXfXfXfXfXfXfXfXfXfXfXfXfXfXfXfXfXfXfXfXfXfXfXfXfXfXfXfXfXfXfXfXfXfXfXfXfXfXfXfXfX",
"fXfXfXfXfXfXfXfXfXfXfXfXfXfXfXfXfXfXfXfXfXfXfXfXfXfXfXfXfXfXfXfXfXfXfXfXfXfXfXa.Z.D.C.f.6.fXfXfXfXfXfXfXfXfXfXfXfXfXfXfXfXfXfXfX",
"fXfXfXfXfXfXfXfXfXfXfXfXfXfXfXfXfXfXfXfXfXfXfXfXfXfXfXfXfXfXfXfXfXfXfXfXfXfXA.L.^.~.~.h.s.f.b.fXfXfXfXfXfXfXfXfXfXfXfXfXfXfXfXfX",
"fXfXfXfXfXfXfXfXfXfXfXfXfXfXfXfXfXfXfXfXfXfXfXfXfXfXfXfXfXfXfXfXfXfXfXfXA.L._._.XX+X|.h.6.&.Z..XD.fXfXfXfXfXfXfXfXfXfXfXfXfXfXfX",
"fXfXfXfXfXfXfXfXfXfXfXfXfXfXfXfXfXfXfXfXfXfXfXfXfXfXfXfXfXfXfXfXfXfXa.F._.)./.E._.=X1XA.&.V 3.b.c.B O.+.fXfXfXfXfXfXfXfXfXfXfXfX",
"fXfXfXfXfXfXfXfXfXfXfXfXfXfXfXfXfXfXfXfXfXfXfXfXfXfXfXfXfXfXfXfXfXc.S._.'./.E.E./.=X1XZ.+.x M <.$.n 0 4 l ..fXfXfXfXfXfXfXfXfXfX",
"fXfXfXfXfXfXfXfXfXfXfXfXfXfXfXfXfXfXfXfXfXfXfXfXfXfXfXfXfXfXfXfXc.S.W.'.].E.E.E./.2X,Xd.+.x n | @.m a $ $ 5 x fXfXfXfXfXfXfXfXfX",
"fXfXfXfXfXfXfXfXfXfXfXfXfXfXfXfXfXfXfXfXfXfXfXfXfXfXfXfXfXfXfXv.H.~.Q.`.Q.W./.E.'.=X[.t.#.v x | | M b k 3 8 n fXfXfXfXfXfXfXfXfX",
"fXfXfXfXfXfXfXfXfXfXfXfXfXfXfXfXfXfXfXfXfXfXfXfXfXfXfXfXfXfXv.H.OX!.`.Q.E./.OX).).3XI.w.^ ~ | | m j s f l ] m fXfXfXfXfXfXfXfXfX",
"fXfXfXfXfXfXfXfXfXfXfXfXfXfXfXfXfXfXfXfXfXfXfXfXfXfXfXfXfXv.S.'.+X!.!.Q.`.OX#X).).9XK.=./ ^ ~ @.V s w w * r l Z fXfXfXfXfXfXfXfX",
"fXfXfXfXfXfXfXfXfXfXfXfXfXfXfXfXfXfXfXfXfXfXfXfXfXfXfXfXx.S.~.+X2XQ.].+X'.:X@X_.OX8XC.-. .! ~ ~ v a % $ $ 9 5 fXfXfXfXfXfXfXfXfX",
"fXfXfXfXfXfXfXfXfXfXfXfXfXfXfXfXfXfXfXfXfXfXfXfXfXfXfXfXD.].4X0XyX2X=X'.#X3XXX_.;X7Xt.@.| { T { } d = 9 : < 2 fXfXfXfXfXfXfXfXfX",
"fXfXfXfXfXfXfXfXfXfXfXfXfXfXfXfXfXfXfXfXfXfXfXfXfXfXfXD.$X0XtX9XyXqX=X).:X:X_.).qX%Xy./ ~ W R I } c * 2 6 , 7 fXfXfXfXfXfXfXfXfX",
"fXfXfXfXfXfXfXfXfXfXfXfXfXfXfXfXfXfXfXfXfXfXfXfXfXfXb..X3XwX4X].+XOX'.=X9X:XXX&XeXK.=.{ ^ R R I v z f a l 7 z fXfXfXfXfXfXfXfXfX",
"fXfXfXfXfXfXfXfXfXfXfXfXfXfXfXfXfXfXfXfXfXfXfXfXfXv.H.2XwX9X,X].'.#X=X9XqX5X@X8X7Xd.0.^ / W T ] c d g j b n x fXfXfXfXfXfXfXfXfX",
"fXfXfXfXfXfXfXfXfXfXfXfXfXfXfXfXfXfXfXfXfXfXfXfXfXD.3XwX9X=X<X+X3XyXtXrXeX5X@XrXT.u.{ / W W E u q q q w h b fXfXfXfXfXfXfXfXfXfX",
"fXfXfXfXfXfXfXfXfXfXfXfXfXfXfXfXfXfXfXfXfXfXfXfXD.&XrX0XwX9XwXrXyXsXtXwX*X*X:XeXV.8.@.| { E ] t w q + + w w fXfXfXfXfXfXfXfXfXfX",
"fXfXfXfXfXfXfXfXfXfXfXfXfXfXfXfXfXfXfXfXfXfXfXM.%XwXtXeXtXtXtXyXaXsXaX5X-X&XuXXXw.( ! ..I E m w % % % # = e fXfXfXfXfXfXfXfXfXfX",
"fXfXfXfXfXfXfXfXfXfXfXfXfXfXfXfXfXfXfXfXfXfXfXY.9XsXiXaXtXyXtXtXyXtXrX5X*X;XrXj.' _ T P I [ n w % # $ $ 1 fXfXfXfXfXfXfXfXfXfXfX",
"fXfXfXfXfXfXfXfXfXfXfXfXfXfXfXfXfXfXfXfXfXfXD.*XiXiXtXwXtXaXtXqXeX=X3X5X).qX;Xu.) ^ W T { X.Z w q % $ ; 4 fXfXfXfXfXfXfXfXfXfXfX",
"fXfXfXfXfXfXfXfXfXfXfXfXfXfXfXfXfXfXfXfXfXfX.X0XiXtXwX9XsXtXqX=X=X3XeX&XOXrXJ.7./ [ { E X.1.D Z j s e 4 2 fXfXfXfXfXfXfXfXfXfXfX",
"fXfXfXfXfXfXfXfXfXfXfXfXfXfXfXfXfXfXfXfXfXG.4XiXwXwX3XqXtXwX2X3XtXtX=XXX6X7Xu.) | m [ [ N j h j C Z M v N fXfXfXfXfXfXfXfXfXfXfX",
"fXfXfXfXfXfXfXfXfXfXfXfXfXfXfXfXfXfXfXfXm..X3XiX4X3X3XtXrXtXaXaXrX&XXX;XeXJ.8.{ N B } o.j q q w i j F S fXfXfXfXfXfXfXfXfXfXfXfX",
"fXfXfXfXfXfXfXfXfXfXfXfXfXfXfXfXfXfXfXfXG. X,X1X[.4XtXaXsXsXtX5XXXXXoXrX>Xu.( X.B m m b s p p p p w w C fXfXfXfXfXfXfXfXfXfXfXfX",
"fXfXfXfXfXfXfXfXfXfXfXfXfXfXfXfXfXfXfXm.^.|.1X0XrXtXyXtX9X2X#X;X@XoX6XeXV.7.%.B ;.X.N h p w a l y l z fXfXfXfXfXfXfXfXfXfXfXfXfX",
"fXfXfXfXfXfXfXfXfXfXfXfXfXfXfXfXfXfXfXG.,X1XsXsX0X4X9X8X3X=XqX*XXX&XpXT.u.#.;.Z :. .N g i & 1 2 7 v N fXfXfXfXfXfXfXfXfXfXfXfXfX",
"fXfXfXfXfXfXfXfXfXfXfXfXfXfXfXfXfXfXm..X0XsXiX4X,X4XtXyXdXtX9XOX@X6X%Xt.( @.A 1.>.@.o.h + & 5 7 7 V fXfXfXfXfXfXfXfXfXfXfXfXfXfX",
"fXfXfXfXfXfXfXfXfXfXfXfXfXfXfXfXfXfXU.9XsXyX2X+X4X0X<X2XdXqXOXXX6XpXU.6.+.;.z.l.5.4.1.F h w $ 2 u A fXfXfXfXfXfXfXfXfXfXfXfXfXfX",
"fXfXfXfXfXfXfXfXfXfXfXfXfXfXfXfXfXD.%XrXyX4X,X2XwX4X].3X9XOXXX=XpXuXb.:.;.2.l.5.n.1.;.F Z n t 1 y fXfXfXfXfXfXfXfXfXfXfXfXfXfXfX",
"fXfXfXfXfXfXfXfXfXfXfXfXfXfXfXfXfXR.3XtX4X|.<XqX3X2X2X9X*X@X&XtXpXU.2.3.k.2.4.;.M p & s M ..u y N fXfXfXfXfXfXfXfXfXfXfXfXfXfXfX",
"fXfXfXfXfXfXfXfXfXfXfXfXfXfXfXfXfXR.4XwX,X,X0X2X3X2XqXqXeX*XqXpX7Xn.3.z.N.4.<.n e w q + w r [ X.fXfXfXfXfXfXfXfXfXfXfXfXfXfXfXfX",
"fXfXfXfXfXfXfXfXfXfXfXfXfXfXfXfXY.[.,X4X,X3X3X2X9XwXwXwX2X3XpX7Xb.,.3.z.5.6.;.d w w p w + % l o.fXfXfXfXfXfXfXfXfXfXfXfXfXfXfXfX",
"fXfXfXfXfXfXfXfXfXfXfXfXfXfXfXfXS.`. X<X3XiXiXwXwXtXrX6X=XiXuXY.6.+.+.X.$.2.Z w p p p a * 4 n fXfXfXfXfXfXfXfXfXfXfXfXfXfXfXfXfX",
"fXfXfXfXfXfXfXfXfXfXfXfXfXfXfXfX{.!.|.3XyXyXaXtXtXtXrX3XtXyX%Xd.%.@.{ { X.:.n w w p k l 4 x fXfXfXfXfXfXfXfXfXfXfXfXfXfXfXfXfXfX",
"fXfXfXfXfXfXfXfXfXfXfXfXfXfXfXR.~.Q.2XrXtXtXtXyXaXaXqX9XtX-XK.w.@.@.Q Q E { ..t + w 4 7 l A fXfXfXfXfXfXfXfXfXfXfXfXfXfXfXfXfXfX",
"fXfXfXfXfXfXfXfXfXfXfXfXfXfXfXR.}.+X8XrXwXtX3XtXrXeXqXtX=XT.t./ ~ Q Y Y U Y @.| 3 % w r B fXfXfXfXfXfXfXfXfXfXfXfXfXfXfXfXfXfXfX",
"fXfXfXfXfXfXfXfXfXfXfXfXfXfXfX^.!.1XtXrX9X4X+X=X=X8XtX9XoXV.' W E J H , ; : L [ [ z e t fXfXfXfXfXfXfXfXfXfXfXfXfXfXfXfXfXfXfXfX",
"fXfXfXfXfXfXfXfXfXfXfXfXfXfXfX^.}.,X2X<X#XOX'.OX:XtX5XP.C.8.^ E T J < o - - # 6 [  .v N fXfXfXfXfXfXfXfXfXfXfXfXfXfXfXfXfXfXfXfX",
"fXfXfXfXfXfXfXfXfXfXfXfXfXfXfX'. XW.Q.Q.'.'.OX3XqX=XJ.r.8.( W Y U H X @ O # # 1 L ] ;.fXfXfXfXfXfXfXfXfXfXfXfXfXfXfXfXfXfXfXfXfX",
"fXfXfXfXfXfXfXfXfXfXfXfXfXfXfX+X`.Q.Q.`.'.].4XtX=Xj.q.` _ W Y U J < % & $ 1 2 2 2 m D fXfXfXfXfXfXfXfXfXfXfXfXfXfXfXfXfXfXfXfXfX",
"fXfXfXfXfXfXfXfXfXfXfXfXfXfXfX#X|.`.].OX#X2X8X>Xj.q.` ` R Y U U J 4 w e $ 8 6 8 r Z fXfXfXfXfXfXfXfXfXfXfXfXfXfXfXfXfXfXfXfXfXfX",
"fXfXfXfXfXfXfXfXfXfXfXfXfXfXfX&X4X1X2X:X3X:XoXg.8._ / I J J U H 8 f w w * 7 8 7 A fXfXfXfXfXfXfXfXfXfXfXfXfXfXfXfXfXfXfXfXfXfXfX",
"fXfXfXfXfXfXfXfXfXfXfXfXfXfXfXoX*X:X6X6XXXL.d.=.#.[ r 8 G G < ; & g s w % 4 7 N fXfXfXfXfXfXfXfXfXfXfXfXfXfXfXfXfXfXfXfXfXfXfXfX",
"fXfXfXfXfXfXfXfXfXfXfXfXfXfXfXV.J.P.oXP.g.r.=. .v 0 8 , < o .   - & d k p * M fXfXfXfXfXfXfXfXfXfXfXfXfXfXfXfXfXfXfXfXfXfXfXfXfX",
"fXfXfXfXfXfXfXfXfXfXfXfXfXfXfXt.p.p.g.i.q.' / } 7 K G < #   . . X X 5 8 u z fXfXfXfXfXfXfXfXfXfXfXfXfXfXfXfXfXfXfXfXfXfXfXfXfXfX",
"fXfXfXfXfXfXfXfXfXfXfXfXfXfXfXy.e.e.e.q.7.( R J G H G # @ - - X : : 2 < P ;.fXfXfXfXfXfXfXfXfXfXfXfXfXfXfXfXfXfXfXfXfXfXfXfXfXfX",
"fXfXfXfXfXfXfXfXfXfXfXfXfXfXfXfX9.9.9.0.0.~ Y H < > 1 O q w % $ : , , } *.fXfXfXfXfXfXfXfXfXfXfXfXfXfXfXfXfXfXfXfXfXfXfXfXfXfXfX",
"fXfXfXfXfXfXfXfXfXfXfXfXfXfXfXfXfX<.-.' ! P J G X . . # 4 2 = O 9 , L fXfXfXfXfXfXfXfXfXfXfXfXfXfXfXfXfXfXfXfXfXfXfXfXfXfXfXfXfX",
"fXfXfXfXfXfXfXfXfXfXfXfXfXfXfXfXfXfX<.@.P L L 1 .   X X 6 J L 4 1 V fXfXfXfXfXfXfXfXfXfXfXfXfXfXfXfXfXfXfXfXfXfXfXfXfXfXfXfXfXfX",
"fXfXfXfXfXfXfXfXfXfXfXfXfXfXfXfXfXfXfXfXk O = e + @ X : , J E } b fXfXfXfXfXfXfXfXfXfXfXfXfXfXfXfXfXfXfXfXfXfXfXfXfXfXfXfXfXfXfX",
"fXfXfXfXfXfXfXfXfXfXfXfXfXfXfXfXfXfXfXfXfXc O & k w % 9 , K I E fXfXfXfXfXfXfXfXfXfXfXfXfXfXfXfXfXfXfXfXfXfXfXfXfXfXfXfXfXfXfXfX",
"fXfXfXfXfXfXfXfXfXfXfXfXfXfXfXfXfXfXfXfXfXfXx $ 2 x * * l O.fXfXfXfXfXfXfXfXfXfXfXfXfXfXfXfXfXfXfXfXfXfXfXfXfXfXfXfXfXfXfXfXfXfX",
"fXfXfXfXfXfXfXfXfXfXfXfXfXfXfXfXfXfXfXfXfXfXfXv 7 O.V b F fXfXfXfXfXfXfXfXfXfXfXfXfXfXfXfXfXfXfXfXfXfXfXfXfXfXfXfXfXfXfXfXfXfXfX",
"fXfXfXfXfXfXfXfXfXfXfXfXfXfXfXfXfXfXfXfXfXfXfX3.fXfXfXfXfXfXfXfXfXfXfXfXfXfXfXfXfXfXfXfXfXfXfXfXfXfXfXfXfXfXfXfXfXfXfXfXfXfXfXfX",
"fXfXfXfXfXfXfXfXfXfXfXfXfXfXfXfXfXfXfXfXfXfXfXfXfXfXfXfXfXfXfXfXfXfXfXfXfXfXfXfXfXfXfXfXfXfXfXfXfXfXfXfXfXfXfXfXfXfXfXfXfXfXfXfX",
"fXfXfXfXfXfXfXfXfXfXfXfXfXfXfXfXfXfXfXfXfXfXfXfXfXfXfXfXfXfXfXfXfXfXfXfXfXfXfXfXfXfXfXfXfXfXfXfXfXfXfXfXfXfXfXfXfXfXfXfXfXfXfXfX",
"fXfXfXfXfXfXfXfXfXfXfXfXfXfXfXfXfXfXfXfXfXfXfXfXfXfXfXfXfXfXfXfXfXfXfXfXfXfXfXfXfXfXfXfXfXfXfXfXfXfXfXfXfXfXfXfXfXfXfXfXfXfXfXfX",
"fXfXfXfXfXfXfXfXfXfXfXfXfXfXfXfXfXfXfXfXfXfXfXfXfXfXfXfXfXfXfXfXfXfXfXfXfXfXfXfXfXfXfXfXfXfXfXfXfXfXfXfXfXfXfXfXfXfXfXfXfXfXfXfX",
"fXfXfXfXfXfXfXfXfXfXfXfXfXfXfXfXfXfXfXfXfXfXfXfXfXfXfXfXfXfXfXfXfXfXfXfXfXfXfXfXfXfXfXfXfXfXfXfXfXfXfXfXfXfXfXfXfXfXfXfXfXfXfXfX"
};
