/* XPM */
static char *result[] = {
/* columns rows colors chars-per-pixel */
"64 64 236 2 ",
"   c #3B1C1E",
".  c #3B1E20",
"X  c #3C2427",
"o  c #3E2D34",
"O  c #481B1C",
"+  c #581A1C",
"@  c #721C1E",
"#  c #511E21",
"$  c #791E20",
"%  c #492528",
"&  c #552428",
"*  c #472D32",
"=  c #572D32",
"-  c #47343B",
";  c #573238",
":  c #672428",
">  c #79272B",
",  c #652D31",
"<  c #782D32",
"1  c #673439",
"2  c #783337",
"3  c #70302E",
"4  c #4A3C43",
"5  c #543C44",
"6  c #673D44",
"7  c #743C45",
"8  c #56444A",
"9  c #594C57",
"0  c #50484F",
"q  c #6A444A",
"w  c #77474B",
"e  c #6B4D5B",
"r  c #764C57",
"t  c #685558",
"y  c #775558",
"u  c #6E504F",
"i  c #5B5161",
"p  c #675768",
"a  c #785866",
"s  c #695D72",
"d  c #745F73",
"f  c #6C6378",
"g  c #766277",
"h  c #6F626A",
"j  c #7F605E",
"k  c #BF0B0D",
"l  c #BC0D14",
"z  c #B90E17",
"x  c #AE171C",
"c  c #BD1315",
"v  c #B4141B",
"b  c #BB151A",
"n  c #B51A1D",
"m  c #BC1A1D",
"M  c #B71116",
"N  c #AD1D23",
"B  c #B41C22",
"V  c #BB1D22",
"C  c #B71924",
"Z  c #89252A",
"A  c #99272C",
"S  c #892C33",
"D  c #9A2C31",
"F  c #87363D",
"G  c #98353A",
"H  c #AB2226",
"J  c #A4262A",
"K  c #AB242B",
"L  c #AD2B2D",
"P  c #A72B2F",
"I  c #B42225",
"U  c #BB2224",
"Y  c #B4252A",
"T  c #BB252A",
"R  c #B2292C",
"E  c #BC2A2D",
"W  c #BD2827",
"Q  c #A72E34",
"!  c #B42C32",
"~  c #BC2D32",
"^  c #B82D37",
"/  c #A83539",
"(  c #BC3235",
")  c #B3343B",
"_  c #BC353A",
"`  c #BC3B3D",
"'  c #B5373A",
"]  c #8B1A1C",
"[  c #C20C0D",
"{  c #C10507",
"}  c #C40E11",
"|  c #C31314",
" . c #C01718",
".. c #C21A1B",
"X. c #C51B1A",
"o. c #C21E21",
"O. c #C32323",
"+. c #C22A2B",
"@. c #C42728",
"#. c #C32E31",
"$. c #C33435",
"%. c #C13A3B",
"&. c #C2302D",
"*. c #873E43",
"=. c #973B44",
"-. c #A83B45",
";. c #B43C42",
":. c #BC3C43",
">. c #B83846",
",. c #AC3F55",
"<. c #C13D42",
"1. c #884548",
"2. c #974449",
"3. c #9A4856",
"4. c #875558",
"5. c #9A5657",
"6. c #854751",
"7. c #A9464A",
"8. c #B44345",
"9. c #BC4245",
"0. c #B8474B",
"q. c #AB4B57",
"w. c #B44C54",
"e. c #BA4D53",
"r. c #B64756",
"t. c #AA5658",
"y. c #BD5254",
"u. c #BC545A",
"i. c #BB5A5D",
"p. c #B35559",
"a. c #A7534E",
"s. c #8C625D",
"d. c #A4645B",
"f. c #875865",
"g. c #965C72",
"h. c #965668",
"j. c #B44E63",
"k. c #A75866",
"l. c #B35B62",
"z. c #BB5C64",
"x. c #B65768",
"c. c #B55D73",
"v. c #886767",
"b. c #976965",
"n. c #8A6878",
"m. c #936E6F",
"M. c #AA6568",
"N. c #BC6165",
"B. c #BC656C",
"V. c #B7676A",
"C. c #AA6B76",
"Z. c #BC6C73",
"A. c #B76976",
"S. c #B5747C",
"D. c #BC747B",
"F. c #BA7579",
"G. c #AA7770",
"H. c #C34344",
"J. c #C24B4C",
"K. c #C54647",
"L. c #C24D51",
"P. c #C35354",
"I. c #C25C5C",
"U. c #C85857",
"Y. c #D3544C",
"T. c #D6665B",
"R. c #C55C62",
"E. c #C36365",
"W. c #C26C6D",
"Q. c #C86B64",
"!. c #D46B64",
"~. c #C67666",
"^. c #D57469",
"/. c #C16E73",
"(. c #C37678",
"). c #D97D73",
"_. c #E17A6C",
"`. c #B18573",
"'. c #CA8477",
"]. c #D08A71",
"[. c #E58C73",
"{. c #776F86",
"}. c #8C748C",
"|. c #A67781",
" X c #B57B83",
".X c #BC7B83",
"XX c #B97985",
"oX c #C37C85",
"OX c #AA8686",
"+X c #BC838B",
"@X c #BA8489",
"#X c #BB8592",
"$X c #BC8A94",
"%X c #B78A96",
"&X c #BB939B",
"*X c #B59399",
"=X c #AD9298",
"-X c #B996A2",
";X c #B59AA4",
":X c #BB9CA4",
">X c #B59DA9",
",X c #B899A5",
"<X c #AC9BA5",
"1X c #AAA1AE",
"2X c #B4A2AD",
"3X c #BBA3AC",
"4X c #B9A6AA",
"5X c #B4AAB4",
"6X c #B9AAB5",
"7X c #BAB2BB",
"8X c #ADAAB6",
"9X c #B4A189",
"0X c #C48789",
"qX c #D89987",
"wX c #C28D92",
"eX c #C29296",
"rX c #C4969B",
"tX c #D18E83",
"yX c #E29285",
"uX c #CEA991",
"iX c #E6AC90",
"pX c #C39EA3",
"aX c #C2A4AB",
"sX c #C6A3A7",
"dX c #C1A9B2",
"fX c #C4B3BB",
"gX c #CFBBA5",
"hX c #E5B8A4",
"jX c #D8C6BB",
"kX c #E7CFB5",
"lX c #EAC29A",
"zX c #C4BBC3",
"xX c #E9D8C9",
"cX c #E2D5D1",
"vX c #D4C9CB",
"bX c None",
/* pixels */
"bXbXbXbXbXbXbXbXbXbXbXbXbXbXbXbXbXbXbXbXbXbXbXbXbXbXbXbXbXbXbXbXbXbXbXbXbXbXbXbXbXbXbXbXbXbXbXbXbXbXbXbXbXbXbXbXbXbXbXbXbXbXbXbX",
"bXbXbXbXbXbXbXbXbXbXbXbXbXbXbXbXbXbXbXbXbXbXbXbXbXbXbXbXbXbXbXbXbXbXbXbXbXbXbXbXbXbXbXbXbXbXbXbXbXbXbXbXbXbXbXbXbXbXbXbXbXbXbXbX",
"bXbXbXbXbXbXbXbXbXbXbXbXbXbXbXbXbXbXbXbXbXbXbXbXbXbXbXbXbXbXbXbXbXbXbXbXbXbXbXbXbXbXbXbXbXbXbXbXbXbXbXbXbXbXbXbXbXbXbXbXbXbXbXbX",
"bXbXbXbXbXbXbXbXbXbXbXbXbXbXbXbXbXbXbXbXbXbXbXbXbXbXbXbXbXbXbXbXbXbXbXbXbXbXbXbXbXbXbXbXbXbXbXbXbXbXbXbXbXbXbXbXbXbXbXbXbXbXbXbX",
"bXbXbXbXbXbXbXbXbXbXbXbXbXbXbXbXbXbXbXbXbXbXbXbXbXbXbXs.v.v.s.b.t.a.a.a.d.s.t bXbXbXbXbXbXbXbXbXbXbXbXbXbXbXbXbXbXbXbXbXbXbXbXbX",
"bXbXbXbXbXbXbXbXbXbXbXbXbXbXbXbXbXbXbXbXbXbXbXbXG.`.`.d.s.y u u 1./ L 2.q 5 u u t t bXbXbXbXbXbXbXbXbXbXbXbXbXbXbXbXbXbXbXbXbXbX",
"bXbXbXbXbXbXbXbXbXbXbXbXbXbXbXbXbXbXbXbXbXbX].V.i.a.u w u u 8 4.d.p.q.y 9 4 4 6 5 0 u u bXbXbXbXbXbXbXbXbXbXbXbXbXbXbXbXbXbXbXbX",
"bXbXbXbXbXbXbXbXbXbXbXbXbXbXbXbXbXbXbXbX].T.Y.K.y.5.w w *.*.*.L W m I / =.q 8 0 q *.=.*.2.s.bXbXbXbXbXbXbXbXbXbXbXbXbXbXbXbXbXbX",
"bXbXbXbXbXbXbXbXbXbXbXbXbXbXbXbXbXbX9X^.Y.K.y.a.7.-.G A H L n k k { b n B D 1.*.5.k.' b M m 7.b.bXbXbXbXbXbXbXbXbXbXbXbXbXbXbXbX",
"bXbXbXbXbXbXbXbXbXbXbXbXbXbXbXbXbXqX^.T.Y.K.;./ P N B v n m m | } } V V b n H H K ) y.y.W | I 2.v.bXbXbXbXbXbXbXbXbXbXbXbXbXbXbX",
"bXbXbXbXbXbXbXbXbXbXbXbXbXbXbX9X].^.U.U.<.~ T H N v z m |  .b c [ c n U I N x v n U E J.I.$.m G 1.s.bXbXbXbXbXbXbXbXbXbXbXbXbXbX",
"bXbXbXbXbXbXbXbXbXbXbXbXbXbX9XqX'.P.H.( V z C n x x l k [ | b l { M I 8.B./ N C  . . .X.E y.` Q D G v.m.bXbXbXbXbXbXbXbXbXbXbXbX",
"bXbXbXbXbXbXbXbXbXbXbXbXbXgXqX0XQ.` T B C z z v x x l [ | b n v l l C XX%X;.B v b .. .| b W y.0.R J 1.s.n.bXbXbXbXbXbXbXbXbXbXbX",
"bXbXbXbXbXbXbXbXbXbXbXbXbXhX[.I.` O.[ l l k b v z v l [ O.e.m b z v C &X>Xx.Y z b .. . .v b W i.y.R J -.5.bXbXbXbXbXbXbXbXbXbXbX",
"bXbXbXbXbXbXbXbXbXbXbXbXhXqXW.` T [ k l l l v v l k b I 8.M.V } z C 0.>X>XA.E ~ e.%.| ..0.( b ( l.9.b H 7.h.bXbXbXbXbXbXbXbXbXbX",
"bXbXbXbXbXbXbXbXbXbXbXkX[.~.9.I x l M v l } v v z l n 8.S.p.C } | V E.6X%X0.>.(././.` I W.W.E b %.E.' v K 5.bXbXbXbXbXbXbXbXbXbX",
"bXbXbXbXbXbXbXbXbXbXvXiX).K.) N x v B B V @.o.c M U 8.C.S.' v  .z m R.aXXX( E.:X.X0XV.R I.wXK.b O.P.u.I N Q g.bXbXbXbXbXbXbXbXbX",
"bXbXbXbXbXbXbXbXbXjXhX[.U.#.T C v x L p.D.0XoXW.N.A.@X@X0.N v V m m E.dX/.H.wX-XD.D.w.K 8.$XB.V  .+.y.` C B ,.C.}.bXbXbXbXbXbXbX",
"bXbXbXbXbXbXbXbXbXkXyX!.<.o. .V ' r.k.OXpXdXdXdX3X$XF.J.V C ) ,.8.r.(.fXQ.U.pX$XB.c.) n 0.*XXXE | X.H.P.b v K h.g {.bXbXbXbXbXbX",
"bXbXbXbXbXbXbXbXvXiX[.K.+...o.K.D.$X@Xk.u.E.x.x.N.y.+...O.$.oX-X X-XsXfXR.W.3XwX.XP.! n l.4XS.#.| X.#.R.~ C Y ,.p i bXbXbXbXbXbX",
"bXbXbXbXbXbXbXbXxX[.R.#.m E i.XXwX+X X0.B V n z b b O.J.R.W.dX6XXX5XfX7XR.0X6X:X$X<.V :.@X5XN.m | } X.U.P.I N -.g f bXbXbXbXbXbX",
"bXbXbXbXbXbXbXvXjXtXK.E T u.$X@XXXF.Z.w.B B v C E V ( eXwXwXrXpXe.>X6X7X.X.XpX3XZ.$.$.(.dXrX0.b } } | %.N.n v K n.f bXbXbXbXbXbX",
"bXbXbXbXbXbXbXcXuXF.$.V _ @X%X XZ.B.N.9.v I L 0.A.u.>.pX0X0XpX&Xi.>X&X6X*Xy.u.u.<.<.oXdX3XB.W m X. .X._ u.V l B g.d bXbXbXbXbXbX",
"bXbXbXbXbXbX7XxX`.t.E m I.:XA.B.D.Z.i.( ! / k. X>XXXL.aXXX(.pXrX.X*Xi.XXB.! I ^ z.eXfXaXB.( b m ..m m ( e.( M v q.n.d bXbXbXbXbX",
"bXbXbXbXbXbXvXgX`.7.! ~ oX:Xw.;.B.u.p.l.x.C.OX&XpXwX/.aXXX(.aX&X%XB.U R R ! w.@X6XdXrXR.E b k c m B B H >.,.N v q.}.d bXbXbXbXbX",
"bXbXbXbXbXbXxXuX`.3.R P.-X-Xe.) 8.>.x.>X-XoXA.XX6X$XwX3Xc./.3XXXz.~ W / q.XX5X6XaX0X0.E  ...m c c I J K 7.5.G Q ,.}.{.{.bXbXbXbX",
"bXbXbXbXbXbXxXuX`.a.R Z.4X@XN..X*X X0XdX%X,.) B.6XaX3X-Xj.B.>Xx.^ ) w.|.<X8X3X0X/.e.E y.` b b b b J / L 2.v.q 6 p }.9 {.bXbXbXbX",
"bXbXbXbXbX6XxXtXW.a.! D.1XC. XpX(.D.eX:XA.n T B.7XfX7X X$.(.>Xt.V.%X2X1X<X#XR.%.L.XXA.V.:.} m m n n H K 6.a i 0 d }.0 4 bXbXbXbX",
"bXbXbXbXbX7XxX[.E.:.R XX1XM.@XpXB.N.eX4XV.b  .%.eXaX<XG.9.#X5X`.5X6X>XXXr.T  .<.0XeX*XB.E m  .b m m n J 7 {.p 0 d }.i i bXbXbXbX",
"bXbXbXbXbXgXkXqXU.+.I  X1Xk.S. XV.N.0XsXB.b m #.z.(.-XOX@XeX8X-X;X#XR.>.( +.o.oX$X*X@XH.m V } { { k m R =.d s i {.}.p s bXbXbXbX",
"bXbXbXbXbXgXlX].u.E m +X8X|.x.0.i.u.W.sXW.| @.I.B.z.-XXX*X&X*Xc.e.V.#X#X#X+X+X3X2X2X0.X. ... .| k [ m T h.{.{.i d }.p s bXbXbXbX",
"bXbXbXbXbXgXlX`.p.@. .(.fX6XA.M.V.9.H.(.K.O.K.0X$X#X=XD.S.*XXXi.0XeXrX:X-X:X6X5X@XF.`  .m $.@.[ { k  .$.C.{.s i a 6.a s bXbXbXbX",
"bXbXbXbXbX].iX].V.~ [ P.aX7X6XXXr.m } O.K.(.0XrXwXoXR._ _ V.*XpXeX$.@.O...E #X#XM.p.;.:.B.#XL. .} } } +.|.{.v.r g.2.*.a bXbXbXbX",
"bXbXbXbXbX[.iX^.B._ }  .U.oXB.>.C C ^ A.-X6XpX.X/.P.O.+.B.@XS..XrX+.} | | ( *XD.(.e.N.S.&X4XP.X.| | ..` }.{.a f.h.1.*.}.}.bXbXbX",
"bXbXbXbXbXuXiX^.W.( U m o.O.V C Y u.#X>X8X>X.XH...O.o.L.*X(.Z.9.tX$.| | o.L.pX/.W.I.wX`.$XpXQ.@.} | +.u.C.g.,.3.3.2 ; 7 }.bXbXbX",
"bXbXbXbXbX9X[.).~.( U  .c [ { Y A.-X5X8X=Xl.^ V l | #.wXeXy.XX;..X~ n m ^ B.3X0XU./.pX/.@X@X(.J.} | $.W.A.k.,.j.=.1 o 5 bXbXbXbX",
"bXbXbXbXbXOX[._.^.a.Q m c k T S.<X7X5XOX7.E I n b O.I.aX(.` +XZ.x.T ) :.>.A.2X@X%.(.sX(.%X&XZ.K.X.U :.XXc.r.j.,.*.6 5 bXbXbXbXbX",
"bXbXbXbXbXbX[.iXV.6.=.B b b z.>X8X5XOX7.H M m m  .#.+X4Xy.$./.u.~ q. X@Xr.XX4XE.H.wXdXwX3X4Xi.O.T 8.k.XXc.j.x.=.F q e bXbXbXbXbX",
"bXbXbXbXbXbX0XqX`.4.w Q I R  X8X8X<Xp.N I m m }  .%.*X%X_ ;.x.e.^ |.OXS.D.$X4XJ.E.sXzXsXsXwX0.m Y 7.V.V.q.j.7.G 7 e f bXbXbXbXbX",
"bXbXbXbXbXbXOXtXiXb.4.=.K R  X7X7XXX>.x x M  .[  .P.>X+X:..X#X.XV.=X X.X/.wXfX/.W.rX6X.XJ.+.V H / M.M.l.j.j.D S 6 9 bXbXbXbXbXbX",
"bXbXbXbXbXbXbX].iX^.V.a.Y c u.;X7X2XA.) B M [ | @./.2X#XB.>XXXwX%X<Xr.D.y.(.dX4Xi.H.` ~ V l b ' q.l.j.j.Z.-.D < e 9 bXbXbXbXbXbX",
"bXbXbXbXbXbXbX(.[.yXQ.N.( | V y..X-X#XXXe.W | m ` +X6X0X@X,Xc.0X,X<Xw.Z._ K.eX@X0.U b | m m ~ q.k.q.j.c.A.G S = 5 i bXbXbXbXbXbX",
"bXbXbXbXbXbXbXbX!.yX^.V.i.( B ..O._ >.:.( U Y U >.#X7XeX+X.X<.wX>X8X%Xz.O.X.%.( O.b b m c T r.k.4.3.c.c.=.7 & % - w n.bXbXbXbXbX",
"bXbXbXbXbXbXbXbX^.T.^.Z.Z.p.R M } } } k [ l C n ' #X7XrXE.I.P.XX&X5X&X:.X. .m M [ | I m E 8.r.3.r n.k.=.1 = = * - bXbXbXbXbXbXbX",
"bXbXbXbXbXbXbXbX~.Y.!.tXF.b.7.b } } [ [ } z z v /  X5X:X/.E.(.J.H.u.<.O.b b n n |  .n ! y.t./ =.f.{.e 6 ; ; ; q bXbXbXbXbXbXbXbX",
"bXbXbXbXbXbXbXbX`.a.Y.).0Xb.4.G R V X.| C V z M Y p.>X8X-X0XQ.o.|  .[ c m U n n I L 7.t.k.q.7.3.3.e 5 = - ; 6 bXbXbXbXbXbXbXbXbX",
"bXbXbXbXbXbXbXbXbXm.d.Q.`.`.v.y 6.2.R | c m } [ m m z.XXD.J.@.} }  .|  .V I P D G 1.4.h.n.m.p.3.7 , = = 4 0 bXbXbXbXbXbXbXbXbXbX",
"bXbXbXbXbXbXbXbXbXbXbXM.b.`.G.s.4.4.7.@.} { | } } [ b ) ~ | } } | X.[  .V / 2.4.a h a n.C.C.7.=.6 = & 4 5 9 bXbXbXbXbXbXbXbXbXbX",
"bXbXbXbXbXbXbXbXbXbXbXbXb.d.M.M.d.a.y.P.%.@.O...| | | v n c | [  .m } T ^ 3.a v.s {.}.C.V.7.A ] : & * = 6 e bXbXbXbXbXbXbXbXbXbX",
"bXbXbXbXbXbXbXbXbXbXbXbXG.5.a.b.m.a.8.9.y.J.J.$.$.$.T U Y I U T ~ :.:.>.,.3.4.a n.n.g.q.G Z > @ # . . & F f.bXbXbXbXbXbXbXbXbXbX",
"bXbXbXbXbXbXbXbXbXbXbXbXbX5.F 1.4.5.8.R W ~ J.J.J.J.J.>.` 8.;.w.>.p.u.>.:.q.7.q.k.5.*.F Z > : + % * o % bXbXbXbXbXbXbXbXbXbXbXbX",
"bXbXbXbXbXbXbXbXbXbXbXbXbXt.< < *.=./ ' E V m R R E _ :.9.7.8.;.Y Q K K 8.p.5.2.D Z S < : & & = = 8 bXbXbXbXbXbXbXbXbXbXbXbXbXbX",
"bXbXbXbXbXbXbXbXbXbXbXbXbXbX3 1 1.G ! ! W I I / L L n n K L H A -.Q Q -.G G 7 1 < > $ : ; - - ; e bXbXbXbXbXbXbXbXbXbXbXbXbXbXbX",
"bXbXbXbXbXbXbXbXbXbXbXbXbXbXbXbXbX5.7./ K H H J D K H H H J J Z A A A A < , , = , : & * o 4 4 bXbXbXbXbXbXbXbXbXbXbXbXbXbXbXbXbX",
"bXbXbXbXbXbXbXbXbXbXbXbXbXbXbXbXbXbXm.2.F S S A S A D D A Z Z $ $ $ : : & & % % O O   X o 4 bXbXbXbXbXbXbXbXbXbXbXbXbXbXbXbXbXbX",
"bXbXbXbXbXbXbXbXbXbXbXbXbXbXbXbXbXbXbXv.; . + : > > Z : : & & : & & + + + O X X % % O . * 8 bXbXbXbXbXbXbXbXbXbXbXbXbXbXbXbXbXbX",
"bXbXbXbXbXbXbXbXbXbXbXbXbXbXbXbXbXbXbXm.1.X X # : 3 < > : % O O O O O & & % o * 5 bXbXbXbXbXbXbXbXbXbXbXbXbXbXbXbXbXbXbXbXbXbXbX",
"bXbXbXbXbXbXbXbXbXbXbXbXbXbXbXbXbXbXbXbXbXbXbXbXbXs.y 1.3 X % % O O X = : = 4 bXbXbXbXbXbXbXbXbXbXbXbXbXbXbXbXbXbXbXbXbXbXbXbXbX",
"bXbXbXbXbXbXbXbXbXbXbXbXbXbXbXbXbXbXbXbXbXbXbXbXbXbXbXs.< & 8 bXbXbXbXbX< 1 bXbXbXbXbXbXbXbXbXbXbXbXbXbXbXbXbXbXbXbXbXbXbXbXbXbX",
"bXbXbXbXbXbXbXbXbXbXbXbXbXbXbXbXbXbXbXbXbXbXbXbXbXbXbXbXbXbXbXbXbXbXbXbXbXbXbXbXbXbXbXbXbXbXbXbXbXbXbXbXbXbXbXbXbXbXbXbXbXbXbXbX",
"bXbXbXbXbXbXbXbXbXbXbXbXbXbXbXbXbXbXbXbXbXbXbXbXbXbXbXbXbXbXbXbXbXbXbXbXbXbXbXbXbXbXbXbXbXbXbXbXbXbXbXbXbXbXbXbXbXbXbXbXbXbXbXbX",
"bXbXbXbXbXbXbXbXbXbXbXbXbXbXbXbXbXbXbXbXbXbXbXbXbXbXbXbXbXbXbXbXbXbXbXbXbXbXbXbXbXbXbXbXbXbXbXbXbXbXbXbXbXbXbXbXbXbXbXbXbXbXbXbX",
"bXbXbXbXbXbXbXbXbXbXbXbXbXbXbXbXbXbXbXbXbXbXbXbXbXbXbXbXbXbXbXbXbXbXbXbXbXbXbXbXbXbXbXbXbXbXbXbXbXbXbXbXbXbXbXbXbXbXbXbXbXbXbXbX",
"bXbXbXbXbXbXbXbXbXbXbXbXbXbXbXbXbXbXbXbXbXbXbXbXbXbXbXbXbXbXbXbXbXbXbXbXbXbXbXbXbXbXbXbXbXbXbXbXbXbXbXbXbXbXbXbXbXbXbXbXbXbXbXbX"
};
