/* XPM */
static char *result[] = {
/* columns rows colors chars-per-pixel */
"64 64 238 2 ",
"   c #3B1E21",
".  c #3C2529",
"X  c #3E1D1F",
"o  c #491C1E",
"O  c #641B1E",
"+  c #7A181A",
"@  c #501E21",
"#  c #741E21",
"$  c #681F21",
"%  c #482629",
"&  c #562729",
"*  c #492D33",
"=  c #5B2F31",
"-  c #4B353A",
";  c #583538",
":  c #682426",
">  c #75282B",
",  c #652E32",
"<  c #673335",
"1  c #78373C",
"2  c #7A2E34",
"3  c #543D43",
"4  c #4C3A40",
"5  c #6E3D44",
"6  c #564449",
"7  c #5A4A53",
"8  c #5B565D",
"9  c #4C4448",
"0  c #664749",
"q  c #784849",
"w  c #664B56",
"e  c #7B5459",
"r  c #6F4F54",
"t  c #5F5A67",
"y  c #655667",
"u  c #775967",
"i  c #745E71",
"p  c #786879",
"a  c #777779",
"s  c #6B656D",
"d  c #85191C",
"f  c #98191C",
"g  c #970E11",
"h  c #BD1719",
"j  c #B51B1E",
"k  c #BC1A1D",
"l  c #BC1517",
"z  c #A91A1E",
"x  c #931E23",
"c  c #B41E22",
"v  c #BC1E21",
"b  c #AA1F23",
"n  c #88262A",
"m  c #962327",
"M  c #853437",
"N  c #9A353A",
"B  c #9A2C33",
"V  c #AA2529",
"C  c #B42225",
"Z  c #BB2224",
"A  c #B3242A",
"S  c #BB252A",
"D  c #B3292D",
"F  c #BC2A2C",
"G  c #BA2827",
"H  c #AC2E33",
"J  c #A62A33",
"K  c #BC2D33",
"L  c #B32C34",
"P  c #A8353A",
"I  c #B53234",
"U  c #BC3234",
"Y  c #BC363B",
"T  c #BC3B3C",
"R  c #B4383C",
"E  c #BD302E",
"W  c #CA0F10",
"Q  c #C51414",
"!  c #C91413",
"~  c #C51916",
"^  c #C11619",
"/  c #C21A1B",
"(  c #C60F0E",
")  c #C3211E",
"_  c #C21F21",
"`  c #C32223",
"'  c #C32C2C",
"]  c #C52728",
"[  c #C42E31",
"{  c #C33334",
"}  c #C33B3C",
"|  c #C63939",
" . c #C4302F",
".. c #BF413F",
"X. c #9C403F",
"o. c #CD463F",
"O. c #983C42",
"+. c #8A3E42",
"@. c #A83C43",
"#. c #BB3D42",
"$. c #B23B43",
"%. c #C23D42",
"&. c #884747",
"*. c #97474A",
"=. c #894C52",
"-. c #974C56",
";. c #855757",
":. c #975758",
">. c #A84748",
",. c #B34244",
"<. c #BC4244",
"1. c #BB454A",
"2. c #BC4A4C",
"3. c #B5474B",
"4. c #A94853",
"5. c #BC4D53",
"6. c #B54955",
"7. c #A85656",
"8. c #B35254",
"9. c #BB5255",
"0. c #BC525A",
"q. c #BC5B5D",
"w. c #B4565B",
"e. c #BE514E",
"r. c #85615D",
"t. c #AC625A",
"y. c #875C68",
"u. c #995A63",
"i. c #8E5265",
"p. c #A55763",
"a. c #BC5C63",
"s. c #B55966",
"d. c #AE556B",
"f. c #8B6868",
"g. c #9B6768",
"h. c #866877",
"j. c #987071",
"k. c #A96768",
"l. c #BC6265",
"z. c #BC646B",
"x. c #BC696D",
"c. c #B46669",
"v. c #BA786E",
"b. c #A86976",
"n. c #BB6B73",
"m. c #B56A75",
"M. c #BC7275",
"N. c #B6747B",
"B. c #BB747B",
"V. c #BB7A7E",
"C. c #B77976",
"Z. c #AB7577",
"A. c #C34243",
"S. c #C34649",
"D. c #C34C4B",
"F. c #C84945",
"G. c #C35354",
"H. c #C35C5B",
"J. c #C75859",
"K. c #CA514E",
"L. c #C5635D",
"P. c #D86558",
"I. c #C35E63",
"U. c #C46464",
"Y. c #C36D6C",
"T. c #C76868",
"R. c #CB736B",
"E. c #D57668",
"W. c #C56D73",
"Q. c #C37474",
"!. c #C37C7C",
"~. c #C77678",
"^. c #D16B66",
"/. c #E2705D",
"(. c #B58171",
"). c #DA8577",
"_. c #CD8A77",
"`. c #E58B73",
"'. c #767182",
"]. c #856C84",
"[. c #897485",
"{. c #907891",
"}. c #BC7C83",
"|. c #B67A84",
" X c #A57C87",
".X c #C77D82",
"XX c #798489",
"oX c #AB8487",
"OX c #BD8285",
"+X c #BB848B",
"@X c #BD8B8D",
"#X c #B58588",
"$X c #BC8D93",
"%X c #B78D95",
"&X c #BD9195",
"*X c #BB949C",
"=X c #BD9A9D",
"-X c #B29490",
";X c #AA8A8C",
":X c #BCA79A",
">X c #BB9CA3",
",X c #B699A5",
"<X c #AD9FA6",
"1X c #BCA1A4",
"2X c #BCA4AB",
"3X c #BEA9AD",
"4X c #B4A3AD",
"5X c #BBACB3",
"6X c #B5A9B5",
"7X c #BCB3BB",
"8X c #B7B1BB",
"9X c #AEA1AA",
"0X c #C58789",
"qX c #C78D94",
"wX c #C19394",
"eX c #C4979B",
"rX c #CB948C",
"tX c #E49B89",
"yX c #E18F83",
"uX c #D2A89A",
"iX c #E5A38A",
"pX c #E6AE92",
"aX c #C39DA3",
"sX c #C89FA6",
"dX c #C4A5AB",
"fX c #C4A5A9",
"gX c #C4ABB3",
"hX c #C7ADB4",
"jX c #C6B4BA",
"kX c #D4B9AC",
"lX c #E5BBA4",
"zX c #D7C8BA",
"xX c #E6CFB4",
"cX c #C3B9C2",
"vX c #DBD0CB",
"bX c #E7DAC9",
"nX c #F2E7D1",
"mX c None",
/* pixels */
"mXmXmXmXmXmXmXmXmXmXmXmXmXmXmXmXmXmXmXmXmXmXmXmXmXmXmXmXmXmXmXmXmXmXmXmXmXmXmXmXmXmXmXmXmXmXmXmXmXmXmXmXmXmXmXmXmXmXmXmXmXmXmXmX",
"mXmXmXmXmXmXmXmXmXmXmXmXmXmXmXmXmXmXmXmXmXmXmXmXmXmXmXmXmXmXmXmXmXmXmXmXmXmXmXmXmXmXmXmXmXmXmXmXmXmXmXmXmXmXmXmXmXmXmXmXmXmXmXmX",
"mXmXmXmXmXmXmXmXmXmXmXmXmXmXmXmXmXmXmXmXmXmXmXmXmXmXmXmXmXmXmXmXmXmXmXmXmXmXmXmXmXmXmXmXmXmXmXmXmXmXmXmXmXmXmXmXmXmXmXmXmXmXmXmX",
"mXmXmXmXmXmXmXmXmXmXmXmXmXmXmXmXmXmXmXmXmXmXmXmXmXmXmXmXmXmXmXmXmXmXmXmXmXmXmXmXmXmXmXmXmXmXmXmXmXmXmXmXmXmXmXmXmXmXmXmXmXmXmXmX",
"mXmXmXmXmXmXmXmXmXmXmXmXmXmXmXmXmXmXmXmXmXmXmXmXmXmXmXmXj.j.f.f.8.t.7.t.t.f.mXmXmXmXmXmXmXmXmXmXmXmXmXmXmXmXmXmXmXmXmXmXmXmXmXmX",
"mXmXmXmXmXmXmXmXmXmXmXmXmXmXmXmXmXmXmXmXmXmXmXmXj.(.(.k.r.e r q &.X.H X.r 6 0 e e mXmXmXmXmXmXmXmXmXmXmXmXmXmXmXmXmXmXmXmXmXmXmX",
"mXmXmXmXmXmXmXmXmXmXmXmXmXmXmXmXmXmXmXmXmXmX(.(.L.7.;.&.r 0 0 q 7.t.8.:.0 3 9 0 3 3 7 mXmXmXmXmXmXmXmXmXmXmXmXmXmXmXmXmXmXmXmXmX",
"mXmXmXmXmXmXmXmXmXmXmXmXmXmXmXmXmXmXmXmXQ.E.K.o.e.7.q q q q &.H Z G G R X.q 0 6 0 q M &.&.:.mXmXmXmXmXmXmXmXmXmXmXmXmXmXmXmXmXmX",
"mXmXmXmXmXmXmXmXmXmXmXmXmXmXmXmXmXmXmX_.P.o.K.q.>.P N N H A Z v / ~ ^ k G V M &.:.k.R V C G $.k.mXmXmXmXmXmXmXmXmXmXmXmXmXmXmXmX",
"mXmXmXmXmXmXmXmXmXmXmXmXmXmXmXmXmX_.`.P.P.o...,.P V c Z Z v / _ ~ ! h h h j V V @.#.8.H.] Q S -.j.mXmXmXmXmXmXmXmXmXmXmXmXmXmXmX",
"mXmXmXmXmXmXmXmXmXmXmXmXmXmXmXmXrX)./.J.o.E Z V V V k k k ^ / ^ / / j / / j j c A v F F.K.{ Z N =.:.mXmXmXmXmXmXmXmXmXmXmXmXmXmX",
"mXmXmXmXmXmXmXmXmXmXmXmXmXmXmXuX).H.2.T G ) h j j j k ^ Q ^ h h h k Z F H.X.V j / / Q / { G.F.P N O.:.mXmXmXmXmXmXmXmXmXmXmXmXmX",
"mXmXmXmXmXmXmXmXmXmXmXmXmXmXlX).R.A.` k v k h h j j j / W / Z j h k S l.&X3.C k k / ^ Q ^ [ H.e.H J X.:.mXmXmXmXmXmXmXmXmXmXmXmX",
"mXmXmXmXmXmXmXmXmXmXmXmXmXxXtX^.A.' ~ l k / j j j h h h ` D.#.h k k ` +X3Xc.D Z / / ^ ^ h c [ G.2.C H X.-.mXmXmXmXmXmXmXmXmXmXmX",
"mXmXmXmXmXmXmXmXmXmXmXmXzXiXR.T F k / k k / l l h Q h A R c.U Q Q v 5.>X3XV.U F 2.| _ ^ %.[ _ Y H...j V @.-.mXmXmXmXmXmXmXmXmXmX",
"mXmXmXmXmXmXmXmXmXmXmXzXpX).D.L C c v v j ^ h h h ^ j #.c.c.C Q W k G.dX*X9.T Q.~.W.%.v I.I.] v o.H.F j V -.mXmXmXmXmXmXmXmXmXmX",
"mXmXmXmXmXmXmXmXmXmXzXlXyXF.} A b c j j Z  .[ ` / Z <.n.|.R c / l _ F.dX+XU q.aX.X0Xa.A I.qXS.^ k S.3.Z c @.b.mXmXmXmXmXmXmXmXmX",
"mXmXmXmXmXmXmXmXmXmXxXtXP.[ S v c c D 8.B.0XqX.Xn.m.+X+X2.V j h h ` J.hX!.K 0X>XB.~.s.K #.qXY.) Q ' 9.R j c @. X[.mXmXmXmXmXmXmX",
"mXmXmXmXmXmXmXmXmXxXtXE.%._ _ ] 1.s.s.|.*XsXhXdX>X*X|.G.k Z Y 3.#.0.~.kXW.F.eXwXa.Y.#.c #.%XC.' ~ ! F.0.h j L b.p ].mXmXmXmXmXmX",
"mXmXmXmXmXmXmXmXgXxX`.K.[ / ] G.|.*X%Xm.5.G.H.I.a.0.[ _ `  .Q.*X|.*XsXjXU.R.dXwXM.0.$.c a.,XM.' ~ ! [ I.] c A -.y y mXmXmXmXmXmX",
"mXmXmXmXmXmXmXmXbXiXW.%.` F I.}.&X}.}.s.A k v v ^ ^ ` 2.I.J.dX5XV.6XjXcXI.0X7X5XqXA.v #.+X3Xa.) W W ] J.S.j V @.i y mXmXmXmXmXmX",
"mXmXmXmXmXmXmX7XxXqXD.' Z 2.@X|.}.U.a.a.v c j G U F { *X=X0XeXsX5.,X5XjX}.}.2XdXQ.{ { .XgX*X3.h ~ ! Q } L.j j H f.p mXmXmXmXmXmX",
"mXmXmXmXmXmXmXvXkX(.Y v Y .X+XW.W.n.a.3.Z V D $.N.z.Y aXqX0XeXeXl.>X$X5X,X5.q.H.#.A..XhXaXI.Z c / / ^ } H.h k D i.y.mXmXmXmXmXmX",
"mXmXmXmXmXmXmXbXeXv.Y _ H.1X|.s.B.V.a.R E ..p.|.6X@XD.dX_.~.dX>X+X*X0.|.m.I j U G.&XjX>Xz.[ / k / / k } q.v k D d.h.i mXmXmXmXmX",
"mXmXmXmXmXmXjXkX-X7.$.S Q.2Xw.K a.H.0.z.z.b.oX*X2XwXQ.gXB.}.gX,X%Xn.F L A R 3.C.2XjX*Xa.[ k k / h j j I w.I c c d.[.h.mXmXmXmXmX",
"mXmXmXmXmXmXvXkX(.-.P A.wX=X8.R 1.#.s.4X,X}.m.}.3X&XwXfXm.a.dX.Xa.K Z R ,.N.3XjXgX0X5.U / / / / / C C I 7.>.V A 4.[.].{.mXmXmXmX",
"mXmXmXmXmXmXbXuX!.4.L I.,X#Xl.OX&X}..X6X%X2.K l.3XfXgX=X0.U.2X5.K #.8. X<X8X3XwXQ.S.K G.| / h / Z V H H -.r.5 5 y.].y ].;XmXmXmX",
"mXmXmXmXmXmXnXtXR.3.F Q.9XZ.(.fXQ.x.qXaXB._ Z a.7XcX7XOX{ ~.,X3.z.$X2X9X,X|.T.| G.n.N.z.Y h h Z A L H P =.e w 7 i ].3 3 i mXmXmX",
"mXmXmXmXmXmXnXiXR.A.F V.4Xb.#X2Xx.L.wX=Xx.k ^ %.wXfX1XC.#.qX3X-X3X5X>X+X0.S _ K.0XeX=X5.v / / ` Z j v B r i t 8 '.{.7 7 mXmXmXmX",
"mXmXmXmXmX3XbXiXR.{ G OX9XZ.C.N.c.a.0XfXx.~ ^ } z.n.>X|.#XuX1X:XaX@Xa.1.Y ] { .X#X%X_.%./ h ^ ^ / ^ k H e t t t '.].y y mXmXmXmX",
"mXmXmXmXmX:XxXrXT.{ k OX8X-Xs.3.a.9.Y.dXT.~ ' q.n.n.,X|.%X1X#Xm.9.m.+X+X+X|.0X>X<X-XA./ / ^ ~ Q k ^ / L i.'.t y '.p i i mXmXmXmX",
"mXmXmXmXmX:XxX_.a.F / Q.jX5X|.N.m.<.F.U.} ] D.wX@X+XOXN.n.$Xa.w.$XeXaXaXdX>X8X>X#Xm.{ / ` ] / ^ ^ / / {  X'.y w u u w u mXmXmXmX",
"mXmXmXmXmX_.`.).x.U / K.aXgX2X|.1.v _ { U.@X0XwX$X_.F.' #.N.$X>X.X ._ ] ' D.=X|.m.8.I I x.!.F.! ! ~ _ T  X'.i.w p.O.5 u mXmXmXmX",
"mXmXmXmXmX:XlX`.x.K v ) %.I.%.` A S S.|.4X5XeX~.T.F.` { Q.$X+XY.qX' ! Q / J.aXI.T.2.l.V.=X&XF.! ! ! ] 8.].].=.i.i.O.O.h.mXmXmXmX",
"mXmXmXmXmX-XiX/.T.{ v / _ _ _ v Y n.,X6X6X,XM.%.] / ] W.eXz.N.<.rX{ / / _ R.fXT.I.^.wX}.*XqX| ! W ! { z.b.h.@.p.=.2 < ;.mXmXmXmX",
"mXmXmXmXmXmX`./.^.{ S _ ^ ^ / 1.|.6X8X4X|.8.S _ Q ~ | eX@XI.m.G.R.' v v K }.:X0X| ~.eX}.&XrXL.[ ! / { N.|.d.@.4.&.; * ; mXmXmXmX",
"mXmXmXmXmXmX`.`.R.*.P k h k 1.+X6X8X>Xm.$.c v l ^ ] ~.sXI.Y.}.B.D.G ,.R I @XdX~.K.qXqX0X=XeXL.' ^ F 5.m.B.$.0.@.M ; 3 mXmXmXmXmX",
"mXmXmXmXmXmX_.iXU.e M A h S B.4X8X6Xm.P c h v ^ ~ { aXeX[ D.!.2.E w.N.N.$.$XfXD.U.dXqXrX5X=XD.) S $.m.N.z.d.d.m M 0 7 mXmXmXmXmX",
"mXmXmXmXmXmX#XiX_.e &.N A Y +X8X8X}.$.c h h / ^ _ G.>X+X` ,.x.<.8.oXc.#Xx.=X*XG..XjXhXaX3X(.T v R 4.d.m.6.I.@.x q r s mXmXmXmXmX",
"mXmXmXmXmXmXmX).iXc.:.X.c R |.8X8X|.$.c v v Q W ' N.,XM.0.#X#XV.V.;Xm.+XH.dXhX!._.hXfXU.A.| C D ,.d.s.s.d.6.f x 0 w a mXmXmXmXmX",
"mXmXmXmXmXmXmX).iX).Q.3.k _ 0.,XcX,Xm.$.S h Q W | &X4XV.+X*X0.&X1X#X3.Q.A.eXjXwXG.G.G.K h ^ c R 6.6.6.m.B.V x 1 6 8 XXmXmXmXmXmX",
"mXmXmXmXmXmXmXv./.tXE.U.[ k [ S.B.%X|.B.%._ _ v <.2X2Xn.>X$X#.rX6X-Xa.Y.[ R.aXm.K _ _ ^ ^ h R 7.8.$.d.m.s.f n ; 7 y mXmXmXmXmXmX",
"mXmXmXmXmXmXmXmX^.).E.v.w.L S / _ #.#.%.[ v A v ,.5XgXT.&Xz.D.wX8X2X$XA./ ' A.U / k k / ^ T 4.:.-.6.d.4.M > & * - q mXmXmXmXmXmX",
"mXmXmXmXmXmXmXmXW./.yX_.M.w.D / Q ^ ^ ^ h v v c 3.3XhXY.I.%.Y.Y.3X3XQ.' ~ ^ h ^ Q ^ v k T 5.7.=.u u.@.M , & . . - e mXmXmXmXmXmX",
"mXmXmXmXmXmXmXmXn.P.^.rX(.k.>.` ( W W ^ ^ l l c $.>X8X$Xl.U.~.| G.9.| / / k j h Q / Z R 7.4.@.-.h.y.5 < ; ; = ; mXmXmXmXmXmXmXmX",
"mXmXmXmXmXmXmXmXmXk.P.0XrXj.:.*.V v Q Q v v l l I }.8X6X@X!.F./ / / / / k v c C A H 3.7.:.@.@.4.;.y 5 ; ; ; 0 mXmXmXmXmXmXmXmXmX",
"mXmXmXmXmXmXmXmXmXmXv.R.(.oXf.;.=.@._ _ ^ ^ h ^ _ #.m.m.H.o.! ! ! ~ / k G V P N O.=.-.y.g.8.4.=.0 ; = ; 3 0 mXmXmXmXmXmXmXmXmXmX",
"mXmXmXmXmXmXmXmXmXmXmXk.b.(.Z.k.i.4.1.' _ ^ ^ Q ! / S L ^ Q ~ ! ! / / k H N -.:.e u =.g. X0.B 1 , = = - 9 w mXmXmXmXmXmXmXmXmXmX",
"mXmXmXmXmXmXmXmXmXmXmXmXg.k.v.M.q.8.q.H.} { ] ~ Q ~ h j k ~ / ~ / _ v K >.;.e f.i a g.c.m.P g + $ & & = 3 mXmXmXmXmXmXmXmXmXmXmX",
"mXmXmXmXmXmXmXmXmXmXmXmXmX7.7.j.k.3...S.G.0.F.| } } [ G F Z K Y #.} #.2.8.r.e u.h.p u.@.B n d O % . % # M mXmXmXmXmXmXmXmXmXmXmX",
"mXmXmXmXmXmXmXmXmXmXmXmXmX-.&.&.;.7.T F k ' G.G.G.5.2.T R ,.2.3.8.8.8.6.P -.-.d.g.;.M x d + : @ % . % = mXmXmXmXmXmXmXmXmXmXmXmX",
"mXmXmXmXmXmXmXmXmXmXmXmXmXmX1 1 &.X.R F ` / G U C ` Y #.3.,.$.P A A D $.6.7.-.N B n > > : & & & & ; mXmXmXmXmXmXmXmXmXmXmXmXmXmX",
"mXmXmXmXmXmXmXmXmXmXmXmXmXmXmX0 &.X.T U G G D H V k v C H Z b V J A H P N M < 2 + d # : ; - * , mXmXmXmXmXmXmXmXmXmXmXmXmXmXmXmX",
"mXmXmXmXmXmXmXmXmXmXmXmXmXmXmXmXmXu.>.H H J J J B V z z b z f z f f x # > , = = O O & * 4 4 9 mXmXmXmXmXmXmXmXmXmXmXmXmXmXmXmXmX",
"mXmXmXmXmXmXmXmXmXmXmXmXmXmXmXmXmXmXmX=.M d n B N m x x d m d d x # $ & % % % % o o   . 4 9 mXmXmXmXmXmXmXmXmXmXmXmXmXmXmXmXmXmX",
"mXmXmXmXmXmXmXmXmXmXmXmXmXmXmXmXmXmXmXmX; X & O > 2 2 > $ O O O & @ & O & . o   o % X . - mXmXmXmXmXmXmXmXmXmXmXmXmXmXmXmXmXmXmX",
"mXmXmXmXmXmXmXmXmXmXmXmXmXmXmXmXmXmXmXmX1   % = > > M > & o o o o o % % & * . - < mXmXmXmXmXmXmXmXmXmXmXmXmXmXmXmXmXmXmXmXmXmXmX",
"mXmXmXmXmXmXmXmXmXmXmXmXmXmXmXmXmXmXmXmXmXmXmXmXmXmXq M & . % * * & * = O = 6 mXmXmXmXmXmXmXmXmXmXmXmXmXmXmXmXmXmXmXmXmXmXmXmXmX",
"mXmXmXmXmXmXmXmXmXmXmXmXmXmXmXmXmXmXmXmXmXmXmXmXmXmXmX=., ; 8 s a a s q 2 0 mXmXmXmXmXmXmXmXmXmXmXmXmXmXmXmXmXmXmXmXmXmXmXmXmXmX",
"mXmXmXmXmXmXmXmXmXmXmXmXmXmXmXmXmXmXmXmXmXmXmXmXmXmXmXmXmXmXmXmXmXmXmXmXmXmXmXmXmXmXmXmXmXmXmXmXmXmXmXmXmXmXmXmXmXmXmXmXmXmXmXmX",
"mXmXmXmXmXmXmXmXmXmXmXmXmXmXmXmXmXmXmXmXmXmXmXmXmXmXmXmXmXmXmXmXmXmXmXmXmXmXmXmXmXmXmXmXmXmXmXmXmXmXmXmXmXmXmXmXmXmXmXmXmXmXmXmX",
"mXmXmXmXmXmXmXmXmXmXmXmXmXmXmXmXmXmXmXmXmXmXmXmXmXmXmXmXmXmXmXmXmXmXmXmXmXmXmXmXmXmXmXmXmXmXmXmXmXmXmXmXmXmXmXmXmXmXmXmXmXmXmXmX",
"mXmXmXmXmXmXmXmXmXmXmXmXmXmXmXmXmXmXmXmXmXmXmXmXmXmXmXmXmXmXmXmXmXmXmXmXmXmXmXmXmXmXmXmXmXmXmXmXmXmXmXmXmXmXmXmXmXmXmXmXmXmXmXmX",
"mXmXmXmXmXmXmXmXmXmXmXmXmXmXmXmXmXmXmXmXmXmXmXmXmXmXmXmXmXmXmXmXmXmXmXmXmXmXmXmXmXmXmXmXmXmXmXmXmXmXmXmXmXmXmXmXmXmXmXmXmXmXmXmX"
};
