/* XPM */
static char *result[] = {
/* columns rows colors chars-per-pixel */
"64 64 241 2 ",
"   c #3C2527",
".  c #3F2E32",
"X  c #3C1F22",
"o  c #531B1D",
"O  c #68181A",
"+  c #781B1E",
"@  c #531E21",
"#  c #791E22",
"$  c #492629",
"%  c #562628",
"&  c #482E33",
"*  c #48393D",
"=  c #5A3839",
"-  c #5D2F31",
";  c #69282A",
":  c #752428",
">  c #6A3636",
",  c #7A3334",
"<  c #793638",
"1  c #792E31",
"2  c #73413F",
"3  c #4B3C41",
"4  c #523D41",
"5  c #693D43",
"6  c #773D42",
"7  c #5C444B",
"8  c #574649",
"9  c #594952",
"0  c #574E56",
"q  c #674448",
"w  c #7B4449",
"e  c #664C57",
"r  c #764A54",
"t  c #7A535B",
"y  c #6D5755",
"u  c #655665",
"i  c #755866",
"p  c #72686D",
"a  c #645C61",
"s  c #87191D",
"d  c #BC1A1E",
"f  c #BB1419",
"g  c #B6141A",
"h  c #A91D22",
"j  c #B51D24",
"k  c #BA1D22",
"l  c #B51721",
"z  c #892428",
"x  c #992D32",
"c  c #8B3A3C",
"v  c #9A353C",
"b  c #93292F",
"n  c #AE252D",
"m  c #AC252A",
"M  c #BA2125",
"N  c #B5252C",
"B  c #B9242A",
"V  c #B5292E",
"C  c #BA292D",
"Z  c #B62126",
"A  c #AC2C34",
"S  c #AC2E39",
"D  c #A82934",
"F  c #B42B34",
"G  c #BB2C32",
"H  c #B32E38",
"J  c #B32630",
"K  c #A3333C",
"L  c #AC333C",
"P  c #A83438",
"I  c #BA3236",
"U  c #B2333C",
"Y  c #BB353B",
"T  c #BB393D",
"R  c #B73336",
"E  c #9F1E23",
"W  c #C32B2C",
"Q  c #C63535",
"!  c #CA322E",
"~  c #C01A21",
"^  c #CC453E",
"/  c #8C3D41",
"(  c #9C3C44",
")  c #973B46",
"_  c #AA3544",
"`  c #A43C44",
"'  c #AB3B43",
"]  c #AC3E49",
"[  c #A53947",
"{  c #B33542",
"}  c #B43B43",
"|  c #B93C43",
" . c #B23D4B",
".. c #BB3946",
"X. c #884549",
"o. c #994348",
"O. c #884C56",
"+. c #954B55",
"@. c #875559",
"#. c #98565A",
"$. c #92534E",
"%. c #A3434B",
"&. c #AC434D",
"*. c #A94447",
"=. c #BA4346",
"-. c #B4424C",
";. c #BC454B",
":. c #BB4A4D",
">. c #B24549",
",. c #AD4652",
"<. c #AC4B54",
"1. c #AE4D5A",
"2. c #A54957",
"3. c #BA4654",
"4. c #B44B54",
"5. c #BB4A52",
"6. c #B44D5A",
"7. c #B54856",
"8. c #AC535C",
"9. c #A85556",
"0. c #B4535C",
"q. c #BB535B",
"w. c #BA5758",
"e. c #BC504F",
"r. c #8A655E",
"t. c #97675C",
"y. c #BB645A",
"u. c #865663",
"i. c #945864",
"p. c #954F60",
"a. c #B34D62",
"s. c #AC5561",
"d. c #AC5B64",
"f. c #AC5E69",
"g. c #A45A66",
"h. c #B25563",
"j. c #B25B64",
"k. c #BC5C64",
"l. c #B35D6A",
"z. c #BB5864",
"x. c #B85F71",
"c. c #996669",
"v. c #986776",
"b. c #8E6E76",
"n. c #AC626B",
"m. c #A96767",
"M. c #B3636D",
"N. c #BB646C",
"B. c #BA6668",
"V. c #B67967",
"C. c #AB6A77",
"Z. c #B36472",
"A. c #B36B74",
"S. c #B36D7A",
"D. c #BB6875",
"F. c #AD727C",
"G. c #A6747C",
"H. c #B4727C",
"J. c #BB757A",
"K. c #A7776E",
"L. c #C74847",
"P. c #C75957",
"I. c #D2534B",
"U. c #CC6459",
"Y. c #E7735C",
"T. c #C86765",
"R. c #C67A76",
"E. c #D37367",
"W. c #E17967",
"Q. c #B78078",
"!. c #CB8879",
"~. c #E68A74",
"^. c #777488",
"/. c #877687",
"(. c #987886",
"). c #927387",
"_. c #AE7382",
"`. c #AD7985",
"'. c #AD7D8C",
"]. c #A47B88",
"[. c #B37482",
"{. c #B97581",
"}. c #B37B85",
"|. c #BB7D85",
" X c #B37D89",
".X c #B77B89",
"XX c #AA6D87",
"oX c #C07481",
"OX c #788094",
"+X c #AC828B",
"@X c #A5838A",
"#X c #B4838D",
"$X c #BB828B",
"%X c #BD8385",
"&X c #AD8B95",
"*X c #A88A96",
"=X c #B28592",
"-X c #B48A94",
";X c #BA8B94",
":X c #B38D9B",
">X c #B88997",
",X c #A9939B",
"<X c #B4929D",
"1X c #BA939B",
"2X c #9D9BA9",
"3X c #AD9CAB",
"4X c #A898A4",
"5X c #B295A2",
"6X c #B399A5",
"7X c #B39DAA",
"8X c #BB9AA6",
"9X c #B397AA",
"0X c #ACA1AE",
"qX c #A3A1AA",
"wX c #B4A2AD",
"eX c #BBA4AE",
"rX c #ABA4B2",
"tX c #ADABBA",
"yX c #AFA8B7",
"uX c #B3A5B3",
"iX c #B4A9B6",
"pX c #B3ADBB",
"aX c #B8A9B6",
"sX c #B7B2BE",
"dX c #AFB0BF",
"fX c #8A8F9C",
"gX c #CC988F",
"hX c #D4A28D",
"jX c #E8A990",
"kX c #C29BA5",
"lX c #D3AFA7",
"zX c #DCC7B4",
"xX c #EAC5A5",
"cX c #E7D2B9",
"vX c #EEC78E",
"bX c #AEB1C1",
"nX c #B7B5C2",
"mX c #EBD9CB",
"MX c #F4E8C3",
"NX c #D7C3C5",
"BX c None",
/* pixels */
"BXBXBXBXBXBXBXBXBXBXBXBXBXBXBXBXBXBXBXBXBXBXBXBXBXBXBXBXBXBXBXBXBXBXBXBXBXBXBXBXBXBXBXBXBXBXBXBXBXBXBXBXBXBXBXBXBXBXBXBXBXBXBXBX",
"BXBXBXBXBXBXBXBXBXBXBXBXBXBXBXBXBXBXBXBXBXBXBXBXBXBXBXBXBXBXBXBXBXBXBXBXBXBXBXBXBXBXBXBXBXBXBXBXBXBXBXBXBXBXBXBXBXBXBXBXBXBXBXBX",
"BXBXBXBXBXBXBXBXBXBXBXBXBXBXBXBXBXBXBXBXBXBXBXBXBXBXBXBXBXBXBXBXBXBXBXBXBXBXBXBXBXBXBXBXBXBXBXBXBXBXBXBXBXBXBXBXBXBXBXBXBXBXBXBX",
"BXBXBXBXBXBXBXBXBXBXBXBXBXBXBXBXBXBXBXBXBXBXBXBXBXBXBXBXBXBXBXBXBXBXBXBXBXBXBXBXBXBXBXBXBXBXBXBXBXBXBXBXBXBXBXBXBXBXBXBXBXBXBXBX",
"BXBXBXBXBXBXBXBXBXBXBXBXBXBXBXBXBXBXBXBXBXBXBXBXBXBXr.r.t.9.$.y.9.$.t t BXBXBXBXBXBXBXBXBXBXBXBXBXBXBXBXBXBXBXBXBXBXBXBXBXBXBXBX",
"BXBXBXBXBXBXBXBXBXBXBXBXBXBXBXBXBXBXBXBXBXBXK.m.t.t 9 8 q 2 v m o.7 = * = 8 7 y y p p BXBXBXBXBXBXBXBXBXBXBXBXBXBXBXBXBXBXBXBXBX",
"BXBXBXBXBXBXBXBXBXBXBXBXBXBXBXBXBXBXBXBXV.V.#.r q 9 8 8 9 @.0.0.$.y 8 8 4 8 4 6 2 @.r.p BXBXBXBXBXBXBXBXBXBXBXBXBXBXBXBXBXBXBXBX",
"BXBXBXBXBXBXBXBXBXBXBXBXBXBXBXBXBXBXE.P.*.*.O.q 8 8 q 2 c V V V D x c w q q r.%.P m N >.g.BXBXBXBXBXBXBXBXBXBXBXBXBXBXBXBXBXBXBX",
"BXBXBXBXBXBXBXBXBXBXBXBXBXBXBXBXV.U.I.W { 2.+.X.6 / x D m Z k l h h h K / v o.9.0.-.C k J BXBXBXBXBXBXBXBXBXBXBXBXBXBXBXBXBXBXBX",
"BXBXBXBXBXBXBXBXBXBXBXBXBXBXBXR.I.! Q 6.<.o.( K K L S J N C l j m N Z D v D A A F L.q.L.B x o.BXBXBXBXBXBXBXBXBXBXBXBXBXBXBXBXBX",
"BXBXBXBXBXBXBXBXBXBXBXBXBXBX!.U.L.=. ._ P ( K S F H J B F H C F L S P _ ( S S N l W G 3.q.U D v BXBXBXBXBXBXBXBXBXBXBXBXBXBXBXBX",
"BXBXBXBXBXBXBXBXBXBXBXBXBX!.P.:.4.} J j A K K S H F J M H S H L ' &._.n.` L L F J j M H } 4.} n P BXBXBXBXBXBXBXBXBXBXBXBXBXBXBX",
"BXBXBXBXBXBXBXBXBXBXBXBXgXy.>.>._ F J J F S K L S M M C S A L U U n.3X_.%.P L H C B F S H H 6.3.m n BXBXBXBXBXBXBXBXBXBXBXBXBXBX",
"BXBXBXBXBXBXBXBXBXBXBXgXT.9.9.T J D H H H L L S H j k { 4.F H S L n.uX5XC._ L -.C j { 6.{ H H 3.:.B n BXBXBXBXBXBXBXBXBXBXBXBXBX",
"BXBXBXBXBXBXBXBXBXBXxXR.q.9.=.M k F H F H _ S F J H } 8.d.B l N U }.uX-Xd._ Z.H.k.T L Z.x...N H 3.} j h BXBXBXBXBXBXBXBXBXBXBXBX",
"BXBXBXBXBXBXBXBXBXmXhXB.9.L A M B H H F H H H J J L <.G.,.j d k U J.uX`.&.6.:XH..XZ.[ -..Xx.H j G 6.} g R BXBXBXBXBXBXBXBXBXBXBX",
"BXBXBXBXBXBXBXBXBXjXE.w.*.P A F F ' U C J G H J F &.S.XXP m N N B w.eX}.>.`.8XG. Xf.` L }.&X,.N M | w.G j BXBXBXBXBXBXBXBXBXBXBX",
"BXBXBXBXBXBXBXBXzXW.P.5.U A K L U L U | :.6.3.7.j.G.=Xs.A D m N h 5.eX#X} #XwXZ.'.8.S P F.3Xf.J d M 3.L.g n BXBXBXBXBXBXBXBXBXBX",
"BXBXBXBXBXBXBXzXjXI.P.T U P P L L <.C..X8XkX8X:X:X*Xl.F n L 9.4.0.D.aXkXT -XuXs.S.1.L [ '.0Xf.C f f B P.H j  .BXBXBXBXBXBXBXBXBX",
"BXBXBXBXBXBXBXcXW.I.:.G B F { 7.g.C.&X8XkX1XgX>X[.4.G B B d.,X&X6X1XnXkXL.:XsX'.{.0.U s.5X3Xg.J ~ d k =.6.l A BXBXBXBXBXBXBXBXBX",
"BXBXBXBXBXBXNXjXI.U.Q k B C 6. X*X*Xn.0.3.5.| Y C j Y 6.| #XpX<X:XrXsXkXA.-XsXiXZ...|  XpX:X2.S V B F T q.G N  .BXBXBXBXBXBXBXBX",
"BXBXBXBXBXBXmX~.L.q.G M G z..X6X=X`.s.S H S n j j C h.:XT.1XiX;X`.rXwXiX-XM.[.H. .} {.aXwXA.{ A L U U { :.4.j N BXBXBXBXBXBXBXBX",
"BXBXBXBXBXBXcXE.w.=.F F -.#X.X#Xl.k.M.H A S S &.<.} M.aXH.$XwX;X`.wX X7X<X .A A 7..XiXuXH.>.V H H L L L ] 1.g g BXBXBXBXBXBXBXBX",
"BXBXBXBXBXmXxXK.m.>.H U A.5XH.J.k.l.l.H P ` %.C.4XS.Z.iXA.H.wX1X-X<X4.m.g._ _ s.=XpXuX.X-.F N J J L K P *.9.b E g.BXBXBXBXBXBXBX",
"BXBXBXBXBXMXhXr.c.L B R =X6XZ.H.[.l.a.{ ` #.G.:X0X#XH.aXA.H.iX7X:XS.{ P ` 1.F.wXpXwXH.<.T H S S F P ( ( [ #.r 5 e BXBXBXBXBXBXBX",
"BXBXBXBXBXMX!.r.#.[ N w.6X=X1.f..X6.6.Z.C.G.@X:XuX:X}.aXH.A.wX6XC.} U ] m.&XyXiX1XZ.4.*.8.4.U L { ` o.( [ p.t 5 u BXBXBXBXBXBXBX",
"BXBXBXBXBXMXQ.r.+.( N N.aX X-.*.7. .C.rX:XF.f.S.iX8X#XiXF.d.6X-X .&.s.'.2X3X4X{.:.9.C._.A.4.H H U L S K ( i u 9 u BXBXBXBXBXBXBX",
"BXBXBXBXBXxXK.r.O.( V oXaXF.7.A.&X[.[.uX5X0.S 1.iXsXiXiXA.>.<X:X8. XuXyX4X@X6.U =.%X<X1XM.U L R F F A S _ ) u 9 u ^.BXBXBXBXBXBX",
"BXBXBXBXBXvXV.c.O.%.F }.rXC.H.eXH.S.;X1X:X4.N =.<XyXpX3Xd.e.kXwX,XiXuX:XZ. .H H H.>X*X&X5.J U J B H H J F [ i 9 u ^.BXBXBXBXBXBX",
"BXBXBXBXBXxXV.M.2.[ H  XrXC.`.iXZ.N.|.-X,X4.J G w.}.#X4XG.J.kXwX5X:X[.h.8.h.7.a.&X0X3XC.I M H G B F F J J  .v.9 u p /.BXBXBXBXBX",
"BXBXBXBXBXxXJ.j.,._ S  XtX@X`.6XZ.l.R.|.6Xq.M j >.A.n.4X+X<X6X-XZ.6.[.:X0XuXuX3XpX6X*Xg.U U ,.6.Q j N C J  .v.u u.).i.BXBXBXBXBX",
"BXBXBXBXBXxXJ.d.w.R H [.qX,XG.A.h.f.l.oXeXk.k | F.F.`.4XF.@X:X+Xl..X>XgX|.|.|. X0XC.n.<.] j.*X:X0.k d l J  .p 5 p.).+.BXBXBXBXBX",
"BXBXBXBXBXxX$X+.g.} B B.iXdX_.,.m.G.w.P.D.Q G 6.>X<X*X#X0.,.d.@X6XkXz.B B Y } N.wXj.M.1.C.}.*X7XN.k f ~ Y 7.8.o.+.XX6 BXBXBXBXBX",
"BXBXBXBXBXjXhX#.i.L Z R ;XnXpX6X*X8.H B W ;.;X<XgX.X{.5.F  .=X'.#XR.gX .M G R D.eXB.B.B.-X`.'.5X|...f ~ | a.F A a.C.0 BXBXBXBXBX",
"BXBXBXBXBX~.hXm.c.' C B z.kXeX1Xj.' S ..x.:XpXwXXXz.| C C M.5Xj.[.6.#X-.H H  .Z.wX$X6.R.6XS.G.4X.Xz.k H  .q.H { d.p.p BXBXBXBXBX",
"BXBXBXBXBXY.jXy.8.%.n B G Y T U R U ,.[.uXtXrX#X5.H B M T <X<Xl._.a.[.-.} { >.F.uX1X;.N.eXS.H.3X>Xk.F 7.n.0.J ,.f.+.BXBXBXBXBXBX",
"BXBXBXBXBXW.jXR.-.j.>.H C B B B F 7.'.yXtX3X(.<.{ H N R q.eX|.7.=X_.Z.&.d.G.m.F.uX1X5.S.sX;X=XdX-X6.{ 8.m.&._ 1.g.p.BXBXBXBXBXBX",
"BXBXBXBXBXW.W.gX=.k.-.L R C B d >.=XyXbXrXG.%.L U U H | H.uXN.=.A.Z.-.<.].m.A.F.7X;Xj..XsXsX5X;XB.R ' 8.8.D _ ,.( O.BXBXBXBXBXBX",
"BXBXBXBXBXE.Y.W.L...#.+.P H H J M.rXbXpX+Xo.P U F F B | '.uXM.>.l.A.8.K.,XF.#XF.7XeX$XD.1X8XD.-. .S [ #.] H  .] ) q BXBXBXBXBXBX",
"BXBXBXBXBXi.U.E.T.} r r ) L U >. XdXbX3Xf.K S U J C M | <X0XM.A.:X`.G.*X*X8.{.w.#XsXeXM.| >.Y V F { 8.2.n _ a.) 1 q BXBXBXBXBXBX",
"BXBXBXBXBXO.$.y.R.e.w 7 r ( L  .=XbXbX5Xs.P S A B k B >.5X3XM.-X0Xn.#X3X,X<.H.4.w.1X<X1.A N V F T w.g.+.) ,.2., $ - BXBXBXBXBXBX",
"BXBXBXBXBXBX@.t.R.U.o.6 t +.P H M.0XbXyX#X1.' L B d k =.7XrXS.5X4X4.}.yX0XF.A.T G =.>.H B J L } q.D.g.O.t +.c - 3 BXBXBXBXBXBXBX",
"BXBXBXBXBXBXBXm.y.U.^ P 2.g.U k U j.|.6X6X=XS.7.J U R *.4XpX|.$X=X{ [.6XyXwXD.R d N P B l C  .6.Z.m.2.i.p r > q BXBXBXBXBXBXBXBX",
"BXBXBXBXBXBXBXBXU.I.^ ! L 8.1.R U U Q 5.0.0.4.| J } S %.&XsX:Xk.k.;.{.J.;X-X:.V Z n S N M ..j.XXA.9.2.C.i 7 q BXBXBXBXBXBXBXBXBX",
"BXBXBXBXBXBXBXBXy.U.^ ! C o.#.m.<.U k l Z M M Z V F A L C.tXuXx.z.{.D.| :.=.V F V n S _ ,.n.].].v.G.}.b.q > 7 BXBXBXBXBXBXBXBXBX",
"BXBXBXBXBXBXBXBXT.9.^ ! G ( @.v.g.[ C k f f d k B J J S 9.4XtX3X=X#X..~ k k Z J _ _ o.p.v././.).].:XS.X.> 4 0 BXBXBXBXBXBXBXBXBX",
"BXBXBXBXBXBXBXBXU.o.P ! W o.@.@.u.u.) H C k M B R V B m S d.-X&XD.;.~ f f B B U ] g.(.(.^.^./.]..XS.( # - - r BXBXBXBXBXBXBXBXBX",
"BXBXBXBXBXBXBXBXBX> > P Q >.@.t i a i u.i.<.U G U V M d M C -.1.{ k f f W T } 4.D.].2XfX/.^.(.].g.o.z %   ; BXBXBXBXBXBXBXBXBXBX",
"BXBXBXBXBXBXBXBXBXBX= X.>.=.( w e u i i p v.h.;.| Y R G B C F { _ H W H =.B.N.}.1X'.).).XX).).#.x z - & & BXBXBXBXBXBXBXBXBXBXBX",
"BXBXBXBXBXBXBXBXBXBXBXBX%.<.*.w q r t @.p.p.s.l.z.k.P.3.3.3.3.6.h.l.N.D.H.$X$XH.D.a.g.g.h.2.c , ; - ; BXBXBXBXBXBXBXBXBXBXBXBXBX",
"BXBXBXBXBXBXBXBXBXBXBXBXBX9.*.X.6 X.O.y u.X._ 1.h.0.N.x.D.D.D.Z.H.S.S.S.M.Z.j.}  . .s.g.v z s ; - = BXBXBXBXBXBXBXBXBXBXBXBXBXBX",
"BXBXBXBXBXBXBXBXBXBXBXBXBXt.$.c c < w q e X.K P P S  .q.j.h.0.6.j.j.1.2.] ` *.' _ D / 5 ; # ; - 8 BXBXBXBXBXBXBXBXBXBXBXBXBXBXBX",
"BXBXBXBXBXBXBXBXBXBXBXBXBXBX$.> % 1 , > 5 , b ( ' ' &.8.,.[ F _ ` 1.] P ` %.L D s # ; - % $ & * 8 BXBXBXBXBXBXBXBXBXBXBXBXBXBXBX",
"BXBXBXBXBXBXBXBXBXBXBXBXBXBXBX: $ % ; , c c ( ) x h h x x ) v ( K ( K s s b b : ; % $ $ $   . * BXBXBXBXBXBXBXBXBXBXBXBXBXBXBXBX",
"BXBXBXBXBXBXBXBXBXBXBXBXBXBXBXBXBXBX> > > / v x b s s s z s s s b # b : + # % % $ $ $ $ % 8 9 BXBXBXBXBXBXBXBXBXBXBXBXBXBXBXBXBX",
"BXBXBXBXBXBXBXBXBXBXBXBXBXBXBXBXBXBXBXBX2 2 1 : # # O # ; : # O O O % % $ % o O $ . 3 BXBXBXBXBXBXBXBXBXBXBXBXBXBXBXBXBXBXBXBXBX",
"BXBXBXBXBXBXBXBXBXBXBXBXBXBXBXBXBXBXBXBXBX@.>     $ @ % % ; z O $ $ o X X X   $ & BXBXBXBXBXBXBXBXBXBXBXBXBXBXBXBXBXBXBXBXBXBXBX",
"BXBXBXBXBXBXBXBXBXBXBXBXBXBXBXBXBXBXBXBXBXBX, & 3 7 5 - % = , O     $ & * * o O BXBXBXBXBXBXBXBXBXBXBXBXBXBXBXBXBXBXBXBXBXBXBXBX",
"BXBXBXBXBXBXBXBXBXBXBXBXBXBXBXBXBXBXBXBXBXBXBXBXBXBXBXBXBXBXc O * BXBXBXBXBXBXBXBXBXBXBXBXBXBXBXBXBXBXBXBXBXBXBXBXBXBXBXBXBXBXBX",
"BXBXBXBXBXBXBXBXBXBXBXBXBXBXBXBXBXBXBXBXBXBXBXBXBXBXBXBXBXBXBXBXBXBXBXBXBXBXBXBXBXBXBXBXBXBXBXBXBXBXBXBXBXBXBXBXBXBXBXBXBXBXBXBX",
"BXBXBXBXBXBXBXBXBXBXBXBXBXBXBXBXBXBXBXBXBXBXBXBXBXBXBXBXBXBXBXBXBXBXBXBXBXBXBXBXBXBXBXBXBXBXBXBXBXBXBXBXBXBXBXBXBXBXBXBXBXBXBXBX",
"BXBXBXBXBXBXBXBXBXBXBXBXBXBXBXBXBXBXBXBXBXBXBXBXBXBXBXBXBXBXBXBXBXBXBXBXBXBXBXBXBXBXBXBXBXBXBXBXBXBXBXBXBXBXBXBXBXBXBXBXBXBXBXBX",
"BXBXBXBXBXBXBXBXBXBXBXBXBXBXBXBXBXBXBXBXBXBXBXBXBXBXBXBXBXBXBXBXBXBXBXBXBXBXBXBXBXBXBXBXBXBXBXBXBXBXBXBXBXBXBXBXBXBXBXBXBXBXBXBX",
"BXBXBXBXBXBXBXBXBXBXBXBXBXBXBXBXBXBXBXBXBXBXBXBXBXBXBXBXBXBXBXBXBXBXBXBXBXBXBXBXBXBXBXBXBXBXBXBXBXBXBXBXBXBXBXBXBXBXBXBXBXBXBXBX"
};
