/* XPM */
static char *result[] = {
/* columns rows colors chars-per-pixel */
"64 64 223 2 ",
"   c #35262A",
".  c #3B292D",
"X  c #37262A",
"o  c #3D2D33",
"O  c #3D3238",
"+  c #61191D",
"@  c #47292D",
"#  c #57282B",
"$  c #4C2D32",
"%  c #422D31",
"&  c #4E3337",
"*  c #45343B",
"=  c #4B363B",
"-  c #4C393E",
";  c #413035",
":  c #523536",
">  c #5C3334",
",  c #53363B",
"<  c #5A363B",
"1  c #533B3C",
"2  c #5C3A3E",
"3  c #6B2629",
"4  c #6D292D",
"5  c #64282E",
"6  c #742326",
"7  c #792C2E",
"8  c #772629",
"9  c #692C30",
"0  c #752E32",
"q  c #653234",
"w  c #6D3332",
"e  c #64393E",
"r  c #6C3D3D",
"t  c #68353C",
"y  c #733534",
"u  c #743B3B",
"i  c #78363A",
"p  c #5D403F",
"a  c #77423F",
"s  c #6C413C",
"d  c #4B3B42",
"f  c #4F3F48",
"g  c #553D43",
"h  c #5C3C43",
"j  c #623C42",
"k  c #6D3B43",
"l  c #733B43",
"z  c #7C3D45",
"x  c #4D4046",
"c  c #4B424B",
"v  c #5B4346",
"b  c #53464C",
"n  c #5B444A",
"m  c #584A4C",
"M  c #584C57",
"N  c #5D5156",
"B  c #5C565C",
"V  c #4E4A55",
"C  c #634546",
"Z  c #6B4544",
"A  c #62454D",
"S  c #6A414A",
"D  c #6C494B",
"F  c #684949",
"G  c #734441",
"H  c #744C45",
"J  c #74434B",
"K  c #7B414C",
"L  c #7C4847",
"P  c #6D504F",
"I  c #7C534D",
"U  c #6A4B51",
"Y  c #644954",
"T  c #734B54",
"R  c #7A4C57",
"E  c #6B5354",
"W  c #69535A",
"Q  c #7C5A54",
"!  c #7A5557",
"~  c #75605E",
"^  c #5C5964",
"/  c #695A65",
"(  c #71596B",
")  c #6E5D72",
"_  c #696267",
"`  c #74666A",
"'  c #786777",
"]  c #757270",
"[  c #616175",
"{  c #8C171C",
"}  c #991A1F",
"|  c #96171C",
" . c #BB1A1E",
".. c #BA171B",
"X. c #9A1D24",
"o. c #931E23",
"O. c #B91C21",
"+. c #B21C23",
"@. c #A31B23",
"#. c #892328",
"$. c #94242A",
"%. c #9B262D",
"&. c #992D34",
"*. c #833C3D",
"=. c #873439",
"-. c #9A343D",
";. c #97393C",
":. c #842F37",
">. c #AC252A",
",. c #AA262B",
"<. c #B92429",
"1. c #AC2731",
"2. c #AA2931",
"3. c #A42C37",
"4. c #B82B34",
"5. c #A3313D",
"6. c #A83339",
"7. c #B53739",
"8. c #C21518",
"9. c #C73E3A",
"0. c #97403F",
"q. c #D34D3F",
"w. c #8A3B44",
"e. c #943C44",
"r. c #9C3D49",
"t. c #A63946",
"y. c #B33C48",
"u. c #814143",
"i. c #834C4B",
"p. c #89454B",
"a. c #92434D",
"s. c #99474A",
"d. c #89514D",
"f. c #99534D",
"g. c #874B54",
"h. c #974756",
"j. c #83535B",
"k. c #885955",
"l. c #9E5A52",
"z. c #945956",
"x. c #A2424A",
"c. c #A84948",
"v. c #B84746",
"b. c #B95B4D",
"n. c #A64859",
"m. c #B65656",
"M. c #AD4D58",
"N. c #95685A",
"B. c #9D6B5C",
"V. c #926556",
"C. c #886156",
"Z. c #A66458",
"A. c #BA6159",
"S. c #9B4C60",
"D. c #8A5866",
"F. c #995364",
"G. c #925E72",
"H. c #894D60",
"J. c #AA5568",
"K. c #A55B74",
"L. c #BE5B76",
"P. c #856665",
"I. c #9A6B68",
"U. c #866173",
"Y. c #976378",
"T. c #9D7D71",
"R. c #A96A6B",
"E. c #B86A66",
"W. c #A8786B",
"Q. c #A96579",
"!. c #BB6879",
"~. c #AA7677",
"^. c #B37372",
"/. c #B77878",
"(. c #BD7A65",
"). c #DE5946",
"_. c #C9544C",
"`. c #E05140",
"'. c #D06853",
"]. c #EB7050",
"[. c #C06776",
"{. c #C27D76",
"}. c #C16965",
"|. c #B98568",
" X c #A58074",
".X c #EC855D",
"XX c #CA956C",
"oX c #CC8F71",
"OX c #EA8B66",
"+X c #EBA677",
"@X c #EDC179",
"#X c #756F87",
"$X c #986C81",
"%X c #957783",
"&X c #A76D85",
"*X c #A2738E",
"=X c #AB7986",
"-X c #BC7F86",
";X c #B67B85",
":X c #A87B94",
">X c #C17289",
",X c #AD838C",
"<X c #B8838A",
"1X c #A9829B",
"2X c #B18599",
"3X c #B8978F",
"4X c #9C8FA4",
"5X c #AC95A9",
"6X c #B091A9",
"7X c #BEA3BA",
"8X c #C59590",
"9X c #DEB98F",
"0X c #E8B885",
"qX c #E5B793",
"wX c #C795A7",
"eX c #C3A7BC",
"rX c #C6A4AB",
"tX c #F7D89A",
"yX c #F3C691",
"uX c #F4D2A2",
"iX c #C8B3C9",
"pX c #DDC8D9",
"aX c None",
/* pixels */
"aXaXaXaXaXaXaXaXaXaXaXaXaXaXaXaXaXaXaXaXaXaXaXaXaXaXaXaXaXaXaXaXaXaXaXaXaXaXaXaXaXaXaXaXaXaXaXaXaXaXaXaXaXaXaXaXaXaXaXaXaXaXaXaX",
"aXaXaXaXaXaXaXaXaXaXaXaXaXaXaXaXaXaXaXaXaXaXaXaXaXaXaXaXaXaXaXaXaXaXaXaXaXaXaXaXaXaXaXaXaXaXaXaXaXaXaXaXaXaXaXaXaXaXaXaXaXaXaXaX",
"aXaXaXaXaXaXaXaXaXaXaXaXaXaXaXaXaXaXaXaXaXaXaXaXaXaXaXaXaXaXaXaXaXaXaXaXaXaXaXaXaXaXaXaXaXaXaXaXaXaXaXaXaXaXaXaXaXaXaXaXaXaXaXaX",
"aXaXaXaXaXaXaXaXaXaXaXaXaXaXaXaXaXaXaXaXaXaXaXaXaXaXaXaXaXaXaXaXaXaXaXaXaXaXaXaXaXaXaXaXaXaXaXaXaXaXaXaXaXaXaXaXaXaXaXaXaXaXaXaX",
"aXaXaXaXaXaXaXaXaXaXaXaXaXaXaXaXaXaXaXaXaXaXaXaXaXaXaXaXaXaXaXaXaXaXaXaXaXaXaXaXaXaXaXaXaXaXaXaXaXaXaXaXaXaXaXaXaXaXaXaXaXaXaXaX",
"aXaXaXaXaXaXaXaXaXaXaXaXaXaXaXaXaXaXaXaXaXaXaXaXaXaXaXaXaXaXaXaXaXaXaXaXaXaXaXaXaXaXaXaXaXaXaXaXaXaXaXaXaXaXaXaXaXaXaXaXaXaXaXaX",
"aXaXaXaXaXaXaXaXaXaXaXaXaXaXaXaXaXaXaXaXaXaXaXaXaXaXaXaXaXaXaXaXaXaXaXaXaXaXaXaXaXaXaXaXaXaXaXaXaXaXaXaXaXaXaXaXaXaXaXaXaXaXaXaX",
"aXaXaXaXaXaXaXaXaXaXaXaXaXaXaXaXXXXXXXaXaXaXaXaXaXaXaXaXaXaXaXaXaXaXaXaXaXaXaXaXaXaXaXaXaXaXaXaXaXaXaXaXaXaXaXaXaXaXaXaXaXaXaXaX",
"aXaXaXaXaXaXaXaXaXaXaXaXaXaX8X+X+X+XOX(.aXaXaXaXaXaXaXaXaXaXaXaXaXaXaXaXaXaXaXaXaXaXaXaXaXaXaXaXaXaXaXaXaXaXaXaXaXaXaXaXaXaXaXaX",
"aXaXaXaXaXaXaXaXaXaXaXaXT.3X9XtXtX+X'.Z. XaXaXaXaXaXaXaXaXaXaXaXaXaXaXaXaXaXaXaXaXaXaXaXaXaXaXaXaXaXaXaXaXaXaXaXaXaXaXaXaXaXaXaX",
"aXaXaXaXaXaXaXaXaXaXQ C.W.XXyXtXyX.Xq.c.I. XaXaXaXaXaXaXaXaXaXaXaXaXaXaXaXaXaXaXaXaXaXaXaXaXaXaXaXaXaXaXaXaXaXaXaXaXaXaXaXaXaXaX",
"aXaXaXaXaXaXaXaXaXl.l.f.i.N.XX9X+X].q.v.s.I. XaXaXaXaXaXaXaXaXaXaXaXaXaXaXaXaXaXaXaXaXaXaXaXaXaXaXaXaXaXaXaXaXaXaXaXaXaXaXaXaXaX",
"aXaXaXaXaXaXaXaXu.0.a s Z Q W.oXOX].`.9.v.S.E.^.aXaXaXaXaXaXaXaXaXaXaXaXaXaXaXaXaXaXaXaXaXaXaXaXaXaXaXaXaXaXaXaXaXaXaXaXaXaXaXaX",
"aXaXaXaXaXaXaXaXa y r Z I N. XoX'.`.).b.s.c.M.^.|.aXaXaXaXaXaXaXaXaXaXaXaXaXaXaXaXaXaXaXaXaXaXaXaXaXaXaXaXaXaXaXaXaXaXaXaXaXaXaX",
"aXaXaXaXaXaXaXaXaX*.w.a.V.P.P.P.B.A._.b.z.;.7.m.{.~.aXaXaXaXaXaXaXaXaXaXaXaXaXaXaXaXaXaXaXaXaXaXaXaXaXaXaXaXaXaXaXaXaXaXaXaXaXaX",
"aXaXaXaXaXaXaXaXaXf.x.a.i.W m m Q B.b._.l.0.%.-.b.-XR.aXaXaXaXaXaXaXaXaXaXaXaXaXaXaXaXaXaXaXaXaXaXaXaXaXaXaXaXaXaXaXaXaXaXaXaXaX",
"aXaXaXaXaXaXaXaXaXaXp.l h g = e Q N.Z.v.7.6.;.;.7.}./.aXaXaXaXaXaXaXaXaXaXaXaXaXaXaXaXaXaXaXaXaXaXaXaXaXaXaXaXaXaXaXaXaXaXaXaXaX",
"aXaXaXaXaXaXaXaXaXaXQ q q q q r I V.B.c.<.O.2.>.>.t.!.|.aXaXaXaXaXaXaXaXaXaXaXaXaXaXaXaXaXaXaXaXaXaXaXaXaXaXaXaXaXaXaXaXaXaXaXaX",
"aXaXaXaXaXaXaXaXaXaXaXu.8 7 y a I N.V.d.2. . . ...+.M./.^.aXaXaXaXaXaXaXaXaXaXaXaXaXaXaXaXaXaXaXaXaXaXaXaXaXaXaXaXaXaXaXaXaXaXaX",
"aXaXaXaXaXaXaXaXaXaXaXaX:.7 u.p.d.C.Q L -. ... ...8.<.R./.T.aXaXaXaXaXaXaXaXaXaXaXaXaXaXaXaXaXaXaXaXaXaXaXaXaXaXaXaXaXaXaXaXaXaX",
"aXaXaXaXaXaXaXaXaXaXaXaXd.w.-.s.i.D n s =.>...O.4.<.,.a.R.^.aXaXaXaXaXaXaXaXaXaXaXaXaXaXaXaXaXaXaXaXaXaXaXaXaXaXaXaXaXaXaXaXaXaX",
"aXaXaXaXaXaXaXaXaXaXaXaXaXc.6.*.n x - - 2 =.>.O.<.,.i i a./.^.aXaXaXaXaXaXaXaXaXaXaXaXaXaXaXaXaXaXaXaXaXaXaXaXaXaXaXaXaXaXaXaXaX",
"aXaXaXaXaXaXaXaXaXaXaXaXaXaXu.v c - * = p G ;.>.O.&.b k l G.;XE.aXaXaXaXaXaXaXaXaXaXaXaXaXaXaXaXaXaXaXaXaXaXaXaXaXaXaXaXaXaXaXaX",
"aXaXaXaXaXaXaXaXaXaXaXaXaXaX! 2 , = & : 1 Z L 0.+.r.W w.w.T Q.[.R.aXaXaXaXaXaXaXaXaXaXaXaXaXaXaXaXaXaXaXaXaXaXaXaXaXaXaXaXaXaXaX",
"aXaXaXaXaXaXaXaXaXaXaXaXaXaXaXG q > > q 2 s H I s.2.e.t.t.-.t.[.E.aXaXaXaXaXaXaXaXaXaXaXaXaXaXaXaXaXaXaXaXaXaXaXaXaXaXaXaXaXaXaX",
"aXaXaXaXaXaXaXaXaXaXaXaXaXaXaXj.u w w y s D P E j.s.t.t.S.r.1.v.!./.aXaXaXaXaXaXaXaXaXaXaXaXaXaXaXaXaXaXaXaXaXaXaXaXaXaXaXaXaXaX",
"aXaXaXaXaXaXaXaXaXaXaXaXaXaXaXaXd.y y u G F M / _ ' S.r.U.) t.<.[.-X;XaXaXaXaXaXaXaXaXaXaXaXaXaXaXaXaXaXaXaXaXaXaXaXaXaXaXaXaXaX",
"aXaXaXaXaXaXaXaXaXaXaXaXaXaXaXaXaXI a Z v g b c - n ) h.D.#XH.1.4.[.<XaXaXaXaXaXaXaXaXaXaXaXaXaXaXaXaXaXaXaXaXaXaXaXaXaXaXaXaXaX",
"aXaXaXaXaXaXaXaXaXaXaXaXaXaXaXaXaXaXH 2 v p - * = 1 M U g.' ) w.+.y.>X8XaXaXaXaXaXaXaXaXaXaXaXaXaXaXaXaXaXaXaXaXaXaXaXaXaXaXaXaX",
"aXaXaXaXaXaXaXaXaXaXaXaXaXaXaXaXaXaX_ V c d d d - , 1 N ~ i.W v o.1.L.>X<XaXaXaXaXaXaXaXaXaXaXaXaXaXaXaXaXaXaXaXaXaXaXaXaXaXaXaX",
"aXaXaXaXaXaXaXaXaXaXaXaXaXaXaXaXaXaXaX! h j h < = - , n / p.p.v j X.t.L.-XaXaXaXaXaXaXaXaXaXaXaXaXaXaXaXaXaXaXaXaXaXaXaXaXaXaXaX",
"aXaXaXaXaXaXaXaXaXaXaXaXaXaXaXaXaXaXaXaXG k t e : : 1 Z P a.6.u f z 5.J.&X~.aXaXaXaXaXaXaXaXaXaXaXaXaXaXaXaXaXaXaXaXaXaXaXaXaXaX",
"aXaXaXaXaXaXaXaXaXaXaXaXaXaXaXaXaXaXaXaXk.i 0 w q : , C U p.t.r.' U.t.t.$X*X=XaXaXaXaXaXaXaXaXaXaXaXaXaXaXaXaXaXaXaXaXaXaXaXaXaX",
"aXaXaXaXaXaXaXaXaXaXaXaXaXaXaXaXaXaXaXaXaXi.0 0 e j C / #X( H.J.=X4X:XG.G.*X=XR.aXaXaXaXaXaXaXaXaXaXaXaXaXaXaXaXaXaXaXaXaXaXaXaX",
"aXaXaXaXaXaXaXaXaXaXaXaXaXaXaXaXaXaXaXaXaXaXu.4 q r R ) W h n G.=X7X7X5X$XQ.:X&XaXaXaXaXaXaXaXaXaXaXaXaXaXaXaXaXaXaXaXaXaXaXaXaX",
"aXaXaXaXaXaXaXaXaXaXaXaXaXaXaXaXaXaXaXaXaXaXaXu.u K H.M d * o n ,X,X1X6X5XQ.*X1X<XaXaXaXaXaXaXaXaXaXaXaXaXaXaXaXaXaXaXaXaXaXaXaX",
"aXaXaXaXaXaXaXaXaXaXaXaXaXaXaXaXaXaXaXaXaXaXaXP.i.H.J c d d O $ M $XJ.&X5X:XK.6X2X<XaXaXaXaXaXaXaXaXaXaXaXaXaXaXaXaXaXaXaXaXaXaX",
"aXaXaXaXaXaXaXaXaXaXaXaXaXaXaXaXaXaXaXaXaXaXaXaXR k g x d d d * g ( K.y.&X:X:X1XeX8X/.aXaXaXaXaXaXaXaXaXaXaXaXaXaXaXaXaXaXaXaXaX",
"aXaXaXaXaXaXaXaXaXaXaXaXaXaXaXaXaXaXaXaXaXaXaXaXaXD n n h h & * = k $XS.t.J.2X5XiXiX<X~.aXaXaXaXaXaXaXaXaXaXaXaXaXaXaXaXaXaXaXaX",
"aXaXaXaXaXaXaXaXaXaXaXaXaXaXaXaXaXaXaXaXaXaXaXaXaXaXS k k h d * d l h.r.,.-.Y.&X6XpXrX<XaXaXaXaXaXaXaXaXaXaXaXaXaXaXaXaXaXaXaXaX",
"aXaXaXaXaXaXaXaXaXaXaXaXaXaXaXaXaXaXaXaXaXaXaXaXaXaX! r t , d $ l r.e.@.@.$.w.r.J.wXiX:X~.aXaXaXaXaXaXaXaXaXaXaXaXaXaXaXaXaXaXaX",
"aXaXaXaXaXaXaXaXaXaXaXaXaXaXaXaXaXaXaXaXaXaXaXaXaXaXaXE e , & k S.w.5 + 6 $.| X.5.S.:X:X~.aXaXaXaXaXaXaXaXaXaXaXaXaXaXaXaXaXaXaX",
"aXaXaXaXaXaXaXaXaXaXaXaXaXaXaXaXaXaXaXaXaXaXaXaXaXaXaXaXA : j D.w.h o X . 6 | | X.%.r.*X&XJ.aXaXaXaXaXaXaXaXaXaXaXaXaXaXaXaXaXaX",
"aXaXaXaXaXaXaXaXaXaXaXaXaXaXaXaXaXaXaXaXaXaXaXaXaXaXaXaX` F g.R g d d O o + { | X.X.&.S.Y.F.Z.aXaXaXaXaXaXaXaXaXaXaXaXaXaXaXaXaX",
"aXaXaXaXaXaXaXaXaXaXaXaXaXaXaXaXaXaXaXaXaXaXaXaXaXaXaXaXaXaXY < d h h h d ; #.| } } $.w.R D.l.aXaXaXaXaXaXaXaXaXaXaXaXaXaXaXaXaX",
"aXaXaXaXaXaXaXaXaXaXaXaXaXaXaXaXaXaXaXaXaXaXaXaXaXaXaXaXaXaXM < k l k j d d k $.o.{ 8 q h J s.F.aXaXaXaXaXaXaXaXaXaXaXaXaXaXaXaX",
"aXaXaXaXaXaXaXaXaXaXaXaXaXaXaXaXaXaXaXaXaXaXaXaXaXaXaXaXaXaXaXU z z Y f f M M 5 6 6 6 , d j =.w.aXaXaXaXaXaXaXaXaXaXaXaXaXaXaXaX",
"aXaXaXaXaXaXaXaXaXaXaXaXaXaXaXaXaXaXaXaXaXaXaXaXaXaXaXaXaXaXaXaXT j f f ^ ^ f o o @ 4 9 $ = 0 :.aXaXaXaXaXaXaXaXaXaXaXaXaXaXaXaX",
"aXaXaXaXaXaXaXaXaXaXaXaXaXaXaXaXaXaXaXaXaXaXaXaXaXaXaXaXaXaXaXaX_ Y f M [ V O       # 6 5 > 9 7 aXaXaXaXaXaXaXaXaXaXaXaXaXaXaXaX",
"aXaXaXaXaXaXaXaXaXaXaXaXaXaXaXaXaXaXaXaXaXaXaXaXaXaXaXaXaXaXaXaXaXW A ( M * o o o   . # 3 3 4 u aXaXaXaXaXaXaXaXaXaXaXaXaXaXaXaX",
"aXaXaXaXaXaXaXaXaXaXaXaXaXaXaXaXaXaXaXaXaXaXaXaXaXaXaXaXaXaXaXaXaXaXD.K > & = - * * X % # 3 w F aXaXaXaXaXaXaXaXaXaXaXaXaXaXaXaX",
"aXaXaXaXaXaXaXaXaXaXaXaXaXaXaXaXaXaXaXaXaXaXaXaXaXaXaXaXaXaXaXaXaXaXaXZ > < 1 = , * X   % 2 I aXaXaXaXaXaXaXaXaXaXaXaXaXaXaXaXaX",
"aXaXaXaXaXaXaXaXaXaXaXaXaXaXaXaXaXaXaXaXaXaXaXaXaXaXaXaXaXaXaXaXaXaXaXaXn C g 2 w $ X X - B aXaXaXaXaXaXaXaXaXaXaXaXaXaXaXaXaXaX",
"aXaXaXaXaXaXaXaXaXaXaXaXaXaXaXaXaXaXaXaXaXaXaXaXaXaXaXaXaXaXaXaXaXaXaXaX] W S l 9 $ * f ^ aXaXaXaXaXaXaXaXaXaXaXaXaXaXaXaXaXaXaX",
"aXaXaXaXaXaXaXaXaXaXaXaXaXaXaXaXaXaXaXaXaXaXaXaXaXaXaXaXaXaXaXaXaXaXaXaXaX] j.u > - f B aXaXaXaXaXaXaXaXaXaXaXaXaXaXaXaXaXaXaXaX",
"aXaXaXaXaXaXaXaXaXaXaXaXaXaXaXaXaXaXaXaXaXaXaXaXaXaXaXaXaXaXaXaXaXaXaXaXaXaXP.C 1 - N aXaXaXaXaXaXaXaXaXaXaXaXaXaXaXaXaXaXaXaXaX",
"aXaXaXaXaXaXaXaXaXaXaXaXaXaXaXaXaXaXaXaXaXaXaXaXaXaXaXaXaXaXaXaXaXaXaXaXaXaXaXaXm g aXaXaXaXaXaXaXaXaXaXaXaXaXaXaXaXaXaXaXaXaXaX",
"aXaXaXaXaXaXaXaXaXaXaXaXaXaXaXaXaXaXaXaXaXaXaXaXaXaXaXaXaXaXaXaXaXaXaXaXaXaXaXaXaXaXaXaXaXaXaXaXaXaXaXaXaXaXaXaXaXaXaXaXaXaXaXaX",
"aXaXaXaXaXaXaXaXaXaXaXaXaXaXaXaXaXaXaXaXaXaXaXaXaXaXaXaXaXaXaXaXaXaXaXaXaXaXaXaXaXaXaXaXaXaXaXaXaXaXaXaXaXaXaXaXaXaXaXaXaXaXaXaX",
"aXaXaXaXaXaXaXaXaXaXaXaXaXaXaXaXaXaXaXaXaXaXaXaXaXaXaXaXaXaXaXaXaXaXaXaXaXaXaXaXaXaXaXaXaXaXaXaXaXaXaXaXaXaXaXaXaXaXaXaXaXaXaXaX",
"aXaXaXaXaXaXaXaXaXaXaXaXaXaXaXaXaXaXaXaXaXaXaXaXaXaXaXaXaXaXaXaXaXaXaXaXaXaXaXaXaXaXaXaXaXaXaXaXaXaXaXaXaXaXaXaXaXaXaXaXaXaXaXaX",
"aXaXaXaXaXaXaXaXaXaXaXaXaXaXaXaXaXaXaXaXaXaXaXaXaXaXaXaXaXaXaXaXaXaXaXaXaXaXaXaXaXaXaXaXaXaXaXaXaXaXaXaXaXaXaXaXaXaXaXaXaXaXaXaX",
"aXaXaXaXaXaXaXaXaXaXaXaXaXaXaXaXaXaXaXaXaXaXaXaXaXaXaXaXaXaXaXaXaXaXaXaXaXaXaXaXaXaXaXaXaXaXaXaXaXaXaXaXaXaXaXaXaXaXaXaXaXaXaXaX",
"aXaXaXaXaXaXaXaXaXaXaXaXaXaXaXaXaXaXaXaXaXaXaXaXaXaXaXaXaXaXaXaXaXaXaXaXaXaXaXaXaXaXaXaXaXaXaXaXaXaXaXaXaXaXaXaXaXaXaXaXaXaXaXaX"
};
