/* XPM */
static char *result[] = {
/* columns rows colors chars-per-pixel */
"64 64 256 2 ",
"   c None",
".  c #262726",
"X  c #262928",
"o  c #2E2E2D",
"O  c #342D2C",
"+  c #3A2F2E",
"@  c #39302F",
"#  c #353534",
"$  c #3D3332",
"%  c #383837",
"&  c #3D3D3C",
"*  c #552E2E",
"=  c #55302E",
"-  c #58312F",
";  c #443433",
":  c #473E3C",
">  c #483F3D",
",  c #5B3433",
"<  c #772F2E",
"1  c #63312F",
"2  c #7E312F",
"3  c #653833",
"4  c #613F3D",
"5  c #7D3432",
"6  c #763A34",
"7  c #793B35",
"8  c #7A3F3C",
"9  c #62413F",
"0  c #6A413F",
"q  c #363B41",
"w  c #393C40",
"e  c #474746",
"r  c #4A4A49",
"t  c #545453",
"y  c #5D5D5C",
"u  c #7E4240",
"i  c #60605F",
"p  c #77605F",
"a  c #656564",
"s  c #6C6564",
"d  c #686867",
"f  c #6A6A69",
"g  c #716E6D",
"h  c #737272",
"j  c #7E7E7D",
"k  c #942F2F",
"l  c #813431",
"z  c #843D3A",
"x  c #933431",
"c  c #9D3331",
"v  c #9F3E34",
"b  c #A7322F",
"n  c #A02F30",
"m  c #A53230",
"M  c #A83431",
"N  c #AB3835",
"B  c #AE3E3B",
"V  c #954039",
"C  c #A24139",
"Z  c #B1423F",
"A  c #8A4644",
"S  c #8F4D4B",
"D  c #8F504E",
"F  c #90504E",
"G  c #8D5350",
"H  c #AA4441",
"J  c #A24E46",
"K  c #A34F48",
"L  c #AD4F4C",
"P  c #B24441",
"I  c #B44845",
"U  c #B64E4B",
"Y  c #BA524F",
"T  c #A25654",
"R  c #BC5350",
"E  c #B55957",
"W  c #B55D5B",
"Q  c #B95E5B",
"!  c #885864",
"~  c #8F6477",
"^  c #92697F",
"/  c #8F7A78",
"(  c #C25E5B",
")  c #C4625F",
"_  c #C56360",
"`  c #C86461",
"'  c #536E93",
"]  c #5D7FAD",
"[  c #5F84B6",
"{  c #758CAC",
"}  c #6686B3",
"|  c #6185B8",
" . c #7BA8E7",
".. c #72A5EC",
"X. c #7BB5FF",
"o. c #7DB8FF",
"O. c gray52",
"+. c #888887",
"@. c gray54",
"#. c #9B8E8D",
"$. c #959494",
"%. c #96999E",
"&. c #9C9B9B",
"*. c #AA9C9B",
"=. c #B59292",
"-. c #B59C9C",
";. c #BA9C9A",
":. c #8793A4",
">. c #A5A5A5",
",. c #AAAAAA",
"<. c #B0AFAF",
"1. c gray71",
"2. c #B9B7B7",
"3. c #B9B9B9",
"4. c #C49C9C",
"5. c #C6A5A2",
"6. c #C0BFBE",
"7. c #90B0DE",
"8. c #A9BAD2",
"9. c #85B8FF",
"0. c #BFC2C9",
"q. c #9DC2F5",
"w. c #BACDE8",
"e. c #C5C4C4",
"r. c #C8C7C6",
"t. c #CACACA",
"y. c #D1C7C6",
"u. c #D2C8C7",
"i. c #D2C8C8",
"p. c #D6D5D5",
"a. c #D8D7D7",
"s. c #D2D6DE",
"d. c #D7D9D9",
"f. c #D8D9D9",
"g. c #DCDBDB",
"h. c black",
"j. c black",
"k. c black",
"l. c black",
"z. c black",
"x. c black",
"c. c black",
"v. c black",
"b. c black",
"n. c black",
"m. c black",
"M. c black",
"N. c black",
"B. c black",
"V. c black",
"C. c black",
"Z. c black",
"A. c black",
"S. c black",
"D. c black",
"F. c black",
"G. c black",
"H. c black",
"J. c black",
"K. c black",
"L. c black",
"P. c black",
"I. c black",
"U. c black",
"Y. c black",
"T. c black",
"R. c black",
"E. c black",
"W. c black",
"Q. c black",
"!. c black",
"~. c black",
"^. c black",
"/. c black",
"(. c black",
"). c black",
"_. c black",
"`. c black",
"'. c black",
"]. c black",
"[. c black",
"{. c black",
"}. c black",
"|. c black",
" X c black",
".X c black",
"XX c black",
"oX c black",
"OX c black",
"+X c black",
"@X c black",
"#X c black",
"$X c black",
"%X c black",
"&X c black",
"*X c black",
"=X c black",
"-X c black",
";X c black",
":X c black",
">X c black",
",X c black",
"<X c black",
"1X c black",
"2X c black",
"3X c black",
"4X c black",
"5X c black",
"6X c black",
"7X c black",
"8X c black",
"9X c black",
"0X c black",
"qX c black",
"wX c black",
"eX c black",
"rX c black",
"tX c black",
"yX c black",
"uX c black",
"iX c black",
"pX c black",
"aX c black",
"sX c black",
"dX c black",
"fX c black",
"gX c black",
"hX c black",
"jX c black",
"kX c black",
"lX c black",
"zX c black",
"xX c black",
"cX c black",
"vX c black",
"bX c black",
"nX c black",
"mX c black",
"MX c black",
"NX c black",
"BX c black",
"VX c black",
"CX c black",
"ZX c black",
"AX c black",
"SX c black",
"DX c black",
"FX c black",
"GX c black",
"HX c black",
"JX c black",
"KX c black",
"LX c black",
"PX c black",
"IX c black",
"UX c black",
/* pixels */
"                                                                                                                                ",
"                                                                                                                                ",
"                                                                                                                                ",
"                                                                                                                                ",
"                                                                                                                                ",
"                                                                                                                                ",
"                                                                                                                                ",
"                                                                                                                                ",
"                                                o o o o o o o o o o o o o                                                       ",
"                                                o o o o o o o o o o o o o                                                       ",
"                                                y y y y y a f f d d d d f t                                                     ",
"                                          o o & ,.1.1.1.1.t.a.a.a.a.a.a.f.f o o                                                 ",
"                                          o o % >.1.1.1.1.t.a.a.a.a.a.a.a.d o o                                                 ",
"                                      o o g O.@.,.1.3.t.t.p.a.a.a.a.a.a.a.<.&.$.& o                                             ",
"                                      o o O.3.1.1.1.3.a.a.a.a.a.a.a.a.a.a.f.f.t.& o o                                           ",
"                                      o o O.1.1.1.1.3.a.a.a.a.a.a.a.a.a.a.a.a.e.& o o                                           ",
"                                      o o O.1.1.1.1.6.a.a.a.a.a.a.a.a.a.a.a.a.e.& o o                                           ",
"                                      o o O.1.1.1.1.e.f.d.f.f.f.a.a.a.f.f.f.f.r.& o o                                           ",
"                                      o o O.1.1.@.O.#.4.4.*.&.>.i.a.e.&.&.-.4.=.& o o                                           ",
"                o o o                 o o O.3.>.% o * m c * o & e.f.&.o o < n k + o o                                           ",
"                o o o                 o o O.3.>.% o * c c * o & e.f.&.o o < n k + o o                                           ",
"            o q ] | ' o o             o o O.1.1.@.O.#.4.4.*.&.>.i.a.e.&.&.-.4.=.& o o                                           ",
"          o o q ..o.| o o             o o O.3.1.1.1.e.d.d.f.f.f.a.a.a.f.f.f.f.t.& o o                                           ",
"          o o q  .9.} o o             o o O.,.,.1.1.3.a.a.a.a.a.a.a.a.a.a.a.a.e.& o o                                           ",
"          o o & 0.s.%.o o                 % % e ,.1.6.a.a.a.a.a.a.a.a.a.a.a.a.e.& o o o o o o o                                 ",
"          o o & e.f.&.o o                 o o % ,.1.e.a.a.a.a.a.f.f.f.f.f.f.f.t.& o o o o o o o                                 ",
"          o o & e.f.&.o O                 o o % j O.&.t.t.p.a.i.>.&.&.&.&.&.&.$.% o ; 9 9 , - =                                 ",
"          o o & e.f.&.o o             o o o o o o o y 1.1.t.a.e.& o o o o o o o o o 9 _ _ P M c + o o                           ",
"          o o & e.g.&.o o             o o o o o o o y 1.1.t.f.e.& o o o o o o o o o 9 _ ) P M c @ o o                           ",
"          o o w 7.q.{ o o       o o i &.&.t o o o o & y y a f a % o o o o 1 l l S D T ) ) P M c @ o o                           ",
"          o o q ..X.[ o o       o o f g.g.f o o o o o o o o o o o o o o o l M N ( ` _ ) _ P M c @ o o                           ",
"          o o q  .9.} o o       & & f r.r.f % & & & & & & # o O @ @ @ + + l N B ( ) ) ( ( P M c @ o o                           ",
"          o o & 0.s.%.o o o o & 3.t.$.& & O.,.,.e.e.e.e.e.a o + x c c c c U ( ( ) _ R N N M M c @ o o                           ",
"          o o & r.g.&.o o o o & e.g.&.o o @.3.3.a.f.f.a.f.f o + c M M M M Y _ ) ) _ Y M M M M c @ o o                           ",
"          o o & 8.w.:.o o o o & e.f.&.o o d +.+.&.&.,.t.t.a o + c M M M M Y _ ) ) _ Y M M M M c @ o o                           ",
"          o o q ..X.| o o o o & e.f.&.o o o o o o o y 1.1.y o + c M M M M Y _ ) ) _ Y M M M M c @ o o                           ",
"          o o q ..X.| o o o o & r.g.&.o o o o o o o y 1.1.y o + c M M M M Y _ ) ) _ Y M M M M c + o o                           ",
"      o o 3 7 8 ~ ^ ! 7 7 / &.$.f f t o o d +.@.&.&.,.t.t.a o + c M B Y Y ( ) ( I P B M M I R L $ o o                           ",
"      o o 7 C C v v v C C 5.g.t.% o o o o +.3.3.a.f.f.a.a.f o + c M P _ _ ) ) ( N M M M M R _ W $ o o                           ",
"      o o 6 V V J K K K J ;.t.3.& o o o o O.,.,.e.e.t.p.p.h % : x c H ) ) ) ) ( N M M M M Y _ W $ o o                           ",
"          @ @ > 6.u.y.y.u.g % &           % & & & & f 3.1.e.e.2.: O 0 ) ) ) ) ( N M M M M Y _ W $ o o                           ",
"          o o & t.f.f.f.g.f o o           o o o o . y 1.1.t.a.e.% X 4 ` ` ) ) ( N M M M b Y _ W $ o o                           ",
"            o & $.&.&.&.&.i o o           t y y d a O.e.3.t.a.t.h d p F F W _ ( N M N P P U R L $ o o                           ",
"                o o o o o             o o O.3.3.p.a.a.a.a.a.a.a.a.f.&.o o F ` ( N M P _ _ P b c + o o                           ",
"                o o o o o             o o O.3.3.p.a.a.a.a.a.a.a.a.f.&.o o F ` ( N M P ) ) P M c + o o                           ",
"                                      o o r y a 1.3.e.a.a.a.a.a.a.f.&.o o z P Z M M P ) ) u = -                                 ",
"                                      o o o o % >.1.6.a.a.a.a.a.a.f.&.o o 2 M M M M P _ _ 9 o o                                 ",
"                                      o o % & r &.>.1.e.e.e.e.e.e.t.$.& & 7 c c N N P ( ( 4 o o                                 ",
"                                      o o $.t.3.r % & & & & & & & & f r.e.s O ; E ( Y N N , o o                                 ",
"                                      o o &.f.e.& o o o o o o o o o f a.a.a . @ Q ` R M M - o o                                 ",
"                                    t f d <.f.e.& o o o o o o o o o f a.a.@.a s G F A 5 5 = o o                                 ",
"                                o o f f.a.a.a.e.& o o           o o f a.a.a.f.r.& o o o o                                       ",
"                                o o f a.a.a.a.e.& o o           o o f a.a.a.a.e.& o o o o                                       ",
"                                                                                                                                ",
"                                                                                                                                ",
"                                                                                                                                ",
"                                                                                                                                ",
"                                                                                                                                ",
"                                                                                                                                ",
"                                                                                                                                ",
"                                                                                                                                ",
"                                                                                                                                ",
"                                                                                                                                ",
"                                                                                                                                "
};
