/* XPM */
static char *result[] = {
/* columns rows colors chars-per-pixel */
"64 64 256 2 ",
"   c None",
".  c #262726",
"X  c #2E2E2D",
"o  c #352B2A",
"O  c #3A2F2E",
"+  c #30302F",
"@  c #3B302F",
"#  c #353434",
"$  c #3C3332",
"%  c #383837",
"&  c #3D3D3C",
"*  c #49302F",
"=  c #53312F",
"-  c #59312F",
";  c #463330",
":  c #483F3E",
">  c #553531",
",  c #5B3433",
"<  c #5E3C3B",
"1  c #762D2C",
"2  c #63312F",
"3  c #7D322F",
"4  c #633534",
"5  c #623F3E",
"6  c #7E3230",
"7  c #773A34",
"8  c #783A35",
"9  c #7B3A3A",
"0  c #63413F",
"q  c #363B41",
"w  c #434342",
"e  c #4A4140",
"r  c #4D4D4C",
"t  c #545453",
"y  c #5C5C5B",
"u  c #6C4442",
"i  c #6E5956",
"p  c #60605F",
"a  c #45556B",
"s  c #495C75",
"d  c #656564",
"f  c #686767",
"g  c #696968",
"h  c #706968",
"j  c #747473",
"k  c #7C7C7B",
"l  c #932C2C",
"z  c #803230",
"x  c #823E3C",
"c  c #9E3432",
"v  c #933D3B",
"b  c #A12C2C",
"n  c #A7322F",
"m  c #A73330",
"M  c #A93431",
"N  c #AB3835",
"B  c #AE3E3B",
"V  c #9E4037",
"C  c #9E4038",
"Z  c #A04139",
"A  c #8A4E4C",
"S  c #9A4241",
"D  c #90514E",
"F  c #855555",
"G  c #A74141",
"H  c #AD4F4C",
"J  c #B24441",
"K  c #B84F4C",
"L  c #AC514F",
"P  c #BB524F",
"I  c #AA5957",
"U  c #AB5A58",
"Y  c #BD5350",
"T  c #B45957",
"R  c #BE5956",
"E  c #B75E5B",
"W  c #BA5E5C",
"Q  c #956665",
"!  c #857676",
"~  c #807F7F",
"^  c #8F7A78",
"/  c #9D7C79",
"(  c #AB6A6A",
")  c #B56B6B",
"_  c #C25E5B",
"`  c #C4625F",
"'  c #C56360",
"]  c #C86461",
"[  c #766D8A",
"{  c #5F84B6",
"}  c #5E85B9",
"|  c #6385B5",
" . c #7BA8E7",
".. c #72A5EC",
"X. c #7BB5FF",
"o. c #858584",
"O. c #888887",
"+. c #8D8D8D",
"@. c #949393",
"#. c #999191",
"$. c #96999E",
"%. c #9D9C9C",
"&. c #8282AD",
"*. c #8793A4",
"=. c #888CBD",
"-. c #A5A5A5",
";. c #A8A8A7",
":. c #A9A9A9",
">. c #B0AFAF",
",. c gray71",
"<. c #BAB9B9",
"1. c #C3A29F",
"2. c #C6A4A1",
"3. c #C3BBBB",
"4. c #A9BAD2",
"5. c #85B8FF",
"6. c #BFC2C9",
"7. c #BACDE8",
"8. c #C5C4C4",
"9. c #C8C7C6",
"0. c #CBCACA",
"q. c #D1C6C6",
"w. c #D5C9C9",
"e. c #D6D5D5",
"r. c #D8D7D7",
"t. c #D2D6DE",
"y. c #DAD9D9",
"u. c #DCDBDB",
"i. c #DEDDDD",
"p. c black",
"a. c black",
"s. c black",
"d. c black",
"f. c black",
"g. c black",
"h. c black",
"j. c black",
"k. c black",
"l. c black",
"z. c black",
"x. c black",
"c. c black",
"v. c black",
"b. c black",
"n. c black",
"m. c black",
"M. c black",
"N. c black",
"B. c black",
"V. c black",
"C. c black",
"Z. c black",
"A. c black",
"S. c black",
"D. c black",
"F. c black",
"G. c black",
"H. c black",
"J. c black",
"K. c black",
"L. c black",
"P. c black",
"I. c black",
"U. c black",
"Y. c black",
"T. c black",
"R. c black",
"E. c black",
"W. c black",
"Q. c black",
"!. c black",
"~. c black",
"^. c black",
"/. c black",
"(. c black",
"). c black",
"_. c black",
"`. c black",
"'. c black",
"]. c black",
"[. c black",
"{. c black",
"}. c black",
"|. c black",
" X c black",
".X c black",
"XX c black",
"oX c black",
"OX c black",
"+X c black",
"@X c black",
"#X c black",
"$X c black",
"%X c black",
"&X c black",
"*X c black",
"=X c black",
"-X c black",
";X c black",
":X c black",
">X c black",
",X c black",
"<X c black",
"1X c black",
"2X c black",
"3X c black",
"4X c black",
"5X c black",
"6X c black",
"7X c black",
"8X c black",
"9X c black",
"0X c black",
"qX c black",
"wX c black",
"eX c black",
"rX c black",
"tX c black",
"yX c black",
"uX c black",
"iX c black",
"pX c black",
"aX c black",
"sX c black",
"dX c black",
"fX c black",
"gX c black",
"hX c black",
"jX c black",
"kX c black",
"lX c black",
"zX c black",
"xX c black",
"cX c black",
"vX c black",
"bX c black",
"nX c black",
"mX c black",
"MX c black",
"NX c black",
"BX c black",
"VX c black",
"CX c black",
"ZX c black",
"AX c black",
"SX c black",
"DX c black",
"FX c black",
"GX c black",
"HX c black",
"JX c black",
"KX c black",
"LX c black",
"PX c black",
"IX c black",
"UX c black",
/* pixels */
"                                                                                                                                ",
"                                                                                                                                ",
"                                                                                                                                ",
"                                                                                                                                ",
"                                                                                                                                ",
"                                                      X X X X X X X X o X X X X                                                 ",
"                                                      X X X X X X X X X X X X X                                                 ",
"                                                      & & & & & & & & & & & & &                                                 ",
"                                                X X y :.;.;.;.:.8.8.8.8.8.8.8.<.& X X                                           ",
"                                                X . y ,.,.,.,.,.e.e.e.e.e.e.r.8.& . .                                           ",
"                                                y y k ,.,.<.8.8.e.e.e.e.e.e.e.0.j g p                                           ",
"                                          X X & :.,.,.,.,.0.e.e.e.e.e.e.e.e.e.e.r.u.%.X X                                       ",
"                                          X X & ;.,.,.,.,.0.e.e.e.e.e.e.e.e.e.e.e.y.%.X X                                       ",
"                                          X X & ;.,.,.,.,.0.e.e.e.e.e.e.e.e.e.e.e.y.%.X X                                       ",
"                                          X X & ;.,.,.,.,.0.e.e.e.e.e.e.e.e.e.e.e.y.%.X X                                       ",
"                                          X X & ;.,.,.;.;.3.q.q.8.8.0.e.e.0.8.8.q.w.#.X X                                       ",
"                          X X X           X X & ;.<.O.& & x G S : & j r.r.j & : S G 9 X X                                       ",
"                          X X X           X X & :.<.o.. . 1 b l o . d r.r.d . o l b 1 X X                                       ",
"                          a s s           X X & :.,.@.y y Q ) ( h d +.e.e.+.d h ( ) F X X                                       ",
"                      X X | X...q X X     X X & ;.,.,.,.,.0.r.e.r.r.e.e.e.e.r.e.e.y.%.X X                                       ",
"                      X X | X...q X X     X X & :.,.,.,.,.0.e.e.e.e.e.e.e.e.e.e.e.y.%.X X                                       ",
"                      X X *.7.4.& X X           y y k ,.,.0.e.e.e.e.e.e.e.e.e.e.e.y.%.X X       X X X X X                       ",
"                      X X %.u.9.& X X           X . y ,.,.0.e.e.e.e.e.e.e.e.e.e.e.y.%.X X       X X X X X                       ",
"                      X X %.y.8.& X X           X X y :.;.8.e.e.e.e.e.8.8.8.8.9.e.y.%.X X       $ $ $ O O                       ",
"                      X X %.y.8.& X +     X X X X X # & & +.<.<.e.y.-.& & & & r 9.y.%.X X X X $ I E H c c - X X                 ",
"                      X X %.u.9.& X +     . . X X X X X X O.<.<.e.i.%.X X X X & 0.i.%.X X X X $ E ' P M M - X X                 ",
"                      X X *.7.4.& X X     p g d # X X X X f O.O.%.%.j X X X X & @.%.! - - < 0 u W ' P M M - X X                 ",
"                      X X { X...q X X X X %.u.9.& X X X X X X X X X X X X X X X X X - M M P ' ` ` ' P M M - X X                 ",
"                      X X | X...q X X X X %.u.9.& X X X X X X X X X X X X X X X X X - M m P ' ` ' ' Y M M - X X                 ",
"                      X X *.7.4.& X t %.%.k f g o.o.+.%.%.%.%.%.%.%.j X X 2 z 6 6 3 v P P _ ` _ J J B M M - X X                 ",
"                      X X %.u.9.& . g u.y.f . % :.<.8.y.y.y.y.y.y.i.%.X X z M M M m J ' ' ` ` _ N m M M M - X X                 ",
"                      X X $.t.6.& . g r.e.g . & %.;.,.8.8.0.e.e.e.y.%.X X 6 M M M m J ` ` ` ` _ N M M M M - X X                 ",
"                      X X | 5. .q . g r.r.g . + & & & & & +.<.<.e.y.%.X X 6 M M M m J ` ` ` ` _ N M M M M - X X                 ",
"                      X X } X...q . g y.u.g . X X . . . . o.,.,.e.y.%.X X 6 M M m n J ` ` ' ' _ N M M m m - X X                 ",
"                    ; > > [ =.&.< = i %.%.t X # y y d g f -.8.8.e.y.%.X X 6 M M J J K ` ` R P K N m N J J , X X                 ",
"                X X > Z C C V V C Z 8 X X X X & :.,.8.r.r.e.e.e.e.y.%.X X 6 M N _ ' ` ` ` J n M M m J ' ' 0 X X                 ",
"                X X > Z C C C C C Z 7 X X X X & :.,.8.r.r.e.e.e.e.y.%.X X 6 M N _ ` ` ` ` J m M M m J ` ' 0 X X                 ",
"                    ; > > / 2.1.1.2.^ X X X     y y d g f -.8.8.e.y.%.X X * - 4 W ` ` ` ` J m M M m J ` ' 0 X X                 ",
"                      X X %.i.y.y.i.%.X X       X . . . . o.,.,.e.y.%.X X X X $ E ` ` ` ` J m M M m J ' ' 0 X X                 ",
"                      X X @.0.8.8.0.@.X X       & & & & & +.<.<.e.y.-.& & & & e U E W ` ` J m M N N J _ _ 5 X X                 ",
"                          & & & & & &     X X & %.;.,.8.8.0.e.e.e.e.e.8.8.8.8.<.e $ u ` ` J n N R _ P N N , X X                 ",
"                          X X X X X X     X X & :.<.8.r.r.e.e.e.e.e.e.e.e.y.u.0.& X 0 ' ' J m N _ ' P M M - X X                 ",
"                            X X X X       X X % k o.%.0.0.e.e.e.e.e.e.e.e.>.%.@.& X < P P B m N _ ' L 6 6 = X X                 ",
"                                          X X X X . y ,.,.0.e.e.e.e.e.e.r.f . X X X - m M M M N _ ] D X X                       ",
"                                          X X X X X y ,.,.0.y.r.r.r.e.e.y.g . X X X - M M M m N _ ] D X X                       ",
"                                      X X ~ %.@.& X & y y d g g g g g g g w X X     * - - S Y P J J x X X                       ",
"                                      X X %.i.0.& X X X X X . . . . . . . X X X       X X D ] _ N m 3 X X                       ",
"                                      X X %.y.8.& X X X X X X X X X # & & % X X       X X A W T c c 6 X X                       ",
"                                      X X %.y.8.& X X           X X d 9.9.d . X           $ $ $ @ @ @                           ",
"                                      . . %.y.8.& X X           X . g y.r.d . .           X X X X X X                           ",
"                                    t g f >.y.8.& X X           + X g r.e.+.d d             X X X X                             ",
"                                X . g y.r.e.e.8.& X X           + X g r.e.e.y.9.& X X                                           ",
"                                X . g r.e.e.e.8.& X X           X . g r.e.e.r.8.& X X                                           ",
"                                                                                                                                ",
"                                                                                                                                ",
"                                                                                                                                ",
"                                                                                                                                ",
"                                                                                                                                ",
"                                                                                                                                ",
"                                                                                                                                ",
"                                                                                                                                ",
"                                                                                                                                ",
"                                                                                                                                ",
"                                                                                                                                "
};
