/* XPM */
static char *result[] = {
/* columns rows colors chars-per-pixel */
"64 64 128 2 ",
"   c None",
".  c #272726",
"X  c #2D2E2D",
"o  c #332F2E",
"O  c #3A2F2E",
"+  c #3A302F",
"@  c #363635",
"#  c #3C3332",
"$  c #3D3D3C",
"%  c #552E2E",
"&  c #4A302F",
"*  c #55322F",
"=  c #59312F",
"-  c #4A3837",
";  c #543532",
":  c #5C3635",
">  c #5E3D3A",
",  c #772F2E",
"<  c #6A312F",
"1  c #7E322F",
"2  c #7E3230",
"3  c #7B3C3A",
"4  c #62413F",
"5  c #3F4A5A",
"6  c #454544",
"7  c #4D4D4C",
"8  c #545353",
"9  c #5D5D5C",
"0  c #7B5B58",
"q  c #495C76",
"w  c #475D78",
"e  c #675361",
"r  c #5E646D",
"t  c #656564",
"y  c #696766",
"u  c #686867",
"i  c #666769",
"p  c #696968",
"a  c #767675",
"s  c #7D7D7C",
"d  c #942F2F",
"f  c #833633",
"g  c #843D3A",
"h  c #933330",
"j  c #9D3431",
"k  c #933E37",
"l  c #943F38",
"z  c #A7322F",
"x  c #A8322F",
"c  c #A02F30",
"v  c #A53230",
"b  c #A93431",
"n  c #AB3835",
"m  c #AE3D3A",
"M  c #9E4037",
"N  c #9E4038",
"B  c #A2423C",
"V  c #B1423F",
"C  c #8C4E4C",
"Z  c #8F504E",
"A  c #90504E",
"S  c #9F514E",
"D  c #8D5350",
"F  c #AD4F4C",
"G  c #B24441",
"H  c #B44845",
"J  c #B54F4C",
"K  c #B84F4C",
"L  c #BA524F",
"P  c #A25654",
"I  c #BB5350",
"U  c #B45957",
"Y  c #BF5956",
"T  c #B75E5B",
"R  c #BA5E5B",
"E  c #807F7F",
"W  c #C25E5B",
"Q  c #C4625F",
"!  c #C56360",
"~  c #C86461",
"^  c #7AB3FF",
"/  c #868686",
"(  c #888887",
")  c #8B8B8B",
"_  c #9B8E8D",
"`  c #959393",
"'  c #9C9C9B",
"]  c #AA9C9B",
"[  c #B59493",
"{  c #B59C9C",
"}  c #878BBB",
"|  c #A5A5A5",
" . c #AAA9A9",
".. c #B0AFAF",
"X. c gray71",
"o. c #B8B7B7",
"O. c #B9B9B9",
"+. c #C49C9C",
"@. c #C3A29F",
"#. c #C4A3A0",
"$. c #C0BFBF",
"%. c #83B6FC",
"&. c #B7CAE5",
"*. c #C5C4C4",
"=. c #C8C7C7",
"-. c #CACACA",
";. c #CFD3DA",
":. c #D1D0D0",
">. c #D2D1D1",
",. c #D4D3D3",
"<. c #D7D6D6",
"1. c #D8D7D7",
"2. c #D7D9D9",
"3. c #D8D9D9",
"4. c #DBDADA",
"5. c #DFDEDE",
"6. c black",
"7. c black",
"8. c black",
"9. c black",
"0. c black",
"q. c black",
"w. c black",
"e. c black",
"r. c black",
"t. c black",
"y. c black",
"u. c black",
/* pixels */
"                                                                                                                                ",
"                                                                                                                                ",
"                                                                                                                                ",
"                                                                                                                                ",
"                                                                                                                                ",
"                                                                                                                                ",
"                                                                                                                                ",
"                                                                                                                                ",
"                                                X X X X X X X X X X X X X                                                       ",
"                                                X X X X X X X X X X X X X                                                       ",
"                                                9 9 9 9 9 t p p p p p p p 8                                                     ",
"                                          X X $  .X.X.X.X.-.1.1.<.<.<.<.3.p X X                                                 ",
"                                          X X $ | X.X.X.X.-.<.<.<.<.<.<.1.u X X                                                 ",
"                                      X X a / )  .X.O.-.-.>.<.<.<.<.<.<.<...' ` $ X                                             ",
"                                      X X / O.X.X.X.$.<.<.<.<.<.<.<.<.<.<.3.3.-.$ X X                                           ",
"                                      X X / X.X.X.X.$.<.<.<.<.<.<.<.<.<.<.<.<.*.$ X X                                           ",
"                      X X             X X / X.X.X.X.$.<.<.<.<.<.<.<.<.<.<.<.<.*.$ X X                                           ",
"                      X X             X X / X.X.X.X.*.3.2.3.3.3.<.<.<.3.3.3.3.=.$ X X                                           ",
"                    5 q q 5           X X / X.X.) / _ +.+.] ' | >.1.*.' ' { +.[ $ X X                                           ",
"                X X q ^ ^ q X X       X X / O. .$ X % v j % X $ *.3.' X X , c d O X X                                           ",
"                X X q ^ ^ q X X       X X / O. .$ X % j j % X $ *.3.' X X , c d O X X                                           ",
"                X X r &.&.r X X       X X / X.X.) / _ +.+.] ' | >.1.*.' ' { +.[ $ X X       X X X X                             ",
"                X X p 1.1.u X X       X X / O.X.X.X.*.2.2.3.3.3.<.<.<.3.3.3.3.-.$ X X     X X X X X X                           ",
"                X X p 1.<.p X X       X X s  . .X.X.O.<.<.<.<.<.<.<.<.<.<.<.<.*.$ X X     # # # + + +                           ",
"                X X p 1.1.p X X       X X @ $ 6  .X.$.<.<.<.<.<.<.<.<.<.<.<.<.*.$ X X X X C R U j j 2 X X                       ",
"                X X p 1.1.u X X       X X X X $  .X.*.<.<.<.<.<.3.3.3.3.3.3.3.-.$ X X X X Z ~ W n b 2 X X                       ",
"                X X r &.&.r X X     8 p p 6 X @ s / ' -.-.>.<.>.| ' ' ' ' ' ' ` > = : 4 4 P ~ W n b 2 X X                       ",
"                X X q ^ ^ q X X X X p 3.3.p X X X X 9 X.X.-.<.*.$ X X X X X X O j b G ~ Q Q Q W n b 2 X X                       ",
"                X X q ^ ^ q X X X X u 3.3.u X X X X 9 X.X.-.3.=.$ X X X X X X O j b G ~ Q Q ~ W n b 2 X X                       ",
"                X X r &.&.r X $ ` ' ) u u s / ( ' ' / 9 9 t p t @ X & 2 2 2 2 f J L Y Q Q K G V b b 2 X X                       ",
"                X X u 1.1.u X $ -.5.' X X / O.O.<.5.' X X X X X X X = b b b b n W ~ ~ Q ~ G z b b b 2 X X                       ",
"                X X i ;.;.i X $ *.3.' X X s  . .*.-.` $ $ $ $ $ @ X = b b b b n W Q Q Q ~ G b b b b 2 X X                       ",
"                X X q %.%.q X $ *.3.' X X @ $ $ $ $ t  .| O.=.o.$ X = b b b b n W Q Q Q Q G b b b b 2 X X                       ",
"                X X w ^ ^ w X $ -.5.' X X X X X X . 9 X.X.-.3.*.$ X = b b b b n W Q Q ~ ~ G b b b b 1 X X                       ",
"                ; * e } } e * > ` ' a X X 7 9 9 u t / *.$.-.1.*.$ X = b b m G H W ~ W L L m b b G G g X X                       ",
"          X X + l B N M M N B l + X X X X / O.O.,.<.<.<.<.<.<.*.$ X = b b L ! Q Q ~ L b b b b n W ~ A X X                       ",
"          X X + N B N N M M M k + X X X X / O.O.,.<.<.<.<.<.<.*.$ X = b b L ~ Q Q ~ L b b b b n W ~ A X X                       ",
"                ; ; 0 #.@.@.@.[ $ X X     8 9 9 u t / *.O.-.1.*.$ X + = = S ~ Q Q ~ L b b b b n W ~ A X X                       ",
"                X X p 3.3.3.3.-.$ X X     X X X X . 9 X.X.-.<.*.$ X X X X A ~ Q Q ~ L b b b b n W ~ A X X                       ",
"                X X t *.*.*.*.O.$ X X     $ $ $ $ $ u O.X.-.<.=.7 $ $ $ $ D R T Q ~ L b b n n m Y W C X X                       ",
"                      $ $ $ $ $       X X /  . .*.*.-.>.>.<.<.,.=.*.*.*.=.y + - T ~ L b b K W Y m n f X X                       ",
"                      X X X X X       X X / O.O.<.1.<.<.<.<.<.<.<.<.1.3.3.p X # T ! I b b L ~ W n b 2 X X                       ",
"                      X X X X X       X X p / ) *.-.-.<.<.<.<.<.<.<.*.' ' 8 X # F I H b b L ~ R f 2 < X X                       ",
"                                          X X $ | X.O.<.<.<.<.<.<.3.' X X X X O j b b b b L ~ T # X X                           ",
"                                          X X $  .X.*.1.1.1.1.1.<.3.' X X X X O j b b b b L ! T # X X                           ",
"                                      X X E ' ` t 9 t p p p p p p u s ' ' 8 X o * * 3 L L H G B # X X                           ",
"                                      X X ' 5.-.$ X X X X X X X X . u 3.3.p X o X X 7 ! ! G x j O X X                           ",
"                                      X X ' 3.*.$ X X X X X X X X X p 1.<.p X o o X 4 T T B j h O X X                           ",
"                                      X X ' 3.*.$ X X           X X p 1.<.p X X       # # # + +                                 ",
"                                      X X ' 3.*.$ X X           X X p <.<.t . X       X X X X X                                 ",
"                                    8 p u ..3.*.$ X X           X X p <.<.) t t       X X X X X                                 ",
"                                X X p 3.1.<.<.*.$ X X           X X p <.<.<.1.=.$ X X                                           ",
"                                X X p 1.<.<.<.*.$ X X           X X p 1.<.<.<.*.$ X X                                           ",
"                                                                                                                                ",
"                                                                                                                                ",
"                                                                                                                                ",
"                                                                                                                                ",
"                                                                                                                                ",
"                                                                                                                                ",
"                                                                                                                                ",
"                                                                                                                                ",
"                                                                                                                                ",
"                                                                                                                                ",
"                                                                                                                                "
};
