/* XPM */
static char *result[] = {
/* columns rows colors chars-per-pixel */
"64 64 128 2 ",
"   c None",
".  c #272726",
"X  c #272928",
"o  c #2E2E2D",
"O  c #332F2E",
"+  c #3A2F2E",
"@  c #30302F",
"#  c #3A302F",
"$  c #373736",
"%  c #3C3332",
"&  c #383837",
"*  c #3D3D3C",
"=  c #532B2B",
"-  c #4A302F",
";  c #55322F",
":  c #59312F",
">  c #4A3837",
",  c #543532",
"<  c #5C3635",
"1  c #5E3D3A",
"2  c #752C2B",
"3  c #6A312F",
"4  c #7E322F",
"5  c #613E3E",
"6  c #7E3230",
"7  c #7B3C3A",
"8  c #62413F",
"9  c #3F4A5A",
"0  c #454544",
"q  c #4D4D4C",
"w  c #555454",
"e  c #5D5D5C",
"r  c #7B5B58",
"t  c #495C76",
"y  c #475D78",
"u  c #675361",
"i  c #5E646D",
"p  c #666665",
"a  c #696766",
"s  c #676867",
"d  c #686867",
"f  c #666769",
"g  c #696968",
"h  c #7B6261",
"j  c #757574",
"k  c #7C7C7B",
"l  c #932D2D",
"z  c #9F2C2C",
"x  c #833633",
"c  c #843D3A",
"v  c #933330",
"b  c #9D3431",
"n  c #933E37",
"m  c #943F38",
"M  c #993F3F",
"N  c #A12C2C",
"B  c #A7322F",
"V  c #A8322F",
"C  c #A73330",
"Z  c #A93431",
"A  c #AB3835",
"S  c #AE3D3A",
"D  c #81403F",
"F  c #9E4037",
"G  c #9E4038",
"H  c #A2423C",
"J  c #8C4E4C",
"K  c #8F504E",
"L  c #90504E",
"P  c #9F514E",
"I  c #8D5350",
"U  c #A64040",
"Y  c #AD4F4C",
"T  c #B24441",
"R  c #B44845",
"E  c #B54F4C",
"W  c #B84F4C",
"Q  c #BA524F",
"!  c #A25654",
"~  c #BB5350",
"^  c #B45957",
"/  c #BF5956",
"(  c #B75E5B",
")  c #BA5E5B",
"_  c #826969",
"`  c #996969",
"'  c #807F7F",
"]  c #A66464",
"[  c #B36A6A",
"{  c #C25E5B",
"}  c #C4625F",
"|  c #C56360",
" . c #C86461",
".. c #7AB3FF",
"X. c #868686",
"o. c #888887",
"O. c #8D8D8C",
"+. c #949292",
"@. c #9D9C9C",
"#. c #B59794",
"$. c #878BBB",
"%. c #A5A5A5",
"&. c #A8A8A7",
"*. c #AAAAAA",
"=. c #B0AFAF",
"-. c gray71",
";. c #B9B9B9",
":. c #C3A29F",
">. c #C4A3A0",
",. c #C2B8B7",
"<. c #C0BFBF",
"1. c #83B6FC",
"2. c #B7CAE5",
"3. c #C5C5C5",
"4. c #C8C7C7",
"5. c #CBCACA",
"6. c #D1C6C6",
"7. c #CFD3DA",
"8. c #D1D0D0",
"9. c #D3D2D2",
"0. c #D4D3D3",
"q. c #D7D5D5",
"w. c #D8D7D7",
"e. c #DBDADA",
"r. c #DCDADB",
"t. c #DFDEDE",
"y. c black",
"u. c black",
/* pixels */
"                                                                                                                                ",
"                                                                                                                                ",
"                                                                                                                                ",
"                                                                                                                                ",
"                                                                                                                                ",
"                                                o o o o o o o o o o o o o                                                       ",
"                                                o o o o o o o o o o o o o                                                       ",
"                                                * * * * * * * * * * * * *                                                       ",
"                                          o o * @.&.&.&.&.;.4.4.4.4.4.4.4.p o o                                                 ",
"                                          o o * &.-.-.-.-.5.q.q.q.q.q.q.w.p . o                                                 ",
"                                          w e p *.-.;.3.;.5.q.q.q.q.q.q.q.O.p p                                                 ",
"                                      o o X.;.-.-.-.3.q.q.q.q.q.q.q.q.q.q.q.w.4.* o o                                           ",
"                                      o o X.-.-.-.-.<.q.q.q.q.q.q.q.q.q.q.q.q.4.* o o                                           ",
"                                      o o X.-.-.-.-.<.q.q.q.q.q.q.q.q.q.q.q.q.4.* o o                                           ",
"                                      o o X.-.-.-.-.3.q.q.q.q.q.q.q.q.q.q.q.q.4.* o o                                           ",
"                                      o o X.-.-.&.&.-.6.6.4.4.4.0.q.9.4.4.4.6.,.* o o                                           ",
"                      o o             o o X.;.&.0 * 1 U U 5 * q 4.e.%.* * D U M % o o                                           ",
"                      o o             o o X.;.&.& o = z z = X * 4.e.@.o o 2 N l + o o                                           ",
"                    9 t t 9           o o X.;.*.p e h [ [ _ s j 5.e.=.d d ` [ ] % o o                                           ",
"                o o t ....t o o       o o X.-.-.-.-.3.q.q.q.q.q.q.q.q.q.q.q.q.4.* o o                                           ",
"                o o t ....t o o       o o X.;.-.-.-.<.q.q.q.q.q.q.q.q.q.q.q.q.4.* o o                                           ",
"                o o i 2.2.i o o           w e p *.-.<.q.q.q.q.q.q.q.q.q.q.q.q.4.* o o       o o o o                             ",
"                o o d w.w.d o o           o o * &.-.3.q.q.q.q.q.q.q.q.q.q.q.q.4.* o o     o o o o o o                           ",
"                o o d w.q.d o o           o o * @.&.-.9.9.q.q.q.4.4.4.4.4.9.q.4.* o o     % % % # # +                           ",
"                o o d w.w.d o o       o o o o @ * & p ;.-.5.w.4.q * * * * %.e.4.* o o o o J ) ^ b b 6 o o                       ",
"                o o d w.w.d o o       o o o o o o o e ;.-.5.r.5.* o o o o @.t.5.* o o o o K  .{ A Z 6 o o                       ",
"                o o i 2.2.i o o     w d d 0 o o o o q X.X.+.@.+.* o o o o j @.+.1 : < 8 8 !  .{ A Z 6 o o                       ",
"                o o t ....t o o o o d e.e.d o o o o o o o o o o o o o o o o o + b C T  .} } } { A Z 6 o o                       ",
"                o o t ....t o o o o d e.e.d o o o o o o o o o o o o o o o o o + b C T  .} }  .{ A Z 6 o o                       ",
"                o o i 2.2.i o * +.@.o.d d k X.o.@.@.@.@.@.@.@.+.* o - 6 6 6 6 x E Q / } } W T T Z Z 6 o o                       ",
"                o o d w.w.d o * 5.t.@.o o X.;.;.q.e.e.e.e.e.e.5.* o : Z Z Z Z A {  . .}  .T B C Z Z 6 o o                       ",
"                o o f 7.7.f o * 4.e.@.o o k &.&.3.4.5.9.9.q.q.4.* o : Z Z Z Z A { } } }  .T C Z Z Z 6 o o                       ",
"                o o t 1.1.t o * 4.e.@.o o $ * * * * d ;.-.5.q.4.* o : Z Z Z Z A { } } } } T C C Z Z 6 o o                       ",
"                o X y ....y o * 5.t.@.o o o o o o . e -.-.5.w.4.* o : Z Z C C A { } }  . .T C C C C 4 o o                       ",
"                , ; u $.$.u ; 1 +.@.j o o q e e d p X.3.;.5.w.4.* o : Z Z S T R {  .{ Q Q S C Z T T c o o                       ",
"          o o # m H G F F G H G # o o o o X.;.;.0.q.q.q.q.q.q.4.* o : Z Z Q | } }  .Q C C Z Z A {  .L o o                       ",
"          o o # m G G G F F F n # o o o o X.;.;.0.q.q.q.q.q.q.4.* o : Z Z Q  .} }  .Q C Z Z Z A {  .L o o                       ",
"                , ; r >.:.:.:.#.& o o     w e e d p X.3.;.5.w.4.* o # : : P  .} }  .Q C Z Z Z A {  .L o o                       ",
"                o o d e.e.e.e.4.* o o     o o o o . e -.-.5.q.4.* o o o o L  .} }  .Q C Z Z Z A {  .L o o                       ",
"                o o p 4.4.4.4.;.* o o     * * * * & d ;.-.5.q.4.q * * * * I ) ( }  .Q C Z A A S / { J o o                       ",
"                      * * * * *       o o X.&.&.3.4.5.9.9.q.q.0.4.4.4.4.4.a # > (  .Q C Z W { / S A x o o                       ",
"                      o o o o o       o o X.;.;.q.w.q.q.q.q.q.q.q.q.w.e.r.d o % ( | ~ C C Q | { A Z 6 o o                       ",
"                      o o o o o       o o g X.O.3.5.5.q.q.q.q.q.q.q.3.@.@.w o % Y ~ R C Z Q  .) x 6 3 o o                       ",
"                                          o o * &.-.;.q.q.q.q.q.q.e.@.o o o o + b C C Z Z Q  .( % o o                           ",
"                                          o o * &.-.3.w.w.w.w.q.q.e.@.o o o o + b Z Z C C Q | ( % o o                           ",
"                                      o o ' @.+.p e p d d d d d d p k @.@.w o O ; ; 7 Q Q R T H % o o                           ",
"                                      o o @.t.5.* o o o o o o o o . d e.e.d o O o o q | | T V b + o o                           ",
"                                      o o @.e.4.* o o o o o o o o o d q.w.d o O O o 8 ( ( H b v + o o                           ",
"                                      o o @.e.4.* o o           o o d w.q.d o o       % % % # #                                 ",
"                                      o o @.e.4.* o o           o o d q.q.p . o       o o o o o                                 ",
"                                    w d d =.e.4.* o o           o o d q.q.O.p p       o o o o o                                 ",
"                                o o d e.q.q.q.4.* o o           o o d q.q.q.e.4.* o o                                           ",
"                                o o d q.q.q.q.4.* o o           o o d q.q.q.q.4.* o o                                           ",
"                                                                                                                                ",
"                                                                                                                                ",
"                                                                                                                                ",
"                                                                                                                                ",
"                                                                                                                                ",
"                                                                                                                                ",
"                                                                                                                                ",
"                                                                                                                                ",
"                                                                                                                                ",
"                                                                                                                                ",
"                                                                                                                                "
};
