/* XPM */
static char *result[] = {
/* columns rows colors chars-per-pixel */
"64 64 128 2 ",
"   c None",
".  c #272726",
"X  c #2E2E2D",
"o  c #362F2E",
"O  c #3A2F2E",
"+  c #39312F",
"@  c #3B3332",
"#  c #383837",
"$  c #3E3D3D",
"%  c #552E2E",
"&  c #49302F",
"*  c #59312F",
"=  c #473433",
"-  c #533532",
";  c #5D3634",
":  c #5F3B39",
">  c #772F2E",
",  c #6A312F",
"<  c #613331",
"1  c #773230",
"2  c #7E3230",
"3  c #773A35",
"4  c #793B35",
"5  c #7A3F3C",
"6  c #63413F",
"7  c #7B443F",
"8  c #363B41",
"9  c #393C40",
"0  c #454544",
"q  c #4B4B4A",
"w  c #535352",
"e  c #5D5D5C",
"r  c #774846",
"t  c #666565",
"y  c #686867",
"u  c #6A6969",
"i  c #757574",
"p  c #7E7E7D",
"a  c #942F2F",
"s  c #803533",
"d  c #9D3331",
"f  c #9F3E34",
"g  c #943F38",
"h  c #A7322F",
"j  c #A02F30",
"k  c #A63230",
"l  c #A93431",
"z  c #A03835",
"x  c #AB3835",
"c  c #AD3D3A",
"v  c #A24139",
"b  c #A9423F",
"n  c #B1423F",
"m  c #8A4644",
"M  c #874D4B",
"N  c #8F4D4B",
"B  c #9E4942",
"V  c #924E4B",
"C  c #8F504E",
"Z  c #91514E",
"A  c #9F514E",
"S  c #955250",
"D  c #A34F48",
"F  c #B24441",
"G  c #B54946",
"H  c #B84F4C",
"J  c #BB524F",
"K  c #A25654",
"L  c #BC5350",
"P  c #BF5956",
"I  c #B75D5B",
"U  c #B95E5B",
"Y  c #BF605D",
"T  c #885864",
"R  c #8F6477",
"E  c #92697F",
"W  c #807F7F",
"Q  c #C25E5B",
"!  c #C4625F",
"~  c #C56360",
"^  c #C96461",
"/  c #536E93",
"(  c #5D7FAD",
")  c #5F84B6",
"_  c #758CAC",
"`  c #6686B3",
"'  c #6185B8",
"]  c #7BA8E7",
"[  c #72A5EC",
"{  c #7BB5FF",
"}  c #7DB8FF",
"|  c #858685",
" . c #888887",
".. c gray54",
"X. c #9B8E8D",
"o. c #949393",
"O. c #9A9392",
"+. c #96999E",
"@. c #9C9C9B",
"#. c #AA9C9B",
"$. c #B59292",
"%. c #B59C9C",
"&. c #8793A4",
"*. c #A4A4A4",
"=. c #AAAAAA",
"-. c #B0AFAF",
";. c gray71",
":. c #B9B9B9",
">. c #C49C9C",
",. c #C0BFBF",
"<. c #90B0DE",
"1. c #A9BAD2",
"2. c #85B8FF",
"3. c #BFC2C9",
"4. c #9DC2F5",
"5. c #BACDE8",
"6. c #C5C5C4",
"7. c #C8C7C7",
"8. c #CACACA",
"9. c #D1C7C6",
"0. c #D4CBCA",
"q. c #D6D5D5",
"w. c #D8D7D7",
"e. c #D2D6DE",
"r. c #D7D9D9",
"t. c #D8DADA",
"y. c #DCDBDB",
"u. c black",
/* pixels */
"                                                                                                                                ",
"                                                                                                                                ",
"                                                                                                                                ",
"                                                                                                                                ",
"                                                                                                                                ",
"                                                                                                                                ",
"                                                                                                                                ",
"                                                                                                                                ",
"                                                X X X X X X X X X X X X X                                                       ",
"                                                X X X X X X X X X X X X X                                                       ",
"                                                e e e e e t u u y y y y u w                                                     ",
"                                          X X $ =.;.;.;.;.8.w.w.w.w.w.w.t.u X X                                                 ",
"                                          X X # =.;.;.;.;.8.w.w.w.w.w.w.w.y X X                                                 ",
"                                      X X u | ..=.;.:.8.8.q.w.w.w.w.w.w.w.-.@.o.$ X                                             ",
"                                      X X | :.;.;.;.:.w.w.w.w.w.w.w.w.w.w.t.t.8.$ X X                                           ",
"                                      X X | ;.;.;.;.:.w.w.w.w.w.w.w.w.w.w.w.w.6.$ X X                                           ",
"                                      X X | ;.;.;.;.,.w.w.w.w.w.w.w.w.w.w.w.w.6.$ X X                                           ",
"                                      X X | ;.;.;.;.6.t.r.t.t.t.w.w.w.t.t.t.t.7.$ X X                                           ",
"                                      X X | ;.-...| X.>.>.#.@.*.0.w.6.@.@.%.>.$.# X X                                           ",
"                          X X X       X X | :.=.# X % k d % X $ 6.t.@.X X > j a O X X                                           ",
"                          X X X       X X | :.=.# X % d d % X $ 6.t.@.X X > j a O X o                                           ",
"                      X X / ' ( 8 X X X X | ;.;...| X.>.>.#.@.*.0.w.6.@.@.%.>.$.# X o                                           ",
"                      X X ' } [ 8 X X X X | :.;.;.;.6.r.r.t.t.t.w.w.w.t.t.t.t.7.$ X X                                           ",
"                      X X ` 2.] 8 X X X X | =.=.;.;.:.w.w.w.w.w.w.w.w.w.w.w.w.6.$ X X                                           ",
"                      X X +.e.3.$ X X     # # 0 =.;.,.w.w.w.w.w.w.w.w.w.w.w.w.6.$ X X           X X X X X                       ",
"                      X X @.t.6.$ X X     X X # =.;.6.w.w.w.w.w.t.t.t.t.t.w.w.6.$ X X           X X X X X                       ",
"                      X X @.t.6.$ X X     X X # p | @.8.8.q.w.0.*.@.@.@.@.6.w.6.$ X X           6 6 : * * &                     ",
"                      X X @.t.6.$ X X X X X X X X X e ;.;.8.w.6.$ X X X X @.t.6.$ X X X X X X @ I ~ J l l * X X                 ",
"                      X X @.y.6.$ X X X X X X X X X e ;.;.8.t.6.$ X X X X @.y.7.$ X X X X X X @ I ~ J l l * X X                 ",
"                      X X _ 4.<.9 X w @.@.w X X X X $ e e t u t # X X X X w u t # X & 2 2 m Z S Y ~ J l l * X X                 ",
"                      X X ) { [ 8 X u y.y.u X X X X X X X X X X X X X X X X X X X X * l l L ^ ~ ! ~ J l l * X X                 ",
"                      X X ` 2.] 8 X t 7.7.u # $ $ $ $ $ $ $ $ $ $ $ # X X o O + + O < x x L ~ ! Q Q H l l * X X                 ",
"                      X X +.e.3.$ X # $ $ | =.=.6.6.6.6.6.6.6.6.6.8.o.X X 1 d d d d b Q Q ! ! Q c x x l l * X X                 ",
"                      X X @.y.7.$ X X X X ..:.:.w.t.t.w.w.w.w.w.t.y.@.X X 2 l l l l F ~ ! ! ! Q x l l l l * X X                 ",
"                      X X &.5.1.$ X X X X y  . .@.@.=.8.8.q.w.0.*.@.i X X 2 l l l k F ! ! ! ! Q x l l l l * X X                 ",
"                      X X ' { [ 8 X X X X X X X X X e ;.;.8.w.6.$ X X X X 2 l l l k F ~ ! ! ! Q x l l l l * X X                 ",
"                      X X ) { [ 8 X X X X X X X X X e ;.;.8.w.6.$ X X X X 2 l l l h F ! ! ! ~ Q x k l l l * X X                 ",
"                X X - 4 3 T E R 5 4 ; X X y  ...@.@.=.8.8.q.w.0.*.@.i X X 2 l x H J P ! ! H F n l k c J L : X X                 ",
"                X X - v v z f f v v 4 X X ..:.:.w.t.t.w.w.w.w.w.t.y.@.X X 2 l x Q ~ ~ ! ! F h k l k F ~ ~ r X X                 ",
"                X X - g g B D D D D 7 X X p =.=.6.6.8.q.q.w.w.q.7.8.o.X X 1 d z Q ! ! ! ! F k l l k F ~ ~ 6 X X                 ",
"                      + O O.0.9.9.0.O.X X # $ $ $ $ u :.;.8.w.7.q $ # X X o O = I ! ! ! ! F k l l k F ! ! 6 X X                 ",
"                      X X @.y.t.t.y.@.X X X X X X . e ;.;.8.w.6.# X X X X X X @ U ^ ~ ! ! F k l k h F ~ ~ 6 X X                 ",
"                      X X W @.@.@.@.i X X q e e y t | 6.:.8.w.8.i y u u u 0 X @ M C K ! ! F k l n F G J J : X X                 ",
"                          X X X X X X X X | :.:.q.w.w.w.w.w.w.w.w.w.w.w.t.u X X X X 6 ! ! F k x Q ~ J k l * X X                 ",
"                          X X X X X X X X | :.:.q.w.w.w.w.w.w.w.w.w.w.w.t.u X X X X 6 ~ ~ F k x Q ~ J l l * X X                 ",
"                                    X X X q e t ;.:.6.w.w.w.w.w.w.w.-.y u w     X X ; F F x l x Q ~ A * * &                     ",
"                                      X X X X # =.;.6.w.w.w.w.w.w.t.@.X X       X X * l l l l x Q ^ C X X                       ",
"                                      X X # $ q @.=.;.6.6.6.6.6.6.8.o.$ $       X X * d d l x c P Q N X X                       ",
"                                      X X o.8.:.q # $ $ $ $ $ $ $ # u 7.7.t X X       + O V Q P c x s X X                       ",
"                                      X X @.t.6.$ X X X X X X X X X u w.w.t . X       X X Z ^ Q x l s X o                       ",
"                                    w u y -.t.6.$ X X X X X X X X X u w.w...t t       X X r Z N s 2 , X X                       ",
"                                X X u t.w.w.w.6.$ X X           X X u w.w.w.t.7.$ X X     X X X X X X                           ",
"                                X X u w.w.w.w.6.$ X X           X X u w.w.w.w.6.$ X X     X X X X X X                           ",
"                                                                                                                                ",
"                                                                                                                                ",
"                                                                                                                                ",
"                                                                                                                                ",
"                                                                                                                                ",
"                                                                                                                                ",
"                                                                                                                                ",
"                                                                                                                                ",
"                                                                                                                                ",
"                                                                                                                                ",
"                                                                                                                                "
};
