/* XPM */
static char *result[] = {
/* columns rows colors chars-per-pixel */
"64 64 256 2 ",
"   c None",
".  c #272726",
"X  c #282827",
"o  c #272A29",
"O  c #2E2E2D",
"+  c #342E2D",
"@  c #3A2F2E",
"#  c #30302F",
"$  c #3B302F",
"%  c #353535",
"&  c #3C3332",
"*  c gray24",
"=  c #562D2C",
"-  c #56302E",
";  c #58312F",
":  c #453C3B",
">  c #543531",
",  c #5A3533",
"<  c #5A3D3F",
"1  c #752C2B",
"2  c #7E322F",
"3  c #623432",
"4  c #613F3D",
"5  c #773230",
"6  c #7D3230",
"7  c #783B35",
"8  c #61403F",
"9  c #363B41",
"0  c #474746",
"q  c #4B4B4A",
"w  c #5D4343",
"e  c #545453",
"r  c #5D5D5C",
"t  c #684948",
"y  c #7E4240",
"u  c #625755",
"i  c #655E5E",
"p  c #705655",
"a  c #45556B",
"s  c #495C75",
"d  c #666564",
"f  c #676867",
"g  c #686867",
"h  c #696968",
"j  c #737372",
"k  c #7D7D7C",
"l  c #932C2C",
"z  c #9E2C2C",
"x  c #933330",
"c  c #9D3431",
"v  c #A12C2C",
"b  c #A7322F",
"n  c #A73330",
"m  c #A93431",
"M  c #AB3835",
"N  c #AE3E3B",
"B  c #9E4037",
"V  c #9E4038",
"C  c #A3423C",
"Z  c #B1423F",
"A  c #8A4644",
"S  c #854C4A",
"D  c #964340",
"F  c #9A4040",
"G  c #90514F",
"H  c #955250",
"J  c #A64241",
"K  c #AD4F4C",
"L  c #B24441",
"P  c #B44845",
"I  c #B44E4B",
"U  c #B94F4C",
"Y  c #BA524F",
"T  c #A95956",
"R  c #BB5350",
"E  c #B45957",
"W  c #BE5855",
"Q  c #B75E5B",
"!  c #BF605D",
"~  c #826969",
"^  c #996969",
"/  c #847876",
"(  c #AA6969",
")  c #B36A6A",
"_  c #C25E5B",
"`  c #C4625F",
"'  c #C56360",
"]  c #C86561",
"[  c #766D8A",
"{  c #5F84B6",
"}  c #5E85B9",
"|  c #6385B5",
" . c #7BA8E7",
".. c #72A5EC",
"X. c #7BB5FF",
"o. c gray52",
"O. c #8E8E8D",
"+. c #959494",
"@. c #96999E",
"#. c #9D9C9C",
"$. c #B89795",
"%. c #8282AD",
"&. c #8793A4",
"*. c #888CBD",
"=. c #A5A5A5",
"-. c #A8A8A7",
";. c gray67",
":. c #B0AFAF",
">. c gray71",
",. c #B8B7B7",
"<. c gray73",
"1. c #C3A29F",
"2. c #C4A3A0",
"3. c #C0BFBF",
"4. c #A9BAD2",
"5. c #85B8FF",
"6. c #BFC2C9",
"7. c #BACDE8",
"8. c #C6C5C5",
"9. c #C9C6C6",
"0. c #CBCBCB",
"q. c #D2C6C6",
"w. c #D5D4D4",
"e. c #D7D6D6",
"r. c #D8D7D7",
"t. c #D2D6DE",
"y. c #D9D8D8",
"u. c #DAD9D9",
"i. c #DCDBDB",
"p. c black",
"a. c black",
"s. c black",
"d. c black",
"f. c black",
"g. c black",
"h. c black",
"j. c black",
"k. c black",
"l. c black",
"z. c black",
"x. c black",
"c. c black",
"v. c black",
"b. c black",
"n. c black",
"m. c black",
"M. c black",
"N. c black",
"B. c black",
"V. c black",
"C. c black",
"Z. c black",
"A. c black",
"S. c black",
"D. c black",
"F. c black",
"G. c black",
"H. c black",
"J. c black",
"K. c black",
"L. c black",
"P. c black",
"I. c black",
"U. c black",
"Y. c black",
"T. c black",
"R. c black",
"E. c black",
"W. c black",
"Q. c black",
"!. c black",
"~. c black",
"^. c black",
"/. c black",
"(. c black",
"). c black",
"_. c black",
"`. c black",
"'. c black",
"]. c black",
"[. c black",
"{. c black",
"}. c black",
"|. c black",
" X c black",
".X c black",
"XX c black",
"oX c black",
"OX c black",
"+X c black",
"@X c black",
"#X c black",
"$X c black",
"%X c black",
"&X c black",
"*X c black",
"=X c black",
"-X c black",
";X c black",
":X c black",
">X c black",
",X c black",
"<X c black",
"1X c black",
"2X c black",
"3X c black",
"4X c black",
"5X c black",
"6X c black",
"7X c black",
"8X c black",
"9X c black",
"0X c black",
"qX c black",
"wX c black",
"eX c black",
"rX c black",
"tX c black",
"yX c black",
"uX c black",
"iX c black",
"pX c black",
"aX c black",
"sX c black",
"dX c black",
"fX c black",
"gX c black",
"hX c black",
"jX c black",
"kX c black",
"lX c black",
"zX c black",
"xX c black",
"cX c black",
"vX c black",
"bX c black",
"nX c black",
"mX c black",
"MX c black",
"NX c black",
"BX c black",
"VX c black",
"CX c black",
"ZX c black",
"AX c black",
"SX c black",
"DX c black",
"FX c black",
"GX c black",
"HX c black",
"JX c black",
"KX c black",
"LX c black",
"PX c black",
"IX c black",
"UX c black",
/* pixels */
"                                                                                                                                ",
"                                                                                                                                ",
"                                                                                                                                ",
"                                                                                                                                ",
"                                                                                                                                ",
"                                            O O O O O O O O O O O O                                                             ",
"                                          O O O O O O O O O O O O O O                                                           ",
"                                          * * * * * * * * * * * * * *                                                           ",
"                                      O O o.-.-.-.-.>.8.8.8.8.8.8.0.+.O O                                                       ",
"                                      O o o.,.>.>.>.8.w.w.w.w.w.r.u.#.o o                                                       ",
"                                    q r r +.>.>.<.3.9.w.w.w.w.w.r.u.:.g g e                                                     ",
"                                O O r >.>.>.>.>.w.w.w.w.w.w.w.w.r.w.w.r.u.g o O                                                 ",
"                                O O r >.>.>.>.,.w.w.w.w.w.w.r.r.w.w.w.w.r.g o O                                                 ",
"                                O O r >.>.>.>.>.w.w.w.w.r.r.r.r.w.w.w.w.r.g o O                                                 ",
"                                O O r >.>.>.>.<.w.r.w.w.w.w.r.r.w.w.w.w.r.g o O                                                 ",
"                                O O r >.>.;.;.-.9.q.9.8.8.w.r.w.9.8.9.q.q.d O O                                                 ",
"                O O O           O O r >.>.d * : F J x * * =.u.9.q * 8 J J , O O                                                 ",
"                O O O           O O r >.>.r X + l v 1 o o #.u.8.* o = z z = O O                                                 ",
"                s s a           O O r >.>.k r i ( ) ^ g f :.u.0.j h ~ ) ) w O O                                                 ",
"          O O 9 ..X.| O O       O O r >.>.>.>.,.w.w.w.w.w.w.w.w.r.r.w.r.u.g o O                                                 ",
"          O O 9 ..X.| O O       O O r >.>.>.>.>.w.w.w.w.w.w.w.w.w.w.w.w.r.g O O                                                 ",
"          O O * 4.7.&.O O           q r r +.>.>.w.w.w.r.w.w.w.w.w.w.w.w.r.g O O       O O O O O                                 ",
"          O O * 9.i.#.O O             O o o.,.,.w.w.r.r.r.w.w.r.w.w.w.w.r.g o O       O O O O O                                 ",
"          O O * 8.u.#.O O             O O k -.;.0.w.w.r.r.0.8.8.8.8.0.w.r.g o O       & & & $ $                                 ",
"          O O * 8.u.#.O O       O O O O O % * 0 -.>.8.w.r.j * * * * j r.r.g o O O O 8 Q Q C c x @ O O                           ",
"          O O * 9.i.#.O O       O o O O O O O * -.>.8.u.i.g o O O o g i.i.g o O O O 8 ' ' L n c @ O O                           ",
"          O O * 4.7.&.O O O     d g e O O O O % k o.O.#.#.e O O O O e #.#.p = , 4 8 S ` ` L n c @ O O                           ",
"          O O 9 ..X.{ O O O O * 9.i.#.O O O O O O O O O O O O O O O O O O 6 m M _ ' ` ` ` L n c @ O O                           ",
"          O O 9 ..X.| O O O O * 9.i.#.O O O O O O O O O O O O O O O O O O 6 n M _ ` ` ` ' L n c $ O O                           ",
"          O O * 4.7.&.O O j #.+.h g j o.o.+.#.#.#.#.#.#.#.e O + 5 6 6 6 6 J R R ` ' W L L M m c $ O O                           ",
"          O O * 9.i.#.O O #.i.0.* . r ,.>.0.i.u.u.u.u.u.i.g o $ c m m m m R ' ' ` ' Y n n m m c $ O O                           ",
"          O O * 6.t.@.O O #.u.8.* O r -.-.<.8.8.w.w.w.w.r.g o $ c m m m m Y ' ` ` ' Y m m m m c $ O O                           ",
"          O O 9  .5.| O O #.u.8.* O % * * * * q ;.>.8.w.r.g o $ c m m m n Y ' ` ` ' Y m m m m c $ O O                           ",
"          O O 9 ..X.} O O #.i.0.* O O o o o o % -.>.<.w.r.g o $ c m m n b Y ' ` ' ' R m m n n c $ O O                           ",
"          > > < %.*.[ > > / #.+.* O * r r d g j ,.3.9.w.r.g o $ c m M L L W ' ` R R P m m N L C & O O                           ",
"      O O 7 C V V B V V C > O O O O r >.>.0.r.r.w.w.w.w.r.g o $ c n L ' ` ` ` _ M n m m m Y ' Q & O O                           ",
"      O O 7 C V V V V V V > O O O O r >.>.0.r.w.w.w.w.w.w.g o $ c n L ` ` ` ` _ M m m m m Y ' Q & O O                           ",
"          > > 4 $.2.1.1.2.u O O O O * r r d g j ,.3.8.w.r.g o + - - y ` ` ` ` _ M m m m m Y ' Q & O O                           ",
"          O O * 0.u.u.u.u.g o O O O O O o o o % -.>.<.w.r.g o O O O 8 ' ` ` ` _ M m m m n Y ' Q & O O                           ",
"          O O * ,.8.8.8.9.d o O O O % * * * * q ;.>.8.w.r.j * * * * t Q Q ! ` _ M m m M M Y _ E & O O                           ",
"                * * * * *       O O r -.-.<.8.9.w.w.w.w.w.0.8.8.8.0.+.& & H ' _ M n Z _ _ L M c $ O O                           ",
"                O O O O O       O O r ,.>.0.u.w.r.r.r.w.w.w.w.r.u.i.#.O O G ] _ M n L ' ' L n c @ O O                           ",
"                O O O O O       O O e o.o.>.0.0.r.r.w.w.w.w.w.w.=.#.j O O A R U M n L ` ` D 2 5 @ O                             ",
"                                      O O o.>.>.w.r.w.w.w.w.w.8.* O O O O 6 m m m n L ` ' 8 O O                                 ",
"                                      O O o.,.,.w.w.w.w.r.r.u.9.* O O O O 6 m m m n L ' ' 8 O O                                 ",
"                                      O O q r r h g g g g g g d % O e #.#.p = 3 I R U L L , O O                                 ",
"                                      + + O o o o o o o o o o O O o g u.u.g o & Q ' R n n ; O O                                 ",
"                                      + O * * * # O O O O O O O O o g r.w.g o & T Q K c c ; O O                                 ",
"                                      O O +.0.,.* O O           O o g r.r.g o + & & & $ $                                       ",
"                                      o o #.i.8.* O O           O o g r.r.d . o O O O O O                                       ",
"                                    e g g :.u.8.* O O           O O g r.w.O.d d % O O O O                                       ",
"                                O o g u.r.w.w.8.* O O           O O g r.w.w.u.9.* O O                                           ",
"                                O o g r.w.w.w.8.* O O           O o g r.w.w.w.8.* O O                                           ",
"                                                                                                                                ",
"                                                                                                                                ",
"                                                                                                                                ",
"                                                                                                                                ",
"                                                                                                                                ",
"                                                                                                                                ",
"                                                                                                                                ",
"                                                                                                                                ",
"                                                                                                                                ",
"                                                                                                                                ",
"                                                                                                                                "
};
