/* XPM */
static char *result[] = {
/* columns rows colors chars-per-pixel */
"64 64 256 2 ",
"   c None",
".  c #262726",
"X  c #272A29",
"o  c #2E2E2D",
"O  c #332E2D",
"+  c #3A2F2E",
"@  c #30302F",
"#  c #39302F",
"$  c #353534",
"%  c #3D3332",
"&  c gray24",
"*  c #552F2E",
"=  c #54312F",
"-  c #58312F",
";  c #473432",
":  c #4B3C3B",
">  c #5B3433",
",  c #573A37",
"<  c #772F2E",
"1  c #7E312F",
"2  c #653833",
"3  c #613F3D",
"4  c #7D3432",
"5  c #753A35",
"6  c #783B35",
"7  c #7A3F3C",
"8  c #62413F",
"9  c #6A413F",
"0  c #363B41",
"q  c #393C40",
"w  c #434342",
"e  c #4C4B4B",
"r  c #555554",
"t  c #5D5D5C",
"y  c #774543",
"u  c #7E4240",
"i  c #625554",
"p  c #6E5956",
"a  c #60605F",
"s  c #77605F",
"d  c #646463",
"f  c #6C6564",
"g  c #686867",
"h  c #696968",
"j  c gray45",
"k  c #7E7E7D",
"l  c #942F2F",
"z  c #823533",
"x  c #843D3A",
"c  c #923330",
"v  c #9D3331",
"b  c #9F3E34",
"n  c #A02F2F",
"m  c #A7322F",
"M  c #A53230",
"N  c #A83431",
"B  c #AB3835",
"V  c #AE3E3B",
"C  c #954039",
"Z  c #A24139",
"A  c #B1423F",
"S  c #8A4644",
"D  c #8F4D4B",
"F  c #8F504E",
"G  c #90504E",
"H  c #8D5350",
"J  c #AA4441",
"K  c #A24D46",
"L  c #A44F48",
"P  c #AD4F4C",
"I  c #B24441",
"U  c #B44845",
"Y  c #B64E4B",
"T  c #BA524F",
"R  c #A25654",
"E  c #BC5350",
"W  c #B55957",
"Q  c #B55D5B",
"!  c #B95E5B",
"~  c #885864",
"^  c #8F6477",
"/  c #92697F",
"(  c #C25E5B",
")  c #C4625F",
"_  c #C56360",
"`  c #C86461",
"'  c #536E93",
"]  c #5D7FAD",
"[  c #5F84B6",
"{  c #758CAC",
"}  c #6686B3",
"|  c #6185B8",
" . c #7BA8E7",
".. c #72A5EC",
"X. c #7BB5FF",
"o. c #7DB8FF",
"O. c #868685",
"+. c #888887",
"@. c #8D8B8B",
"#. c #959494",
"$. c #96999E",
"%. c #9C9C9B",
"&. c #AA9C9B",
"*. c #B59C9C",
"=. c #BD9A9A",
"-. c #A0A09F",
";. c #8793A4",
":. c #A6A6A5",
">. c #AAAAA9",
",. c #B0AFAF",
"<. c gray71",
"1. c #B8B7B7",
"2. c gray73",
"3. c #C49C9C",
"4. c #C0BEBE",
"5. c #90B0DE",
"6. c #A9BAD2",
"7. c #85B8FF",
"8. c #BFC2C9",
"9. c #9DC2F5",
"0. c #BACDE8",
"q. c #C5C4C4",
"w. c #C8C7C6",
"e. c #CCCBCB",
"r. c #D1C7C6",
"t. c #D2C8C7",
"y. c #D2C9C8",
"u. c #D6D5D5",
"i. c #D8D7D7",
"p. c #D2D6DE",
"a. c #D7D9D9",
"s. c #DAD9D9",
"d. c #DCDAD9",
"f. c #DCDBDB",
"g. c #E0DFDF",
"h. c black",
"j. c black",
"k. c black",
"l. c black",
"z. c black",
"x. c black",
"c. c black",
"v. c black",
"b. c black",
"n. c black",
"m. c black",
"M. c black",
"N. c black",
"B. c black",
"V. c black",
"C. c black",
"Z. c black",
"A. c black",
"S. c black",
"D. c black",
"F. c black",
"G. c black",
"H. c black",
"J. c black",
"K. c black",
"L. c black",
"P. c black",
"I. c black",
"U. c black",
"Y. c black",
"T. c black",
"R. c black",
"E. c black",
"W. c black",
"Q. c black",
"!. c black",
"~. c black",
"^. c black",
"/. c black",
"(. c black",
"). c black",
"_. c black",
"`. c black",
"'. c black",
"]. c black",
"[. c black",
"{. c black",
"}. c black",
"|. c black",
" X c black",
".X c black",
"XX c black",
"oX c black",
"OX c black",
"+X c black",
"@X c black",
"#X c black",
"$X c black",
"%X c black",
"&X c black",
"*X c black",
"=X c black",
"-X c black",
";X c black",
":X c black",
">X c black",
",X c black",
"<X c black",
"1X c black",
"2X c black",
"3X c black",
"4X c black",
"5X c black",
"6X c black",
"7X c black",
"8X c black",
"9X c black",
"0X c black",
"qX c black",
"wX c black",
"eX c black",
"rX c black",
"tX c black",
"yX c black",
"uX c black",
"iX c black",
"pX c black",
"aX c black",
"sX c black",
"dX c black",
"fX c black",
"gX c black",
"hX c black",
"jX c black",
"kX c black",
"lX c black",
"zX c black",
"xX c black",
"cX c black",
"vX c black",
"bX c black",
"nX c black",
"mX c black",
"MX c black",
"NX c black",
"BX c black",
"VX c black",
"CX c black",
"ZX c black",
"AX c black",
"SX c black",
"DX c black",
"FX c black",
"GX c black",
"HX c black",
"JX c black",
"KX c black",
"LX c black",
"PX c black",
"IX c black",
"UX c black",
/* pixels */
"                                                                                                                                ",
"                                                                                                                                ",
"                                                                                                                                ",
"                                                                                                                                ",
"                                                                                                                                ",
"                                                                                                                                ",
"                                                                                                                                ",
"                                                                                                                                ",
"                                          o o o o o o o o o o o o o o                                                           ",
"                                          o o o o o o o o o o o o o o                                                           ",
"                                          r t t t t d h h h g h h h t                                                           ",
"                                      o o O.1.<.<.<.q.i.i.i.i.i.i.s.%.o o                                                       ",
"                                      o o O.<.<.<.<.2.i.i.i.i.i.i.s.%.o o                                                       ",
"                                o o r O.O.:.<.<.w.w.e.i.i.i.i.i.i.i.q.%.%.a o o                                                 ",
"                                o o t 1.<.<.<.<.u.i.i.i.i.i.i.i.i.i.i.s.s.h o o                                                 ",
"                                o o t <.<.<.<.<.u.i.i.i.i.i.i.i.i.i.i.i.i.h o o                                                 ",
"                                o o t <.<.<.<.<.u.i.i.i.i.i.i.i.i.i.i.i.i.h o o                                                 ",
"                                o o t <.<.<.<.1.i.a.s.s.s.i.i.i.s.s.s.a.s.h o o                                                 ",
"                                o o t <.<.#.O.+.=.3.*.%.%.q.i.y.:.%.&.3.3.i o o                                                 ",
"                o o o           o o t <.<.t o + l M < o o %.s.w.& o * v v * o o                                                 ",
"                o o o           o o t <.<.t o + l n < o o %.s.w.& o * v n * o o                                                 ",
"            o 0 ] | ' o o       o o t <.<.#.O.+.=.3.*.%.%.q.i.y.:.%.&.3.3.i o o                                                 ",
"          o o 0 ..o.| o o       o o t <.<.<.<.1.i.a.s.s.s.i.i.i.s.s.s.a.s.h o o                                                 ",
"          o o 0  .7.} o o       o o t >.:.>.<.<.u.i.i.i.i.i.i.i.i.i.i.i.i.h o o                                                 ",
"          o o & 8.p.$.o o             & & @.<.<.u.i.i.i.i.i.i.i.i.i.i.i.i.h o o       o o o o o                                 ",
"          o o & w.s.%.o o             o o +.1.1.u.i.i.i.i.i.s.s.s.s.i.i.i.h o o       o o o o o                                 ",
"          o o & w.s.%.o o           o o o g +.@.q.w.e.i.i.,.%.%.%.%.,.i.i.h o o     : 8 8 > - =                                 ",
"          o o & w.s.%.o o       o o o o o o o & :.<.2.i.i.g o o o o g i.i.h o o o o 8 _ _ I N v + o o                           ",
"          o o & w.s.%.o o       o o o o o o o & >.<.q.i.s.h o o o o h s.s.h o o o o 8 _ ) I N v # o o                           ",
"          o o q 5.9.{ o O o o & #.%.j o o o o $ r t d h h w o o o o w h h y 1 z D F R ) ) I N v # o o                           ",
"          o o 0 ..X.[ o o o o & w.g.%.o o o o o o o o o o o o o o o o o o 1 N B ( ` _ ) _ I N v # o o                           ",
"          o o 0  .7.} o o & & e 1.w.#.& & & & & & & & & & $ o O + + + + + z B V ( ) ) ( ( I N v # o o                           ",
"          o o & 8.p.$.o o #.w.1.e & d >.:.2.w.w.w.w.w.w.w.d o + c v v v v Y ( ( ) _ E B B N N v # o o                           ",
"          o o & w.d.%.o o %.d.w.& o t 1.1.e.d.s.i.i.i.i.i.h o + v N N N N T _ ) ) _ T N N N N v # o o                           ",
"          o o & 6.0.;.o o %.s.w.& o e O.O.#.%.-.w.w.e.i.i.h o + v N N N N T _ ) ) _ T N N N N v # o o                           ",
"          o o 0 ..X.| o o %.s.w.& o o o o o o & :.<.2.i.i.h o + v N N N N T _ ) ) _ T N N N N v # o o                           ",
"          o o 0 ..X.[ o o %.d.w.& o o o o o o & :.<.2.i.i.h o + v N N N N T _ ) ) _ T N N N N v + o o                           ",
"      o o 2 6 7 ^ / ~ 6 6 p h d $ o e O.O.#.%.&.w.w.e.i.i.h o # v N V T T ( ) ( U I V N N U E P % o o                           ",
"      o o 6 Z Z b b b Z Z = o o o o t 1.<.e.s.s.i.i.i.i.i.h o + v N I _ _ ) ) ( B N N N N E _ Q % o o                           ",
"      o o 5 C C K L L L L , o o o o t >.:.1.w.w.u.u.u.i.i.h o + c v J ) ) ) ) ( B N N N N T _ Q % o o                           ",
"          # # : 4.t.r.r.y.d o o       & & & & e >.<.q.i.i.h o O + + 9 ) ) ) ) ( B N N N N T _ Q % o o                           ",
"          o o & w.s.s.s.d.h o o       o o o o $ :.<.2.i.i.g . o o X 3 ` ` ) ) ( B N N N m T _ Q % o o                           ",
"            o & #.%.%.%.%.a o o     e t t g h j <.2.w.i.i.@.g h h h s G G Q _ ( B N B I I Y E P % o o                           ",
"                o o o o o       o o t <.<.e.i.i.i.i.i.i.i.i.i.i.i.s.%.o o G ` ( B N I _ _ I m v + o o                           ",
"                o o o o o       o o t <.<.w.i.i.i.i.i.i.i.i.i.i.i.s.%.o o G ` ( B N I ) ) I N v + o o                           ",
"                                    e t t %.q.q.u.i.i.i.i.i.i.e.j h r o o x I A N N I ) ) u = -                                 ",
"                                      o o O.<.<.u.i.i.i.i.i.i.w.& o o o o 1 N N N N I _ _ 8 o o                                 ",
"                                      o o k >.>.q.w.w.w.w.w.w.1.& o $ & & 6 v v B B I ( ( 3 o o                                 ",
"                                      o o $ & & & & & & & & & & @ o d w.w.f O ; W ( T B B > o o                                 ",
"                                      o o o o o o o o o o o o o o o h i.i.g . # ! ` E N N - o o                                 ",
"                                    r h h h h d $ o o o o o o o o o h i.i.@.g f H G S 4 4 = o o                                 ",
"                                o o h s.i.i.i.w.& o o           o o h i.i.i.i.w.& o o o o                                       ",
"                                o o h i.i.i.i.w.& o o           o o h i.i.i.i.w.& o o o o                                       ",
"                                                                                                                                ",
"                                                                                                                                ",
"                                                                                                                                ",
"                                                                                                                                ",
"                                                                                                                                ",
"                                                                                                                                ",
"                                                                                                                                ",
"                                                                                                                                ",
"                                                                                                                                ",
"                                                                                                                                ",
"                                                                                                                                "
};
