/* XPM */
static char *result[] = {
/* columns rows colors chars-per-pixel */
"64 64 256 2 ",
"   c None",
".  c #272726",
"X  c #272928",
"o  c #2E2E2D",
"O  c #332F2E",
"+  c #3A2F2E",
"@  c #30302F",
"#  c #3B302F",
"$  c #363635",
"%  c #3C3332",
"&  c #383837",
"*  c gray24",
"=  c #532B2B",
"-  c #4A302F",
";  c #56302F",
":  c #59312F",
">  c #4A3837",
",  c #533531",
"<  c #5C3635",
"1  c #5D3C3C",
"2  c #752C2B",
"3  c #6A312F",
"4  c #7E322F",
"5  c #603F3D",
"6  c #7E3230",
"7  c #783B35",
"8  c #7B3C3A",
"9  c #62413F",
"0  c #363B41",
"q  c #454544",
"w  c #4D4D4C",
"e  c #555454",
"r  c #5D5D5C",
"t  c #625755",
"y  c #45556B",
"u  c #495C75",
"i  c #666665",
"p  c #696766",
"a  c #676867",
"s  c #686867",
"d  c #696968",
"f  c #7B6261",
"g  c #757574",
"h  c #7C7C7B",
"j  c #932D2D",
"k  c #9F2C2C",
"l  c #833633",
"z  c #843D3A",
"x  c #933330",
"c  c #9D3431",
"v  c #9D3E36",
"b  c #993F3F",
"n  c #A12C2C",
"m  c #A7322F",
"M  c #A8322F",
"N  c #A73330",
"B  c #A93431",
"V  c #AB3835",
"C  c #AE3D3A",
"Z  c #9E4037",
"A  c #9E4038",
"S  c #A4423C",
"D  c #8C4E4C",
"F  c #8F504E",
"G  c #90504E",
"H  c #9F514E",
"J  c #8D5350",
"K  c #A64040",
"L  c #AD4F4C",
"P  c #B24441",
"I  c #B44845",
"U  c #B54F4C",
"Y  c #B84F4C",
"T  c #BA524F",
"R  c #A25654",
"E  c #BB5350",
"W  c #B45957",
"Q  c #BF5956",
"!  c #B75E5B",
"~  c #BA5E5B",
"^  c #826969",
"/  c #996969",
"(  c #887C7B",
")  c #A66464",
"_  c #B36A6A",
"`  c #C25E5B",
"'  c #C4625F",
"]  c #C56360",
"[  c #C86461",
"{  c #766D8A",
"}  c #5F84B6",
"|  c #5E85B9",
" . c #6385B5",
".. c #7BA8E7",
"X. c #72A5EC",
"o. c #7BB5FF",
"O. c #868686",
"+. c #888887",
"@. c #8D8D8C",
"#. c #959393",
"$. c #96999E",
"%. c #9D9C9B",
"&. c #B89795",
"*. c #8282AD",
"=. c #8793A4",
"-. c #888CBD",
";. c #A5A5A5",
":. c #A8A8A7",
">. c #AAAAAA",
",. c #B0AFAF",
"<. c gray71",
"1. c #B9B9B9",
"2. c #C3A29F",
"3. c #C4A3A0",
"4. c #C2B8B7",
"5. c #C0BFBF",
"6. c #A9BAD2",
"7. c #85B8FF",
"8. c #BFC2C9",
"9. c #BACDE8",
"0. c #C5C5C5",
"q. c #C8C7C6",
"w. c #CBCACA",
"e. c #D1C6C6",
"r. c #D6D5D5",
"t. c #D7D6D6",
"y. c #D8D7D7",
"u. c #D2D6DE",
"i. c #D9D8D8",
"p. c #DBDADA",
"a. c #DCDADB",
"s. c #DFDEDE",
"d. c black",
"f. c black",
"g. c black",
"h. c black",
"j. c black",
"k. c black",
"l. c black",
"z. c black",
"x. c black",
"c. c black",
"v. c black",
"b. c black",
"n. c black",
"m. c black",
"M. c black",
"N. c black",
"B. c black",
"V. c black",
"C. c black",
"Z. c black",
"A. c black",
"S. c black",
"D. c black",
"F. c black",
"G. c black",
"H. c black",
"J. c black",
"K. c black",
"L. c black",
"P. c black",
"I. c black",
"U. c black",
"Y. c black",
"T. c black",
"R. c black",
"E. c black",
"W. c black",
"Q. c black",
"!. c black",
"~. c black",
"^. c black",
"/. c black",
"(. c black",
"). c black",
"_. c black",
"`. c black",
"'. c black",
"]. c black",
"[. c black",
"{. c black",
"}. c black",
"|. c black",
" X c black",
".X c black",
"XX c black",
"oX c black",
"OX c black",
"+X c black",
"@X c black",
"#X c black",
"$X c black",
"%X c black",
"&X c black",
"*X c black",
"=X c black",
"-X c black",
";X c black",
":X c black",
">X c black",
",X c black",
"<X c black",
"1X c black",
"2X c black",
"3X c black",
"4X c black",
"5X c black",
"6X c black",
"7X c black",
"8X c black",
"9X c black",
"0X c black",
"qX c black",
"wX c black",
"eX c black",
"rX c black",
"tX c black",
"yX c black",
"uX c black",
"iX c black",
"pX c black",
"aX c black",
"sX c black",
"dX c black",
"fX c black",
"gX c black",
"hX c black",
"jX c black",
"kX c black",
"lX c black",
"zX c black",
"xX c black",
"cX c black",
"vX c black",
"bX c black",
"nX c black",
"mX c black",
"MX c black",
"NX c black",
"BX c black",
"VX c black",
"CX c black",
"ZX c black",
"AX c black",
"SX c black",
"DX c black",
"FX c black",
"GX c black",
"HX c black",
"JX c black",
"KX c black",
"LX c black",
"PX c black",
"IX c black",
"UX c black",
/* pixels */
"                                                                                                                                ",
"                                                                                                                                ",
"                                                                                                                                ",
"                                                                                                                                ",
"                                                                                                                                ",
"                                                o o o o o o o o o o o o o                                                       ",
"                                                o o o o o o o o o o o o o                                                       ",
"                                                * * * * * * * * * * * * *                                                       ",
"                                          o o * %.:.:.:.:.1.q.q.q.q.q.q.q.i o o                                                 ",
"                                          o o * :.<.<.<.<.w.t.t.t.t.t.t.y.i . o                                                 ",
"                                          e r i >.<.1.0.1.w.t.t.t.t.t.t.t.@.i i                                                 ",
"                                      o o O.1.<.<.<.0.t.t.t.t.t.t.t.t.t.t.t.y.q.* o o                                           ",
"                                      o o O.<.<.<.<.5.t.t.t.t.t.t.t.t.t.t.t.t.q.* o o                                           ",
"                                      o o O.<.<.<.<.5.t.t.t.t.t.t.t.t.t.t.t.t.q.* o o                                           ",
"                                      o o O.<.<.<.<.0.t.t.t.t.t.t.t.t.t.t.t.t.q.* o o                                           ",
"                                      o o O.<.<.:.:.<.e.e.q.q.q.t.t.w.q.q.q.e.4.* o o                                           ",
"                o o o                 o o O.1.:.q * 5 K K 5 * w q.p.;.* * z K b % o o                                           ",
"                o o o                 o o O.1.:.& o = k k = X * q.p.%.X o 2 n j + o o                                           ",
"                u u y                 o o O.<.>.i r f _ _ ^ a g w.p.,.s s / _ ) % o o                                           ",
"          o o 0 X.o. .o o             o o O.<.<.<.<.0.t.t.t.t.t.t.t.t.t.t.t.t.q.* o o                                           ",
"          o o 0 X.o.} o o             o o O.1.<.<.<.1.t.t.t.t.t.t.t.t.t.t.t.t.q.* o o                                           ",
"          o o * 6.9.=.o o                 e r i >.<.1.t.t.t.t.t.t.t.t.t.t.t.t.q.* o o       o o o o                             ",
"          o o * q.a.%.o o                 o o * :.<.5.t.t.t.t.t.t.t.t.t.t.t.t.q.* o o     o o o o o o                           ",
"          o o * q.p.%.o o                 o o * %.:.<.t.t.t.t.t.q.q.q.q.q.w.t.q.* o o     % % % # + +                           ",
"          o o * q.p.%.o o             o o o o @ * * i 1.<.w.y.q.w * * * * ;.p.q.* o o o o D ~ W c c 6 o o                       ",
"          o o * q.a.%.o o             o o o o o o o r 1.<.w.a.w.* o o o o %.s.w.* o o o o F [ ` V B 6 o o                       ",
"          o o * 6.9.=.o o           e s s q o o o o w O.O.#.%.#.* o o o o g %.#.1 : < 9 9 R [ ` V B 6 o o                       ",
"          o o 0 X.o.} o o       o o s p.p.s o o o @ o o o o o o o o o o o o o + c N P [ ' ' ' ` V B 6 o o                       ",
"          o o 0 X.o. .o o       o o s p.p.s o o o o o o o o o o o o o o o o o + c N P [ ' ' [ ` V B 6 o o                       ",
"          o o * 6.9.=.o o o o * #.%.+.s s h O.+.%.%.%.%.%.%.%.#.* o - 6 6 6 6 l U T Q ' ' Y P P B B 6 o o                       ",
"          o o * q.a.%.o o o o * w.s.%.o o O.1.1.t.p.p.p.p.p.p.w.* o : B B B B V ` [ [ ' [ P m N B B 6 o o                       ",
"          o o * 8.u.$.o o o o * q.p.%.o o h :.:.0.q.w.t.t.t.t.q.* o : B B B B V ` ' ' ' [ P N B B B 6 o o                       ",
"          o o 0 ..7. .o o o o * q.p.%.o o & * * * * s 1.<.w.t.q.* o : B B B B V ` ' ' ' ' P N N B B 6 o o                       ",
"          o o 0 X.o.| o o o o * w.s.%.o o o o o o . r <.<.w.y.q.* o : B B N N V ` ' ' [ [ P N N N N 4 o o                       ",
"          , , 1 *.-.{ , , t s d #.%.g o o w r r s i O.0.1.w.y.q.* o : B B C P I ` [ ` T T C N B P P z o o                       ",
"      o o 7 S A Z Z A A A 3.p.q.* o o o o O.1.1.t.t.t.t.t.t.t.q.* o : B B T ] ' ' [ T N N B B V ` [ G o o                       ",
"      o o 7 S A A v v v v 2.p.q.* o o o o O.1.1.t.t.t.t.t.t.t.q.* o : B B T [ ' ' [ T N B B B V ` [ G o o                       ",
"          , , 5 &.2.2.2.2.( a i $ o o     e r r s i O.0.1.w.t.q.* o # : : H [ ' ' [ T N B B B V ` [ G o o                       ",
"          o o * w.p.p.p.p.i . o o o o     o o o o . r <.<.w.t.q.* o o o o F [ ' ' [ T N B B B V ` [ G o o                       ",
"          o o * 1.q.q.q.q.i o o o o o     * * * * * s 1.<.w.t.q.w * * * * J ~ ! ' [ T N B V V C Q ` D o o                       ",
"                * * * * *             o o O.:.:.0.q.w.t.t.t.t.t.q.q.q.q.q.p # > ! [ T N B Y ` Q C V l o o                       ",
"                o o o o o             o o O.1.1.t.t.t.t.t.t.t.t.t.t.y.p.a.s o % ! ] E N N T ] ` V B 6 o o                       ",
"                o o o o o             o o d O.@.0.w.w.t.t.t.t.t.t.t.0.%.%.e o % L E I N B T [ ~ l 6 3 o o                       ",
"                                          o o * :.<.1.t.t.t.t.t.t.p.%.o o o o + c N N B B T [ ! % o o                           ",
"                                          o o * :.<.0.t.y.y.y.t.t.p.%.o o o o + c B B N N T ] ! % o o                           ",
"                                      o o h %.#.i r i s s s s s s i h %.%.e o O ; ; 8 T T I P S % o o                           ",
"                                      o o %.s.w.* o o o o o o o o . s p.p.s o O o o w ] ] P M c + o o                           ",
"                                      o o %.p.q.* o o o o o o o o o s t.t.s o O O o 9 ! ! S c x + o o                           ",
"                                      o o %.p.q.* o o           o o s t.t.s o o       % % % # #                                 ",
"                                      o o %.p.q.* o o           o o s t.t.i . o       o o o o o                                 ",
"                                    e s s ,.p.q.* o o           o o s t.t.@.i i       o o o o o                                 ",
"                                o o s p.t.t.t.q.* o o           o o s t.t.t.p.q.* o o                                           ",
"                                o o s t.t.t.t.q.* o o           o o s t.t.t.t.q.* o o                                           ",
"                                                                                                                                ",
"                                                                                                                                ",
"                                                                                                                                ",
"                                                                                                                                ",
"                                                                                                                                ",
"                                                                                                                                ",
"                                                                                                                                ",
"                                                                                                                                ",
"                                                                                                                                ",
"                                                                                                                                ",
"                                                                                                                                "
};
