/* XPM */
static char *result[] = {
/* columns rows colors chars-per-pixel */
"64 64 256 2 ",
"   c None",
".  c #272726",
"X  c #2E2E2D",
"o  c #362F2E",
"O  c #392F2E",
"+  c #30302F",
"@  c #39302F",
"#  c #353534",
"$  c #3C3432",
"%  c #3D3D3C",
"&  c #572E2C",
"*  c #48302F",
"=  c #59312F",
"-  c #473433",
";  c #483330",
":  c #483F3D",
">  c #563532",
",  c #5C3635",
"<  c #573A37",
"1  c #5F3B39",
"2  c #772F2F",
"3  c #782F2F",
"4  c #6A312F",
"5  c #7E322F",
"6  c #613331",
"7  c #653833",
"8  c #773230",
"9  c #7E3230",
"0  c #753A35",
"q  c #783B35",
"w  c #7A3F3C",
"e  c #63413F",
"r  c #363B41",
"t  c #393C40",
"y  c #434342",
"u  c #4B4B4A",
"i  c #545453",
"p  c gray36",
"a  c #774846",
"s  c #705655",
"d  c #656564",
"f  c #6D6666",
"g  c #686867",
"h  c #696968",
"j  c #767675",
"k  c #7E7E7E",
"l  c #942F2F",
"z  c #803533",
"x  c #9D3331",
"c  c #9F3E34",
"v  c #A7322F",
"b  c #A63230",
"n  c #A93431",
"m  c #A03835",
"M  c #AB3835",
"N  c #AD3D3A",
"B  c #954039",
"V  c #A24139",
"C  c #A9423F",
"Z  c #B1423F",
"A  c #8A4644",
"S  c #8F4D4B",
"D  c #924E4B",
"F  c #8F504E",
"G  c #91514F",
"H  c #9F514E",
"J  c #8D5350",
"K  c #955250",
"L  c #A24D46",
"P  c #A44F48",
"I  c #B24441",
"U  c #B54946",
"Y  c #B84F4C",
"T  c #BB524F",
"R  c #A25654",
"E  c #BC5350",
"W  c #BF5956",
"Q  c #B75D5B",
"!  c #B95E5B",
"~  c #BF605D",
"^  c #885864",
"/  c #8F6477",
"(  c #92697F",
")  c #807F7F",
"_  c #907676",
"`  c #C25E5B",
"'  c #C4625F",
"]  c #C56360",
"[  c #C96461",
"{  c #536E93",
"}  c #5D7FAD",
"|  c #5F84B6",
" . c #758CAC",
".. c #6686B3",
"X. c #6185B8",
"o. c #7BA8E7",
"O. c #72A5EC",
"+. c #7BB5FF",
"@. c #7DB8FF",
"#. c gray52",
"$. c #8E8E8D",
"%. c #939392",
"&. c #96999E",
"*. c #9C9C9B",
"=. c #AE9494",
"-. c #A09B9B",
";. c #BF9C9C",
":. c #8793A4",
">. c #A4A4A4",
",. c #A8A8A7",
"<. c #AAAAA9",
"1. c #B0AFAF",
"2. c gray71",
"3. c #B8B7B7",
"4. c #B9B9B9",
"5. c #C69E9E",
"6. c #C1BCBC",
"7. c #90B0DE",
"8. c #A9BAD2",
"9. c #85B8FF",
"0. c #BFC2C9",
"q. c #9DC2F5",
"w. c #BACDE8",
"e. c #C5C4C4",
"r. c #C8C7C6",
"t. c #CBCBCB",
"y. c #D1C7C6",
"u. c #D2C8C7",
"i. c #D2C9C8",
"p. c #D6D5D5",
"a. c #D8D7D7",
"s. c #D2D6DE",
"d. c #DAD9D9",
"f. c #DCDAD9",
"g. c #DBDDDD",
"h. c #E0DEDF",
"j. c black",
"k. c black",
"l. c black",
"z. c black",
"x. c black",
"c. c black",
"v. c black",
"b. c black",
"n. c black",
"m. c black",
"M. c black",
"N. c black",
"B. c black",
"V. c black",
"C. c black",
"Z. c black",
"A. c black",
"S. c black",
"D. c black",
"F. c black",
"G. c black",
"H. c black",
"J. c black",
"K. c black",
"L. c black",
"P. c black",
"I. c black",
"U. c black",
"Y. c black",
"T. c black",
"R. c black",
"E. c black",
"W. c black",
"Q. c black",
"!. c black",
"~. c black",
"^. c black",
"/. c black",
"(. c black",
"). c black",
"_. c black",
"`. c black",
"'. c black",
"]. c black",
"[. c black",
"{. c black",
"}. c black",
"|. c black",
" X c black",
".X c black",
"XX c black",
"oX c black",
"OX c black",
"+X c black",
"@X c black",
"#X c black",
"$X c black",
"%X c black",
"&X c black",
"*X c black",
"=X c black",
"-X c black",
";X c black",
":X c black",
">X c black",
",X c black",
"<X c black",
"1X c black",
"2X c black",
"3X c black",
"4X c black",
"5X c black",
"6X c black",
"7X c black",
"8X c black",
"9X c black",
"0X c black",
"qX c black",
"wX c black",
"eX c black",
"rX c black",
"tX c black",
"yX c black",
"uX c black",
"iX c black",
"pX c black",
"aX c black",
"sX c black",
"dX c black",
"fX c black",
"gX c black",
"hX c black",
"jX c black",
"kX c black",
"lX c black",
"zX c black",
"xX c black",
"cX c black",
"vX c black",
"bX c black",
"nX c black",
"mX c black",
"MX c black",
"NX c black",
"BX c black",
"VX c black",
"CX c black",
"ZX c black",
"AX c black",
"SX c black",
"DX c black",
"FX c black",
"GX c black",
"HX c black",
"JX c black",
"KX c black",
"LX c black",
"PX c black",
"IX c black",
"UX c black",
/* pixels */
"                                                                                                                                ",
"                                                                                                                                ",
"                                                                                                                                ",
"                                                                                                                                ",
"                                                                                                                                ",
"                                                                                                                                ",
"                                                                                                                                ",
"                                                                                                                                ",
"                                                      X X X X X X X X X X X + X                                                 ",
"                                                      X X X X X . . . . . . X X                                                 ",
"                                                    u p p p p p d g g g h h h g                                                 ",
"                                                X X p 3.3.3.3.4.p.a.a.a.a.a.d.r.% X X                                           ",
"                                                X . p 3.3.3.2.3.p.a.a.a.a.a.a.r.% X X                                           ",
"                                            X % ) #.%.3.3.e.t.t.p.a.a.a.a.a.a.i.>.*.) X X                                       ",
"                                          X X % <.3.3.2.2.t.a.a.a.a.a.a.a.a.a.a.d.g.*.X X                                       ",
"                                          X X % ,.3.2.2.2.t.a.a.a.a.a.a.a.a.a.a.a.d.*.X X                                       ",
"                                          X X % ,.3.2.2.2.t.a.a.a.a.a.a.a.a.a.a.a.d.*.X X                                       ",
"                                          X X % <.3.3.3.3.t.a.a.d.d.a.a.a.a.d.d.a.g.*.X X                                       ",
"                                          X X % <.3.,.#.#.=.5.;.-.*.1.a.a.1.*.*.;.5._ X X                                       ",
"                                X X X     X X % ,.4.#.X X 2 x l O . g a.a.g . O l x 3 X X                                       ",
"                                X X X     X X % ,.3.#.X X 2 x l O . g a.a.g . O l b 3 X X                                       ",
"                            X r } X.{ X X X X % ,.3.>.#.#.=.5.;.*.*.1.a.a.1.*.*.;.5._ X X                                       ",
"                          X X r O.@.X.X X X X % <.3.3.3.3.t.d.d.d.d.a.a.a.a.d.d.a.g.*.X X                                       ",
"                          X X r o.9...X X X X % *.,.<.3.2.t.a.a.a.a.a.a.a.a.a.a.a.d.*.X X                                       ",
"                          X X % 0.s.&.X X       % % d 3.3.t.a.a.a.a.a.a.a.a.a.a.a.d.*.X X       X X X X X                       ",
"                          X X % r.d.*.X X       X . p 4.3.t.a.a.a.a.a.d.d.d.d.d.a.d.*.X X       X X X X X                       ",
"                          X X % r.d.*.X X X     X X u #.#.2.t.t.a.a.e.*.*.*.*.>.p.d.*.X X X     e e 1 = = *                     ",
"                          X X % r.d.*.X X X X X X X X X X #.3.3.p.d.*.X X X X % r.d.*.X X X X $ Q ] T n n = X X                 ",
"                          X X % r.f.*.X X X X X X X + X X #.4.4.a.f.*.X X X X % r.f.*.X X X X $ Q ] T n n = X X                 ",
"                          X X t 7.q. .X X j *.%.% X + X X u p p g h i X X X X # d h s 5 9 A G K ~ ] T n n = X X                 ",
"                          X X r O.+.| X X *.h.t.% X X X X X . . . . X X X + X X . . & n n E [ ] ' ] T n n = X X                 ",
"                          X X r o.9...X X %.t.4.u % % % % % % % % % % X X @ O O O o 6 M M E ] ' ` ` Y n n = X X                 ",
"                          X X % 0.s.&.X X % % u *.<.2.r.r.r.r.r.r.t.%.X X 8 x x x x C ` ` ' ' ` N M M n n = X X                 ",
"                          X X % r.f.*.X X X X % <.4.r.d.d.a.a.a.a.d.*.X X 9 n n n n I ] ' ' ' ` M n n n n = X X                 ",
"                          X X % 8.w.:.X X X X # k #.$.*.*.4.t.t.a.d.*.X X 9 n n n b I ' ' ' ' ` M n n n n = X X                 ",
"                          X X r O.+.| X X X X X X X X X X #.3.3.p.d.*.X X 9 n n n b I ' ' ' ' ` M n n n n = X X                 ",
"                          X X r O.+.| X X X X X X X X X X #.3.3.p.d.*.X X 9 n n n v I ' ' ' ] ` M n n n n = X X                 ",
"                      X X 7 q w / ( ^ q q ; X # k #.$.*.*.4.t.t.a.d.*.X X 5 n M Y T W ' ' Y I Z n b N T E 1 X X                 ",
"                      X X q V V c c c V V > X % <.3.e.d.d.a.a.a.a.d.*.X X 9 n M ` ] ] ' ' I v b n b I ] ] a X X                 ",
"                      X X 0 B B L P P P P < X % *.,.2.r.r.t.p.p.a.d.*.X X 8 x m ` ' ' ' ' I b n n b I ] ] e X X                 ",
"                          @ @ : 6.u.y.y.i.d . + % % % % % $.4.4.p.d.*.X X o O - Q ' ' ' ' I b n n b I ' ' e X X                 ",
"                          X X % t.d.d.d.f.h . X . . . . . #.3.3.p.d.*.. . . . @ ! [ ] ' ' I b n b v I ] ] e X X                 ",
"                            X % %.*.*.*.*.i X # p p d h g >.e.e.p.d.1.g h h h f J F R ' ' I b n Z I U T T 1 X X                 ",
"                                X X X X X X X % <.3.e.a.a.a.a.a.a.a.a.a.a.a.a.r.% X e ' ' I b M ` ] T b n = X X                 ",
"                                X X X X X X X % <.3.e.a.a.a.a.a.a.a.a.a.a.a.d.r.% X e ] ] I b M ` ] T n n = X X                 ",
"                                    X X X X X # p p k e.6.t.a.a.a.a.a.a.a.$.d d # X , I I M n M ` ] H = = *                     ",
"                                      X X X X X . . p 3.3.t.a.a.a.a.a.a.a.d . X X X = n n n n M ` [ F X X                       ",
"                                      X X % % % + . p <.,.4.r.r.r.r.r.r.r.d . X X X = x x n M N W ` S X X                       ",
"                                      X X %.t.3.% X # % % % % % % % % % % # X X       @ O D ` W N M z X X                       ",
"                                      . . *.f.r.% X X X X X X X X X X . . . . .       X X G [ ` M n z X o                       ",
"                                    i h g 1.d.r.% X X X X X X X X X y h h h h d       X X a G S z 9 4 X X                       ",
"                                X . h d.a.a.a.r.% X X           X . h d.a.a.d.r.% X X     X X X X X X                           ",
"                                X . h a.a.a.a.r.% X X           X . h a.a.a.a.r.% X X     X X X X X X                           ",
"                                                                                                                                ",
"                                                                                                                                ",
"                                                                                                                                ",
"                                                                                                                                ",
"                                                                                                                                ",
"                                                                                                                                ",
"                                                                                                                                ",
"                                                                                                                                ",
"                                                                                                                                ",
"                                                                                                                                ",
"                                                                                                                                "
};
