/* XPM */
static char *result[] = {
/* columns rows colors chars-per-pixel */
"64 64 32 1 ",
"  c gray1",
". c None",
"X c gray13",
"o c #AC2FE9",
"O c #343434",
"+ c #151515",
"@ c #0C0C0C",
"# c #3A3A3A",
"$ c #9700CD",
"% c #C05CFE",
"& c #A633E1",
"* c gray11",
"= c #CA78FF",
"- c #DFACFF",
"; c #19141B",
": c #1F0B28",
"> c #BF5EFB",
", c #BA5CF4",
"< c #E9CBFC",
"1 c #131114",
"2 c #C170F2",
"3 c #0D090F",
"4 c #E7C9F8",
"5 c #ECD2FC",
"6 c #AA2CE8",
"7 c black",
"8 c black",
"9 c black",
"0 c black",
"q c black",
"w c black",
"e c black",
/* pixels */
".............................OOOOOO.............................",
".............................OOOOOO.............................",
"...........................OO******OO...........................",
"...........................OO**  **OO...........................",
".........................OO***;-=3***OO.........................",
".........................OO**;--=23**OO.........................",
".....................OO  ***;---==23***  O#.....................",
".....................OO  ***;>%%oo& ***  O#.....................",
".................OO******  **;>%o& **  ******OO.................",
".................OO******  ***3,& ***  ******OO.................",
".............OO  ********  ++**33**++  ********  OO.............",
".............OO  ********  ++******++  ********  OO.............",
"...........OO****  ********  ++++++  ********  ****OO...........",
"...........OO****  ********33;;;;;;33********  ****OO...........",
".........@@********    +++;666666666&++++    ********@@.........",
".........  ********    +++;6oooooooo6++++    ********  .........",
".........    ******+++;6o%%%%%%%%%%%%%%o6++++******    .........",
".........    ******;;*:6o%%%%%%%%%%%%%%o6**;;******    .........",
".......OO****  +++;66>>%%55555555555555%%>>6&++++  ****OO.......",
".......OO****  +++;6o%%%%55555555555555%%%%o6++++  ****OO.......",
".......OO****++ 166%%5555%%%%%%%%%%%%%>5555%%6&  ++****OO.......",
".......OO****++3;6o%%5555%%%%%%%%%%%%%%555<%%o&33++****OO.......",
".......OO*****X>>%%5<%%%%%%oooooooooo%%%%%>5<>%>,******OO.......",
".......  *****X>%%%55%%%%%%oooooooooo%%%%%%55%%%>******  .......",
".......  *****X>%55%%%%oooooooooooooooooo%%%%5<%>******  .......",
".....OOOO    +;>%5<%%%%oooooooooooooooooo%%%%5<%>++    OOOO.....",
".....OOOO    +*<<>>oooooooo%%%%%%%%%>oooooooo%>54++    OOOO.....",
".....OO****** 355%%ooooooo6%%%%%%%%%>oooooooo%%54  ******OO.....",
".....OO****** 3>%%%oooooo%%5555555555%%oooooo%%%>  ******OO.....",
".....  ******+;>%%%oooooo%%5555555555%%oooooo%%%>++******  .....",
".....  ******+;>%oooooo%%55%%%%%%%%%>55%%oooooo%>++******  .....",
".....    ****+;>%oooooo%%55%%%%%%%%%%55%%oooooo%>++****    .....",
".....    ****+;>%oooo%%55%%%%oooooo%%%%55%%oooo%>++****    .....",
".....OOOO     3>%oooo%%55%%%%6oooo6%%%%55%%oooo%>      OOOO.....",
".....OOOO     36ooo%%55%%%%oo$$o6$$oo%%%%55%%ooo6      OOOO.....",
".....OO******+;6ooo%%55%%%%o6$$o6$$66%%%%55%%ooo6++******OO.....",
".....OO******+;6ooo%%55%%o6$$66%>66$$6o%%55%%ooo6++******OO.....",
".....OO******+;6ooo%%55%%o6$$oo%>o6$$oo%%55%%ooo6++******OO.....",
".....OO******+;6ooo%%55%%oo66>>5<>>66oo%%55%%ooo6++******OO.....",
".....    ++++ 36ooo%%55%%oooo%>55%>6ooo%%55%%ooo6  ++++    .....",
".....    ++++ 36ooo%%55%%o6$$66%>66$$oo%%55%%ooo6  ++++    .....",
".....OOOO    *X6ooo%%55%%o6$$66%>66$$oo%%55%%ooo6**    OOOO.....",
".....OOOO    *X6ooo%%55%%%>66$$o6$$66%%%%55%%ooo6**    OOOO.....",
".....OO*******X6ooo%%55%%%%o6$$o6$$66%%%%55%%ooo6********OO.....",
".....OO*******X>%oooo%%55%%%%6oooo6%%%%55%%oooo%>********OO.....",
".....    **+++;>%oooo%%55%%%%oooooo%%%>55%%oooo%>++++**    .....",
".....    **+++;>%oooooo%%55%%%%%%%%%%55%%oooooo%>++++**    .....",
".....OO       3>%oooooo%%55%%%%%%%%%%55%%oooooo%>        OO.....",
".....OO       3>%%%oooooo%%5555555555%%oooooo%%%>        OO.....",
".....    OO***X>%%%oooooo%%5555555555%%oooooo%%%>****OO    .....",
".....    OO***X55%%oooooooo%%%%%%%%%>oooooooo%%54****OO    .....",
".....  OO*****X55%%oooooooo%%%%%%%%%%oooooooo%%54******OO  .....",
".....  OO*****X>%55%%%%oooooooooooooooooo%%%%5<%>******OO  .....",
".....OO******+;>%5<%%%%oooooooooooooooooo%%%%5<%>++******OO.....",
".....OO******+;>%%%5<%%%%%>oooooooooo%%%%%%5<>%%>++******OO.....",
".....    **++ 3>%%%55%%%%%%ooooooooo6%%%%%>55%%%>  ++**    .....",
".....    **++ 36ooo%%5555%%%%%%%%%%%%%%5555%%6oo6  ++**    .....",
".....OOOO     36ooo%%5555%%%%%%%%%%%%%>555<%%ooo6      OOOO.....",
".....OOOO     3>%oooo%%%%5555555555555<%%%>oooo%>      OOOO.....",
".....OO******+;>%6ooo%%%%55555555555555%%%%ooo6%>++******OO.....",
".....OO******+*55%%oooooo%%%%%%%%%%%%%%oooooo%%54++******OO.....",
".....  ****++ 355%%oooooo%%%%%%%%%%%%%%oooooo%>54  ++****  .....",
".....  ****++ 3>%5<%%%%%%oooooooooooooo%%%%%%5<%>  ++****  .....",
".....  ****++ 3>%55%%%%%%oooooooooooooo%%%%%%55%>  ++****  ....."
};
