/* XPM */
static char *result[] = {
/* columns rows colors chars-per-pixel */
"64 64 32 1 ",
"  c gray1",
". c None",
"X c gray13",
"o c #AC2FE9",
"O c #343434",
"+ c #151515",
"@ c #0C0C0C",
"# c #3A3A3A",
"$ c #9700CD",
"% c #C05CFE",
"& c #A633E1",
"* c gray11",
"= c #CA78FF",
"- c #DFACFF",
"; c #19141B",
": c #BF5EFB",
"> c #BA5CF4",
", c #E9CBFC",
"< c #131114",
"1 c #C170F2",
"2 c #0D090F",
"3 c #E7C9F8",
"4 c #ECD2FC",
"5 c #AA2CE8",
"6 c #252328",
"7 c #9308C8",
"8 c black",
"9 c black",
"0 c black",
"q c black",
"w c black",
"e c black",
/* pixels */
".............................OOOOOO.............................",
".............................OOOOOO.............................",
"...........................OO******OO...........................",
"...........................OO**  **OO...........................",
".........................OO***;-=2***OO.........................",
".........................OO**;--=12**OO.........................",
".....................OO  ***;---==12***  O#.....................",
".....................OO  ***;:%%oo& ***  O#.....................",
".................OO******  **;:%o& **  ******OO.................",
".................OO******  ***2>& ***  ******OO.................",
".............OO  ********  ++**22**++  ********  OO.............",
".............OO  ********  ++******++  ********  OO.............",
"...........OO****  ********  ++++++  ********  ****OO...........",
"...........OO****  ********<<XXXXX*<<********  ****OO...........",
".........@@********    +++X3,444444,3++++    ********@@.........",
".........  ********    +++X4444444444++++    ********  .........",
".........    ******+++X44%%%%%%%%%%%%%%44++++******    .........",
".........    ******XX*644%%%%%%%%%%%%%%4,**XX******    .........",
".......OO****  +++*3,::%%oooooooooooooo%%::,3++++  ****OO.......",
".......OO****  +++*44%%%%5ooooooooooooo%%%%4,++++  ****OO.......",
".......OO****++ <::%%ooo5$$ooooooooo5$$5ooo%%:>2 ++****OO.......",
".......OO****++2;:%%%55oo$$ooooooooo5$$oo5o%%%:22++****OO.......",
".......OO*****X::%%oo$$oo55%%%%%%%%%:55oo$$oo%%:>******OO.......",
".......  *****X:%%:oo$$5ooo%%%%%%%%%:5oo5$$oo%%%:******  .......",
".......  *****X:%5ooooo%%%%444444444,%%%%ooooo5%:******  .......",
".....OOOO    +;::oooooo%%%:444444444,%%%%oooooo%:++    OOOO.....",
".....OOOO    +;5ooo%%%%444,%%%%%%%%%:4444%%%%ooo5++    OOOO.....",
".....OO****** 25ooo%%%%444,%%%%%%%%%%4444%%%%ooo5  ******OO.....",
".....OO****** 2$$oo%%44%%%%oooooooooo%%%%44%%o5$7  ******OO.....",
".....  ******+;$$oo%%44%%%:ooooooooo5%%%%44%%o5$7++******  .....",
".....  ******+;55%%44%%%%o5$$ooooo5$$oo%%%%44%:o5++******  .....",
".....    ****+;5o%%44%%%%o5$$ooooo5$$oo%%%%44%%o5++****    .....",
".....    ****+;5o%%44%%oooooo%%%%%%oooooo%%44%%o5++****    .....",
".....OOOO     25o%%44%%oooooo%%%%%:oooooo%%44%:o5      OOOO.....",
".....OOOO     2:%4,%%oo$$oo%%44444,%:oo$$oo%%4,%:      OOOO.....",
".....OO******+;:%44%%oo$$oo%%44444,%%oo$$oo%%44%:++******OO.....",
".....OO******+;:%44%%oooo%%44:%%%%:44%%oooo%%44%:++******OO.....",
".....OO******+;:%44%%oooo%%44%%%%%%44%%oooo%%44%:++******OO.....",
".....OO******+;:%44%%oooo%%44%%%%%%44%%oooo%%44%:++******OO.....",
".....    ++++ 2:%44%%oooo%%44%%%%%%44%%oooo%%44%:  ++++    .....",
".....    ++++ 2:%44%%oooo%%44%%%%%%44%%oooo%%44%:  ++++    .....",
".....OOOO    *X:%44%%oo5o%:4,:%%%%:4,%:55oo%%44%:**    OOOO.....",
".....OOOO    *X:%44%%oo$$oo%%,4444,%:o5$$oo%%44%:**    OOOO.....",
".....OO*******X:%4,%%o5$$oo%%,4444,%:oo$$5o%%4,%:********OO.....",
".....OO*******X5o%%44%%oooooo%%%%%%oooooo%%44%%o5********OO.....",
".....    **+++;5o%%44%%oooooo:%%%%:oooooo%%44%%o5++++**    .....",
".....    **+++;5o%%44%%%%o5$$ooooo5$$oo%%%%44%%o5++++**    .....",
".....OO       25o%%44%%%%o5$$ooooo5$$oo%%%%44%%o5        OO.....",
".....OO       2$$oo%%44%%%%oooooooooo%%%%44%%o5$7        OO.....",
".....    OO****$$oo%%44%%%:oooooooooo%%%%44%%o5$7****OO    .....",
".....    OO***X5ooo%%%%444,%%%%%%%%%%4444%%%%ooo5****OO    .....",
".....  OO*****X5ooo%%%%444,%%%%%%%%%%4444%%%%ooo5******OO  .....",
".....  OO*****X::oooooo%%%%4444444444%%%%ooo5oo%:******OO  .....",
".....OO******+;:%oooo5o%%%%444444444,%%%%55oooo%:++******OO.....",
".....OO******+;:%%:oo$$oooo%%%%%%%%%:oooo$$oooo%:++******OO.....",
".....    **++ 2:%%%o5$$oooo%%%%%%%%%:5ooo$$5oo5%:  ++**    .....",
".....    **++ 2,,%%%%oooo$$5oooooooo5$$oooo%%%:43  ++**    .....",
".....OOOO     2,,:%%%oooo$$ooooooooo5$$oooo%%%:43      OOOO.....",
".....OOOO     2:%,44,%%%%55oooooooooo5o%%%:444,%:      OOOO.....",
".....OO******+;:%444,%%%%5ooooooooooooo%%%:444,%:++******OO.....",
".....OO******+;5o%%%%4444%%%%%%%%%%%%%%4444%%%%o5++******OO.....",
".....  ****++ 25o%%%%444,%%%%%%%%%%%%%%444,%%%:o5  ++****  .....",
".....  ****++ 25ooo%%%%%%4444444444444,%%%%%%ooo5  ++****  .....",
".....  ****++ 25ooo%%%%%%44444444444444%%%%%%ooo5  ++****  ....."
};
