/* XPM */
static char *result[] = {
/* columns rows colors chars-per-pixel */
"64 64 32 1 ",
"  c gray1",
". c None",
"X c gray13",
"o c #AC2FE9",
"O c #343434",
"+ c #151515",
"@ c #0C0C0C",
"# c #3A3A3A",
"$ c #9700CD",
"% c #C05CFE",
"& c #A633E1",
"* c gray11",
"= c #CA78FF",
"- c #DFACFF",
"; c #19141B",
": c #1F0B28",
"> c #BF5EFB",
", c #BA5CF4",
"< c #E9CBFC",
"1 c #131114",
"2 c #C170F2",
"3 c #0D090F",
"4 c #E7C9F8",
"5 c #ECD2FC",
"6 c #AA2CE8",
"7 c black",
"8 c black",
"9 c black",
"0 c black",
"q c black",
"w c black",
"e c black",
/* pixels */
".............................OOOOOO.............................",
".............................OOOOOO.............................",
"...........................OO******OO...........................",
"...........................OO**  **OO...........................",
".........................OO***;-=3***OO.........................",
".........................OO**;--=23**OO.........................",
".....................OO  ***;---==23***  O#.....................",
".....................OO  ***;>%%oo& ***  O#.....................",
".................OO******  **;>%o& **  ******OO.................",
".................OO******  ***3,& ***  ******OO.................",
".............OO  ********  ++**33**++  ********  OO.............",
".............OO  ********  ++******++  ********  OO.............",
"...........OO****  ********  ++++++  ********  ****OO...........",
"...........OO****  ********33******33********  ****OO...........",
".........@@********    +++*>>>>>>>>>,++++    ********@@.........",
".........  ********    +++*>%%%%%%%%>++++    ********  .........",
".........    ******+++*>%6ooooooooooooo%>++++******    .........",
".........    ********;:>%oooooooooooooo%>;;********    .........",
".......OO****  +++*>>66oooooooooooooooooo66>>++++  ****OO.......",
".......OO****  +++*>%oooooooooooooooooooooo%>++++  ****OO.......",
".......OO****++ 166oooooooo%%%%%%%%%>oooooooo6&  ++****OO.......",
".......OO****++3;6ooooooooo%%%%%%%%%>ooooooooo633++****OO.......",
".......OO*****X&6oooooo%%%%555555555<%%%%oooooo6&******OO.......",
".......  *****X6ooooooo%%%%555555555<%%%%ooo6ooo6******  .......",
".......  *****X6ooo%%%%555<oooooooooo5555%%%%ooo6******  .......",
".....OOOO    +;6ooo%%%%<55<o666666666<55<%%%%ooo6++    OOOO.....",
".....OOOO    +;6o%%%%5<ooo6$$$$$$$$$$oooo5<%%%>o6++    OOOO.....",
".....OO****** 36o%%%%5<ooo6$$$$$$$$$$6ooo5<%%%%o6  ******OO.....",
".....OO****** 36o%%55oo$$$$ooooooooo6$$$$oo55%%o6  ******OO.....",
".....  ******+;6o%%<<o6$$$$ooooooooo6$$$$6o<<%>o6++******  .....",
".....  ******+;>%5<oo$$$$6ooo%%%%%>ooo6$$$$oo5<%>++******  .....",
".....    ****+;>%5<oo$$$$oooo%%%%%%oooo$$$$oo55%>++****    .....",
".....    ****+;>%5<oo$$oo%%%%555555%%%%oo$$oo55%>++****    .....",
".....OOOO     3>%<<o6$$oo%%%%55555<%%%%oo$$6o<<%>      OOOO.....",
".....OOOO     35<oo$$6ooo%%55%%%%%>55%%oo66$$oo54      OOOO.....",
".....OO******+*55o6$$oooo%%55%%%%%%55%%oooo$$oo5<++******OO.....",
".....OO******+*55o6$$oo%%55%%6oooo6%>55%%oo$$oo5<++******OO.....",
".....OO******+*55o6$$oo%%55%%oo66oo%%55%%oo$$oo5<++******OO.....",
".....OO******+*55o6$$oo%%55%%o6$$oo%%55%%oo$$oo5<++******OO.....",
".....    ++++ 355o6$$oo%%55%%o6$$oo%%55%%oo$$oo5<  ++++    .....",
".....    ++++ 355o6$$oo%%55%%oooooo%%55%%oo$$oo5<  ++++    .....",
".....OOOO    *X55o6$$oo%%5<%%oooooo%>5<%%oo$$oo5<**    OOOO.....",
".....OOOO    *X55o6$$oooo%%5<>%%%%>5<%>oooo$$oo5<**    OOOO.....",
".....OO*******X5<o6$$6ooo%%55%%%%%>55%%oo66$$6o54********OO.....",
".....OO*******X>%5<o6$$oo%%%%555555%%%%oo$$6o5<%>********OO.....",
".....    **+++;>%5<oo$$6o%%%%55555<%%%>o6$$oo55%>++++**    .....",
".....    **+++;>%5<oo$$$$oooo%%%%%>oooo$$$$oo55%>++++**    .....",
".....OO       3>%5<oo$$$$oooo%%%%%%oooo$$$$oo55%>        OO.....",
".....OO       36o%%55oo$$$$ooooooooo6$$$$oo55%%o6        OO.....",
".....    OO***X6o%%5<oo$$$$6oooooooo6$$$$oo55%%o6****OO    .....",
".....    OO***X6o%%%%5<ooo6$$$$$$$$$$6ooo5<%%%%o6****OO    .....",
".....  OO*****X6o%%%%5<ooo6$$$$$$$$$$oooo55%%%%o6******OO  .....",
".....  OO*****X6ooo%%%%555<oooooooooo5555%%%%6oo6******OO  .....",
".....OO******+;6ooo%%%%555<oooooooooo5555%%%%ooo6++******OO.....",
".....OO******+;6ooooooo%%%%<55555555<%%%%ooooooo6++******OO.....",
".....    **++ 36ooooooo%%%%5555555555%%%%ooooooo6  ++**    .....",
".....    **++ 3>>oooooooooo%%%%%%%%%>6ooooooooo%>  ++**    .....",
".....OOOO     3>>oooooooooo%%%%%%%%%>oooooooooo%>      OOOO.....",
".....OOOO     3<<>%%%oooooooooooooooooooooo%%%>54      OOOO.....",
".....OO******+*55%%%%oooooooooooooooooooooo%%%>54++******OO.....",
".....OO******+;>%55%%%%%%oooooooooooooo%%%%%%55%>++******OO.....",
".....  ****++ 3>%55%%%%%%oooooooooooooo%%%%%%5<%>  ++****  .....",
".....  ****++ 3>%%%55555<%%%%%%%%%%%%%>555555%%%>  ++****  .....",
".....  ****++ 3>%%%555555%%%%%%%%%%%%%%555555%%%>  ++****  ....."
};
