/* XPM */
static char *result[] = {
/* columns rows colors chars-per-pixel */
"64 64 32 1 ",
"  c gray1",
". c None",
"X c gray13",
"o c #AC2FE9",
"O c #343434",
"+ c #151515",
"@ c #0C0C0C",
"# c #3A3A3A",
"$ c #9700CD",
"% c #C05CFE",
"& c #A633E1",
"* c gray11",
"= c #CA78FF",
"- c #DFACFF",
"; c #19141B",
": c #1F0B28",
"> c #BF5EFB",
", c #BA5CF4",
"< c #E9CBFC",
"1 c #C170F2",
"2 c #0D090F",
"3 c #E7C9F8",
"4 c #ECD2FC",
"5 c #AA2CE8",
"6 c #9308C8",
"7 c black",
"8 c black",
"9 c black",
"0 c black",
"q c black",
"w c black",
"e c black",
/* pixels */
".............................OOOOOO.............................",
".............................OOOOOO.............................",
"...........................OO******OO...........................",
"...........................OO**  **OO...........................",
".........................OO***;-=2***OO.........................",
".........................OO**;--=12**OO.........................",
".....................OO  ***;---==12***  O#.....................",
".....................OO  ***;>%%oo& ***  O#.....................",
".................OO******  **;>%o& **  ******OO.................",
".................OO******  ***2,& ***  ******OO.................",
".............OO  ********  ++**22**++  ********  OO.............",
".............OO  ********  ++******++  ********  OO.............",
"...........OO****  ********  ++++++  ********  ****OO...........",
"...........OO****  ********22;;;;;;22********  ****OO...........",
".........@@********    +++;555555555&++++    ********@@.........",
".........  ********    +++;5oooooooo5++++    ********  .........",
".........    ******+++;5oooooooooooooooo5++++******    .........",
".........    ******;;;:5oooooooooooooooo5;;;;******    .........",
".......OO****  +++;5555oo%%%%%%%%%%%%%%oo555&++++  ****OO.......",
".......OO****  +++;5ooooo%%%%%%%%%%%%%%ooooo5++++  ****OO.......",
".......OO****++ 26$oo%%%%%%444444444<%%%%%%oo$6  ++****OO.......",
".......OO****++2;$$oo%%%%%>444444444<%%%%%%oo$622++****OO.......",
".......OO*****X&555%%%%444<%%%%%%%%%>4444%%%%555&******OO.......",
".......  *****X5ooo%%%%444<%%%%%%%%%%4444%%%%5oo5******  .......",
".......  *****X5o%%444<%%%>oooooooooo%%%%444<%>o5******  .......",
".....OOOO    +;5o>>444<%%%>oooooooooo%%%%444<%>o5++    OOOO.....",
".....OOOO    +;>%<<%%%%oooooooooooooooooo%%%%4<%>++    OOOO.....",
".....OO****** 2>%44%%%%oooooooooooooooooo%%%%44%>  ******OO.....",
".....OO****** 2>%4<%%oooooo%%%%%%%%%%oooooo%%44%>  ******OO.....",
".....  ******+;>%4<%%oooooo%%%%%%%%%>oooooo%%4<%>++******  .....",
".....  ******+*4<%%oooooo%%444444444<%%oooooo%>43++******  .....",
".....    ****+*44%%oooooo%%4444444444%%oooooo%%4<++****    .....",
".....    ****+*44%%oooo%%44%%%%%%%%%%44%%oooo%%4<++****    .....",
".....OOOO     24<%%oooo%%4<%%%%%%%%%%44%%oooo%>43      OOOO.....",
".....OOOO     2>%oooo%%44%%%%oooooo%%%%44%%oooo%>      OOOO.....",
".....OO******+;>%oooo%%44%%%%5oooo5%%%%44%%oooo%>++******OO.....",
".....OO******+;>%oooo%%44%%o5$$$$$$55%%44%%oooo%>++******OO.....",
".....OO******+;>%oooo%%44%%oo$$$$$$oo%%44%%oooo%>++******OO.....",
".....OO******+;>%oooo%%44%%oo$$$$$$oo%%44%%oooo%>++******OO.....",
".....    ++++ 2>%oooo%%44%%oo$$$$$$oo%%44%%oooo%>  ++++    .....",
".....    ++++ 2>%oooo%%44%%oo$$$$$$oo%%44%%oooo%>  ++++    .....",
".....OOOO    *X>%oooo%%44%%oo$$$$$$oo%%44%%oooo%>**    OOOO.....",
".....OOOO    *X>%oooo%%44%%%%555555oo%%44%%oooo%>**    OOOO.....",
".....OO*******X>%5ooo%%44%%%%5oooooo5%%44%%ooo5%>********OO.....",
".....OO*******X44%%oooo%%4<%%%%%%%%%%44%%oooo%%43********OO.....",
".....    **+++*44%%oooo%%4<%%%%%%%%%>4<%%oooo%%4<++++**    .....",
".....    **+++*44%%oooooo%%444444444<%%oooooo%%4<++++**    .....",
".....OO       244%%oooooo%%4444444444%%oooooo%%43        OO.....",
".....OO       2>%4<%%oooooo%%%%%%%%%%oooooo%%44%>        OO.....",
".....    OO***X>%4<%%oooooo%%%%%%%%%>oooooo%%44%>****OO    .....",
".....    OO***X>%44%%%%oooooooooooooooooo%%%%44%>****OO    .....",
".....  OO*****X>%44%%%%oooooooooooooooooo%%%%4<%>******OO  .....",
".....  OO*****X5o%%4444%%%%oooooooooo%%%%4444%>55******OO  .....",
".....OO******+;5o>>444<%%%>oooooooooo%%%%444<%>o5++******OO.....",
".....OO******+;5ooo%%%%444<%%%%%%%%%>4444%%%%ooo5++******OO.....",
".....    **++ 25ooo%%%%444<%%%%%%%%%>4444%%%%5oo5  ++**    .....",
".....    **++ 255$$5o%%%%%%444444444<%%%%%%o5$$o5  ++**    .....",
".....OOOO     255$$oo%%%%%%444444444<%%%%%>oo$$o5      OOOO.....",
".....OOOO     2>%55oooooo%%%%%%%%%%%%%%oooooo55%>      OOOO.....",
".....OO******+;>%5ooooooo%%%%%%%%%%%%%%ooooooo5%>++******OO.....",
".....OO******+*44%%oooooooooooooooooooooooooo%%43++******OO.....",
".....  ****++ 2<<%%oooooooooooooooooooooooooo%>43  ++****  .....",
".....  ****++ 2>%4<%%%%%%oooooooooooooo%%%%%%4<%>  ++****  .....",
".....  ****++ 2>%4<%%%%%%oooooooooooooo%%%%%%44%>  ++****  ....."
};
