/* XPM */
static char *result[] = {
/* columns rows colors chars-per-pixel */
"64 64 32 1 ",
"  c gray1",
". c None",
"X c gray13",
"o c #AC2FE9",
"O c #343434",
"+ c #151515",
"@ c #0C0C0C",
"# c #3A3A3A",
"$ c #9700CD",
"% c #C05CFE",
"& c #A633E1",
"* c gray11",
"= c #CA78FF",
"- c #DFACFF",
"; c #19141B",
": c #BF5EFB",
"> c #BA5CF4",
", c #E9CBFC",
"< c #131114",
"1 c #C170F2",
"2 c #0D090F",
"3 c #E7C9F8",
"4 c #ECD2FC",
"5 c #AA2CE8",
"6 c #252328",
"7 c black",
"8 c black",
"9 c black",
"0 c black",
"q c black",
"w c black",
"e c black",
/* pixels */
".............................OOOOOO.............................",
".............................OOOOOO.............................",
"...........................OO******OO...........................",
"...........................OO**  **OO...........................",
".........................OO***;-=2***OO.........................",
".........................OO**;--=12**OO.........................",
".....................OO  ***;---==12***  O#.....................",
".....................OO  ***;:%%oo& ***  O#.....................",
".................OO******  **;:%o& **  ******OO.................",
".................OO******  ***2>& ***  ******OO.................",
".............OO  ********  ++**22**++  ********  OO.............",
".............OO  ********  ++******++  ********  OO.............",
"...........OO****  ********  ++++++  ********  ****OO...........",
"...........OO****  ********22******22********  ****OO...........",
".........@@********    +++*:::::::::>++++    ********@@.........",
".........  ********    +++*:%%%%%%%%:++++    ********  .........",
".........    ******+++*:%44444444444444%:++++******    .........",
".........    ********X6:%44444444444444%:XX********    .........",
".......OO****  +++*::,444%%%%%%%%%%%%%:4443::++++  ****OO.......",
".......OO****  +++*:%4444%%%%%%%%%%%%%%4444%:++++  ****OO.......",
".......OO****++ <::4,%%%%oooooooooooooo%%%:4,:>2 ++****OO.......",
".......OO****++@;::4,%%%%oooooooooooooo%%%:4,%:<@++****OO.......",
".......OO*****X3,4,%%oooooooooooooooooooooo%%44,3******OO.......",
".......  *****X444,%%oooooooooooooooooooooo%%444,******  .......",
".......  *****X44%:oooooooo%%%%%%%%%:oooooooo%:4,******  .......",
".....OOOO    +*,,::55oooooo%%%%%%%%%:oooooo55%:43++    OOOO.....",
".....OOOO    +;:%o5$$oo%%%:444444444,%%%%oo$$oo%:++    OOOO.....",
".....OO****** 2:%o5$$oo%%%%4444444444%%%%o5$$oo%:  ******OO.....",
".....OO****** 25ooooo%%%%4,%%%%%%%%%%44%%%%ooooo5  ******OO.....",
".....  ******+;5ooooo%%%%4,%%%%%%%%%%44%%%%ooooo5++******  .....",
".....  ******+;5ooo%%%%44%%oooooooooo%:44%%%%ooo5++******  .....",
".....    ****+;5ooo%%%%44%%oooooooooo%%44%%%%ooo5++****    .....",
".....    ****+;5ooo%%44%%oooooooooooooo%%44%%ooo5++****    .....",
".....OOOO     25ooo%%44%%oooooooooooooo%%44%%ooo5      OOOO.....",
".....OOOO     25o%%44%%oooooo%%%%%:oooooo%:44%:o5      OOOO.....",
".....OO******+;5o%%44%%oooooo%%%%%%oooooo%%44%%o5++******OO.....",
".....OO******+;5o%%44%%oooo%%%%44%%%:oooo%%44%%o5++******OO.....",
".....OO******+;5o%%44%%oooo%%%:4,:%%%oooo%%44%%o5++******OO.....",
".....OO******+;5o%%44%%oooo%%,,%:4,%%oooo%%44%%o5++******OO.....",
".....    ++++ 25o%%44%%oooo%%,,%:4,%%oooo%%44%%o5  ++++    .....",
".....    ++++ 25o%%44%%oooo%%%%4,%%%%oooo%%44%%o5  ++++    .....",
".....OOOO    *X5o%%44%%oooo%%%%4,%%%:oooo%%44%%o5**    OOOO.....",
".....OOOO    *X5o%%44%%oooooo%%%%%%oooooo%%44%%o5**    OOOO.....",
".....OO*******X5o%%4,%%oooooo%%%%%:oooooo%:4,%:o5********OO.....",
".....OO*******X5ooo%%44%%oooooooooooooo%%44%%ooo5********OO.....",
".....    **+++;5ooo%%4,%%oooooooooooooo%%4,%%ooo5++++**    .....",
".....    **+++;5ooo%%%%44%%oooooooooo%%44%%%%ooo5++++**    .....",
".....OO       25ooo%%%%44%%oooooooooo%%44%%%%ooo5        OO.....",
".....OO       25ooooo%%%%4,%%%%%%%%%%44%%%%ooooo5        OO.....",
".....    OO***X5ooooo%%%%4,%%%%%%%%%%44%%%%o5ooo5****OO    .....",
".....    OO***X:%o5$$oo%%%%444444444,%%%%oo$$oo%:****OO    .....",
".....  OO*****X:%o5$$oo%%%%4444444444%%%%oo$$oo%:******OO  .....",
".....  OO*****X44%%ooooooo5%%%%%%%%%:oooooooo%:43******OO  .....",
".....OO******+*44::oooooooo%%%%%%%%%:oooooooo%:4,++******OO.....",
".....OO******+*444,%%oooooooooooooooooooooo%%444,++******OO.....",
".....    **++ 2,44,%%oooooooooooooooooooooo%%4443  ++**    .....",
".....    **++ 2:%%%4,%%%%oooooooooooooo%%%:4,%%%:  ++**    .....",
".....OOOO     2:%%%4,%%%%oooooooooooooo%%%:4,%%%:      OOOO.....",
".....OOOO     25o%%%%4444%%%%%%%%%%%%%:444,%%%%o5      OOOO.....",
".....OO******+;55%%%%4444%%%%%%%%%%%%%:444,%%%:55++******OO.....",
".....OO******+;:%oooo%%%%44444444444444%%%%oooo%:++******OO.....",
".....  ****++ 2:%oooo%%%%4444444444444,%%%%oooo%:  ++****  .....",
".....  ****++ 2:%%%oooooo%%%%%%%%%%%%%%oooooo%%%:  ++****  .....",
".....  ****++ 2:%%%oooooo%%%%%%%%%%%%%%oooooo%%%:  ++****  ....."
};
