/* XPM */
static char *result[] = {
/* columns rows colors chars-per-pixel */
"64 64 256 2 ",
"   c None",
".  c #0C0C2D",
"X  c #090727",
"o  c #0D0F31",
"O  c #0E1134",
"+  c #1B1B33",
"@  c #111639",
"#  c #100E2A",
"$  c #201F33",
"%  c #252336",
"&  c #282737",
"*  c #2D2C3B",
"=  c #2B2937",
"-  c #312C3D",
";  c #34343D",
":  c #38373E",
">  c #39393F",
",  c #4D483B",
"<  c #59533D",
"1  c #605A3E",
"2  c #151D43",
"3  c #162046",
"4  c #1A264D",
"5  c #1C2A54",
"6  c #1E2E59",
"7  c #1F305B",
"8  c #2E2E40",
"9  c #29314D",
"0  c #333542",
"q  c #3C3C41",
"w  c #31394E",
"e  c #28365A",
"r  c #303A52",
"t  c #1F3463",
"y  c #233966",
"u  c #253D6C",
"i  c #273962",
"p  c #423E44",
"a  c #403848",
"s  c #294373",
"d  c #2D4B7D",
"f  c #294474",
"g  c #314C7A",
"h  c #2C436D",
"j  c #544A51",
"k  c #5C5157",
"l  c #4A454E",
"z  c #695E5A",
"x  c #625B41",
"c  c #736B48",
"v  c #6A6257",
"b  c #726A43",
"n  c #4D5873",
"m  c #655D66",
"M  c #58697B",
"N  c #6B6366",
"B  c #776964",
"V  c #72746C",
"C  c #666D76",
"Z  c #6B7578",
"A  c #747D7A",
"S  c #7A767B",
"D  c #87776C",
"F  c #877B71",
"G  c #907E72",
"H  c #938A4C",
"J  c #9B914D",
"K  c #948A5C",
"L  c #898149",
"P  c #A69D51",
"I  c #ACA157",
"U  c #B4A959",
"Y  c #BEB359",
"T  c #8A8B7A",
"R  c #9C8979",
"E  c #968577",
"W  c #9C9373",
"Q  c #97967B",
"!  c #8E917B",
"~  c #A69864",
"^  c #A18D7B",
"/  c #A5927D",
"(  c #A89878",
")  c #AFA160",
"_  c #A9A47C",
"`  c #B7A97E",
"'  c #BBB37F",
"]  c #C4B85A",
"[  c #CDC25A",
"{  c #D4C85D",
"}  c #D4C85C",
"|  c #E1D55F",
" . c #E7DA61",
".. c #F2E465",
"X. c #FBED65",
"o. c #F6E964",
"O. c #FFF267",
"+. c #FFF468",
"@. c #EEE163",
"#. c #2E4E81",
"$. c #324F80",
"%. c #315286",
"&. c #32558B",
"*. c #34588E",
"=. c #3A5B8C",
"-. c #365C93",
";. c #385F95",
":. c #3A639B",
">. c #3C6399",
",. c #3B66A0",
"<. c #3E6AA5",
"1. c #3E6DAA",
"2. c #3F70AF",
"3. c #3F71B0",
"4. c #455C81",
"5. c #4A658B",
"6. c #556A85",
"7. c #5A748F",
"8. c #436B9E",
"9. c #486A95",
"0. c #4E719C",
"q. c #547599",
"w. c #657B8D",
"e. c #677484",
"r. c #767B83",
"t. c #406FAA",
"y. c #436CA1",
"u. c #4171AD",
"i. c #4375B3",
"p. c #4578B6",
"a. c #4679B8",
"s. c #6F838F",
"d. c #7A8686",
"f. c #788994",
"g. c #878883",
"h. c #9A8D85",
"j. c #8D9487",
"k. c #9B9885",
"l. c #9C969B",
"z. c #AA9580",
"x. c #AE9982",
"c. c #A6978A",
"v. c #B29C84",
"b. c #A7A384",
"n. c #B5A18A",
"m. c #BBA489",
"M. c #B8A783",
"N. c #B3B086",
"B. c #AFA59F",
"V. c #B8A998",
"C. c #C2AB8D",
"Z. c #C4BB86",
"A. c #C9BF84",
"S. c #C8B68B",
"D. c #C3AF95",
"F. c #CCB393",
"G. c #C8B49A",
"H. c #D2B996",
"J. c #D4BB98",
"K. c #D9BE99",
"L. c #D0B695",
"P. c #D3BD89",
"I. c #C1BAB8",
"U. c #CDC489",
"Y. c #CCC386",
"T. c #D4C987",
"R. c #D4CA8A",
"E. c #D9CD8A",
"W. c #D1C587",
"Q. c #DED28B",
"!. c #DCC19C",
"~. c #E2D58D",
"^. c #E6DA8F",
"/. c #E0C59E",
"(. c #E6DA91",
"). c #E9DD91",
"_. c #DBC4A5",
"`. c #E5C9A1",
"'. c #EBCEA4",
"]. c #EED1A5",
"[. c #F1D3A7",
"{. c #F3D6A9",
"}. c #F7D9AB",
"|. c #FBDDAD",
" X c #FBDEB0",
".X c #FFE0AF",
"XX c #FFE2B0",
"oX c #DEDDDE",
"OX c #C3C1C5",
"+X c #DDDEE3",
"@X c #E0DEE0",
"#X c black",
"$X c black",
"%X c black",
"&X c black",
"*X c black",
"=X c black",
"-X c black",
";X c black",
":X c black",
">X c black",
",X c black",
"<X c black",
"1X c black",
"2X c black",
"3X c black",
"4X c black",
"5X c black",
"6X c black",
"7X c black",
"8X c black",
"9X c black",
"0X c black",
"qX c black",
"wX c black",
"eX c black",
"rX c black",
"tX c black",
"yX c black",
"uX c black",
"iX c black",
"pX c black",
"aX c black",
"sX c black",
"dX c black",
"fX c black",
"gX c black",
"hX c black",
"jX c black",
"kX c black",
"lX c black",
"zX c black",
"xX c black",
"cX c black",
"vX c black",
"bX c black",
"nX c black",
"mX c black",
"MX c black",
"NX c black",
"BX c black",
"VX c black",
"CX c black",
"ZX c black",
"AX c black",
"SX c black",
"DX c black",
"FX c black",
"GX c black",
"HX c black",
"JX c black",
"KX c black",
"LX c black",
"PX c black",
"IX c black",
"UX c black",
/* pixels */
"                                                                                                                                ",
"                                                                                                                                ",
"                                                                                                                                ",
"                                                                                                                                ",
"                                                                                                                                ",
"                                                        < J [ { Y I K ,                                                         ",
"                                                    J } @.O.+.+.+.O.X. .P ,                                                     ",
"                                                  Y X.+.O.O.O.O.O.O.O.O.+.} <                                                   ",
"                                                U O.O.O.O.O.O.O.O.O.O.O.O.+.]                                                   ",
"                                              b ..O.O...U ) ]  .O.O.O.O.O.O. .1                                                 ",
"                                              ] +.O.O.U m.].H.~  .+.O.O.O.O.O.[ x                                               ",
"                        O O                 1 ..O.+.+.P P.XXXX`.( Y Y ] o.O.O.+.[                                               ",
"                  o e %.-.%.s 7 2           L +...] U K C.XX.XXX|././.S.~ X.O.O.H                                               ",
"                @ #.i.a.a.a.p.u.;.u 2       H | c F / H.|.|.[.].|.XXXXXX` } +...v                                               ",
"              X s a.p.p.p.p.p.p.a.p.,.s 2   x ~ ^ m.x.`.XX{.m.R m..X.XXX/.I O.O.} U                                             ",
"              @ :.a.p.p.p.p.p.p.p.p.p.p.:.y N |.XX}.[.|..X.X|.}.{..X.X.XXXM.] o.o.I                                             ",
"              5 t.p.p.p.p.,.p.p.p.p.p.p.a.1.r..X.X.X.X.X.X}.E '.XX|.|.|.F.K.S.K c                                               ",
"              5 u.p.p.p.p.#.<.p.p.p.p.p.p.i.5.H.XX.X.X.XXX`.R |.XX].`.XX'.F.`.B                     - q D                       ",
"              3 1.p.p.p.a.%.%.a.p.p.p.p.p.i.4.n..X.XXXXX|.|.|..XXXJ./.[.^ }.L.                    k n.v [.B                     ",
"              @ :.a.p.p.a.:.7 :.p.p.p.p.p.0.! J.XXXX[.G / |..X|.|.m.'.].v. Xh.                    E [.D '.v./ B                 ",
"                %.a.p.p.p.u.5   &.u.p.p.i.s.A.R |.XX'.S l.F.|.'.v.m.|..XXX_.l                     c.|.R K.F.v.D                 ",
"                u p.p.p.p.a.f     s 1.p.i.f.Q.W {.XX|.V.+XI.c.V.J.'..XXX}.r.s 4                   c.XXz.F.H.^ E                 ",
"                3 <.a.i.i.1.$..     ;.p.i.w.~.' ].XXXX`.B.oX@XOXh.H.XX[.g.:.p.:.5             k R E XXm.K.F.E R                 ",
"                . d t.5.r.h.n.G   u u.p.p.0.Y.T.S.].].XX!.c.G._.{.}.D.e.:.p.p.a.*.            D |./ `.].}.L.m./                 ",
"                  4 S /.|.XXXX|.v.n 1.p.p.i.g.~.Z.m.^ m.C.v.F.F.m.b.F ,.a.p.p.p.p.d           z |.H.m.XXXX|.|.^                 ",
"                  - K.XX.X.X|.XXXXH.M 1.p.p.8.b.).A.m.C.C.m./ ` R.E.Z i.p.p.p.p.p.,.u         j '.}.!..X.X.X}.^                 ",
"                    F.XX.XXXC.v.[.XXK.n i.p.i.f.(.).Q.W.U.W.E.Q.' A y.p.p.p.p.p.p.p.#.          F.XXXX|.H.|.'.G                 ",
"                    C.XX.X}.}.m.N h.h.4.i.p.i.f.).).).).Z.! A 6.9.u.p.p.p.p.p.p.p.p.:.          x.XX.X|.z.[.C.                  ",
"                    x.XXXXm.'..XS -.:.i.p.p.t.b.).).).~.e.1.i.i.p.p.p.u.<.p.p.p.p.p.u.y         ^ XXXX'.^ }.R                   ",
"                    D `.].F.m.XXL.5.a.p.p.p.0.A.).).).Y.9.a.p.p.p.p.p.;.d p.p.p.p.p.p.*.      e D.XXXX'.`.`.z                   ",
"                    j m.v.}./ ].|.e.3.p.p.i.w.~.).).).N.y.p.p.p.p.p.p.i.%.i.p.p.p.p.p.<.    d ,.e.c.D.G.B.C                     ",
"                      R R ].K.x.|.g.<.p.p.1.j.).).).).k.t.p.p.p.p.p.p.p.*.1.p.p.p.p.p.i.s f u.a.i.1.8.8.:.t                     ",
"                        m G !.z.S 6.i.p.a.:.N.).).).).g.u.p.p.p.p.p.p.a.-.:.a.p.p.p.p.u.*.u.p.p.p.p.p.a.-.                      ",
"                          l W ( d.u.a.p.p.9.U.).).).).d.i.p.p.p.p.p.p.p.<.#.p.p.p.p.p.p.p.p.p.p.p.p.p.1.s                       ",
"                          v Q.).Q.k.0.u.i.7.Q.).).).).d.i.p.p.p.p.p.p.p.p.d ,.p.p.p.p.p.p.p.p.p.p.p.i.%.                        ",
"                          z Q.).).).Z.d.9.e.~.).).).^.Z 2.p.p.p.p.p.p.p.p.:.u i.p.p.p.p.p.p.p.p.p.p.-.                          ",
"                          p R.).).).).(.R.Y.(.).).).).A 1.i.i.p.p.p.p.i.i.:.2 #.a.p.p.p.p.p.p.p.p.:.d                           ",
"                          @ V Q.).).).).).).).).).).)._ d.w.7.q.q.0.5.M C V - 3 ;.p.p.p.p.p.p.i.-.f                             ",
"                          6 %.V T.).).).).).).).).).).(.~.Q.E.E.R.U.Y.T.Q.R.j     #.,.u.u.1.;.d                                 ",
"                          3 ,.,.M _ Q.).).).).).).).).).).).).).).).).).).W.p         u u                                       ",
"                            *.a.i.>.M W A.~.).).).).).).).).).).).).).).).E.p                                                   ",
"                            s p.p.p.i.:.4.C ! ` W.~.^.).).).).).).).).).Q.( 8                                                   ",
"                            5 u.p.p.p.a.p.i.,.=.5.e.r.T ! Q Q Q Q k.j.d.M 5.u                                                   ",
"                              &.a.p.p.p.p.p.p.,.%.,.i.u.t.1.,.,.<.1.1.3.i.a.*.                                                  ",
"                              e i.p.p.p.p.p.p.p.u.%.:.p.p.p.p.p.p.p.p.p.p.a.:.                                                  ",
"                                &.p.p.p.p.p.p.p.p.i.d :.p.p.p.p.p.p.p.p.p.p.u.6                                                 ",
"                                5 <.p.p.p.p.p.p.p.p.5.i <.p.p.p.p.p.p.p.p.p.p.%.                                                ",
"                                  u i.p.p.p.p.p.p.p.;.  f p.p.p.p.p.p.p.p.p.p.i.y                                               ",
"                                    &.p.p.p.p.p.p.p.<.y   &.p.p.p.p.p.p.p.p.p.p.:.3                                             ",
"                                    4 :.a.p.p.p.p.p.p.&.    -.p.p.p.p.p.p.p.p.p.p.#..                                           ",
"                                      5 ,.a.p.p.p.p.p.u.s     ;.p.p.p.p.p.p.p.p.p.i.s o                                         ",
"                                        6 1.p.p.p.p.p.p.:.    5 :.p.p.p.p.p.p.p.p.p.p.d O                                       ",
"                                          y u.a.p.p.p.p.p.d     5 ;.p.p.p.p.p.p.p.p.p.p.%.+ #                                   ",
"                                          + i :.1.u.i.t.=.r %       &.i.p.p.p.p.p.p.p.i.h : ; $                                 ",
"                                        & : : 0 9 9 r w 0 q ;         s :.p.a.p.p.a.i.g 0 q q =                                 ",
"                                    % ; q q q q q > > ; : > *             s -.<.1.-.e ; q q q &                                 ",
"                                    & q q q q > : ; &   +                       4 * : q q q :                                   ",
"                                      & & & %                                   = q q q q q %                                   ",
"                                                                              + > q q q q &                                     ",
"                                                                              * q q q : %                                       ",
"                                                                              % & = &                                           ",
"                                                                                                                                ",
"                                                                                                                                ",
"                                                                                                                                "
};
