/* XPM */
static char *result[] = {
/* columns rows colors chars-per-pixel */
"64 64 256 2 ",
"   c None",
".  c #0B0A2A",
"X  c #100D2A",
"o  c #18162F",
"O  c #18152E",
"+  c #0D0E30",
"@  c #1E1B33",
"#  c #131739",
"$  c #0E1134",
"%  c #201F37",
"&  c #252335",
"*  c #2D2C3A",
"=  c #2A2637",
"-  c #34343D",
";  c #39393F",
":  c #38363B",
">  c #302F3D",
",  c #454139",
"<  c #474237",
"1  c #57523C",
"2  c #151D43",
"3  c #1A254C",
"4  c #1B2549",
"5  c #1C2B54",
"6  c #1E2E59",
"7  c #1F305B",
"8  c #252C49",
"9  c #2C334D",
"0  c #3A3442",
"q  c #3C3C41",
"w  c #343545",
"e  c #20335E",
"r  c #2B395B",
"t  c #393D54",
"y  c #223662",
"u  c #243A66",
"i  c #253C6A",
"p  c #433B48",
"a  c #403F50",
"s  c #37435A",
"d  c #2B416C",
"f  c #324468",
"g  c #294373",
"h  c #2C4A7B",
"j  c #294373",
"k  c #334872",
"l  c #35507B",
"z  c #4C444D",
"x  c #5B5546",
"c  c #494A57",
"v  c #544B50",
"b  c #5D5256",
"n  c #5D565D",
"m  c #50474F",
"M  c #615C45",
"N  c #6A5E5D",
"B  c #615558",
"V  c #746C49",
"C  c #6D615F",
"Z  c #6A6356",
"A  c #736B53",
"S  c #49556D",
"D  c #4A5A78",
"F  c #505E70",
"G  c #615A61",
"H  c #556578",
"J  c #4C627E",
"K  c #7B6C66",
"L  c #736562",
"P  c #787466",
"I  c #656E72",
"U  c #647179",
"Y  c #767B7F",
"T  c #847C49",
"R  c #8B7B6E",
"E  c #837669",
"W  c #897E78",
"Q  c #907F71",
"!  c #7E847A",
"~  c #9B924E",
"^  c #8D8558",
"/  c #938854",
"(  c #9C9355",
")  c #8D854A",
"_  c #A99E54",
"`  c #A1974F",
"'  c #ABA152",
"]  c #B7AC57",
"[  c #BDB256",
"{  c #8B8366",
"}  c #958A6D",
"|  c #8B8574",
" . c #928275",
".. c #9E8C79",
"X. c #978976",
"o. c #9A9777",
"O. c #9E956E",
"+. c #A3936F",
"@. c #A18E7B",
"#. c #A5927E",
"$. c #A7997B",
"%. c #ABA57C",
"&. c #A7A27A",
"*. c #B4AC7C",
"=. c #B5A878",
"-. c #BDB37D",
";. c #C4B958",
":. c #C2B77E",
">. c #D9CD5D",
",. c #D6CA5D",
"<. c #DDD15E",
"1. c #E6DA61",
"2. c #EEE165",
"3. c #FBED66",
"4. c #F3E664",
"5. c #FFF167",
"6. c #FFF368",
"7. c #2F4E81",
"8. c #315183",
"9. c #33558A",
"0. c #34588E",
"q. c #3B5C8B",
"w. c #3F5B85",
"e. c #365B92",
"r. c #3D6194",
"t. c #3B649B",
"y. c #3B649C",
"u. c #3C67A1",
"i. c #3D6AA4",
"p. c #3F6EAA",
"a. c #3763A0",
"s. c #415D84",
"d. c #486489",
"f. c #536D8C",
"g. c #5D7388",
"h. c #436A9D",
"j. c #45699A",
"k. c #517299",
"l. c #687A8C",
"z. c #406FAA",
"x. c #466FA2",
"c. c #4272AE",
"v. c #4A76AA",
"b. c #4375B3",
"n. c #4578B6",
"m. c #4679B8",
"M. c #778588",
"N. c #848C81",
"B. c #9A9C82",
"V. c #8E9585",
"C. c #AA9681",
"Z. c #AE9A82",
"A. c #A59687",
"S. c #B29D85",
"D. c #A8A886",
"F. c #B5A087",
"G. c #BBA58A",
"H. c #BEA98C",
"J. c #B2A68A",
"K. c #BCB482",
"L. c #BFBC8C",
"P. c #B8A794",
"I. c #B7B1B1",
"U. c #C4AD8E",
"Y. c #C4BA81",
"T. c #C6BE86",
"R. c #C6AF90",
"E. c #CBB493",
"W. c #C5B399",
"Q. c #D2BA97",
"!. c #D5BD9A",
"~. c #D1BB89",
"^. c #C9B9A3",
"/. c #C7BDB2",
"(. c #CDC284",
"). c #DACE89",
"_. c #D3C887",
"`. c #DDD18C",
"'. c #DCC39C",
"]. c #E2D58C",
"[. c #E5D98E",
"{. c #E1C79E",
"}. c #E9DD91",
"|. c #EDE193",
" X c #CEC6BE",
".X c #E5CBA1",
"XX c #E9CEA4",
"oX c #E0C7A1",
"OX c #EDD2A6",
"+X c #F2D6A8",
"@X c #F5D9AA",
"#X c #FADDAD",
"$X c #FDE0AF",
"%X c #FFE3B1",
"&X c #FFEAB5",
"*X c #CAC6C7",
"=X c #E7E6E8",
"-X c #F3F4F6",
";X c black",
":X c black",
">X c black",
",X c black",
"<X c black",
"1X c black",
"2X c black",
"3X c black",
"4X c black",
"5X c black",
"6X c black",
"7X c black",
"8X c black",
"9X c black",
"0X c black",
"qX c black",
"wX c black",
"eX c black",
"rX c black",
"tX c black",
"yX c black",
"uX c black",
"iX c black",
"pX c black",
"aX c black",
"sX c black",
"dX c black",
"fX c black",
"gX c black",
"hX c black",
"jX c black",
"kX c black",
"lX c black",
"zX c black",
"xX c black",
"cX c black",
"vX c black",
"bX c black",
"nX c black",
"mX c black",
"MX c black",
"NX c black",
"BX c black",
"VX c black",
"CX c black",
"ZX c black",
"AX c black",
"SX c black",
"DX c black",
"FX c black",
"GX c black",
"HX c black",
"JX c black",
"KX c black",
"LX c black",
"PX c black",
"IX c black",
"UX c black",
/* pixels */
"                                                                                                                                ",
"                                                                                                                                ",
"                                                                                                                                ",
"                                                                                                                                ",
"                                                                                                                                ",
"                                                          x T ( ^ M                                                             ",
"                                                    , ~ ;.1.3.5.6.2.>.;.~ <                                                     ",
"                                                  V >.5.6.5.5.5.5.5.6.6.5.>.1                                                   ",
"                                                ^ 4.5.5.5.5.5.5.5.5.5.5.5.6.] =                                                 ",
"                                              M 2.5.3.5.5.5.5.5.5.5.5.5.5.5.3.`                                                 ",
"                                              ~ 6.3.1.2.5.5.5.6.5.5.5.3.3.5.6.3.)                                               ",
"                                            , <.6.' _ 1.5.5.,._ [ 4.1.( / 1.,.3.[                                               ",
"                                            M 3.3.T <.5.6.;.+.E.$.=.=.E.E.+.^ >.;.o                                             ",
"                                            , ;._ V ' ,.] +.+X%X%X%X%X%X%X+X~./ M                                               ",
"                                            : x R C.$. .Z.+X$X$X.XH.E..X$X@XE.K z                                               ",
"                                              A #X#XU.#.'.%X$X$XQ.H.'.XX$X$X#X.X'.L                                             ",
"                                              m XX@X.X.X+X$X#X$X%XXXQ.%X$X$X$X$X@XN     6 u i j j g h g j i                     ",
"                                                Q.%X%X .E.%XE.+X%XS.E %X$X$X#X$XOXS 9.y.z.b.b.n.n.m.b.i.n.b.u.u                 ",
"                                                S.%X%XC.E.%XS..X%X.X'.$X$X$X$X#XA.j.m.n.n.n.n.n.n.b.e.p.n.n.m.i.                ",
"                    = @                         C @X$X#X#X%XF.G.#X%X@X@X%X$X%X'.a t.m.n.n.n.n.n.b.8.t.m.n.n.n.b.g               ",
"          o  .X.= b !.H.p                   7 h k U.%X$X$X@X.XG.OX+XP.W E.$X%XJ.P q.m.n.n.n.n.n.e.h n.n.n.n.n.n.9.              ",
"          b @X%XQ E %X%XE.*           e 7.t.c.m.8.N OX%XOXW P.^.^. X=XI.H.%X'.} %.r.n.n.n.n.n.c.y u.m.n.m.n.n.m.9.              ",
"        X m OX%X.XC R.'.Z.N E.N + j e.c.n.n.n.m.q.{  .XX@XA.*X=X-X-X*XW.$X'.E (.D.u.n.n.n.n.b.h 6 y.h.h.y.i.b.m.e.              ",
"      p S......X.XC m X.R ..&XZ.e b.m.n.n.n.n.m.y.&.-.E H.OX!./.I.^.oX+XF.b O.}.l.p.n.n.n.t.3 z  .P.W.W.J.W D i.t.              ",
"       .%X%XQ.Z.#.H.XX%X!.@.@X$.3 i.n.n.n.n.n.n.b.l.[._.}  ...C.Q #.S.K v } [.K.w.b.n.n.b.u L XX%X%X$X%X%X$X{.Y h               ",
"        E.OXE.OX$X%X$X$X$XR.Z.!.w u z.n.n.n.n.n.n.h.| ].|.).%.{ E @.$.=.(.}.:.F p.n.n.m.t.G @X%X%XQ.OX$X$X$X%XOXn               ",
"          p K @X$X$X#X$X$X$X#XE.f e.7.b.n.n.n.n.n.n.t.I %.).|.|.}.}.}.}.}.*.S i.m.n.n.n.u.c #.Z.E R #X$X$X$X$X%XS.              ",
"            L OX%X%X%X'.'.OXW.l.p.m.e.y.n.n.n.n.n.n.n.p.q.F P *.}.}.}.}.}.o.t.m.n.n.n.n.b.0.3 O @ H.%X#X#X$X@X+XH.              ",
"            @ z #.U.U.K t D j.b.n.n.b.i.n.n.b.u.b.n.n.n.n.b.a.H `.}.}.}.}.Y.d.n.n.n.n.n.n.m.0.. b @X%XQ.{.%X'.E.H.              ",
"              2 6 k d h t.b.n.n.n.n.n.n.m.i.i h n.n.n.n.n.n.m.k.(.}.}.}.}.].I b.n.n.n.n.n.n.u.# G.%X.XX.OX%XF.R.G.              ",
"                  u t.m.m.n.n.n.n.m.m.b.9.5 # t.m.n.n.n.n.n.m.j.K.}.}.}.}.}.o.h.n.n.n.n.n.n.c.4 R H.L U.%X@XQ .XQ               ",
"                    # u 0.z.b.n.c.t.h 7     y c.n.n.n.n.n.n.m.h.%.}.}.}.}.}.-.d.m.n.n.n.n.n.b.7 X O 0 E..X@.R H.p               ",
"                        + 2 7 y 3 $         h b.n.n.n.n.n.n.m.y.o.}.}.}.}.}.).g.b.n.n.n.n.m.b.y       0 B                       ",
"                                            e.m.n.n.n.n.n.n.m.y.o.}.}.}.}.}.[.M.b.m.n.b.p.y.s.9                                 ",
"                                            9.b.b.n.m.m.m.m.m.u.$.}.}.}.}.}.}.N.t.r.d.U ! o.K.Z                                 ",
"                                          q } V.M.g.f.f.d.s.s.D *.}.}.}.}.}.}.Y.&.*.(.].}.}.}.P                                 ",
"                                          m ).}.].).(.:.*.*.-.(.].}.}.}.}.}.}.}.}.}.}.}.}.}.}.E                                 ",
"                                          b `.}.}.}.}.}.}.}.}.}.}.}.}.}.}.}.}.}.}.}.}.}.}.}.}.P                                 ",
"                                          Z [.}.}.}.}.}.}.}.}.}.}.}.}.}.}.}.}.}.}.}.}.}.}.).B.t                                 ",
"                                          c &.Y._.].}.}.}.}.}.}.}.}.}.}.}.}.}.[.).T.*.$.N.f.u.y                                 ",
"                                          e h.d.J U ! o.o.&.&.J.K.K.T.L.D.B.! I H s.q.u.b.b.b.y                                 ",
"                                          7 b.m.b.b.b.p.u.y.r.t.h.x.v.v.c.c.p.b.b.n.m.n.n.n.i.5                                 ",
"                                          5 b.n.n.n.n.n.n.m.m.m.n.n.n.m.n.n.n.n.n.n.n.n.n.m.t.                                  ",
"                                          5 c.n.n.n.n.n.n.n.n.n.n.n.c.0.p.n.n.n.n.n.n.n.n.m.0.                                  ",
"                                          e b.n.n.n.n.n.n.n.n.n.n.p.i 0.b.n.n.n.n.n.n.n.n.n.h                                   ",
"                                          i b.n.n.n.n.n.n.n.n.n.c.e 5 b.n.n.n.n.n.n.n.n.n.b.i                                   ",
"                                          h n.n.n.n.n.n.n.n.n.b.g   3 z.n.n.n.n.n.n.n.n.n.u.                                    ",
"                                          8.m.n.n.n.n.n.n.n.m.0.$   2 i.n.n.n.n.n.n.n.n.n.9.                                    ",
"                                          0.m.n.n.n.n.n.n.n.c.5     2 u.n.n.n.n.n.n.n.n.c.u                                     ",
"                                        3 i.n.n.n.n.n.n.n.m.9.      2 i.n.n.n.n.n.n.n.m.0.                                      ",
"                                        j b.n.n.n.n.n.n.n.c.6       3 z.n.n.n.n.n.n.n.b.y                                       ",
"                                        e.m.n.n.n.n.n.n.n.h         y b.n.n.n.n.n.n.m.e.#                                       ",
"                                      6 c.n.n.n.n.n.n.n.u.2         j n.n.n.n.n.n.n.b.e                                         ",
"                                      j m.n.n.n.n.n.n.b.u           h m.n.n.n.n.n.m.7.                                          ",
"                                    . 8 t.b.m.n.n.n.m.9.$           d c.m.m.m.m.n.y.4                                           ",
"                                    o - w f e.z.b.b.i.6             = s l 9.0.8.f 8 X                                           ",
"                                    @ q q ; w 9 r r 4 +             & - ; - - - ; q &                                           ",
"                                    @ > - q q q ; ; ; =               X = q q q q q *                                           ",
"                                        % * ; q q q q ; &                 o = * * = o                                           ",
"                                            o & = * = @                                                                         ",
"                                                                                                                                ",
"                                                                                                                                ",
"                                                                                                                                ",
"                                                                                                                                "
};
