/* XPM */
static char *result[] = {
/* columns rows colors chars-per-pixel */
"64 64 256 2 ",
"   c None",
".  c #0C0B2B",
"X  c #14112C",
"o  c #0D0F31",
"O  c #0F1133",
"+  c #1E1C32",
"@  c #13193D",
"#  c #141635",
"$  c #201F33",
"%  c #252335",
"&  c #2C2A3A",
"*  c #292837",
"=  c #353134",
"-  c #34343D",
";  c #3A393E",
":  c #3C3634",
">  c #312B3D",
",  c #433E37",
"<  c #524D3B",
"1  c #141C42",
"2  c #19254C",
"3  c #1F284C",
"4  c #1B2952",
"5  c #1E2F59",
"6  c #1F305B",
"7  c #262B44",
"8  c #2A324C",
"9  c #3C3C41",
"0  c #373748",
"q  c #20325E",
"w  c #2E3A5C",
"e  c #2C3754",
"r  c #362F40",
"t  c #213561",
"y  c #253C6B",
"u  c #263B67",
"i  c #433A47",
"p  c #27406F",
"a  c #2F4368",
"s  c #294373",
"d  c #2A4778",
"f  c #2D4B7D",
"g  c #334A6F",
"h  c #474656",
"j  c #554C53",
"k  c #534D4E",
"l  c #665A5B",
"z  c #726B48",
"x  c #776F4D",
"c  c #535C79",
"v  c #50576D",
"b  c #4F637D",
"n  c #576578",
"m  c #696565",
"M  c #756764",
"N  c #757466",
"B  c #656A76",
"V  c #72787E",
"C  c #756F73",
"Z  c #807847",
"A  c #83736A",
"S  c #8A796E",
"D  c #887D7A",
"F  c #79827F",
"G  c #8C844C",
"H  c #968D4D",
"J  c #958B55",
"K  c #AA9E5C",
"L  c #ADA352",
"P  c #B6AB59",
"I  c #BEB25C",
"U  c #958B6B",
"Y  c #92876D",
"T  c #888979",
"R  c #958374",
"E  c #9D8A7A",
"W  c #9D8B72",
"Q  c #979679",
"!  c #9F9760",
"~  c #A59666",
"^  c #A28F78",
"/  c #A69B73",
"(  c #A7937E",
")  c #A79779",
"_  c #B39F7D",
"`  c #B3AA7A",
"'  c #B4AB7A",
"]  c #B0A66A",
"[  c #C6BA5C",
"{  c #C2B872",
"}  c #CDC25B",
"|  c #D3C75C",
" . c #D6C95D",
".. c #D8CC5E",
"X. c #CCC167",
"o. c #E6DA64",
"O. c #F3E664",
"+. c #FBEE66",
"@. c #F9EB67",
"#. c #FFF267",
"$. c #FFF468",
"%. c #EDE064",
"&. c #2F4F82",
"*. c #315285",
"=. c #33558A",
"-. c #35598E",
";. c #365C93",
":. c #385F95",
">. c #2F5084",
",. c #3D6193",
"<. c #3B649C",
"1. c #3F689E",
"2. c #3C67A0",
"3. c #3E6BA5",
"4. c #3F6EAA",
"5. c #3F70AE",
"6. c #415F88",
"7. c #4C6484",
"8. c #486388",
"9. c #546884",
"0. c #5A728B",
"q. c #4A6A93",
"w. c #43699B",
"e. c #4A6E9B",
"r. c #557293",
"t. c #52749B",
"y. c #5B7999",
"u. c #4F729B",
"i. c #697D8C",
"p. c #647484",
"a. c #707684",
"s. c #406FAA",
"d. c #436DA3",
"f. c #4271AD",
"g. c #4375B3",
"h. c #4578B6",
"j. c #4679B8",
"k. c #7B8683",
"l. c #708188",
"z. c #868883",
"x. c #948981",
"c. c #9A9B86",
"v. c #8B8D8D",
"b. c #A59585",
"n. c #AA9682",
"m. c #AE9A83",
"M. c #A7988B",
"N. c #B49E86",
"B. c #A29990",
"V. c #A2A183",
"C. c #A9A986",
"Z. c #B6A285",
"A. c #B3A18D",
"S. c #BBA589",
"D. c #BFA98B",
"F. c #BDAA83",
"G. c #B7B285",
"H. c #B6A794",
"J. c #ADA7A8",
"K. c #C3AC8D",
"L. c #C4BC85",
"P. c #C4AE90",
"I. c #CCB494",
"U. c #C3B296",
"Y. c #D2B996",
"T. c #D6BD99",
"R. c #D3BA96",
"E. c #CCC285",
"W. c #CCC489",
"Q. c #C6C08B",
"!. c #D0C48A",
"~. c #D5C98A",
"^. c #D9CE8A",
"/. c #D3C786",
"(. c #DDD18B",
"). c #DCC29C",
"_. c #D8CC91",
"`. c #DBD090",
"'. c #E2D68D",
"]. c #E5D98F",
"[. c #E8DB8F",
"{. c #E1C69E",
"}. c #E4CA9E",
"|. c #E9DD91",
" X c #E3D891",
".X c #ECE093",
"XX c #D4C1A6",
"oX c #E6CBA1",
"OX c #E6CCA3",
"+X c #EDD1A5",
"@X c #F2D6A9",
"#X c #F6D9AA",
"$X c #FBDDAD",
"%X c #F0D4A7",
"&X c #FFE1AF",
"*X c #FFE3B0",
"=X c #C1BEC1",
"-X c #D7D7DC",
";X c #C6C1C2",
":X c #E7E7EA",
">X c black",
",X c black",
"<X c black",
"1X c black",
"2X c black",
"3X c black",
"4X c black",
"5X c black",
"6X c black",
"7X c black",
"8X c black",
"9X c black",
"0X c black",
"qX c black",
"wX c black",
"eX c black",
"rX c black",
"tX c black",
"yX c black",
"uX c black",
"iX c black",
"pX c black",
"aX c black",
"sX c black",
"dX c black",
"fX c black",
"gX c black",
"hX c black",
"jX c black",
"kX c black",
"lX c black",
"zX c black",
"xX c black",
"cX c black",
"vX c black",
"bX c black",
"nX c black",
"mX c black",
"MX c black",
"NX c black",
"BX c black",
"VX c black",
"CX c black",
"ZX c black",
"AX c black",
"SX c black",
"DX c black",
"FX c black",
"GX c black",
"HX c black",
"JX c black",
"KX c black",
"LX c black",
"PX c black",
"IX c black",
"UX c black",
/* pixels */
"                                                                                                                                ",
"                                                                                                                                ",
"                                                                                                                                ",
"                                                                                                                                ",
"                                                                                                                                ",
"                                                      = z J P [ | P z <                                                         ",
"                                                  = G  .O.#.$.$.$.#.@.o.[ x                                                     ",
"                                                = L #.$.#.#.#.#.#.#.#.#.$.%.H                                                   ",
"                                                H #.#.#.#.#.#.#.#.#.#.#.#.#.O.Z                                                 ",
"                                                } $.#.#.#.#.#.+.| P K } #.#.#.| ,                                               ",
"                                              P +.#.#.#.#.$.+.P Z.}.OXU o.#.#.#.G                                               ",
"                                            L $.#.#.+...I [ K K.&X*X&XW ..$.#.$.} =                 O o                         ",
"                                            z O.#.#.[ _ {.).+X*X*X&X#XW K I  .+.O.<           1 q s =.;.*.t o                   ",
"                                            ;  .$.O.~ #X*X*X&X@X+X#X&X%XD.^ x H o.<       2 s <.f.h.j.j.j.g.*.@                 ",
"                                          ! X.@.$.[ F.*X&X*XoXR n.T.*X$XP.N.N.^ J :   2 f 4.h.j.h.h.h.h.h.h.j.d .               ",
"                                          U o.+. .~ @X*X&X*X$X#X$X&X&X&X#X@X$X*X{.0 d 4.j.h.h.h.h.h.h.h.h.h.h.3.1               ",
"                                            x G Z.).K.@X&X$X&X*Xm.K.*X*X&X&X&X*X+X7.g.h.h.h.h.h.h.g.2.g.h.h.h.f.5               ",
"                  r A r >                     j XXY.).$X#X).&X*XI.n.*X*X&X&X&X&Xb.<.h.h.h.h.h.h.h.<.&.h.h.h.h.g.6               ",
"                i S %Xl S.j                     M.*XN.I.$XK.$X&X&X$X$X&X*X&X&X#XT q.h.h.h.h.h.h.j.f -.j.h.h.h.f.2               ",
"              M E K.oXA #XA                     m @XI.I.*XS.oX$X&X*X{.A S.&X&X*XZ.T f.h.h.h.h.g.<.6 3.h.h.h.h.2.@               ",
"              R ( ).I.E &XS                       m.*X*X*X).n.I.&X+XM.v.x.*X*XoXY W.t.h.h.h.s.*.  q g.h.h.h.j.=.                ",
"              E R {.K.m.*XE                     y v ).*X&X#X).I.A.J.-X=X).*X*X)./ `.y.g.h.2.y     f j.h.h.h.h.p                 ",
"              ( S ).Y.D.*XR R l               =.g.4.p.).*X+Xb.J.-X:X;XH.$X*X*XR.E.Q.e.h.h.=.    O =.f.g.g.j.s.2                 ",
"              m.Z.).#X+XoX^ $XR             f h.h.h.4.9.b.OX$XOXXXA.N.$X&XOX+XF.].c.s.h.h.3.    R A.c.a.7.4.>..                 ",
"              b.&X$X*X*XZ.Y.*XM           u f.h.h.h.h.g.n / _ K.I.K.Z.K.n.n.D././.0.g.h.j.<.v K.&X*X&X$X).V 4                   ",
"              b.&X&X&X&X).#X+Xj           ;.j.h.h.g.h.h.q.' (.L./ m.D.K.P.P._.].k.f.h.h.<.B oX*X&X$X&X&X*XT.&                   ",
"              D @X#XY.*X*X*XY.          u f.h.h.h.h.h.h.g.7.Q Q.(./.!.!.~. X|.W.t.h.h.4.B +X*X+Xn.I.*X&X*XY.                    ",
"                I.+Xm.*X&X*XN.          *.h.h.h.h.h.h.h.h.g.2.8.p.T V.(.|.|.|./.y.g.h.f.n b.x.m K.$X#X&X*XI.                    ",
"                n.#XE %X*X*X(           3.h.h.h.h.h.f.4.g.h.h.h.g.4.1.C.|.|.|.].k.g.h.h.f.1.=.x.*X{.D.*X*XA.                    ",
"                M @X{.+X*X*XI.w       f g.h.h.h.h.j.;.f g.h.h.h.h.h.g.z.|.|.|.|.V.f.h.h.h.h.7.oX*XN.T.+XoXD                     ",
"                  D H.H.H.B.p.2.*.    <.h.h.h.h.h.h.-.2.h.h.h.h.h.h.g.i.'.|.|.|.E.t.j.h.h.4.z.*XoX( $Xn.D.j                     ",
"                  u 1.1.1.3.g.j.g.f t f.h.h.h.h.h.g.=.f.h.h.h.h.h.h.h.r.~.|.|.|.].l.g.h.j.<.A.$X( {.OXE E                       ",
"                    :.j.h.h.h.h.h.f.-.s.h.h.h.h.h.s.&.g.h.h.h.h.h.h.j.e.L.|.|.|.|.c.s.h.h.f.p.C N.).A l                         ",
"                    y s.h.h.h.h.h.h.h.g.h.h.h.h.j.;.-.j.h.h.h.h.h.h.h.w.G.|.|.|.|.G.d.h.h.g.d.k./ Y                             ",
"                      &.g.h.h.h.h.h.h.h.h.h.h.h.g.d s.h.h.h.h.h.h.h.h.w.G.|.|.|.|.L.w.g.f.y.C.].|.~.k                           ",
"                        ;.h.h.h.h.h.h.h.h.h.h.h.&.f j.h.h.h.h.h.h.h.j.,.` |.|.|.|.W.0.i.c.~.|.|.|.^.k                           ",
"                          :.h.h.h.h.h.h.h.h.j.<.1 &.g.g.h.h.h.h.g.g.h.,.' |.|.|.|.'.E.(.|.|.|.|.|./.;                           ",
"                            -.f.h.h.h.h.h.h.3.5 X m B b 8.q.u.t.r.0.i.F ~.|.|.|.|.|.|.|.|.|.|.|.(.N @                           ",
"                              f ;.3.f.g.3.=.5   + ` ].~.E.E.W.~.^.^.'.].|.|.|.|.|.|.|.|.|.|.|.E.B =.4                           ",
"                                      s           / .X|.|.|.|.|.|.|.|.|.|.|.|.|.|.|.|.|.|.^.Q b 4.<.@                           ",
"                                                + ` .X|.|.|.|.|.|.|.|.|.|.|.|.|.|.|.(.{ T n <.g.j.*.                            ",
"                                                # N /.].|.|.|.|.|.|.|.|.[.].(.E.` T n 6.2.g.h.h.g.y                             ",
"                                                4 ;.7.V z.c.V.Q Q Q Q T F p.0.8.,.4.g.j.j.h.h.h.4.3                             ",
"                                                s h.h.g.4.s.4.3.3.3.4.4.g.g.;.-.f.h.h.h.h.h.h.j.&.                              ",
"                                                &.j.h.h.h.h.h.h.h.h.h.h.g.*.;.g.h.h.h.h.h.h.h.s.4                               ",
"                                              1 <.h.h.h.h.h.h.h.h.h.h.g.*.;.h.h.h.h.h.h.h.h.h.f                                 ",
"                                              p g.h.h.h.h.h.h.h.h.h.h.=.c f.h.h.h.h.h.h.h.j.<.2                                 ",
"                                            4 3.h.h.h.h.h.h.h.h.h.h.2.4 c f.h.h.h.h.h.h.h.f.q                                   ",
"                                          O -.j.h.h.h.h.h.h.h.h.h.s.u   f g.h.h.h.h.h.h.g.f                                     ",
"                                          y g.h.h.h.h.h.h.h.h.h.f.y   t 3.h.h.h.h.h.h.h.-.                                      ",
"                                      . t f.h.h.h.h.h.h.h.h.h.f.p     =.h.h.h.h.h.h.h.;.3                                       ",
"                                    o y g.h.h.h.h.h.h.h.h.h.f.s     s g.h.h.h.h.h.h.:.2                                         ",
"                                . # f g.h.h.h.h.h.h.h.h.h.s.s     2 2.j.h.h.h.h.j.1.w                                           ",
"                              + - - w f.h.h.h.h.h.h.h.h.2.u       7 g 3.g.g.f.4.:.e h                                           ",
"                              * 9 9 - a 4.j.h.h.j.h.3.&.4       h 9 ; 0 e e 8 8 0 ; - %                                         ",
"                              $ ; 9 9 - e =.3.4.<.f 5           h - ; - - ; ; 9 9 9 9 9 - +                                     ",
"                                - 9 9 9 ; & 7 4                     +     & - - ; 9 9 9 - %                                     ",
"                                $ 9 9 9 9 9 -                                   $ * * *                                         ",
"                                  % ; 9 9 9 9 *                                                                                 ",
"                                    + - 9 9 9 - X                                                                               ",
"                                        % * * +                                                                                 ",
"                                                                                                                                ",
"                                                                                                                                ",
"                                                                                                                                "
};
