/* XPM */
static char *result[] = {
/* columns rows colors chars-per-pixel */
"64 64 256 2 ",
"   c None",
".  c #0C0B2B",
"X  c #080627",
"o  c #13122D",
"O  c #19162C",
"+  c #0F1235",
"@  c #1C1A31",
"#  c #13183B",
"$  c #0C0E31",
"%  c #211F32",
"&  c #252335",
"*  c #292339",
"=  c #2D2C39",
"-  c #272539",
";  c #332C3E",
":  c #332F32",
">  c #35343D",
",  c #3B393D",
"<  c #363438",
"1  c #403C3A",
"2  c #151E44",
"3  c #1D2343",
"4  c #1A264E",
"5  c #162048",
"6  c #1C2A54",
"7  c #1D2C56",
"8  c #1F305B",
"9  c #232D4D",
"0  c #252941",
"q  c #362F40",
"w  c #3D3D41",
"e  c #3A3343",
"r  c #222E53",
"t  c #21335F",
"y  c #253154",
"u  c #3B3D55",
"i  c #223764",
"p  c #263E6C",
"a  c #233865",
"s  c #423A45",
"d  c #463D4A",
"f  c #3A425E",
"g  c #364567",
"h  c #264273",
"j  c #294474",
"k  c #2D4B7D",
"l  c #354B73",
"z  c #36507E",
"x  c #4C4549",
"c  c #58534D",
"v  c #544C53",
"b  c #594E53",
"n  c #5D5255",
"m  c #555657",
"M  c #4A4452",
"N  c #66595A",
"B  c #695D5C",
"V  c #635956",
"C  c #655E45",
"Z  c #6B6441",
"A  c #766E44",
"S  c #797245",
"D  c #66645C",
"F  c #726D5E",
"G  c #78735F",
"H  c #445C7E",
"J  c #454B66",
"K  c #655E67",
"L  c #5E6468",
"P  c #546375",
"I  c #6A6765",
"U  c #746664",
"Y  c #766865",
"T  c #7A6B65",
"R  c #747263",
"E  c #7B7663",
"W  c #7B776B",
"Q  c #686872",
"!  c #6B7272",
"~  c #7E7A7C",
"^  c #847C47",
"/  c #837C64",
"(  c #84746C",
")  c #857A6A",
"_  c #8A7B70",
"`  c #7E8072",
"'  c #8D844A",
"]  c #9C934E",
"[  c #9C9251",
"{  c #958A52",
"}  c #A59B50",
"|  c #A79C52",
" . c #B8AD56",
".. c #BFB457",
"X. c #878166",
"o. c #8C856A",
"O. c #89846A",
"+. c #938C6C",
"@. c #978A67",
"#. c #9B926F",
"$. c #9A9068",
"%. c #8B8877",
"&. c #958374",
"*. c #9A8B75",
"=. c #9A9573",
"-. c #999473",
";. c #A6956E",
":. c #A28E7B",
">. c #A29C75",
",. c #A5917D",
"<. c #A99877",
"1. c #B19E79",
"2. c #ACA579",
"3. c #B0A776",
"4. c #B1A97B",
"5. c #BEB47D",
"6. c #B7A867",
"7. c #C2B77F",
"8. c #D6CA5D",
"9. c #DED25E",
"0. c #E2D65F",
"q. c #D1C661",
"w. c #E5D860",
"e. c #FAED66",
"r. c #F4E664",
"t. c #FFF167",
"y. c #FFF468",
"u. c #EDE062",
"i. c #2E4D81",
"p. c #2F5083",
"a. c #315285",
"s. c #32558B",
"d. c #35598F",
"f. c #3C5A85",
"g. c #365C93",
"h. c #395F95",
"j. c #365F99",
"k. c #3A6096",
"l. c #37609A",
"z. c #3A639B",
"x. c #3B66A1",
"c. c #3D6AA4",
"v. c #3E6DAA",
"b. c #3F71AF",
"n. c #3F71B1",
"m. c #456289",
"M. c #406FAA",
"N. c #4171AE",
"B. c #4375B2",
"V. c #4578B6",
"C. c #467AB8",
"Z. c #9A9292",
"A. c #AC9985",
"S. c #B39E85",
"D. c #B7A187",
"F. c #BBA589",
"G. c #B8A489",
"H. c #B4A598",
"J. c #B4A98A",
"K. c #BBB4B1",
"L. c #C2AB8D",
"P. c #C5BB81",
"I. c #CBB392",
"U. c #C7B090",
"Y. c #D3BA96",
"T. c #D5BC98",
"R. c #D9BF99",
"E. c #D0B795",
"W. c #C7AF90",
"Q. c #C1B6AD",
"!. c #CEC485",
"~. c #D6CA88",
"^. c #DED28C",
"/. c #DCC29C",
"(. c #D9C096",
"). c #E5D98F",
"_. c #E3D68D",
"`. c #E1C69E",
"'. c #E4C89F",
"]. c #E9DD92",
"[. c #ECE093",
"{. c #E5CAA0",
"}. c #EACEA3",
"|. c #E7CEA9",
" X c #EDD1A5",
".X c #F3D6A8",
"XX c #F6D9AA",
"oX c #FBDDAD",
"OX c #F1D4A7",
"+X c #FFE1AF",
"@X c #FFE4B1",
"#X c #C6C4C9",
"$X c #DEDEE3",
"%X c #E1E1E6",
"&X c black",
"*X c black",
"=X c black",
"-X c black",
";X c black",
":X c black",
">X c black",
",X c black",
"<X c black",
"1X c black",
"2X c black",
"3X c black",
"4X c black",
"5X c black",
"6X c black",
"7X c black",
"8X c black",
"9X c black",
"0X c black",
"qX c black",
"wX c black",
"eX c black",
"rX c black",
"tX c black",
"yX c black",
"uX c black",
"iX c black",
"pX c black",
"aX c black",
"sX c black",
"dX c black",
"fX c black",
"gX c black",
"hX c black",
"jX c black",
"kX c black",
"lX c black",
"zX c black",
"xX c black",
"cX c black",
"vX c black",
"bX c black",
"nX c black",
"mX c black",
"MX c black",
"NX c black",
"BX c black",
"VX c black",
"CX c black",
"ZX c black",
"AX c black",
"SX c black",
"DX c black",
"FX c black",
"GX c black",
"HX c black",
"JX c black",
"KX c black",
"LX c black",
"PX c black",
"IX c black",
"UX c black",
/* pixels */
"                                                                                                                                ",
"                                                                                                                                ",
"                                                                                                                                ",
"                                                                                                                                ",
"                                                                                                                                ",
"                                                                                                                                ",
"                                                      A ' A  .w.w.] S ' Z                                                       ",
"                                                  : ..r.e.t.y.t.t.t.e.e.u.| O                                                   ",
"                                                , } t.t.t.t.t.t.t.t.t.t.t.r.' :                                                 ",
"                                              1 q.y.t.t.t.t.e.8.r.t.t.t.t.t.y. .                                                ",
"                                              ^ t.e.e.t.t.t.w.8.0.t.y.t.t.e.t.r.Z                                               ",
"                                              | } [ [ w.r.0.e.y.e.0.9.e.8.{ [ | ]                                               ",
"                                              ^ C F.(.;.$.1.6. .} o.;.$.<.`.;.Z S                                               ",
"                                              & n  X@XoXXX@X XI.Y.XX@XXX+X@X(.x &                                               ",
"                                              s S.XX+X XY.`.+X@X@XoXR.R..X@X X:.;                                               ",
"                                              v I.+XXXD.:.:.XX+X@X{.&.,.L.+XoXG.x                                               ",
"                                            N T {.@X+X+X XXX+X+X+X+X.X.X+X+X@XY.U                                               ",
"                                            N N /.@X+XoXY E.@X XoX@X:.&.@X+X@XL.V                                               ",
"                                              q G.@X+X+XL.}.@XI.}.@XR.Y.@X+X@X&.;                                               ",
"                    2 6 i j k i.s.g.h.k.k.h.g x ( @X+X+X@X@X@XG./.@X@X@X+X+XoXB c l h.k.k.h.g.s.a.k j a 6 2                     ",
"                t s.x.B.N.M.C.C.C.C.C.C.C.C.m.3.V }.@X+XI.L.XXS.I..XD./.@X@XY.V 3.m.C.C.C.C.C.C.C.C.M.M.B.c.d.i                 ",
"              i g.i.h p j h v.V.V.V.V.V.V.C.f.5.+.,.@XI.K Z.H.S.D.H.Z.K {.@X_ 3.2.h.C.V.V.V.V.V.V.M.h j p h i.g.p               ",
"            $ 2 3 d W &.Y u k C.V.V.V.V.V.V.z.%.^.E L./.Z.#X%X%X%X$XK.A.|.H.=.).W c.V.V.V.V.V.V.V.i.u U &.( M 3 5 +             ",
"            @ B L.OX@X@X@X'.Q x.V.V.V.V.V.V.B.P ~.~./ A.}.I.H.Q.K.H.Y./.%.+.].7.H V.V.V.V.V.V.V.x.~ '.+X@X@X.XW.T * X           ",
"          ; F.+X@XoX+X+X`.XX/.Q k.V.V.V.V.V.V.x.! ^.).3.o.S.I.S.L.D.&./ 3.].!.P v.V.V.V.V.V.V.k.Q {.oX/.+X+XoX@X@XY.d           ",
"          ,.oX X.XD.oX@XF.U.@XY.g B.C.C.V.V.V.V.z.! P.].^.5.>.#.#.#.7.).].4.P c.V.V.V.V.C.C.B.f R.@XI.&.@X+XF. X.XoXI.;         ",
"        b  X/.}.I.,.@X@X&.e Y d 4 s.d.z.B.V.V.V.V.v.H ` J.^.].].].[.~.2.! f.N.V.V.V.V.N.k.d.a.5 s B q T @X@XS.F.XX/.oX(         ",
"        &.oXI.@X,.D.@X}.n             6 g.C.V.V.V.V.V.v.f.X.].].].].%.z.v.V.V.V.V.V.V.s.5             x /.oXS.&.@XF.}.I.        ",
"        _  X_ /.S.n *.U                 k.C.V.V.V.V.V.C.j.E ].].].).! n.V.V.V.V.V.V.C.g.                d n e &.R.T R.I.;       ",
"        ; n ; s v                     4 c.V.V.V.V.V.V.V.z.X.].].]._.L b.V.V.V.V.V.V.C.z.                      ; * * _ B         ",
"                                      8 N.V.V.V.V.V.V.C.k.O.].].].).L v.V.V.V.V.V.V.V.v.4                                       ",
"                                      i V.V.V.V.V.V.V.C.g.o.].].].).L v.V.V.V.V.V.V.V.B.8                                       ",
"                                      p C.C.C.C.C.C.C.C.s.X.].].].).m c.C.C.C.C.C.C.C.V.a                                       ",
"                                      p l.g.s.s.s.s.d.k.l o.].].].).D s.k.s.s.s.s.s.g.l.i                                       ",
"                                    - D R F E / X.o.+.>.4.~.].].].].P.2.>.+.o./ E G F R v                                       ",
"                                    c P.[.].].].].].].].].].].].].].].].[.[.[.].].].].[.5.*                                     ",
"                                    I ~.].].].].].].].].].].].].].].].].].].].].].].].].!.s                                     ",
"                                    W ).[.].].].].].].].].].].].].].].].].].].].].].].].~.x                                     ",
"                                    v #.-.-.-.-.-.o.X.W / +.-.>.=.#.+.X./ / E D I E E F c -                                     ",
"                                    g s.g.h.k.z.z.z.z.z.k.z.k.k.g.s.s.s.s.g.j.l.l.z.l.g.i.t                                     ",
"                                    z C.C.C.C.V.V.V.V.V.C.C.C.C.C.C.C.C.C.C.C.C.V.V.C.C.V.k                                     ",
"                                    j V.V.V.V.V.V.V.V.V.V.V.V.V.V.V.V.V.V.V.V.V.V.V.V.V.V.k                                     ",
"                                    j C.V.V.V.V.V.V.V.V.V.V.V.B.B.V.V.V.V.V.V.V.V.V.V.V.V.j                                     ",
"                                    h C.V.V.V.V.V.V.V.V.V.V.V.a.k.C.V.V.V.V.V.V.V.V.V.V.V.h                                     ",
"                                    h V.V.V.V.V.V.V.V.V.V.V.V.8 k C.V.V.V.V.V.V.V.V.V.V.V.p                                     ",
"                                    8 B.V.V.V.V.V.V.V.V.V.V.c.5 i B.V.V.V.V.V.V.V.V.V.V.N.6                                     ",
"                                    2 c.V.V.V.V.V.V.V.V.V.V.h.  4 c.V.V.V.V.V.V.V.V.V.V.x.#                                     ",
"                                    # k.V.V.V.V.V.V.V.V.V.V.a.    h.C.V.V.V.V.V.V.V.V.C.h.+                                     ",
"                                      s.C.V.V.V.V.V.V.V.V.V.h     a.C.V.V.V.V.V.V.V.V.C.a.                                      ",
"                                      j C.V.V.V.V.V.V.V.V.B.t     p V.V.V.V.V.V.V.V.V.V.p                                       ",
"                                      8 B.V.V.V.V.V.V.V.V.N.r     6 B.V.V.V.V.V.V.V.V.N.4                                       ",
"                                      # x.V.V.V.V.V.V.V.V.M.r     2 c.V.V.V.V.V.V.V.C.h.+                                       ",
"                                      o s.C.V.V.V.V.V.V.V.x.y     + h.C.V.V.V.V.V.V.V.p .                                       ",
"                                        h V.V.V.V.V.V.V.C.z.J     . p.C.V.V.V.V.V.V.c.2                                         ",
"                                        4 M.C.V.V.V.V.V.C.k.      . a.C.V.V.V.V.V.C.a..                                         ",
"                                          j c.B.B.B.B.M.z.h       . p x.M.B.B.B.N.c.7                                           ",
"                                          o 0 9 r r r 9 0 = o     @ = 0 9 r r r 9 3 .                                           ",
"                                            % > > > , , w w &   . = w w , , > > = @                                             ",
"                                              & > > > > > = @     & = > > > > - o                                               ",
"                                                    o @ @               o o                                                     ",
"                                                                                                                                ",
"                                                                                                                                ",
"                                                                                                                                ",
"                                                                                                                                "
};
