/* XPM */
static char *result[] = {
/* columns rows colors chars-per-pixel */
"64 64 256 2 ",
"   c None",
".  c #0C0B2A",
"X  c #100E2C",
"o  c #18152F",
"O  c #1A182E",
"+  c #15132D",
"@  c #0E0F31",
"#  c #1E1C32",
"$  c #11163A",
"%  c #151635",
"&  c #0C1035",
"*  c #211E34",
"=  c #242334",
"-  c #282735",
";  c #2C2C39",
":  c #2C2638",
">  c #35343D",
",  c #3A393F",
"<  c #38373E",
"1  c #423D36",
"2  c #484339",
"3  c #524D3B",
"4  c #5A543D",
"5  c #151D43",
"6  c #172249",
"7  c #19264E",
"8  c #192349",
"9  c #1C2A53",
"0  c #1D2E58",
"q  c #1F315C",
"w  c #2D364E",
"e  c #3B3342",
"r  c #3C3C41",
"t  c #303342",
"y  c #233359",
"u  c #353D56",
"i  c #262E4A",
"p  c #223662",
"a  c #253D6C",
"s  c #263B66",
"d  c #443D4B",
"f  c #34476B",
"g  c #2A4575",
"h  c #2A4778",
"j  c #2D4A7C",
"k  c #324B77",
"l  c #38507A",
"z  c #2F446B",
"x  c #4C434D",
"c  c #5A4F55",
"v  c #5A5155",
"b  c #555350",
"n  c #665A5A",
"m  c #65585A",
"M  c #686143",
"N  c #7B7249",
"B  c #756B56",
"V  c #435979",
"C  c #4A4F61",
"Z  c #596878",
"A  c #5A6067",
"S  c #64686D",
"D  c #736562",
"F  c #796D66",
"G  c #79716C",
"H  c #636B76",
"J  c #667279",
"K  c #797876",
"L  c #857D48",
"P  c #887F4A",
"I  c #817753",
"U  c #85756B",
"Y  c #8B7B6E",
"T  c #807C68",
"R  c #8D7C70",
"E  c #988B5D",
"W  c #978E4E",
"Q  c #A39A50",
"!  c #A2994F",
"~  c #AEA355",
"^  c #B7AC58",
"/  c #BDB256",
"(  c #8B8367",
")  c #948B6C",
"_  c #9B8B6D",
"`  c #9A916D",
"'  c #83897D",
"]  c #958374",
"[  c #9B8877",
"{  c #9D8A79",
"}  c #908479",
"|  c #979478",
" . c #A08E7B",
".. c #A08F72",
"X. c #A9957F",
"o. c #A49778",
"O. c #B09C7E",
"+. c #ACA47A",
"@. c #A9A47D",
"#. c #B5AC7C",
"$. c #B6A57B",
"%. c #BCB37D",
"&. c #C0B557",
"*. c #C5BA59",
"=. c #C2B57E",
"-. c #C2B87E",
";. c #D4C85C",
":. c #DED25F",
">. c #E9DC61",
",. c #E5D860",
"<. c #FBEE66",
"1. c #F3E564",
"2. c #FFF167",
"3. c #FFF568",
"4. c #2E4E80",
"5. c #2F5287",
"6. c #315285",
"7. c #32558B",
"8. c #34598E",
"9. c #3C5C89",
"0. c #365D93",
"q. c #395F94",
"w. c #3B649C",
"e. c #3B6095",
"r. c #3C67A1",
"t. c #3D6AA4",
"y. c #3F6DA9",
"u. c #3F70AD",
"i. c #435D84",
"p. c #41608B",
"a. c #4A6587",
"s. c #576C83",
"d. c #466A9A",
"f. c #57708C",
"g. c #6B7A82",
"h. c #426CA3",
"j. c #406FAA",
"k. c #4171AE",
"l. c #4A76AB",
"z. c #4375B3",
"x. c #4578B6",
"c. c #4679B8",
"v. c #788482",
"b. c #888A87",
"n. c #8B9286",
"m. c #9D9087",
"M. c #9A9896",
"N. c #AA9782",
"B. c #AE9A86",
"V. c #B39E85",
"C. c #9FA287",
"Z. c #ACA983",
"A. c #A0A183",
"S. c #BBA589",
"D. c #B8A687",
"F. c #B8B589",
"G. c #B3A290",
"H. c #B6ADA7",
"J. c #BEB1A5",
"K. c #C3AC8E",
"L. c #C6BB80",
"P. c #C9B28F",
"I. c #C5AF91",
"U. c #CBB393",
"Y. c #CFB898",
"T. c #D2B996",
"R. c #D5BC99",
"E. c #D8BF9A",
"W. c #D0B795",
"Q. c #CBBAA4",
"!. c #CCC184",
"~. c #D5C987",
"^. c #D6CB89",
"/. c #D6CB88",
"(. c #DDC39C",
"). c #E2D58D",
"_. c #E4D88E",
"`. c #E0C69E",
"'. c #E7DB90",
"]. c #E9DD91",
"[. c #EEE193",
"{. c #D5C3AA",
"}. c #E6CBA1",
"|. c #E9CDA3",
" X c #EED2A5",
".X c #F1D4A7",
"XX c #F3D6A8",
"oX c #F7D9AA",
"OX c #FBDDAD",
"+X c #FFE1AF",
"@X c #FFE4B1",
"#X c #FFE8B3",
"$X c #D5D4D7",
"%X c #E2E0DF",
"&X c #F4F4F5",
"*X c #E2E2E7",
"=X c black",
"-X c black",
";X c black",
":X c black",
">X c black",
",X c black",
"<X c black",
"1X c black",
"2X c black",
"3X c black",
"4X c black",
"5X c black",
"6X c black",
"7X c black",
"8X c black",
"9X c black",
"0X c black",
"qX c black",
"wX c black",
"eX c black",
"rX c black",
"tX c black",
"yX c black",
"uX c black",
"iX c black",
"pX c black",
"aX c black",
"sX c black",
"dX c black",
"fX c black",
"gX c black",
"hX c black",
"jX c black",
"kX c black",
"lX c black",
"zX c black",
"xX c black",
"cX c black",
"vX c black",
"bX c black",
"nX c black",
"mX c black",
"MX c black",
"NX c black",
"BX c black",
"VX c black",
"CX c black",
"ZX c black",
"AX c black",
"SX c black",
"DX c black",
"FX c black",
"GX c black",
"HX c black",
"JX c black",
"KX c black",
"LX c black",
"PX c black",
"IX c black",
"UX c black",
/* pixels */
"                                                                                                                                ",
"                                                                                                                                ",
"                                                                                                                                ",
"                                                                                                                                ",
"                                                                                                                                ",
"                                                          3 N ! ! L 2                                                           ",
"                                                    N / :.>.<.2.2.<.:.*.L -                                                     ",
"                                                  W <.3.2.2.2.2.2.2.2.3.<.^ 3                                                   ",
"                                                4 >.2.2.2.2.2.2.2.2.2.2.2.3.;.4                                                 ",
"                                              M ;.2.2.2.2.2.2.2.2.2.2.2.<.2.3.^                                                 ",
"                                              &.3.2.2.1.2.2.2.2.2.2.2.<.:.>.2.>.M                                               ",
"                                            2 >.,.;.*.I ^ 1.:.! ~ ,.2.<.;.W :.3.!                                               ",
"                                            1 >.^ _ $.|.P.$.$.K.W.E >.3.2.Q ^ 3.*.=                                             ",
"                                            O M ..`.OX@X@X@X@X@X@X(.E &.&.N P ~ P o                                             ",
"                                              c { |.+XOXR.S.S.XX+X@X`. . .S.O.N 3 -                                             ",
"                                            U  XXX@X+XOX|.`.K. X+X+X+XD.N.`.#X=.2                                               ",
"                  a g j j 4.j j h g a y 6   [ @X+X+X+X+XoXK.OX@XOXOX+X|. X X@X .                                                ",
"                h j.c.x.t.c.c.c.c.c.z.k.r.7.K +X+X+X+X@X|.n |.@XE.(.@XR W.@XOXY                                                 ",
"              p k.c.c.c.t.0.z.c.c.c.c.c.c.c.a.K.+X+X+X+XOX(.OX@XS.(.@XN.}.@X|.m                                                 ",
"              6.c.c.c.c.c.0.7.c.c.c.c.c.c.c.j n oX+X+X+X|.OX@X X] |.@X+X+X@XS.                        o e #                     ",
"              0.c.c.c.c.c.z.g w.c.c.c.c.c.x.V Y W.@XoXm.b.R.oXE.W..XOX@X+XoXS 6.g 0                 :  . X{ : R D.e             ",
"              0.c.c.c.c.c.c.0.a x.c.c.c.c.x.s.-.] XXoXB.$X%X{.Q.Q.m.N.@X@XD.u y.c.k.q.g 9       : * ] @X#XK.n oX@X]             ",
"              w.c.k.r.d.d.d.e.7 7.k.c.c.c.c.a.~.#.Y XXoXJ.$X&X&X*XH.T.@XG.) S y.c.c.c.c.t.6.7 e K. .F U.U.D K.@XOXF #           ",
"            9 r.d.H m.U.(.R.I.] d 9 t.c.c.c.w.@.].F n U.XX`.H.J.Q.}.(.} ) /.s.x.c.c.c.c.c.c.7.c +X`.D V.D x K.|.V.{ U.D         ",
"            9 k m.XX@X@X@X+X@X@X}.m j c.c.c.k.Z /.^.T v Y B.Y ] [ Y ) %.].Z.d.c.c.c.c.c.c.z.a v XXK.D.@XOX(.V.V.U.+X#XK.        ",
"              G OX@X+X+X@X`.R.@X@X`.C y.c.c.c.w.S /.].!.#.+.` ( o.L.].].@.a.z.c.c.c.c.c.x.6.8 X.U.V.oX@X+X@X@XOXU.(.R.X.        ",
"              U.@X+X+X+X@X.XD F  .U f z.c.c.c.c.w.A !.].].].].].[._.%.K 9.z.c.c.c.x.c.c.q.7.6.K OX@X@X@XOX+X+X@XV.e U           ",
"              Y. XOX+XoXOX@X .X . p r.c.c.c.c.x.c.9.F.].].].].^.) S V w.c.c.c.c.c.c.c.z.7.z.x.h.M.E.}.I.+X@X@XoX[ x             ",
"              W.S.}.@XT.(.@X|.d $ t.c.c.c.c.c.c.k.Z ).].].].].@.9.k.c.c.c.c.c.y.r.c.c.k.y.c.c.c.k.i.C x X.S.N.c o               ",
"              U.D.K.@X}.] .X#X] 7 z.c.c.c.c.c.c.w.| ].].].].].n.k.c.x.x.c.c.c.t.q 6.z.c.c.c.c.c.c.c.k.9.k l s &                 ",
"              { (.] OX@XV.D V.m p c.c.c.c.c.c.c.p.L.].].].].'.v.z.c.c.c.c.c.c.x.g $ s w.z.c.c.c.c.c.c.c.t.g 5                   ",
"              x S.F N.`.B.* X   g c.c.c.c.c.c.x.Z ).].].].]._.J z.c.c.c.c.c.c.c.8.    5 p 6.r.z.z.j.0.a 5                       ",
"                  Y             h c.c.c.c.c.c.k.' ].].].].].).J z.c.c.c.c.c.c.c.r.        . $ 9 0 6 @                           ",
"                                u i.w.y.x.c.c.k.C.].].].].].).J z.c.c.c.c.c.c.c.z.s                                             ",
"                                ( L.o.' J a.p.p.Z.].].].].]._.J u.c.c.c.c.x.x.z.r.y                                             ",
"                                ` [.].].).~.%.#./.].].].].].'.K V i.9.i.a.s.g.b.m.F                                             ",
"                                o.].].].].].].].].].].].].].].).!.L.-.L.!.^.).].[.`                                             ",
"                                ) [.].].].'.'.'.].].].].].].].].].].].].].].].].].o.                                            ",
"                                C Z./.].].].].].].].].].].].].].].].].].].].].].[.$.                                            ",
"                                h h.f.v.| +.-./.).'.].].].].].].].].].].].)./.-.#.G                                             ",
"                                g c.x.z.r.q.i.Z H K n.C.F.F.Z.Z.@.| | | ' g.a.i.w.8.$                                           ",
"                                s z.c.c.c.c.c.x.z.u.z.k.l.l.h.h.w.w.t.j.k.x.x.c.c.8.@                                           ",
"                                9 y.c.c.c.c.c.c.c.c.c.c.c.c.c.c.c.c.c.c.c.c.x.x.c.6.                                            ",
"                                  w.c.c.c.c.c.c.c.c.x.w.8.z.c.c.c.c.c.c.c.c.x.x.c.6.                                            ",
"                                  8.c.c.c.c.c.c.c.c.c.k.j g z.c.c.c.c.c.c.c.c.x.c.8.                                            ",
"                                  4.x.c.x.c.c.c.c.c.c.c.w.$ j c.c.c.c.c.c.c.c.c.c.w.                                            ",
"                                  a k.c.x.x.c.c.c.c.c.c.7.. $ 0.c.x.c.c.c.c.c.c.c.r.                                            ",
"                                    w.c.x.x.c.c.c.c.x.c.6.    7 t.c.c.c.c.c.c.c.c.j.0                                           ",
"                                    j x.c.c.c.c.c.c.c.c.j       h c.c.c.c.c.c.c.c.z.q                                           ",
"                                    6 w.c.c.c.c.c.c.c.c.j       8 t.c.c.c.c.c.c.c.c.h                                           ",
"                                      g c.c.c.c.c.c.c.c.7.        h c.c.x.c.c.c.c.c.w.5                                         ",
"                                      6 r.c.c.c.c.c.c.c.w.5       6 w.c.x.c.c.c.c.c.z.p                                         ",
"                                        g x.c.c.c.c.c.c.j.7         s x.c.x.x.x.c.c.c.6.                                        ",
"                                        $ 0.c.c.c.c.c.c.z.y         $ 8.c.x.x.x.c.c.c.w.$                                       ",
"                                          0 t.c.c.c.c.c.r.9           9 j.c.c.c.c.c.y.z %                                       ",
"                                          o w z l 6.l f u #             h y.z.j.w.z w r -                                       ",
"                                          ; r < > > < > ; o             % i w w t > r r :                                       ",
"                                        o > r r r r > # .             # > < < r r r < - =                                       ",
"                                          O - ; - # +                 ; r r r r r > * .                                         ",
"                                                                        * - : = O                                               ",
"                                                                                                                                ",
"                                                                                                                                ",
"                                                                                                                                ",
"                                                                                                                                "
};
