/* XPM */
static char *result[] = {
/* columns rows colors chars-per-pixel */
"64 64 32 1 ",
"  c #B900D8",
". c #32003A",
"X c #200026",
"o c None",
"O c #EB77FF",
"+ c #EA6BFF",
"@ c #E969FF",
"# c #E759FF",
"$ c #EA6FFF",
"% c #E967FF",
"& c #EA6DFF",
"* c #E655FF",
"= c #E863FF",
"- c #AB00C8",
"; c #AD00CA",
": c #8A00A2",
"> c #B000CE",
", c #9300AC",
"< c #8900A0",
"1 c #43004E",
"2 c #550064",
"3 c #A900C6",
"4 c #87009E",
"5 c #650076",
"6 c black",
"7 c black",
"8 c black",
"9 c black",
"0 c black",
"q c black",
"w c black",
"e c black",
/* pixels */
"oooooooooooooooooooooooooooooooooooooooooooooooooooooooooooooooo",
"oooooooooooooooooooooooooooooooooooooooooooooooooooooooooooooooo",
"oooooooooooooooooooooooooooooooooooooooooooooooooooooooooooooooo",
"ooooooooooooooooooooooooooooo3333ooooooooooooooooooooooooooooooo",
"ooooooooooooooooooooooooooooo33333oooooooooooooooooooooooooooooo",
"ooooooooooooooooooooooooooooooo33333oooooooooooooooooooooooooooo",
"oooooooooooooooooooooooooooooooo3333oooooooooooooooooooooooooooo",
"oooooooooooooooooooooooooooo444433333ooooooooooooooooooooooooooo",
"ooooooooooooooooooooooooooo4444444333ooooooooooooooooooooooooooo",
"oooooooooooooooooooooooooo444444443333oooooooooooooooooooooooooo",
"ooooooooooooooooooooooooo44444444443334ooooooooooooooooooooooooo",
"ooooooooooooooooooooooooo44444454445  34oooooooooooooooooooooooo",
"oooooooooooooooooooooooo4444555555553 44oooooooooooooooooooooooo",
"ooooooooooooooooooooooo<4455555555555 344ooooooooooooooooooooooo",
"oooooooooooooooooooooo444455555555555 344ooooooooooooooooooooooo",
"ooooooooooooooooooooo4444533355555555  344oooooooooooooooooooooo",
"ooooooooooooooooooooo44453  3552225555 3444ooooooooooooooooooooo",
"ooooooooooooooooooooo4443 335222222255 3444ooooooooooooooooooooo",
"oooooooooooooooooooo4433 3352222222115 3544ooooooooooooooooooooo",
"oooooooooooooooooooo443 33552222221115 33444oooooooooooooooooooo",
"oooooooooooooooooooo44 335552222211111 35444oooooooooooooooooooo",
"oooooooooooooooooooo3  3555222222111111 3444oooooooooooooooooooo",
"oooooooooooooooooooo3 3555522222111111333544oooooooooooooooooooo",
"ooooooooooooooooooo3 355555222221111..115444oooooooooooooooooooo",
"oooooooooooooooooo33335555522221111....1545<$;33oooooooooooooooo",
"oooooooooooooooooo33355555522221111.....555,@333oooooooooooooooo",
"oooooooooooooooooo3345555522222111...XX555544333oooooooooooooooo",
"oooooooooooooooooo3445555522221111..XXXX55544333oooooooooooooooo",
"oooooooooooooooooo344555552222111...XXXX55443333oooooooooooooooo",
"ooooooooooooooooo3344555552222111...XXXX5544333ooooooooooooooooo",
"ooooooooooooooooo3344555552222111...XXX55544433ooooooooooooooooo",
"ooooooooooooooooo3444555552222111...XXX55554333ooooooooooooooooo",
"ooooooooooooooooo3444555552222111...XXX55554333ooooooooooooooooo",
"ooooooooooooooooo3444555552222111...XXX55554333ooooooooooooooooo",
"ooooooooooooooooo3444555552222111...XXX5554433oooooooooooooooooo",
"ooooooooooooooooo3o44555552222111....XX5554333oooooooooooooooooo",
"ooooooooooooooooo3o445555522221111.....5554333oooooooooooooooooo",
"ooooooooooooooooooo445355522221111.....5554333oooooooooooooooooo",
"ooooooooooooooooooo445355522221111.....554433ooooooooooooooooooo",
"ooooooooooooooooooo4453355222221111....5544  ooooooooooooooooooo",
"ooooooooooooooooooo44433555222211111111553  3ooooooooooooooooooo",
"ooooooooooooooooooo4445 355222211111115553  oooooooooooooooooooo",
"oooooooooooooooooooo445  5522222111111555  3oooooooooooooooooooo",
"oooooooooooooooooooo4453 5552222111111553 3ooooooooooooooooooooo",
"oooooooooooooooooooo4453 555522221111153 33ooooooooooooooooooooo",
"oooooooooooooooooooo4444  5552222111155  34ooooooooooooooooooooo",
"ooooooooooooooooooooo444  555522222115  344ooooooooooooooooooooo",
"ooooooooooooooooooooo444 3555522222253 4444ooooooooooooooooooooo",
"oooooooooooooooooooooo44  55555222255  444oooooooooooooooooooooo",
"oooooooooooooooooooooo443 5555522255  4444oooooooooooooooooooooo",
"ooooooooooooooooooooooo43 3555555555344444oooooooooooooooooooooo",
"ooooooooooooooooooooooo44  355555555544:%ooooooooooooooooooooooo",
"oooooooooooooooooooooooo44 3555555544444oooooooooooooooooooooooo",
"oooooooooooooooooooooooo44  445554444444oooooooooooooooooooooooo",
"oooooooooooooooooooooooo344 34444444444ooooooooooooooooooooooooo",
"oooooooooooooooooooooooooo43334444444ooooooooooooooooooooooooooo",
"ooooooooooooooooooooooooooo433344444*ooooooooooooooooooooooooooo",
"ooooooooooooooooooooooooooo33334444#3ooooooooooooooooooooooooooo",
"oooooooooooooooooooooooooooo3333:+#=3&Oooooooooooooooooooooooooo",
"ooooooooooooooooooooooooooooo333>@-33;oooooooooooooooooooooooooo",
"oooooooooooooooooooooooooooooo3333333ooooooooooooooooooooooooooo",
"oooooooooooooooooooooooooooooooo333ooooooooooooooooooooooooooooo",
"ooooooooooooooooooooooooooooooooo3oooooooooooooooooooooooooooooo",
"oooooooooooooooooooooooooooooooooooooooooooooooooooooooooooooooo"
};
