/* XPM */
static char *result[] = {
/* columns rows colors chars-per-pixel */
"64 64 32 1 ",
"  c #B900D8",
". c #32003A",
"X c #200026",
"o c None",
"O c #EA71FF",
"+ c #E965FF",
"@ c #EB75FF",
"# c #EA6BFF",
"$ c #E969FF",
"% c #EA6FFF",
"& c #E861FF",
"* c #E75DFF",
"= c #E75BFF",
"- c #E863FF",
"; c #AB00C8",
": c #AD00CA",
"> c #B400D2",
", c #8A00A2",
"< c #9300AC",
"1 c #8900A0",
"2 c #43004E",
"3 c #550064",
"4 c #A900C6",
"5 c #87009E",
"6 c #650076",
"7 c black",
"8 c black",
"9 c black",
"0 c black",
"q c black",
"w c black",
"e c black",
/* pixels */
"oooooooooooooooooooooooooooooooooooooooooooooooooooooooooooooooo",
"oooooooooooooooooooooooooooooooooooooooooooooooooooooooooooooooo",
"oooooooooooooooooooooooooooooooooooooooooooooooooooooooooooooooo",
"oooooooooooooooooooooooooooooooooooooooooooooooooooooooooooooooo",
"ooooooooooooooooooooooooooooooooooo44ooooooooooooooooooooooooooo",
"oooooooooooooooooooooooooooooooooooo4ooooooooooooooooooooooooooo",
"oooooooooooooooooooooooooooooo55555%44oooooooooooooooooooooooooo",
"oooooooooooooooooooooooooooo5555555$=:4ooooooooooooooooooooooooo",
"oooooooooooooooooooooooooo555555555,*44ooooooooooooooooooooooooo",
"ooooooooooooooooooooooooo55555555555,544oooooooooooooooooooooooo",
"oooooooooooooooooooooooo5555555555555544oooooooooooooooooooooooo",
"oooooooooooooooooooooooo55555666665555444ooooooooooooooooooooooo",
"ooooooooooooooooooooooo554446666666555544ooooooooooooooooooooooo",
"oooooooooooooooooooooo4444444466666655544ooooooooooooooooooooooo",
"oooooooooooooooooooooo4        66666655444oooooooooooooooooooooo",
"ooooooooooooooooooooo   444444466666655444oooooooooooooooooooooo",
"ooooooooooooooooooooo5456666663333336654 4oooooooooooooooooooooo",
"ooooooooooooooooooooo5556666633333332666  4ooooooooooooooooooooo",
"oooooooooooooooooooo555666666333333226664 4ooooooooooooooooooooo",
"oooooooooooooooooooo555666663333322222664 4ooooooooooooooooooooo",
"ooooooooooooooooooo-156666663333222222264 4ooooooooooooooooooooo",
"ooooooooooooooooo44*556666633332222222264 4ooooooooooooooooooooo",
"ooooooooooooooooo44,556666633332222222264 4ooooooooooooooooooooo",
"ooooooooooooooooo4=55566666333322222..264 45oooooooooooooooooooo",
"ooooooooooooooooo:*5556666633332222....6  45oooooooooooooooooooo",
"oooooooooooooooo4o+556666663333222......  55Oooooooooooooooooooo",
"oooooooooooooooo4oo556666633332222......  51oooooooooooooooooooo",
"ooooooooooooooooooo55666663333222.....XX 4655ooooooooooooooooooo",
"ooooooooooooooooooo55666663333222....XXX 4655ooooooooooooooooooo",
"oooooooooooooooooo555666663333222...XXXX 4655ooooooooooooooooooo",
"oooooooooooooooooo555646663333222...XXXX 4555ooooooooooooooooooo",
"oooooooooooooooooo556646663333222...XXXXX4555ooooooooooooooooooo",
"oooooooooooooooooo556646663333222...XXXXX6555ooooooooooooooooooo",
"ooooooooooooooooooo564 6663333222...XXXXX6555ooooooooooooooooooo",
"ooooooooooooooooooo564 6663333222....XXX66555&4ooooooooooooooooo",
"ooooooooooooooooooo564 66633332222....XX66655&4ooooooooooooooooo",
"ooooooooooooooooooo554 66633332222......6665<=4ooooooooooooooooo",
"ooooooooooooooooooo554 66633332222......666,->4ooooooooooooooooo",
"ooooooooooooooooooo554 666333322222.....6655&;4ooooooooooooooooo",
"ooooooooooooooooooo554 6663333322222...66555444ooooooooooooooooo",
"ooooooooooooooooooo554 666333332222222266655444ooooooooooooooooo",
"ooooooooooooooooooo554 66663333222222226655444oooooooooooooooooo",
"oooooooooooooooooooo54 66663333322222226655444oooooooooooooooooo",
"oooooooooooooooooooo54 66663333322222266655444oooooooooooooooooo",
"oooooooooooooooooooo54 6666633332222226655444ooooooooooooooooooo",
"oooooooooooooooooooo55 6666633333222226655444ooooooooooooooooooo",
"ooooooooooooooooooooo5 466666333332226655444oooooooooooooooooooo",
"ooooooooooooooooooooo5  66666633333266554444oooooooooooooooooooo",
"ooooooooooooooooooooo54 6666663333366645  4ooooooooooooooooooooo",
"oooooooooooooooooooooo5 666666633366644  44ooooooooooooooooooooo",
"oooooooooooooooooooooo544566666666644   44oooooooooooooooooooooo",
"oooooooooooooooooooooo444566666444     44ooooooooooooooooooooooo",
"ooooooooooooooooooooooo445566664    444;oooooooooooooooooooooooo",
"ooooooooooooooooooooooo4455566655555554#oooooooooooooooooooooooo",
"oooooooooooooooooooooooo455555555555555ooooooooooooooooooooooooo",
"oooooooooooooooooooooooo44555555555555oooooooooooooooooooooooooo",
"oooooooooooooooooooooooo44@5555555555ooooooooooooooooooooooooooo",
"ooooooooooooooooooooooooo4455555555-oooooooooooooooooooooooooooo",
"ooooooooooooooooooooooooo444oooo55oooooooooooooooooooooooooooooo",
"ooooooooooooooooooooooooo44444oooooooooooooooooooooooooooooooooo",
"oooooooooooooooooooooooooo44444ooooooooooooooooooooooooooooooooo",
"oooooooooooooooooooooooooooo444ooooooooooooooooooooooooooooooooo",
"oooooooooooooooooooooooooooooooooooooooooooooooooooooooooooooooo",
"oooooooooooooooooooooooooooooooooooooooooooooooooooooooooooooooo"
};
