/* XPM */
static char *result[] = {
/* columns rows colors chars-per-pixel */
"64 64 16 1 ",
"  c #B900D8",
". c #32003A",
"X c #200026",
"o c None",
"O c #43004E",
"+ c #550064",
"@ c #A900C6",
"# c #87009E",
"$ c #650076",
"% c black",
"& c black",
"* c black",
"= c black",
"- c black",
"; c black",
": c black",
/* pixels */
"oooooooooooooooooooooooooooooooooooooooooooooooooooooooooooooooo",
"oooooooooooooooooooooooooooooooooooooooooooooooooooooooooooooooo",
"oooooooooooooooooooooooooooooooooooooooooooooooooooooooooooooooo",
"oooooooooooooooooooooooooooooooooooooooooooooooooooooooooooooooo",
"ooooooooooooooooooooooooo@@@@@@@oooooooooooooooooooooooooooooooo",
"oooooooooooooooooooooooo@@@@@@@@@ooooooooooooooooooooooooooooooo",
"oooooooooooooooooooooooo@@@@@@@@@@#ooooooooooooooooooooooooooooo",
"oooooooooooooooooooooooooooo#@@@@@@#oooooooooooooooooooooooooooo",
"ooooooooooooooooooooooooooo####@@@@##ooooooooooooooooooooooooooo",
"ooooooooooooooooooooooooo#######@  ###oooooooooooooooooooooooooo",
"oooooooooooooooooooooooo########$@ @####oooooooooooooooooooooooo",
"ooooooooooooooooooooooo########$$$  @###oooooooooooooooooooooooo",
"ooooooooooooooooooooooo#####$$$$$$@  ####ooooooooooooooooooooooo",
"ooooooooooooooooooooooo####$$$$$$$$@ @###ooooooooooooooooooooooo",
"oooooooooooooooooooooo####$$$$$$$$$$ @$###oooooooooooooooooooooo",
"oooooooooooooooooooooo###$$$$$$$$+$$  $###oooooooooooooooooooooo",
"oooooooooooooooooooooo##$$$$$$$+++++@ @###oooooooooooooooooooooo",
"ooooooooooooooooooooo###$@@$$$+++++++ @$###ooooooooooooooooooooo",
"ooooooooooooooooooooo##@@  $$+++++OOO $$###o@ooooooooooooooooooo",
"oooooooooooooooooooo###@  $$$++++OOOO $$$##o@ooooooooooooooooooo",
"oooooooooooooooooooo##@  $$$++++OOOOO@$$$$#o@@oooooooooooooooooo",
"ooooooooooooooooooo###@ $$$$++++OOOOOOO$$$#o@@oooooooooooooooooo",
"ooooooooooooooooooo##@  $$$+++++OOOOOOO$$##o@@oooooooooooooooooo",
"ooooooooooooooooooo##@ @$$$++++OOOO....$$###@@oooooooooooooooooo",
"ooooooooooooooooooo##@ $$$$++++OOO.....$$$##@@oooooooooooooooooo",
"oooooooooooooooooo### @$$$+++++OOO.....$$$##@@oooooooooooooooooo",
"ooooooooooooooooooo#@ $$$$+++++OO.....X$$$##@@oooooooooooooooooo",
"ooooooooooooooooooo#  $$$$++++OOO....XXX$$##@@oooooooooooooooooo",
"ooooooooooooooooooo@  $$$$++++OOO...XXXX$$#@@@oooooooooooooooooo",
"ooooooooooooooooooo  $$$$$++++OOO...XXXX$$#@@@oooooooooooooooooo",
"oooooooooooooooooo@ @$$$$$++++OOO...XXXX$$#@@ooooooooooooooooooo",
"oooooooooooooooooo@ #$$$$$++++OOO...XXXX$$#@@ooooooooooooooooooo",
"oooooooooooooooooo@ #$$$$$++++OOO...XXX$$$#@@ooooooooooooooooooo",
"oooooooooooooooooo@@#$$$$$++++OOO...XXX$$$#@@ooooooooooooooooooo",
"ooooooooooooooooo@@##$$$$$++++OOO...XXX$$$@@@ooooooooooooooooooo",
"ooooooooooooooooo@@##$$$$$++++OOOO...XX$$$@@@ooooooooooooooooooo",
"oooooooooooooooooo@##$$$$$++++OOOO.....$$$@@oooooooooooooooooooo",
"ooooooooooooooooo@@##$$$$$++++OOOO.....$$@ @oooooooooooooooooooo",
"ooooooooooooooooo@@##$$$$$++++OOOO.....$$  ##ooooooooooooooooooo",
"ooooooooooooooooo@@##$$$$$++++OOOOO....$$ @#oooooooooooooooooooo",
"ooooooooooooooooo@@###$$$$++++OOOOOOOOO$$ ##oooooooooooooooooooo",
"ooooooooooooooooo@@###$$$$+++++OOOOOOOO$  ##oooooooooooooooooooo",
"ooooooooooooooooo@@o##$@$$$++++OOOOOOO$$ ###oooooooooooooooooooo",
"oooooooooooooooooo@o##$@  $++++OOOOOOO$  ###oooooooooooooooooooo",
"oooooooooooooooooo@oo#$@@ $$++++OOOOOO$ ###ooooooooooooooooooooo",
"oooooooooooooooooo@oo##$@ $$+++++OOOO$  ###ooooooooooooooooooooo",
"oooooooooooooooooo@oo##$@  $+++++++OO$@$###ooooooooooooooooooooo",
"oooooooooooooooooo@oo##$$  $$+++++++OO$###oooooooooooooooooooooo",
"oooooooooooooooooo@oo###$@ $$$++++++$$####oooooooooooooooooooooo",
"oooooooooooooooooooooo##$# @$$++++$$$$####oooooooooooooooooooooo",
"ooooooooooooooooooooooo###@ $$$+$$$$$#####oooooooooooooooooooooo",
"ooooooooooooooooooooooo###@  $$$$$$#####oooooooooooooooooooooooo",
"oooooooooooooooooooooooo###@ @$$$$$#####oooooooooooooooooooooooo",
"oooooooooooooooooooooooo###@@ @$$######ooooooooooooooooooooooooo",
"ooooooooooooooooooooooooo####@ ########ooooooooooooooooooooooooo",
"oooooooooooooooooooooooooo####@@@#####o@oooooooooooooooooooooooo",
"ooooooooooooooooooooooooooo###@@@@##oo@@@ooooooooooooooooooooooo",
"ooooooooooooooooooooooooooo###@@@@@@@@@@oooooooooooooooooooooooo",
"ooooooooooooooooooooooooooooooo@@@@@@@@ooooooooooooooooooooooooo",
"oooooooooooooooooooooooooooooooo@@@@@@oooooooooooooooooooooooooo",
"oooooooooooooooooooooooooooooooooooooooooooooooooooooooooooooooo",
"oooooooooooooooooooooooooooooooooooooooooooooooooooooooooooooooo",
"oooooooooooooooooooooooooooooooooooooooooooooooooooooooooooooooo",
"oooooooooooooooooooooooooooooooooooooooooooooooooooooooooooooooo"
};
