/* XPM */
static char *result[] = {
/* columns rows colors chars-per-pixel */
"64 64 16 1 ",
"  c #B900D8",
". c #32003A",
"X c #200026",
"o c None",
"O c #E341FF",
"+ c #43004E",
"@ c #550064",
"# c #A900C6",
"$ c #87009E",
"% c #650076",
"& c black",
"* c black",
"= c black",
"- c black",
"; c black",
": c black",
/* pixels */
"oooooooooooooooooooooooooooooooooooooooooooooooooooooooooooooooo",
"oooooooooooooooooooooooooooooooooooooooooooooooooooooooooooooooo",
"oooooooooooooooooooooooooooooooooooooooooooooooooooooooooooooooo",
"oooooooooooooooooooooooooooooooooooooooooooooooooooooooooooooooo",
"oooooooooooooooooooooooooooooooooooooooooooooooooooooooooooooooo",
"ooooooooooooooooooooooooooooooooooooooo#oooooooooooooooooooooooo",
"ooooooooooooooooooooooooooooo$$$$$$oooo#oooooooooooooooooooooooo",
"ooooooooooooooooooooooooo#o$$$$$$$$$oooooooooooooooooooooooooooo",
"oooooooooooooooooooooooo####$$$$$$$$$$oooooooooooooooooooooooooo",
"ooooooooooooooooooooooo##   ###$$$$$$$oo#ooooooooooooooooooooooo",
"oooooooooooooooooooooo##$##   #$%%$$$$$o#ooooooooooooooooooooooo",
"ooooooooooooooooooooo##$$$###  #%%%$$$$$o#oooooooooooooooooooooo",
"oooooooooooooooooooo##o$$$$%%#  #%%%$$$$o##ooooooooooooooooooooo",
"ooooooooooooooooooo##o$$$$%%%%%  %%%%$$$o##ooooooooooooooooooooo",
"ooooooooooooooooooo#oo$$$%%%%%%# #%%%$$$$##ooooooooooooooooooooo",
"oooooooooooooooooo#ooo$$$%%%%%%@@#@@%%$$$$#ooooooooooooooooooooo",
"oooooooooooooooooooooo$$%%%%%%@@@@@@%%$$$###oooooooooooooooooooo",
"oooooooooooooooooooooo$$%%%%%@@@@@+++%%$$$##oooooooooooooooooooo",
"ooooooooooooooooooooo$$%%%%%%@@@++++++%%$$##oooooooooooooooooooo",
"oooooooooooooooooooo$$$%%%%%%@@@++++++%%$$##oooooooooooooooooooo",
"oooooooooooooooooooo$$%%%%%%@@@++++++++%$$##oooooooooooooooooooo",
"ooooooooooooooo#oooo$$%%%%%%@@@++++++++%%$##oooooooooooooooooooo",
"ooooooooooooooO#oooo$$%%%%%@@@@++++++++%%$##oooooooooooooooooooo",
"ooooooooooooooo#oooo$%%%%%%@@@@++++....%%%##oooooooooooooooooooo",
"ooooooooooooooooooo$$%%#%%%@@@@++++....%%%##oooooooooooooooooooo",
"ooooooooooooooooooo$$%% %%%@@@++++......%%##$ooooooooooooooooooo",
"ooooooooooooooooooo$%%  %%@@@@++++....XX%%# $ooooooooooooooooooo",
"ooooooooooooooooooo$$% %%%@@@@++++...XXX%%# $ooooooooooooooooooo",
"ooooooooooooooooooo$$# %%%@@@@+++....XXX%# #$ooooooooooooooooooo",
"oooooooooooooooooo$$$  %%%@@@@+++...XXXX%# #$ooooooooooooooooooo",
"oooooooooooooooooo$$$ #%%%@@@@+++...XXXX%# #$ooooooooooooooooooo",
"oooooooooooooooooo$$# %%%%@@@@+++...XXXX%# #$ooooooooooooooooooo",
"ooooooooooooooooooo$# %%%%@@@@+++...XXXX%  #$ooooooooooooooooooo",
"ooooooooooooooooooo$  %%%%@@@@+++...XXXX%  $$ooooooooooooooooooo",
"ooooooooooooooooooo$  %%%%@@@@+++....XXX% #$$ooooooooooooooooooo",
"oooooooooooooooooo$$ #%%%%@@@@+++....XXX  #$$ooooooooooooooooooo",
"oooooooooooooooooo#$ #%%%%@@@@+++.......  %$$ooooooooooooooooooo",
"ooooooooooooooooooo$ #%%%%@@@@++++.....  #$$$ooooooooooooooooooo",
"ooooooooooooooooooo# #%%%%@@@@++++......%%$$$ooooooooooooooooooo",
"ooooooooooooooooooo# #%%%%@@@@++++++....%%$$$ooooooooooooooooooo",
"ooooooooooooooooooo###%%%%@@@@++++++++++%$$$oooooooooooooooooooo",
"ooooooooooooooooooo###%%%%@@@@@+++++++++%$$$oooooooooooooooooooo",
"ooooooooooooooooooo###%%%%@@@@@++++++++%%$$$oooooooooooooooooooo",
"ooooooooooooooooooo###%%%%%@@@@++++++++%%$$ooooooooooooooooooooo",
"ooooooooooooooooooo###$%%%%@@@@@++++++%%$$$oo#oooooooooooooooooo",
"ooooooooooooooooooo###$%%%%%@@@@+++++%%%$$$o##oooooooooooooooooo",
"oooooooooooooooooooo##$$%%%%%@@@@@+++%%%$$o###oooooooooooooooooo",
"oooooooooooooooooooo##$$%%%%%@@@@@@+%%%$$$###ooooooooooooooooooo",
"oooooooooooooooooooo##$$$%%%%%@@@@@%%%%$$####ooooooooooooooooooo",
"oooooooooooooooooooo##$$$%%%%%@@@@%%%%$$$####ooooooooooooooooooo",
"oooooooooooooooooooo##$$$$%%  %%%%%%%$$$###ooooooooooooooooooooo",
"oooooooooooooooooooo###$$$%%#  %#%%$$$#####ooooooooooooooooooooo",
"oooooooooooooooooooo###$$$$%%#  ##%#$## ###ooooooooooooooooooooo",
"ooooooooooooooooooooo#oo$$$$$$ #        ##oooooooooooooooooooooo",
"ooooooooooooooooooooo##o$$$$$$$$##    ###ooooooooooooooooooooooo",
"ooooooooooooooooooooo##ooo$$$$$$$#######oooooooooooooooooooooooo",
"oooooooooooooooooooooo##ooo$$$$$$$##o#oooooooooooooooooooooooooo",
"oooooooooooooooooooooo##ooo$$$$$$$$ooooooooooooooooooooooooooooo",
"oooooooooooooooooooooooo#oooooo$oooooooooooooooooooooooooooooooo",
"oooooooooooooooooooooooo#ooooooooooooooooooooooooooooooooooooooo",
"oooooooooooooooooooooooooooooooooooooooooooooooooooooooooooooooo",
"oooooooooooooooooooooooooooooooooooooooooooooooooooooooooooooooo",
"oooooooooooooooooooooooooooooooooooooooooooooooooooooooooooooooo",
"oooooooooooooooooooooooooooooooooooooooooooooooooooooooooooooooo"
};
