/* XPM */
static char *result[] = {
/* columns rows colors chars-per-pixel */
"64 64 16 1 ",
"  c #B900D8",
". c #32003A",
"X c #200026",
"o c None",
"O c #E967FF",
"+ c #E75DFF",
"@ c #AD00CA",
"# c #670078",
"$ c #43004E",
"% c #550064",
"& c #A900C6",
"* c #87009E",
"= c #650076",
"- c black",
"; c black",
": c black",
/* pixels */
"oooooooooooooooooooooooooooooooooooooooooooooooooooooooooooooooo",
"oooooooooooooooooooooooooooooooo&ooooooooooooooooooooooooooooooo",
"ooooooooooooooooooooooooooooooooo&oooooooooooooooooooooooooooooo",
"ooooooooooooooooooooooooooooooooo&&ooooooooooooooooooooooooooooo",
"oooooooooooooooooooooooooooooooooo&&&ooooooooooooooooooooooooooo",
"ooooooooooooooooooooooooooooooooooo&&ooooooooooooooooooooooooooo",
"ooooooooooooooooooooooooooooo*****oo&&oooooooooooooooooooooooooo",
"oooooooooooooooooooooooooooo*******o&&&ooooooooooooooooooooooooo",
"oooooooooooooooooooooooooo***********&&ooooooooooooooooooooooooo",
"ooooooooooooooooooooooooo************&&&oooooooooooooooooooooooo",
"oooooooooooooooooooooooo******=******&&&oooooooooooooooooooooooo",
"ooooooooooooooooooooooo*****=======***&&&ooooooooooooooooooooooo",
"ooooooooooooooooooooooo****========***&&&ooooooooooooooooooooooo",
"oooooooooooooooooooooo***&&&========***&&ooooooooooooooooooooooo",
"oooooooooooooooooooooo*&&&    ========& &*oooooooooooooooooooooo",
"oooooooooooooooooooooo&    & &========= &&oooooooooooooooooooooo",
"ooooooooooooooooooooo   & &&===%%%%====  &oooooooooooooooooooooo",
"oooooooooooooooooooo&&&&&====%%%%%%%==== &*ooooooooooooooooooooo",
"ooooooooooooooooooo&&&&======%%%%%%%$=== &*ooooooooooooooooooooo",
"ooooooooooooooooooo&*&*=====%%%%%%$$$$== &*ooooooooooooooooooooo",
"oooooooooooooooooo&&**======%%%%%$$$$$== &*ooooooooooooooooooooo",
"oooooooooooooooooo&&**=====%%%%%$$$$$$$= &**oooooooooooooooooooo",
"ooooooooooooooooo&&***=====%%%%%$$$$$$$$ &**oooooooooooooooooooo",
"ooooooooooooooooo&@O**=====%%%%%$$$$...$ &***ooooooooooooooooooo",
"ooooooooooooooooo&&***=====%%%%$$$$..... &=**ooooooooooooooooooo",
"oooooooooooooooo&&&**======%%%%$$$$..... &=**ooooooooooooooooooo",
"oooooooooooooooo&&o**=====%%%%$$$$....XX &=**ooooooooooooooooooo",
"oooooooooooooooo&&o**=====%%%%$$$$...XXX &***ooooooooooooooooooo",
"oooooooooooooooo&&o**=====%%%%$$$....XXX&&***oo&oooooooooooooooo",
"oooooooooooooooo&oo**=====%%%%$$$...XXXXX==**oo&oooooooooooooooo",
"oooooooooooooooooo***=====%%%%$$$...XXXXX=***oo&oooooooooooooooo",
"oooooooooooooooooo***=====%%%%$$$...XXXX===**o&&oooooooooooooooo",
"oooooooooooooooooo***=&===%%%%$$$...XXXX===**o&&oooooooooooooooo",
"oooooooooooooooooo***= ===%%%%$$$...XXXX===**o&&oooooooooooooooo",
"ooooooooooooooooooo**= &==%%%%$$$....XXX===**&&ooooooooooooooooo",
"ooooooooooooooooooo**= ===%%%%$$$$...XXX==***&&ooooooooooooooooo",
"ooooooooooooooooooo**= &==%%%%$$$$......==**&&&ooooooooooooooooo",
"ooooooooooooooooooo**& &==%%%%$$$$......==**&&&ooooooooooooooooo",
"ooooooooooooooooooo**& &==%%%%$$$$$....===**&&&ooooooooooooooooo",
"ooooooooooooooooooo***  ==%%%%%$$$$$...===**&&&ooooooooooooooooo",
"ooooooooooooooooooo***& ==%%%%%$$$$$$$$===**&&oooooooooooooooooo",
"oooooooooooooooooooo**& ===%%%%$$$$$$$$==**&&&oooooooooooooooooo",
"oooooooooooooooooooo**& ===%%%%%$$$$$$===**&&ooooooooooooooooooo",
"oooooooooooooooooooo**& ===%%%%%$$$$$$===*&&&ooooooooooooooooooo",
"oooooooooooooooooooo**& ====%%%%%$$$$$==** &&ooooooooooooooooooo",
"ooooooooooooooooooooo*& =====%%%%$$$$$=**  &oooooooooooooooooooo",
"ooooooooooooooooooooo** ======%%%%%%$$==& &ooooooooooooooooooooo",
"ooooooooooooooooooooo** &=====%%%%%%===  &&ooooooooooooooooooooo",
"ooooooooooooooooooooo&* &======%%%%==    &&ooooooooooooooooooooo",
"oooooooooooooooooooooo*  ======%%===   &&&oooooooooooooooooooooo",
"oooooooooooooooooooooo*& =========    &&&ooooooooooooooooooooooo",
"ooooooooooooooooooooooo*&&=#=====  &&*&*oooooooooooooooooooooooo",
"ooooooooooooooooooooooo&&&*+=====&=******ooooooooooooooooooooooo",
"oooooooooooooooooooooooo&&***===********oooooooooooooooooooooooo",
"oooooooooooooooooooooooo&&&************ooooooooooooooooooooooooo",
"oooooooooooooooooooooooo&&&***********oooooooooooooooooooooooooo",
"ooooooooooooooooooooooooo& **********ooooooooooooooooooooooooooo",
"ooooooooooooooooooooooooo&  o*******oooooooooooooooooooooooooooo",
"oooooooooooooooooooooooooo&  o**oooooooooooooooooooooooooooooooo",
"ooooooooooooooooooooooooooo&  oooooooooooooooooooooooooooooooooo",
"oooooooooooooooooooooooooooo&   oooooooooooooooooooooooooooooooo",
"oooooooooooooooooooooooooooooo& &&&ooooooooooooooooooooooooooooo",
"ooooooooooooooooooooooooooooooo&&&oooooooooooooooooooooooooooooo",
"oooooooooooooooooooooooooooooooooooooooooooooooooooooooooooooooo"
};
