/* XPM */
static char *result[] = {
/* columns rows colors chars-per-pixel */
"64 64 16 1 ",
"  c #B900D8",
". c #32003A",
"X c #200026",
"o c None",
"O c #E447FF",
"+ c #43004E",
"@ c #550064",
"# c #A900C6",
"$ c #87009E",
"% c #650076",
"& c black",
"* c black",
"= c black",
"- c black",
"; c black",
": c black",
/* pixels */
"oooooooooooooooooooooooooooooooooooooooooooooooooooooooooooooooo",
"oooooooooooooooooooooooooooooooooooooooooooooooooooooooooooooooo",
"oooooooooooooooooooooooooooooooooooooooooooooooooooooooooooooooo",
"oooooooooooooooooooooooooooooooooooooooooooooooooooooooooooooooo",
"oooooooooooooooooooooooooooooooooooooooooooooooooooooooooooooooo",
"ooooooooooooooooooooooooo####ooooooooooooooooooooooooooooooooooo",
"ooooooooooooooooooooooo#######$$$$$ooooooooooooooooooooooooooooo",
"oooooooooooooooooooooo###### ###$$$$oooooooooooooooooooooooooooo",
"oooooooooooooooooooooo###o$##  #$$$$$ooooo#ooooooooooooooooooooo",
"ooooooooooooooooooooo##oo$$$$#  ##$$$oooooOooooooooooooooooooooo",
"oooooooooooooooooooo##ooo$$$$$#  #$$$$$ooooooooooooooooooooooooo",
"ooooooooooooooooooooooooo$$$%%%#  #$$$$$oooooooooooooooooooooooo",
"oooooooooooooooooooooooo$$$$%%%%# #%%$$$$ooooooooooooooooooooooo",
"ooooooooooooooooooooooo$$$%%%%%%%  #%$$$$oo#oooooooooooooooooooo",
"ooooooooooooooooooooooo$$%%%%%%%%% #%%$$$$o#oooooooooooooooooooo",
"oooooooooooooooooooooo$$$%%%%%%@@@  %%$$$$o#oooooooooooooooooooo",
"oooooooooooooooooooooo$$%%%%%%@@@@@#%%%$$$o#oooooooooooooooooooo",
"ooooooooooooooooooooo$$%%%%%%@@@@@@@%%%%$$o#oooooooooooooooooooo",
"oooooooooooooooo#oooo$$%%%%%%@@@@@+++%%%$$o##ooooooooooooooooooo",
"oooooooooooooooo#oooo$$%%%%%@@@@@+++++%%$$$##ooooooooooooooooooo",
"oooooooooooooooooooo$$%%#%%%@@@@++++++%%$$$##ooooooooooooooooooo",
"oooooooooooooooooooo$$%##%%%@@@@+++++++%%$$##ooooooooooooooooooo",
"oooooooooooooooooooo$$%  %%@@@@++++++++%%$$##ooooooooooooooooooo",
"ooooooooooooooooooo$$$# %%%@@@@++++...+%%$$##ooooooooooooooooooo",
"ooooooooooooooooooo$$$# %%%@@@@+++....%%%$$##ooooooooooooooooooo",
"ooooooooooooooooooo$$#  %%%@@@@+++.....%%$$###oooooooooooooooooo",
"ooooooooooooooooooo$$# %%%%@@@++++....X%%%$###oooooooooooooooooo",
"ooooooooooooooooooo$$  %%%%@@@+++....XXX%%$###oooooooooooooooooo",
"oooooooooooooooooo$$# %%%%@@@@+++....XXX%%%##ooooooooooooooooooo",
"oooooooooooooooooo$$# %%%%@@@@+++...XXXX%%%##ooooooooooooooooooo",
"oooooooooooooooooo$$  %%%%@@@@+++...XXXX%%###ooooooooooooooooooo",
"ooooooooooooooooooo$  %%%%@@@@+++...XXXX%%%# ooooooooooooooooooo",
"ooooooooooooooooooo# %%%%%@@@@+++...XXXX%%## ooooooooooooooooooo",
"ooooooooooooooooooo# %%%%%@@@@+++...XXXX%%# #ooooooooooooooooooo",
"ooooooooooooooooooo  %%%%%@@@@+++...XXX%%%# #ooooooooooooooooooo",
"oooooooooooooooooo#  %%%%%@@@@+++....XX%%%  $ooooooooooooooooooo",
"oooooooooooooooooo#  %%%%%@@@@++++.....%%%  $ooooooooooooooooooo",
"oooooooooooooooooo#  %%%%%@@@@++++.....%%# #$ooooooooooooooooooo",
"oooooooooooooooooo# #%%%%%@@@@+++++....%#  $oooooooooooooooooooo",
"oooooooooooooooooo# #$%%%%@@@@++++++...%# #$oooooooooooooooooooo",
"oooooooooooooooooo#  $%%%%@@@@+++++++++#  $$oooooooooooooooooooo",
"ooooooooooooooooooo# $%%%%@@@@++++++++#  #$$oooooooooooooooooooo",
"ooooooooooooooooooo#$$$%%%@@@@@+++++++%%#%$$oooooooooooooooooooo",
"ooooooooooooooooooo#$$$%%%%@@@@+++++++%%%$$$oooooooooooooooooooo",
"ooooooooooooooooooo#$$$%%%%@@@@@++++++%%%$$$oooooooooooooooooooo",
"ooooooooooooooooooo#$$$$%%%%@@@@@+++++%%$$$ooooooooooooooooooooo",
"ooooooooooooooooooo##$$$%%%%@@@@@++++%%%$$$ooooooooooooooooooooo",
"ooooooooooooooooooo##$$$%%%%%@@@@@+++%%%$$$ooooooooooooooooooooo",
"ooooooooooooooooooo#o$$$$%#%%@@@@@++%%%$$$$oo oooooooooooooooooo",
"ooooooooooooooooooo#oo$$$%  %%@@@@%%%%$$$$ooo oooooooooooooooooo",
"ooooooooooooooooooo#oo$$$$%  %%@%%%%%%$$$ooooooooooooooooooooooo",
"ooooooooooooooooooo##oo$$$$$ %%%%%%%%$$$$oo#oooooooooooooooooooo",
"ooooooooooooooooooo##ooo$$$$ ##%%$%$$$$$o###oooooooooooooooooooo",
"ooooooooooooooooooo#oooo$$$$$  #%$$$$$$#####oooooooooooooooooooo",
"ooooooooooooooooooo#oooo$$$$$#   #$#$$####oooooooooooooooooooooo",
"ooooooooooooooooooooooooo$$$$$#    ######ooooooooooooooooooooooo",
"ooooooooooooooooooooooooooo$$$$##   ####oooooooooooooooooooooooo",
"oooooooooooooooooooooooooooo$$$#########oooooooooooooooooooooooo",
"ooooooooooooooooooooooooooooo$oo######oooooooooooooooooooooooooo",
"oooooooooooooooooooooooooooooooooooooooooooooooooooooooooooooooo",
"oooooooooooooooooooooooooooooooooooooooooooooooooooooooooooooooo",
"oooooooooooooooooooooooooooooooooooooooooooooooooooooooooooooooo",
"oooooooooooooooooooooooooooooooooooooooooooooooooooooooooooooooo",
"oooooooooooooooooooooooooooooooooooooooooooooooooooooooooooooooo"
};
