/* XPM */
static char *result[] = {
/* columns rows colors chars-per-pixel */
"64 64 16 1 ",
"  c #B900D8",
". c #32003A",
"X c #200026",
"o c None",
"O c #43004E",
"+ c #550064",
"@ c #A900C6",
"# c #87009E",
"$ c #650076",
"% c black",
"& c black",
"* c black",
"= c black",
"- c black",
"; c black",
": c black",
/* pixels */
"oooooooooooooooooooooooooooooooooooooooooooooooooooooooooooooooo",
"oooooooooooooooooooooooooooooooooooooooooooooooooooooooooooooooo",
"oooooooooooooooooooooooooooooooooooooooooooooooooooooooooooooooo",
"oooooooooooooooooooooooooooooo@ooooooooooooooooooooooooooooooooo",
"ooooooooooooooooooooooooo@@@@@@@@@oooooooooooooooooooooooooooooo",
"oooooooooooooooooooooooooooo@@@@@@@ooooooooooooooooooooooooooooo",
"ooooooooooooooooooooooooooooooo@@@@ooooooooooooooooooooooooooooo",
"ooooooooooooooooooooooooooooo##@@@@@#ooooooooooooooooooooooooooo",
"oooooooooooooooooooooooooo#######@@@@ooooooooooooooooooooooooooo",
"ooooooooooooooooooooooooo#########@@@#oooooooooooooooooooooooooo",
"oooooooooooooooooooooooo########## @@##ooooooooooooooooooooooooo",
"oooooooooooooooooooooooo#####$$##$$ @###oooooooooooooooooooooooo",
"ooooooooooooooooooooooo####$$$$$$$$  ###oooooooooooooooooooooooo",
"ooooooooooooooooooooooo###$$$$$$$$$$  ###ooooooooooooooooooooooo",
"ooooooooooooooooooooooo###$$$$$$$$$$$ @###oooooooooooooooooooooo",
"oooooooooooooooooooooo###$$$$$$$++$$$  $##oooooooooooooooooooooo",
"ooooooooooooooooooooo###$$  $$$$++$$$@ @##oooooooooooooooooooooo",
"oooooooooooooooooooo####@@ @$$+++++$$@ @###ooooooooooooooooooooo",
"oooooooooooooooooooo###@@ @$$++++++O$@ @###ooooooooooooooooooooo",
"oooooooooooooooooooo###@ @$$$+++++OO$$ @###oo@oooooooooooooooooo",
"oooooooooooooooooooo##@  @$$++++OOOOO$ @$##oo@oooooooooooooooooo",
"ooooooooooooooooooo###  @$$$++++OOOOOO $$###o@oooooooooooooooooo",
"ooooooooooooooooooo##@ @$$$+++++OOOOOO@$$$##o@oooooooooooooooooo",
"ooooooooooooooooooo#@ @$$$$++++OOOOO..$$$$##@@oooooooooooooooooo",
"ooooooooooooooooooo#  @$$$$++++OOOO....$$$$#@@oooooooooooooooooo",
"ooooooooooooooooooo# @$$$$$++++OOO......$$##@@@ooooooooooooooooo",
"ooooooooooooooooooo@ @$$$$+++++OOO....XX$$##@@@ooooooooooooooooo",
"oooooooooooooooooo@@ $$$$$++++OOO....XXX$$##@@@ooooooooooooooooo",
"oooooooooooooooooo@@#$$$$$++++OOO...XXXX$$##@@@ooooooooooooooooo",
"ooooooooooooooooo@@@#$$$$$++++OOO...XXXX$$$#@@oooooooooooooooooo",
"ooooooooooooooooo@@##$$$$$++++OOO...XXXX$$$#@@oooooooooooooooooo",
"ooooooooooooooooo@@##$$$$$++++OOO...XXXX$$##@@oooooooooooooooooo",
"oooooooooooooooo@@@##$$$$$++++OOO...XXX$$$#@@@oooooooooooooooooo",
"oooooooooooooooo@@###$$$$$++++OOO...XXX$$$#@@@oooooooooooooooooo",
"oooooooooooooooo@@###$$$$$++++OOO...XXX$$$#@@@oooooooooooooooooo",
"oooooooooooooooo@@o##$$$$$++++OOO....XX$$$#@@ooooooooooooooooooo",
"oooooooooooooooo@@o##$$$$$++++OOOO.....$$$#@@ooooooooooooooooooo",
"ooooooooooooooooo@o##$$$$$++++OOOO.....$$$ @@ooooooooooooooooooo",
"ooooooooooooooooo@o##$$$$$++++OOOO.....$$$ @oooooooooooooooooooo",
"ooooooooooooooooo@o##$$$$$++++OOOO....$$$@ @oooooooooooooooooooo",
"ooooooooooooooooo@oo##$@$$$++++OOOOOOO$$$  @oooooooooooooooooooo",
"ooooooooooooooooo@oo##$@ $$++++OOOOOOO$$$ @@oooooooooooooooooooo",
"ooooooooooooooooo@oo##$@ $$++++OOOOOOO$$  @#oooooooooooooooooooo",
"ooooooooooooooooo@oo##$@ $$$++++OOOOO$$$ @#ooooooooooooooooooooo",
"oooooooooooooooooooo##$@ @$$++++OOOOO$$  ##ooooooooooooooooooooo",
"ooooooooooooooooooooo##$  $$+++++OOO$$  ###ooooooooooooooooooooo",
"ooooooooooooooooooooo###@ $$$++++++O$   ###ooooooooooooooooooooo",
"ooooooooooooooooooooo###@ $$$++++++$$  ####ooooooooooooooooooooo",
"oooooooooooooooooooooo### $$$$+++++$$ $###oooooooooooooooooooooo",
"oooooooooooooooooooooo###  $$$$+++$$$$###ooooooooooooooooooooooo",
"ooooooooooooooooooooooo##@ $$$$$$$$$$####ooooooooooooooooooooooo",
"ooooooooooooooooooooooo### @$$$$$$$$$####ooooooooooooooooooooooo",
"ooooooooooooooooooooooo###@ @$$$$$######oooooooooooooooooooooooo",
"oooooooooooooooooooooooo### @$$$$#######oooooooooooooooooooooooo",
"ooooooooooooooooooooooooo### #########oooooooooooooooooooooooooo",
"ooooooooooooooooooooooooo###@ @######ooooooooooooooooooooooooooo",
"oooooooooooooooooooooooooo###@@@#####ooooooooooooooooooooooooooo",
"ooooooooooooooooooooooooooooo#@@####o@@@oooooooooooooooooooooooo",
"ooooooooooooooooooooooooooooo@@@@@@@@@@@oooooooooooooooooooooooo",
"oooooooooooooooooooooooooooooo@@@@@@@@@ooooooooooooooooooooooooo",
"oooooooooooooooooooooooooooooooo@@@@@ooooooooooooooooooooooooooo",
"ooooooooooooooooooooooooooooooooo@oooooooooooooooooooooooooooooo",
"oooooooooooooooooooooooooooooooooooooooooooooooooooooooooooooooo",
"oooooooooooooooooooooooooooooooooooooooooooooooooooooooooooooooo"
};
