/* XPM */
static char *result[] = {
/* columns rows colors chars-per-pixel */
"64 64 16 1 ",
"  c #B900D8",
". c #32003A",
"X c #200026",
"o c None",
"O c #43004E",
"+ c #550064",
"@ c #A900C6",
"# c #87009E",
"$ c #650076",
"% c black",
"& c black",
"* c black",
"= c black",
"- c black",
"; c black",
": c black",
/* pixels */
"oooooooooooooooooooooooooooooooooooooooooooooooooooooooooooooooo",
"oooooooooooooooooooooooooooooooooooooooooooooooooooooooooooooooo",
"oooooooooooooooooooooooooooooooooooooooooooooooooooooooooooooooo",
"oooooooooooooooooooooooooooooooooooooooooooooooooooooooooooooooo",
"oooooooooooooooooooooooooooooooooooooooooooooooooooooooooooooooo",
"ooooooooooooooooooooooooooooooooooooo@oooooooooooooooooooooooooo",
"oooooooooooooooooooooooooooo######ooo@@ooooooooooooooooooooooooo",
"oooooooooooooooooooooooooo#########ooo@ooooooooooooooooooooooooo",
"oooooooooooooooooooooooooo###########o@@oooooooooooooooooooooooo",
"ooooooooooooooooooooooooo############oo@@ooooooooooooooooooooooo",
"oooooooooooooooooooooooo#@##@###$#####o@@ooooooooooooooooooooooo",
"ooooooooooooooooooooooo@@@@ @$$$$$#####@@ooooooooooooooooooooooo",
"ooooooooooooooooooooo@@@     @$$$$$####@@@oooooooooooooooooooooo",
"ooooooooooooooooooooo@@@@@@@   @$$$$####@@oooooooooooooooooooooo",
"oooooooooooooooooooo@@@##$$$@@  $$$$$###@@@ooooooooooooooooooooo",
"oooooooooooooooooooo@###$$$$$$$@$++$$$##@@@ooooooooooooooooooooo",
"ooooooooooooooooooo@@###$$$$$+++++++$$##@@@ooooooooooooooooooooo",
"oooooooooooooooooo@@o##$$$$$$+++++++O$$##@@ooooooooooooooooooooo",
"oooooooooooooooooo@o###$$$$$+++++OOOOO$$@@@ooooooooooooooooooooo",
"oooooooooooooooooo@o###$$$$$++++OOOOOO$$$@@ooooooooooooooooooooo",
"ooooooooooooooooo@ooo#$$$$$++++OOOOOOOO$$@ #oooooooooooooooooooo",
"oooooooooooooooooooo##$$$$$++++OOOOOOOO$$@ @oooooooooooooooooooo",
"oooooooooooooooooooo##$$$$$++++OOOOOOOO$$@ @oooooooooooooooooooo",
"ooooooooooooooooooo##$$$$$+++++OOOOO...O$@ @oooooooooooooooooooo",
"ooooooooooooooooooo##$$$$$+++++OOOO.....$@ @oooooooooooooooooooo",
"ooooooooooooooooooo##$$$$$++++OOOO......$@ @oooooooooooooooooooo",
"ooooooooooooooooooo##$$$$$++++OOOO......$@ @oooooooooooooooooooo",
"ooooooooooooooooooo##$$$$$++++OOOO....XX$  @#ooooooooooooooooooo",
"ooooooooooooooooooo#$$@$$$++++OOO....XXX@  ##ooooooooooooooooooo",
"oooooooooooooooooo##$$@@$$++++OOO...XXXX@  ##ooooooooooooooooooo",
"oooooooooooooooooo##$@@$$$++++OOO...XXXX  @##ooooooooooooooooooo",
"oooooooooooooooooo##$@@$$$++++OOO...XXXX  @##ooooooooooooooooooo",
"ooooooooooooooooooo##@ $$$++++OOO...XXXX @$##ooooooooooooooooooo",
"ooooooooooooooooooo##@ $$$++++OOO...XXXXX@###ooooooooooooooooooo",
"ooooooooooooooooooo##@ $$$++++OOO....XXX$$###ooooooooooooooooooo",
"oooooooooooooooooo###@ $$$++++OOOO....XX$$###ooooooooooooooooooo",
"ooooooooooooooooooo##@ $$$++++OOOO......$$###ooooooooooooooooooo",
"ooooooooooooooooooo#@@ $$$++++OOOO......$$##oooooooooooooooooooo",
"ooooooooooooooooooo#@@ $$$+++++OOOO.....$$$#oo@ooooooooooooooooo",
"ooooooooooooooooooo##@ $$$+++++OOOOOO...$$##oo@ooooooooooooooooo",
"ooooooooooooooooooo##  $$$+++++OOOOOOOOO$$##o@@ooooooooooooooooo",
"ooooooooooooooooooo##  $$$+++++OOOOOOOO$$###@@@ooooooooooooooooo",
"ooooooooooooooooooo@#  $$$$++++OOOOOOOO$$###@@oooooooooooooooooo",
"oooooooooooooooooooo#  $$$$+++++OOOOOO$$$##@@@oooooooooooooooooo",
"oooooooooooooooooooo#  $$$$$++++OOOOOO$$$#@@@@oooooooooooooooooo",
"oooooooooooooooooooo# @$$$$$++++OOOOOO$$###@@ooooooooooooooooooo",
"ooooooooooooooooooooo@ $$$$$++++++OOOO$$##@@@ooooooooooooooooooo",
"ooooooooooooooooooooo# $$$$$$++++++O$$$##@@@@ooooooooooooooooooo",
"ooooooooooooooooooooo@ @#$$$$++++++$$###@@@@oooooooooooooooooooo",
"ooooooooooooooooooooo@ ##$$$$$+++$$$$##@@ @ooooooooooooooooooooo",
"ooooooooooooooooooooo@@@##$$$$$$$$$@$@#   @ooooooooooooooooooooo",
"ooooooooooooooooooooo@@@###$$$@  @@@@   @@oooooooooooooooooooooo",
"oooooooooooooooooooooo@@###$$$@@       @@ooooooooooooooooooooooo",
"oooooooooooooooooooooo@@#####$$##@   @@@oooooooooooooooooooooooo",
"ooooooooooooooooooooooo@@############@@ooooooooooooooooooooooooo",
"ooooooooooooooooooooooo@@o###########ooooooooooooooooooooooooooo",
"ooooooooooooooooooooooo@@oo#########oooooooooooooooooooooooooooo",
"ooooooooooooooooooooooo@@@oo########oooooooooooooooooooooooooooo",
"oooooooooooooooooooooooo@@@ooooooooooooooooooooooooooooooooooooo",
"ooooooooooooooooooooooooo@@@oooooooooooooooooooooooooooooooooooo",
"oooooooooooooooooooooooooo@@@@oooooooooooooooooooooooooooooooooo",
"ooooooooooooooooooooooooooooo@oooooooooooooooooooooooooooooooooo",
"oooooooooooooooooooooooooooooooooooooooooooooooooooooooooooooooo",
"oooooooooooooooooooooooooooooooooooooooooooooooooooooooooooooooo"
};
