/* XPM */
static char *cb722d50778442dec160fe5b73ec3263fcQ7Vgq1ROnnwwJu[] = {
/* columns rows colors chars-per-pixel */
"64 64 58 1 ",
"  c #040100",
". c #090601",
"X c #0D0A05",
"o c #0F0B08",
"O c #110E06",
"+ c #110E09",
"@ c #131007",
"# c #15120D",
"$ c #19160E",
"% c #171310",
"& c #191611",
"* c #1D1A15",
"= c #1F1B18",
"- c #211E16",
"; c #211E19",
": c #232017",
"> c #25221D",
", c #29261E",
"< c #2B281F",
"1 c #272320",
"2 c #292621",
"3 c #2D2A25",
"4 c #2F2B28",
"5 c #312E26",
"6 c #312E29",
"7 c #333027",
"8 c #35322D",
"9 c #39362E",
"0 c #3B382F",
"q c #373330",
"w c #393631",
"e c #3D3A35",
"r c #3F3B38",
"t c #413E36",
"y c #413E39",
"u c #434037",
"i c #45423D",
"p c #49463E",
"a c #4B483F",
"s c #474340",
"d c #494641",
"f c #4D4A44",
"g c #4F4B48",
"h c #514E46",
"j c #514E49",
"k c #535047",
"l c #55524C",
"z c #59564D",
"x c #5B584F",
"c c #575350",
"v c #595651",
"b c #5D5A54",
"n c #615E56",
"m c #625F5A",
"M c #65625C",
"N c #69665D",
"B c #696661",
"V c #6F6C67",
/* pixels */
"ei3=6X6&;6X23X>fh7.:5.<$&8O2%1gsrr4=4%3&;>.33#1pf8X:5X3**7X2&2ie",
"gpwd+ 8e84. t2yetk,9X.25w6.Xsrsgcgrgo 3863+Xw;uwwh<0..38q2.Ofysj",
"jylry>e  y6e# *pa< Ou5e  63ssmegdylyy>r. e6y# ;ua3 @u8t .q5dsbqy",
" elfye2;33.&w*wtii$7*.<368qqsjgo dlgy84;61 #w1etiu*7&.<3338qsjgo",
"*3*3rd3682X*8*8we0$8*.35;8uly*q.*w*8yr8632+=q#qiut$7*.2314yjs=qo",
"p1#&idiX q6d# ;ip, @i3w Xjrs;.6yw;+;ggfX e8i$.*pp, @i30 +csg= 3r",
" e2i&8iey,.+e,deik<tO 3uyft>g38 .w8d*erqs6 Op6fwuk,eO.3eqre1g4q ",
"2r #w4edsw&q; ;if<.:8$ppkqreo.2338.+wrylyu&q1 *ff< -7#iigqyr%.34",
"3*X16+qfld831 2pa8 -85whvr&4%+11>*X>8+qlcr88; 8fi5.:35tfby&6&o36",
"Xe3rO.1eqgy6e8s8uz973efuy= &s1ro.y6y#.2yeby6s8w8ia3730ieg; #gwy ",
"36.+e3r  ezy; 3fa< :uzi@ r;r% 1q38X+y6y .ily5 :da, -ixe@ rwf  4r",
"+q&8;.8328wdd>eka9,ka87,4e %q=6++e*8;X6363qjd>yptu7ai08<q8 #e4s ",
"&8&w;.23*63eblbfizaxe58-=6X&q=4o#w*q>.>3226ivjMi9Mzk878:=2o1q*q%",
"8;.+y38 .>1,wezfua90553O w3r+.=q8>.+i68..32>iyllia9087<X w2r% =r",
"#eyd;>6yje&1lkcw0Mxb7$3ij4;*srr&+eid;>3ddy&;MmvianzMe*3igw=*gre;",
"jdfsjyidscfsfwdt9h9ippffjysjyddsgdfdlddjfgfjlsvw0auaidkdigdddgil",
"fdyyfygyijdddyye9uatpa9fffqgswsgysiygessfsddgdlwiulgffesdfykrigi",
">w;q#&2823*2fbvypnkk:Xu834&&r2e+#w>w&*2e38*;nBbfuNjk8Oq8q>*;r1w&",
"e;.+i28.X336qtffixexp,u. d3e% 1862.Xi3w.+66>yygcdM8ir;wX.e3y&.;e",
"X8;q;.322623dljyiNxau5354w &r=8+.e;8*.3>3236ygbryvcje34>68 &w;8+",
"&e&1#X6;&erw3,8wpt<$ef88;q =q%q%#e#2*+q3*8ft3;red621wd8>*qX&6&8&",
"e3X#y6e #svs&.*fp*.;fbhO r4d%.4qe3.+d3w.Xfme> &kj3 $ilp# e6y#X2e",
".66y#.;ypy68e8wupa7u5:hid1 %e4r .q3y#.*ees82p6qsij8yw;yys;.+r38.",
"e&+&3&efeseq& *ti7.O0tpfg6=w% 138;++3>edyeiw& 3pd6 &68fsy6;8&X*6",
">8O&q3qjfy+31.;ff<O<qO8hbw88= q1*q+&86wjpu#3>X,sg8.>qXwjzy88&+8>",
" 81y>ssew2.+y1peik<0O.-eejg,d4r .w3s;yi8r> +y;rrrc,q+.3i8fy>s16 ",
"i1X&idf+ q2y&.*i0,.Ou7w. fff%%1ww;X&djj# 8>r& ;fy8X#s6e  ffs>+;r",
".3>rfe3>82.#8*9wup:7*.;3q88dq;6=.62ify2;31.#q1ryep;8&X3388ee8;8#",
".fdyw683;1+&6&8tfu#<:@;<188fgly +jjde862;3#;8&wyfeX3;X31*68efgp ",
"eeldi>q  y6e+.;yi: @a80. w&eevyseecff2e  w2y# ;fg> &y3e  e&eszug",
"yewsX.6wt6..q3f80x0tO.*8q8XOgyssgirf+.28y2 .y3fyrl8sX.6ww8.Xferf",
"ge;X8>6X.3>w; &fa<.#w<8#X,>q*%wgje&X816X 31t; *sl1 ;q>r+X6>8#*8s",
"ye2#3&3&+8;3*X3ff3.1q#3&#6&6&1efyw>&6&6&%4&6>.1fg3.3e&3#&6;3&>er",
"gitf#.26e1.+y2iwqj1e+X3q83.+fqrljief#X3683Xoe>uwsl>qO.6e66 ;pirl",
"iejye;rX q1y* &dd3.+y8r  r1fjlqrdefer>yX w3i& &sf3.+y8r  86ycfyw",
".dgde66>12X#6;eyfi&6&O636838fkfO pfde86>82 &q;wyyp>w*.36381qilf.",
"#8&8si83>8##3&weiy#3;X66;3ygy>3++8*8ie8364X&8*8esi&8&X88;3rlt>3+",
"w*.*gjfX w6u#.*si2 #y2e &lfs&X*yw;X&sdg+ e8u+.;if3 #s8r &sle> 1y",
".w3r&eyry2 +i3seel2rX.3iedy;f68.Xw2e#qyee3.Xe2dyrl2r#X6w8y83e86X",
">8.+ericyu&81.*sf, >w&sigyee&.31;8.+eeedie+q3 &dg3.;6&psjeee& 83",
"2>#>6#qdvs3>>.1yr8 283sfci#1;#36;>+;6#wffi311X3sd6.366yfce#3&X23",
" w3y& ,s3fy8wqdqrs8e6eddi2 &d28..e2y# >ewde8w2eqys3wwijdt; &y3e ",
"e3 +fqr .ibd;.*ey* ;sbw& w>i& 2636.+y3e..qgy;.>dj3.;jvy+ w2i+.66",
".y1q& 63368dj2wyit6fdy6136.*8;t+.y;8*+q3386yd3eiyy8fjee336.&3;r+",
"#8#2;+2;;2>wmbmsyBlcr8q*;3X*q=w +e*3*.22*638lvbeymmjy8w1;2.*q*q+",
"3;O#u>6+X232eevfdb8st26X q4eoX1qq;.Xi23..;>2eqvjljyey32..q3y#.&e",
";ref212sdw*3bbmfdmbBe#2if4=%fsd;&tyf>;2dgq#2vvmdylbvy+8dlw;&gre;",
"ssfyjggkfvgdvyftidrfilffdfdffldgfjjydssdsliwgdj8widsfwlfpjddfluf",
"idyygydsfigejjdieafptuappffgsdysgdfygyryfyspsrfwwekppjuipjiyyfeg",
"*e>8&&2w38X2blVtiNxa<@376*;;s4q%*w28&*>e13&;bnzdyNhh5O958>*&y63&",
"62.Xs3w.+e*8s8Mdax9uu,8. 83p% =rw3X.r68 X32>yrpftn7aa,e..w3y& *w",
".e>8*.323622fzvyixahu,8,33 &q;qoXr,8*.213>13pgb0ikha9<8633.&q1qo",
"&r&2&+6>;3f3363yf0:<ru0>;6X&3%w++e#2*+6,;6ye3;rwp5<,9p5:=4o=6*r+",
"e3.+s3w.#eme*.>fz- $fnt$ t3i%.6ww6.#f3e +fbe> &fi,.$fxuX r4d%oqq",
".q3y+.*ydy66y6ypip9ue3upi1 +y3qX e3i& >yys62d88ipk<7<:fpf1 %r4r ",
"w3#&32rfyyf6;.;df0.#38zaiy*81.=462X#3;ifyeye* 2yu5X$5epefq=w=X36",
">q#&q6qlji#31X>fk7O77.efvew8=.q1>q+#8qelcyX32.;di5O<5.tplwqq1Xq1",
" 6>y;yyee3.#i2ieik*9OO8trds=y18  61y;ydtw3X+t>pyih:0O.5ewjf*s3w.",
"y1+&usf# w6y*.*ii<.Ou8t  fgg1+1ry>+&ysf# r8e+ >fh5 @i3e .ysc3o&g",
"X8>ufr3283.&q*wuei-9$.3736qg614+.6,rde31w3 #8;tupi:9* 37;wer448X",
"Xfyrq883;,+;8#8iiu@7-X33>64ysjy +ffyw682>>.;w&8pau@5*X33331dgdro",
"rtlsi>w  e3t#.*tf< @i3e .e=sivsjircfs>8. q6s$ *aa5 Oi8t  s;qebss",
"iyesX 8ry6. r3d8ez3tO.2we3X&cryffyesX 6et3 .r3detz50X.28w1 +lqqs",
"fr,+6;6#X3*w1 -ff7 $8$8&+3>6%&rgbd1#8;6#X3*8>.>pk5 -9*6%X4>2%*rc"
};
