/* XPM */
static char *_4e752960e844bf19cbf7931c0322941tVybtVkBwQ8x1V47[] = {
/* columns rows colors chars-per-pixel */
"64 64 78 1 ",
"  c #212026",
". c #25262B",
"X c #28272D",
"o c #27282D",
"O c #292A2E",
"+ c #2D2D33",
"@ c #302F33",
"# c #2F3034",
"$ c #333335",
"% c #383735",
"& c #3A3937",
"* c #343439",
"= c #39373B",
"- c #37383D",
"; c #3B3A3D",
": c #413E3D",
"> c #43413E",
", c #3C3C42",
"< c #403F45",
"1 c #3F4045",
"2 c #434345",
"3 c #494644",
"4 c #45454B",
"5 c #48474C",
"6 c #47484D",
"7 c #4A4A4D",
"8 c #514E49",
"9 c #52514E",
"0 c #4D4D53",
"q c #4E4E58",
"w c #504F53",
"e c #4F5055",
"r c #525255",
"t c #595654",
"y c #5B5853",
"u c #55555B",
"i c #58575C",
"p c #57585D",
"a c #5A5A5D",
"s c #605E5D",
"d c #62615E",
"f c #575761",
"g c #5C5C62",
"h c #5F5F69",
"j c #605F63",
"k c #5F6065",
"l c #636265",
"z c #696665",
"x c #676863",
"c c #6C6A66",
"v c #64646A",
"b c #68676A",
"n c #67686C",
"m c #6B6A6C",
"M c #706E6D",
"N c #73716E",
"B c #6C6C71",
"V c #716F71",
"C c #747373",
"Z c #797673",
"A c #7B7976",
"S c #767678",
"D c #79777A",
"F c #7C7B7A",
"G c #817E7B",
"H c #84817D",
"J c #868481",
"K c #898682",
"L c #8D8A85",
"P c #8F8E8A",
"I c #918E89",
"U c #95928D",
"Y c #959490",
"T c #999691",
"R c #9C9994",
"E c #A19E99",
"W c #A4A19C",
"Q c #A8A5A0",
/* pixels */
";024061#.-1e01e0eee7ee1oO>99w8ww8galxar&%8szzcMcMGzcGGy:>cHHGGG8",
"0gpfkp0--1rpkkkkgkkknxe#>pxnzcmcaVCmCAM8:sZGGGGGGHHHRHG88GHHHHGG",
"4pupkkr116rupkpkakaakke%3anxlcmzaMmmNCM88sNZGGGGHHIHTHGdyGHEGGGG",
"4peufkkpepkkppkpkdapkndetvmkjbcjazxVCBmxjMGGGGGLHHIIHTHGGHHHGGGG",
"6kapgpkkkkpkkkkkkkgpavvxxnbxmVmlskkCCmAFGHGGGLLLUUUUTWETRQRHGGHG",
"1ppggrppkpuuuppkakkgaakdnkxbmmzstnMmnMANZDDGKKGGHHUTRERTHHHHGGHc",
",eeakpgpkppkkkkkkknkkkkknvmCCxtredxNCCFNZGGGKKHKUTTTRERTQRHEHGGy",
"o,,6ppfppqupkkkkkdggkkkaxnNFmr<:%;3kSNSSZGGGGGHIUHUUTRRRRHHHGcy8",
"o-1eppppkukpknkkkakggxkxmjBGc<%:%&;dSNCFHAHFHLHIIHUHITTRWHRHHy88",
"-111pppppk0kkpBpanpkkpMkjCjCV5s<;7edCCSASJCJLGIHKTHUTUQTEWHEHNc8",
"11eeppupk0kppBpkkrnaanancjCbMCsr1dxxNCFSFNPHHUHIIGRIUEURRRHHRHHN",
"1gpeppepukupkkkpakpkkknxjGcbMmCt7xnnNCFSAFAJHHHHHIHIIIRURRRRTHUH",
"eppeuueppkukkpkpkkakvjmljDbBMjCsrxnNSCFAAFNHHGHLIIKHHITUTTTHHUUZ",
"1ppeuuppkenppkukviBkhVamVjCccVjMsmnCFSAFFxHAFHZHIGUKHRHRTRTTTUUZ",
"1up1uupfekekkunpknpnbamjjDsBCjCjpmxNSCFANHxHHNHNGIGKHHEHTRTRTTHH",
"1ukpuuppppkgpkgklgvkkbjbbjcjjBjstxmmmNSSSmFFFANNNZKKHUHIIIHTUHHZ",
"1pppppkpppkgpkpkhknkknkxbvhbBbjjtjbVGVBGVbGDVGbGNGGGHHHHHHHQHWHH",
"1gppgpgpekekkenpgnpnnpBkvbbvBBjjwbbmbbBBBDvDGjDMNZGGHHHHHHHQHHHZ",
"1kppkppppehppnpnnpBkkBpnvnbjbBBfwmbbbbbBGjDVbDjDNNZGZHHHHHHHHHHN",
"1npppppppgppgpnkgkkkkkkkjBnjjBBjwmVBbbGVBVBVDbVBNNZGHHHHHQHHHHHx",
"1ppggupgpkepkphkglagkpkkjBnjjBbjwbmbbbBbBVbGGbCBNZZGGGHHHHHHHHHN",
"1epkpepgkenppnpnlunirnunjbjbbnjftbbbBbbbVhVbVDvGNNZGGGHHHHHHHHHc",
"-11gpppppnekkpnpamullrBknjjbjf55<tijVzbbbVhVGjGMNNZGGHHHAHAHAxxy",
"o111kpkpppppknkklglgalknBnjjj5,,:<<ibjzbmjBBBDbVNNNZZAZAANNAx8>&",
"o111gpkpgpkkpkphlfjjjbjBjnjnj5<@@=<sbjbjBmmBVDVbNMcNAFAANAAAx9>%",
"11ehkgkkpk1kkenerlwjjungjbjnjgu5<wibbjjGbbcjcBBbVmVVNNCCNACFAxxy",
"1uppppkpkenupnefi7luinibjbgjnjjitsizsijbbbjcbBbbnMCVmVCSNAxASNNk",
"eppkgkkgpkpkgpgeujrfjgBbjjfjbjjusjjjjiGbbBVBbbbbxxmmcVCCAANNCNnd",
"1npkpgkp1kpkpeperjrfjjjijjjjbjjisjjbbbbjsjjjbbbbxxlbmMckkBmNNBCx",
"1kgppu1111npekegfwbijV5<5jjjjjjjizjjbjj<7tjcjbbmbbzlmBd99xxmxnma",
"pkkkppe1o1ekp1kprjwjbir+,rfjjjjiibjbGjs<<7sjbbzlzzlznxr>1kxmnxma",
"1p1e1p1*o1e11eeeuww5rf<@*5rifrr7<wtt5ww=*3ujjssiuaasda3$&yaaddx9",
";ee1771O#1676e6476669e2$:<ww9i9<<tiiwt<<&5raklllakakgp>$$tdxdda3",
"ekappae*$1uppakurrrtai2$=wyyssswtjjsjsi<$5dbxlllxcBCCn9>>snNnxx9",
"ppuepu0*#1tpppaakpupaa7&:5ittutwtjjjzzj<;rbmbldlllvcVnt21xxxxdd9",
"eaeeppk16eakakggkauipprr8sjsyiitwiisjbbialnmkkklvkxnVVckkNmcxda9",
"pappppkppkkpkkkgapppaaaassiiisttijjjbbVjnblljjjbxvvnBNCCMBxxxxa9",
"eupueepeapeugggpupagautuuwwtsiitibjBbjmjvlllbbjjdkvcnnnNxxakxaa9",
"1e0pkekpkkpkkkkkppppiuwwsisjsu885rijjjjjjjjlljjjbbbBVmBNnMxxxdy1",
"--1epepupppkkgggngupjfiiuusjt<::=<<ijjbjjjjjjgjjvkkvnxbnxnxxa1>%",
"##11fggfhfhhfkfhkupeepekijjs5:@@$@<wfjfjjfjffjjjgjllvblxkdax9%#o",
"11qqgffffvqhkfnfan0kk0kriijjs<<<<<7ijjjjjbrjjiBjlgjllvkdkkakt11&",
"0qkggfpghqhffnfhkekerkekiijjjiww0rjjjjjjjijjfBfBlllhllkkddpdard9",
"qgkgfffkfhfhhfvhkkeefrgpiiijjjiwujjffjjhjjijjjjjvvkhkkgkaappppx9",
"fffhgkhkfhfhhhvhfhqfuegrjijjjsuwijjifjhjjbfjjjjjvjhgggsaaapypps1",
"fhhffhhfhfBhhBfnkrkurk6gfiiiijiriijfjbnjjfbffBfbjgggggaaaarpypa7",
"qhhhfhhhfBfhhfBhgnqff6keuiiiifgufifjjnbjjbujjfbjjjfjaggaaa9ppry7",
"qkhhfhhhhhhhhhfhhffuuf0rwuiruifrijjjjjjbjfjfjjjjfgiigggapuepp9ae",
"qfhkhhhkhgkkhnhhfffuuuuquqffuuugpppkpkkkkpkkkkfkiiiifjfiijjuuuu<",
"qhkkhhhhgnfhBfBhhgfpfuuuuuuffffgkpppkkkkkk0kkukpgiuiiijiufiqwuww",
"fkhfknhkhunffnqkkggfffuffuufffffppukkkkpkekupk0kffiifjiiuiuquiu<",
"qhhfhnhhhhfhkfhhggffuufufuffgfffppukkkkkpkekkpkpjfuuiiiiuiuquii<",
"qknhhhhhhvfhkfhhhffffffffuughgffepkkkpkppkekkekpjuuuifuqiququu<<",
"qkhhnhhhnunfhnfkkggfffggfufgguqq0eukkkpkkekppk0kfiiuiiuuwuiiuwww",
"11fkBnhhvBuhvqvfkhgfufggufffr4,,111ppkpkpkekk0krsirruiuuiiiqw<<<",
",,1fBnhnnfhgghfhggfuufffffpu6,,o++10pkkkfekkfkrgiiuuiuuriqfw<@++",
"+,4fnvBhnvhvjffhgfgfgfggppfu11+oo+-0ppkpagkkgpfkjiifgjiiqsii<<@ ",
"<6qhvvvhhhgghfffgffuupupuufuf111111eppppqruapuuuffgffiiiwiqiu<<<",
"fhhhvhvhhhffguufkfffffppuqqqqqqq10quuupkuurrerrriiiiiiifqu<<wi<<",
"hvhvhhhhhhgggffufuuffffuuqqqqqeqe0eueeeuuuu0eruu<iiiiwfiqi<w<qf<",
"fhhghfhuquffffuqueqqff1,1fqqeqequ1e1ee0140qqwuqqiwiiiq<<<ii<iwq<",
"hnhhjff0,6uffgfuffquqf1,11quqff1ueeupp11*<qrifiwqif<qu<<:w<q<qi<",
"hvhvhhq,*<ufuufuffqffq,,#1qqqpppeuueuu11X,riuigui<w<fu<XX<qwwiq<",
"qgfgffqo,<uuqquufqqff1,o+1qqep11e10e111-X,<<0<<u<i<i<<< X<<w<<<<"
};
