/* XPM */
static char *e252b71b6ad34b3ef587a4d3ec64007ahwvGEDHY0TVSIUkm[] = {
/* columns rows colors chars-per-pixel */
"64 64 139 2 ",
"   c #091009",
".  c #111713",
"X  c #171E17",
"o  c #151B19",
"O  c #191F1B",
"+  c #1D231E",
"@  c #1D2322",
"#  c #202723",
"$  c #232A25",
"%  c #262C2A",
"&  c #292F2C",
"*  c #2C332E",
"=  c #2E3432",
"-  c #303734",
";  c #333A35",
":  c #383A37",
">  c #353B3A",
",  c #393F3C",
"<  c #3B423D",
"1  c #40473F",
"2  c #3D4341",
"3  c #404744",
"4  c #444A45",
"5  c #484F47",
"6  c #464C4A",
"7  c #494E4B",
"8  c #4C524D",
"9  c #50574F",
"0  c #4D5352",
"q  c #4F5853",
"w  c #505654",
"e  c #535A55",
"r  c #555B5A",
"t  c #595E5C",
"y  c #57605B",
"u  c #5B615D",
"i  c #5D6362",
"p  c #616664",
"a  c #636966",
"s  c #656B69",
"d  c #696E6C",
"f  c #6B716E",
"g  c #6E7471",
"h  c #707673",
"j  c #737975",
"k  c #757B79",
"l  c #797E7B",
"z  c #7C827E",
"x  c #7D8381",
"c  c #808683",
"v  c #848A86",
"b  c #858B89",
"n  c #898F8B",
"m  c #8B928E",
"M  c #90928F",
"N  c #8E9492",
"B  c #919694",
"V  c #949B95",
"C  c #969C99",
"Z  c #999F9C",
"A  c #9CA39D",
"S  c #9EA4A1",
"D  c #A1A6A3",
"F  c #A4A9A6",
"G  c #A6ACAA",
"H  c #A9AEAB",
"J  c #ACB2AD",
"K  c #B0B0AE",
"L  c #AEB4B2",
"P  c #B1B6B2",
"I  c #B4BAB6",
"U  c #B7BCB9",
"Y  c #BCBEBB",
"T  c #B8BEBC",
"R  c #BABEBB",
"E  c #BFC1BE",
"W  c #BDC1BE",
"Q  c #C0C0BE",
"!  c #BFC4C0",
"~  c #C3C5C2",
"^  c #C1C6C2",
"/  c #C2C7C3",
"(  c #C1C7C5",
")  c #C3C6C3",
"_  c #C4C9C5",
"`  c #C5CBC6",
"'  c #C9C9C7",
"]  c #C7CDC9",
"[  c #C7CCCA",
"{  c #C9CECA",
"}  c #C9CECB",
"|  c #CBD0CC",
" . c #CAD0CE",
".. c #CBD1CF",
"X. c #CCD1CD",
"o. c #CCD2CE",
"O. c #CDD2CE",
"+. c #CCD2CD",
"@. c #D0D0CE",
"#. c #CFD4D0",
"$. c #CDD3D1",
"%. c #D1D3D0",
"&. c #D0D5D1",
"*. c #D0D6D2",
"=. c #D1D6D2",
"-. c #D1D6D2",
";. c #D2D8D4",
":. c #D3D8D4",
">. c #D5DAD6",
",. c #D4D9D5",
"<. c #D6DCD8",
"1. c #D6DCDA",
"2. c #DADCD9",
"3. c #D8DEDA",
"4. c #D9DEDA",
"5. c #D9DEDB",
"6. c #DBE0DC",
"7. c #DCE1DD",
"8. c #DCE2DE",
"9. c #DCE3DE",
"0. c #E0E2DF",
"q. c #DEE4E2",
"w. c #E2E7E3",
"e. c #E1E6E4",
"r. c #E5EAE6",
"t. c #E4EAE5",
"y. c #E8EDE7",
"u. c #E6ECE9",
"i. c #EAEEEA",
"p. c #ECF2ED",
"a. c #F0F1EF",
"s. c #EEF4F1",
"d. c #F2F5F2",
"f. c #F6FBF7",
"g. c #F4F9F5",
"h. c #F9F9F7",
"j. c #F7FCF8",
"k. c #FDFFFC",
"l. c #FBFDFB",
/* pixels */
"t s h d g l g g k g s k h f k g s a a s s s f g z u z h u p p u h j l l l c c j l l z l l l j j d c j j x k k g l d g h g d s i ",
"2 e i t r r r i 0 d s 0 0 r i i u y y e q q 5 9 q u r 5 t 9 : u p u u d d p a f p p u u u p a a u a u u r i s t s r w w r t r 6 ",
"4 u s s a i r r r a s r i i r i u y y y e q q y k u 9 r t 4 1 d u e e p d u p j e u p a p a d d p u d p r a s i i i i a s s i 6 ",
"7 0 6 6 w r i i w 7 w u s s r s q q e y y y u a 1 8 p e 5 u i : 9 p d d f p 9 5 u p a a u u 9 9 f p f u r r 0 r i i t t 0 0 w 0 ",
"0 r 0 0 0 2 2 < 0 2 4 2 > 7 0 2 < < < 3 3 1 < 3 < < : 4 5 < : 1 1 5 8 1 5 9 4 : 9 8 5 4 7 8 8 5 7 4 6 2 6 6 > r 2 2 3 t t 0 0 0 ",
", w w t 7 % & = % = = > = % > = ; ; ; ; - * * - ; < : - * : 1 : : : : : : : : : ; ; - - ; : - & & : : = = = % = , % @ 0 i 0 0 2 ",
"4 t 0 w 7 , p z C L C F I F T ! I I I U I P P P U K K Q Q P Q Q K K @.2.Q ~ Q K +.@.@.+.| Q K F K Y Y H N S K N x i - 6 r 6 r 2 ",
"2 r 6 e 7 ; w p B ` g 4 i i s i a p a a p u t u F X.c 5 d p e f t u f t 5 c Y D u u p p a a p p i i p w > h U v p r - 0 r 6 r > ",
"1 9 f y < < 9 9 p m A h I ` 6.6.9.;.+.*. .*.X.A Y k.M %.@.Q ' 2.@.r.@.I E m j./ F 6.6.6.*.w.4.O.( $. .L x C x s 0 0 , 6 i d 0 6 ",
"< < 1 9 1 < 9 5 p f n J z 6.s.p.s.p.s.l.j.l.g.{ Q k.K d.d.a.h.k.h.h.a.l.a.D l.] 6.l.j.j.f.l.a.p.q.1.$.D L n g r 0 t 2 6 0 6 3 2 ",
"1 9 1 9 y < 1 * < u r M W m ;.g.r.r.y.g.g.g.i.Y ~ d.P a.a.a.l.h.d.t.y.a.w.G l._ >.d.p.g.a.p.p.d.s.q.S L N s g 2 % 0 > 6 0 6 r 0 ",
"1 y 5 9 5 ; 9 $ X 5 u p v H m +.r.s.s.p.p.g.i.E H ) K h.h.h.k.l.j.s.a.a.t.J ,.J ` y.p.p.p.e.w.i.! S D C i g > % % 0 > r i r r 2 ",
"< y 9 9 9 ; 9 ; < + u y u V F A @.a.k.g.a.h.h.2.f l M a.h.h.k.h.h.a.p.j.p.V z j >.d.d.p.d.y.4.X.G B S s s 6 % - - r > 0 i r r > ",
"1 y 9 9 9 ; 5 ; 1 1 X 9 p a A F F >.a.d.i.a.a.r.K D Q a.l.l.h.h.f.k.a.y.d._ F K t.d.t.8.s.e.{ F G D s i 0 @ 6 2 = 0 - 0 0 r r 6 ",
"< 1 9 9 5 ; 1 * * 9 5   9 y z V D W @.i.d.a.a.h.l.0.a.a.d.h.a.y.i.f.p.=.9.d.r.j.y.p.q.*.t. .U A N d i i % 2 2 > > 0 2 2 0 r 0 2 ",
"1 9 z 9 1 < 1 ; < 1 5 9 $ 5 y z A V C ' a.i.a.a.a.0.a.a.d.l.d.y.f.p.f.a.p.d.q.p.r.y.8.O.*.F D A g s 0 @ > 0 0 2 > 2 , 6 i d r 6 ",
"1 1 2 < 4 > 7 = , 3 9 9 < * 1 g p n V J 6.y.d.y.p.y.,.9.y.d.g.0.g.s.q.s.s.u.s.u.1.u.q.( S Z C s d 2 = 2 w 0 4 2 & 0 , 0 6 , 2 0 ",
"5 y w 0 4 - 4 ; , 3 4 5 5 < < 1 a f F A A w.y.6.y.p.y.y.p.p.h.g.g.s.u.u.u.e.u.q.u.1.$.G S C s g 2 > 2 6 6 3 3 , > 0 - 7 0 6 0 2 ",
"5 q e 0 4 = 3 ; 1 5 5 1 9 9 1 - 9 a d V J F &.y.9.p.s.p.y.y.d.g.s.g.s.u.u.u.s.u.u.1.G G C g s 0 - 2 r 0 4 4 2 , ; 0 = 0 r r r 6 ",
"5 8 q 0 w < 7 > : 9 9 5 5 e 9 5 ; 9 a z A J J Q t.p.p.s.d.y.p.p.s.g.s.u.u.s.u.1.1.L L Z g s 0 > 6 7 r 0 6 7 0 > = 0 , 0 r 0 0 6 ",
"2 0 0 w 0 , 7 > 1 5 5 5 1 9 9 u 5 ; 5 z z n V V ;.9.9.p.s.y.p.r.s.s.e.e.u.u.1.T G G Z k s 0 = 0 r 0 8 7 7 8 6 , = 0 > 0 0 6 6 2 ",
"2 w t r 7 - 3 - 1 5 5 8 y 9 9 u u 5 * y z z V A W ! 6.t.y.9.t.u.u.u.1.q.q.1.[ G G S g s r = 0 r r 0 8 0 8 4 4 2 > 0 = 6 r r 0 2 ",
"4 r p i r , 8 , 1 1 1 9 9 9 9 9 9 u y ; 5 z z V F W +.q.y.q.u.i.e.e.1.q.1. .T S G g g r > 0 r r w 0 7 7 4 4 3 , = 0 = 6 r r r 6 ",
", 4 4 7 0 , 7 - 1 1 1 1 1 9 9 u 9 y y 9 1 5 z z A G W ,.q.9.q.1.q.q.1.1...L G C k k 0 > 0 r r 6 w 7 6 2 < 3 2 = % 0 > 6 0 6 6 2 ",
"2 6 0 r 0 > 7 3 4 6 9 e u 1 e u 9 u u u t 4 9 c h D F F W ;.q.q.1.u.q.$.L G Z k x 0 2 r i r r 0 r 6 6 0 r 6 2 2 2 0 > 2 0 0 0 6 ",
"3 0 0 w 0 > 4 , e e w w 1 1 9 u y a u a d r 6 w b h D F F ..1.u.q.1.1.L L S k x r 6 0 i i r r r r 6 > 2 6 6 0 0 > 6 > 6 0 0 6 2 ",
"3 0 w r w , 4 ; & - : ; 1 1 9 u y a y 9 d h r 5 w c z V F L 1.1.1.q.T G Z x x t 6 r s s r r r 0 r 6 2 > = = = = = 6 > 6 0 0 6 6 ",
"4 0 r r r , 7 > < 5 9 9 9 u a p y a u 9 a h d s 2 p l z Z L L  .$.L L C x k i 2 r i i s r r r 0 0 0 6 2 2 2 > > = 6 > 2 6 0 6 2 ",
"2 0 r r w 2 7 > < 8 e 9 9 e e 9 u p p u a d d d p 3 i v b B S L T S N x x i 2 i s i r r r r r 0 0 0 0 0 0 0 6 2 = 0 > 2 6 6 6 2 ",
"2 0 r r 0 > 6 ; 3 8 e 9 e p a p a u u p a a a d g t , s x x F S S S x k i > t s s i i i r r r 0 0 0 0 6 2 2 > > > 6 > 2 6 0 6 2 ",
"2 r i i w > 0 , 7 w e e e y y e a u e y y a f f s s i , i m x Z Z x x t > i s i s i i s i r 0 0 0 6 6 2 6 6 6 2 = 0 > 2 0 0 0 2 ",
"6 t i i w , 0 , 4 8 e e y y u u y u a a y a d s i d s i 0 w x k k x t 2 i d g t s i r r r i i r r 0 0 6 6 2 2 2 = 0 > 6 0 0 0 2 ",
"2 w 2 0 0 > t > 2 0 r 0 r i i t r i i s s s s s s s s i s g g s g g g s s g g i s i i i i r t t 0 0 2 w 7 2 2 2 > 6 > 2 2 2 2 > ",
"6 r 6 t r > w = 0 r r r r t r 0 i i i i i s s s g s i g k s i g s t s k g s s s i s i i i t r t 0 r 0 r q 2 2 2 = 2 > 7 2 2 7 2 ",
"2 t 0 p r > w > > 6 0 0 w t i r s s i i i s g s g i g k s g s 6 2 i d s k g i s i i i i i r i t 0 r 0 0 7 2 2 , > 2 > 2 0 0 7 2 ",
"2 r r r r > 0 > 6 0 r w r t i i i i s i i s s s s g g g s s 0 = = 0 i s s g s i s i i i i i t t i i 0 2 0 2 0 2 > 2 > 7 2 2 0 2 ",
"0 r 0 r 0 = 6 = > 2 0 0 0 r t i i i s i i i s s i g i i g 6 % 0 0 % 2 s r i g s s i i i i i i t r r 2 0 2 2 2 2 > 2 = 6 0 0 0 2 ",
"6 0 0 w 0 = 2 = 2 6 0 r w w r r r i i i i i i s s i s i 2 = 6 0 0 2 = 2 i s i s s i i i i i t i 0 w 0 2 r 2 2 , , 6 = 7 0 q q 2 ",
": 5 w r 6 > 6 > r i r r 0 7 0 w r i s i i i s s g r i 0 @ > i > 2 i 2 % 0 s r s s s i i r i t r t r 2 0 q 0 0 7 2 6 = 6 0 0 0 2 ",
"< 8 r w 6 = 6 2 > > > > > 2 w i i i i r r i s g i i 2 % 6 r 2 6 0 2 r 2 % 2 s i d i r r r t i r i w 2 , > > , > 2 6 = 2 0 0 q 6 ",
"5 e y 9 5 * 1 - ; , , 2 0 r r u r r i i i s s r i 2 % 2 0 0 6 6 0 6 6 0 2 % 2 i i i s i r r i r t e 9 5 1 1 < * ; 6 - 5 8 q q 3 ",
"4 5 5 5 1 * 1 ; 2 7 0 0 w r w r 0 i r r g s r s 2 > 2 6 6 6 6 6 6 2 2 0 6 2 > 2 i r i i i r r r 8 w 8 8 5 1 1 < & 4 ; 5 5 4 7 4 ",
"5 8 5 9 9 ; 5 < 2 0 0 0 w w r u r r i r i s r 2 % 2 0 0 6 2 6 6 6 2 2 2 0 0 2 % 2 i t 0 i i 0 r w 9 9 8 5 8 1 1 * 4 ; 8 5 8 8 5 ",
"5 5 8 e 9 * 1 ; > 6 0 7 w r w r r r s s r i 0 @ > 6 6 6 6 6 6 2 2 6 6 2 2 0 2 > % 2 r r r i t 0 e e 9 9 9 5 1 < ; 5 - 5 r u r 5 ",
"1 9 9 9 5 * 1 - 2 0 0 0 0 r 0 0 r r r i i 2 % 6 0 6 6 6 6 6 6 2 2 6 6 2 6 2 6 0 2 @ 2 i r 0 s w 9 9 8 8 9 9 1 1 < 1 * 1 e u y 1 ",
"9 y 9 9 5 ; 1 < 3 6 0 6 0 0 0 0 r i i r 2 % = 0 6 2 2 6 6 2 2 6 0 2 2 2 0 2 2 6 6 2 = > r t 0 i w 9 8 8 9 9 9 1 * 1 < 9 e e e 5 ",
"1 9 9 9 1 $ 1 < > 6 6 6 6 0 0 r i r r 2 @ > 6 > 2 2 2 6 6 2 2 2 2 2 2 2 2 2 2 2 > r > o 2 r 6 t u e 9 5 9 9 1 < < 1 < 1 9 y y 1 ",
"1 y a u 1 < 5 * 2 6 6 6 6 0 0 i r 0 > % > 6 2 2 6 6 2 2 2 6 6 2 2 2 2 2 2 2 2 2 2 > 2 2 @ > i 0 r 9 5 5 1 9 1 1 < 1 * 1 u a u 1 ",
"1 e ; 5 0 = 0 = > 2 6 6 6 0 r 0 0 - $ = 3 3 2 2 < 4 2 4 6 > 2 2 < < < < < < 1 < 1 1 1 1 ; $ ; 9 5 e 9 5 5 5 1 1 - 1 * 1 1 < 1 9 ",
"9 a 8 r r = 0 > > r 2 2 r r 6 r = * = < < , , , - 2 > , 2 > 2 2 < < < < < < 1 ; ; 1 ; 1 1 ; * * 8 1 e u 5 1 8 1 < 9 - 5 y y y 9 ",
"7 i q r 0 = 2 > 2 2 6 0 r 0 6 2 $ * , 2 < , ; > , 6 > , 2 > 2 > < < < * < * 1 < ; 1 1 ; 1 1 * $ ; 5 e 9 5 9 1 < * 5 * 5 e y y 1 ",
"0 i r r r > 0 = 2 2 0 i 0 6 > % ; , ; ; < < , = , 2 > , 2 > > 2 > ; < < < < 1 < * 1 1 ; ; ; ; * + 1 5 1 y y < * * 9 < 9 e e u 9 ",
"7 i r r 0 > 3 = > r 0 6 0 > @ = 2 < ; = > , > = = > = = > > > > < > < ; < $ < * * 1 ; ; ; ; 1 1 < + $ 9 e 9 5 < ; 1 ; 9 e 9 u 1 ",
"6 t i t 0 & 2 - 6 r 0 2 > % % > - ; ; ; = > > = - > = = > > > > - - > > ; * < * * ; ; ; 1 : * 1 < $ + ; 1 9 8 5 1 1 $ 9 u u a 1 ",
"w t t i w - 2 0 r 6 2 > @ % > = * * = = = = = = - , = = > = > = = - > > 1 * 1 ; * * * ; : ; * ; * 1 * + < 5 5 8 9 9 * e a a a 9 ",
"0 6 2 7 0 - 0 0 6 6 = o % = % = ; * % * = = & % & - % = > > = = - - , - ; $ ; * $ ; 1 * ; ; ; ; - * * $ + * 5 3 1 9 * 9 9 1 9 1 ",
"0 i 0 r 7 > 7 7 6 2 2 6 i s r 6 p t r r i i t 0 2 2 r i s i i i i i d h d t 2 2 a f f a a a a a p s p r 7 2 , 6 9 5 - 7 w 5 u 8 ",
"4 s i i 0 > , > = = > = = > = = = & % % & = = & = > = % & = = = - - = - - - - 2 * * ; ; ; ; * $ - > - - > > ; , ; : - 8 u e u 4 ",
"0 i w 0 0 r l b x x k k g g s s s s s s i i s d s g g s s s s i i d k x x x x h z z c c z z z z k j g h c b v v c h w w w r a w ",
"4 u r r i i h k g s s i s i i 0 t t t i r r t i i i i i i r r t d d d g k g g g f h f j z f z z g d p p g k h g j h u t r r i 7 ",
"7 u r w r r 6 2 0 0 0 0 6 6 6 0 0 6 0 2 6 0 6 6 r 0 0 0 0 2 6 0 0 0 0 0 q q r i 5 9 5 9 e e e e r r 0 7 r r r r 0 r r i t t r 4 ",
"7 8 3 > 2 0 0 0 6 3 3 6 0 6 6 6 2 2 2 6 6 6 6 6 6 0 0 2 2 6 6 2 , 6 0 r i r 6 2 y 9 e e e e 9 8 r t w 0 w 0 0 r w w r 0 4 6 0 4 ",
"8 9 q 8 w r 0 r r 0 2 6 r r 0 6 6 6 6 0 0 0 r 0 2 6 r 0 0 0 0 2 0 r r y i y r 0 a p u u u y e w i p t r r r w i w 0 t i r r w 0 ",
"@ # $ # @ o . @ @ o o @ o o @ @ o @ o o o o @ @ % @ @ @ O o o @ @ @ @ @ @ $ % % $ + + $ $ $ # # @ # @ o @ @ @ % # o @ # @ # @ # "
};
