/* XPM */
static char *_f71dbc87cfb4ecfd4a469f78f7c1cdaZgYRYwDROZ3ZTThm[] = {
/* columns rows colors chars-per-pixel */
"64 64 256 2 ",
"   c black",
".  c #010101",
"X  c #020202",
"o  c gray1",
"O  c #040404",
"+  c gray2",
"@  c #060606",
"#  c #070707",
"$  c gray3",
"%  c #090909",
"&  c gray4",
"*  c #0B0B0B",
"=  c #0C0C0C",
"-  c gray5",
";  c #0E0E0E",
":  c gray6",
">  c #101010",
",  c #111111",
"<  c gray7",
"1  c #131313",
"2  c gray8",
"3  c #151515",
"4  c #161616",
"5  c gray9",
"6  c #181818",
"7  c #191919",
"8  c gray10",
"9  c #1B1B1B",
"0  c gray11",
"q  c #1D1D1D",
"w  c #1E1E1E",
"e  c gray12",
"r  c #202020",
"t  c gray13",
"y  c #222222",
"u  c #232323",
"i  c gray14",
"p  c #252525",
"a  c gray15",
"s  c #272727",
"d  c #282828",
"f  c gray16",
"g  c #2A2A2A",
"h  c gray17",
"j  c #2C2C2C",
"k  c #2D2D2D",
"l  c gray18",
"z  c #2F2F2F",
"x  c gray19",
"c  c #313131",
"v  c #323232",
"b  c gray20",
"n  c #343434",
"m  c #353535",
"M  c gray21",
"N  c #373737",
"B  c gray22",
"V  c #393939",
"C  c #3A3A3A",
"Z  c gray23",
"A  c #3C3C3C",
"S  c gray24",
"D  c #3E3E3E",
"F  c #3F3F3F",
"G  c gray25",
"H  c #414141",
"J  c gray26",
"K  c #434343",
"L  c #444444",
"P  c gray27",
"I  c #464646",
"U  c gray28",
"Y  c #484848",
"T  c #494949",
"R  c gray29",
"E  c #4B4B4B",
"W  c #4C4C4C",
"Q  c gray30",
"!  c #4E4E4E",
"~  c gray31",
"^  c #505050",
"/  c #515151",
"(  c gray32",
")  c #535353",
"_  c gray33",
"`  c #555555",
"'  c #565656",
"]  c gray34",
"[  c #585858",
"{  c gray35",
"}  c #5A5A5A",
"|  c #5B5B5B",
" . c gray36",
".. c #5D5D5D",
"X. c gray37",
"o. c #5F5F5F",
"O. c #606060",
"+. c gray38",
"@. c #626262",
"#. c gray39",
"$. c #646464",
"%. c #656565",
"&. c gray40",
"*. c #676767",
"=. c #686868",
"-. c DimGray",
";. c #6A6A6A",
":. c gray42",
">. c #6C6C6C",
",. c #6D6D6D",
"<. c gray43",
"1. c #6F6F6F",
"2. c gray44",
"3. c #717171",
"4. c #727272",
"5. c gray45",
"6. c #747474",
"7. c gray46",
"8. c #767676",
"9. c #777777",
"0. c gray47",
"q. c #797979",
"w. c gray48",
"e. c #7B7B7B",
"r. c #7C7C7C",
"t. c gray49",
"y. c #7E7E7E",
"u. c gray50",
"i. c #808080",
"p. c #818181",
"a. c gray51",
"s. c #838383",
"d. c #848484",
"f. c gray52",
"g. c #868686",
"h. c gray53",
"j. c #888888",
"k. c #898989",
"l. c gray54",
"z. c #8B8B8B",
"x. c gray55",
"c. c #8D8D8D",
"v. c #8E8E8E",
"b. c gray56",
"n. c #909090",
"m. c gray57",
"M. c #929292",
"N. c #939393",
"B. c gray58",
"V. c #959595",
"C. c gray59",
"Z. c #979797",
"A. c #989898",
"S. c gray60",
"D. c #9A9A9A",
"F. c #9B9B9B",
"G. c gray61",
"H. c #9D9D9D",
"J. c gray62",
"K. c #9F9F9F",
"L. c #A0A0A0",
"P. c gray63",
"I. c #A2A2A2",
"U. c gray64",
"Y. c #A4A4A4",
"T. c #A5A5A5",
"R. c gray65",
"E. c #A7A7A7",
"W. c gray66",
"Q. c #A9A9A9",
"!. c #AAAAAA",
"~. c gray67",
"^. c #ACACAC",
"/. c gray68",
"(. c #AEAEAE",
"). c #AFAFAF",
"_. c gray69",
"`. c #B1B1B1",
"'. c #B2B2B2",
"]. c gray70",
"[. c #B4B4B4",
"{. c gray71",
"}. c #B6B6B6",
"|. c #B7B7B7",
" X c gray72",
".X c #B9B9B9",
"XX c gray73",
"oX c #BBBBBB",
"OX c #BCBCBC",
"+X c gray74",
"@X c gray",
"#X c gray75",
"$X c #C0C0C0",
"%X c #C1C1C1",
"&X c gray76",
"*X c #C3C3C3",
"=X c gray77",
"-X c #C5C5C5",
";X c #C6C6C6",
":X c gray78",
">X c #C8C8C8",
",X c gray79",
"<X c #CACACA",
"1X c #CBCBCB",
"2X c gray80",
"3X c #CDCDCD",
"4X c #CECECE",
"5X c gray81",
"6X c #D0D0D0",
"7X c gray82",
"8X c #D2D2D2",
"9X c LightGray",
"0X c gray83",
"qX c #D5D5D5",
"wX c gray84",
"eX c #D7D7D7",
"rX c #D8D8D8",
"tX c gray85",
"yX c #DADADA",
"uX c gray86",
"iX c gainsboro",
"pX c #DDDDDD",
"aX c gray87",
"sX c #DFDFDF",
"dX c gray88",
"fX c #E1E1E1",
"gX c #E2E2E2",
"hX c gray89",
"jX c #E4E4E4",
"kX c gray90",
"lX c #E6E6E6",
"zX c #E7E7E7",
"xX c gray91",
"cX c #E9E9E9",
"vX c #EAEAEA",
"bX c gray92",
"nX c #ECECEC",
"mX c gray93",
"MX c #EEEEEE",
"NX c #EFEFEF",
"BX c gray94",
"VX c #F1F1F1",
"CX c gray95",
"ZX c #F3F3F3",
"AX c #F4F4F4",
"SX c gray96",
"DX c #F6F6F6",
"FX c gray97",
"GX c #F8F8F8",
"HX c #F9F9F9",
"JX c gray98",
"KX c #FBFBFB",
"LX c gray99",
"PX c #FDFDFD",
"IX c #FEFEFE",
"UX c white",
/* pixels */
".XP.`.K.F.I.!.~.K.I.U.J.Z.Z.J.R.T.E.!.!.Q.W.E.E.T.F.S.J.D.c.k.n.j.z.n.m.z.k.M.K.J.D.C.Z.A.Z.N.m.b.B.K.c.n.G.b.S.Z.D.U.@X_.(.H.S.",
"n.<.e.5.4.>.;.*.o.@.#.+.o.+.=.1.%.=.>.1.2.1.<.<.<.&.#.$.+.} { X...{ ] ' _ _  .%.o.| { | o.@.+.O.-.( o.<.' _ >.=.&.#.o.<.$.1.2.0.",
"P.w.q.,.3.4.6.-.$.$.#.+.O.@.%.=.-.:.<.1.1.>.=.&.-.&.+... ...o.+.+.} ` ` ' ] { | +.X.| } X.+.@.+.@.*.) O.=. .&.X.{ O.&.6.1.6.3.7.",
"J.u.q.>.1.2.5.X.4.2.,.>.,.<.1.1.6.7.0.q.q.7.2.>.>.<.:.$.#.=.:.=.&.#.+.@.$.$.@.+.:.;.&.$.&.:.<.,.#.0.$.%.q.>.#.-.O.=.:.1.2.6.q.d.",
"<.I J W ^ G ^ / W R R E ~ ( ( ( E W ^ ` { [ ` / R ^ ~ U U W W I P U U I P U R W P I P K U / ' '  .R ( U m V A L V J I P R K Y { ",
"^ u M ;.$.9 2 w p i i p s s s a u i a g l l g a t a a u y i y q r u u q 7 w a j t p u e y h c x a p r # h &.#.#.O.%.$.] ( k i M ",
"!.&.] q.=.t b ( ! ! ! Q E T U I ! Q W ! ^ ~ R P P U Y Y Y Y U P L R E P H K U T W / ~ Y T ^ _ ( ! X.m t @.p.#...@.+.+...;./ +.k.",
"^ j m #.#.z H ~ / ) ` ' _ ) ) _ _ ( ( ` [ { ` / / ~ ^ ( ) ( ( _ W _ { ] ) ^ W I ~ ` ' ^ ( | O.X.X.R F 4.f...[ @.+.O.@.} | d u P ",
"} u b 3.+.p P _ ] ] ' ] ] [ [ { [ [ [ { } } { [ ^ ) ) ( '  ...} _ ` } ..[ / ^ ` / [ ] ( o.....@./ C <.a.$...}  . .&.#...%.i t } ",
"j.,.` @.#.x L X.] [ { { { { [ ] ] }  .| { ] [ } _ ) ) _ ] [ { { ] ` ' [ ' ( ) ] R o._ _ ' ,. .) A t.4.o.#.| o...{ { =.*.$.[ >.*.",
") : z i.-.p L R ] { } | | { [ ' { ..O.X.[ ` ] | { ) ( ] [ ` _ [ { ` ( ) ` ` ' { o.T ' Q | ( } S <.8.{ X.%.^ ' ..O.| ) *.*.6 < R ",
"i.' E :.&.z P ] ] [ { } } } { { ..o.O.X.} ] [ { | / ^ [ { ( ( { } ` ( ) ] } } { ` #.H ' ` I l :.r...X.^ ~ #. . .q.V z =.*.F ` &.",
"r.^ K $.#.z U } ] ] ] ] [ } |  .O.X. . ... .{ ' { ^ ~ ] { ) ) } [ ' ) ` | X. .[ _ ! +.R W V %.y.| { X.W ( @. .5.W 6 q 3.:.A ~ | ",
"{ ; s 0.&.a I R ] [ [ { } |  ...O. .{ } X.X.} ` ' ^ ^ ` [ ` ` { ' ' ` ]  .o. .] { { R U M 9.p.o.} ] / @.} ` :.{ w p h 0.-.1 2 Y ",
"m.<.~ ..$.n J ` { | ..o.o.X. .}  .| { } ....| [ _ ) ( ) ` ' ' ' ) ' ' ` [ ..| ' ` &.A p y.d...' { +...| / %.<.s F M C w.O./ 7.:.",
"Y - q %.@.h I Q } ..@.$.$.O.} ] [ { | | | | | | _ ` _ ( ) ] ] ) ( ` ` ) ` { } ] O.n S 6.q.;.+.@.) {  .] ,.X.x I R I c 0.#.2 < M ",
",.I T <.$.v T Q ' } O.$.%.@...{ { ] ..&.$.{ ) ` | ..| ' ` [ [ ` } W ' Q ` ] ~ ..T l ,.9.+.<.+.*.X.| #.#.T m H ` | Z M 8.+.N I #.",
"l.T H 1.#.i K o.] } X.+.@.O.X. .[ ] | O. .) ) | [ } { ` ` { } [ E ;.T ) E _ { Z z 5.8.-.4.;.@.O.{ | 2.` e A =.( R K J 3. .J ^ X.",
"F 9 k *.*.b R ( [ { |  ...X.o.o.{ [ { { ) ! _ o._ ' ' ` ' }  . . .I } L Y T ( x >.b.,.X.*.;.0.%.#.o.Q x l _ *.` ..F A u.X.5 3 C ",
"k.{ ~ ;...z ! [ { [ ] [ {  .o.+. .{ ] ' ( ^ ' o.) _ _ _ ' }  ...` { W Q J I s 2.t...` +.$.#.O...,.U i c _ { / | { Y Z 1.#.I | p.",
"E 0 x q.9.x H ) [ ] ` ` ] } ..O.X.{ ' ' ] ' [ } _ ) ) ` ' [ }  ... .X.~ J t -.u.o.) W ` @.| { >./ a c [ _ W ] | ! L D 9.=.x u M ",
";.m V 1.*.f H _ ` ` ` ' ] { }  ...[ ` ' [ { ' ) _ ( ( ` ' ] {  .=.o.W E j $.r.+.+.*./ ) ^  .8.! d N W ] ] { | ] *.J j 3.>.k k +.",
"a.) W ;.| d H T ( ) ` ] [ [ ] ] ] ' ` _ _ _ / ! ( ^ ^ _ ] ] { X.X...R i 4.g.)  .} _ [ @.' { ( 1 h ) ) E $.&._ [ T R G 8.9.^ E &.",
"F - w %.&.p D _ ^ ( ' { } [ ` ) ( ` ` ) ~ Q Q W / ! ~ _ ] ] } o...D H w.8.$.;.|  .) @.] %.^ < V ! E [ #...' {  .} T C 8.*.8 $ v ",
"x.| ! =.{ f P Q ) ) _ ' [ [ ` ) ' ` ) ` ] ' ) ^ / ~ ] R | +.' ;...f 2.e.` O.' %.) %.O.-.( w s T W _ X.+.X.| ..@.] Y K a.q.Q ) 6.",
"[ y h -.%.p F ' _ _ _ ` ] ] ` _ ' ` _ _ ` ` ) / W { T +.R [ :.G V w.d.+.[ X.' R ^ ( w.~ r Z Y ) ( ' |  .{ [ | o.-.R G f.1.a q P ",
" .M J 5.-.z L Q ] ` _ _ ` ' ` _ ` ' ' _ ) ( ) _ ] E ` Y #.) E F 4.y.$.| ` R ' ' O.>./ c n ~ X.( ] [ ] ` _ ' [ } ' ~ ^ z.0.S z G ",
"x...( =.] g ~ X.} ] ` _ ` ' ' ' ` ] ] ` ( / ) ' ' ~ Q o./ ^ l 1.r.o.@.O.} X.[ ' ,...i m .._ ] _ [ [ ` ( ) ] [ '  .' R 8.:.Q ` :.",
"F < f 5.2.h H { | { ' ` ` ] ] ] ' [ [ ' ) ( _ ] ( ^ X.| Q l 6.q.%.+.@...$.#.[ <./ t S / / { /  .] [ ] _ ' | } ` | T P d.:.u < h ",
"x./ Y 2.O.u L .. .} ] ] [ { } } [ { { ] ' ` ' ] ( $.Q W I w.y.;.*.%.] o.O.@.3.X.h C ( _ ( | } ` ] |  .{ } o.X.[ O.E F q.2.U ) w.",
"4.L F +.[ h E ] ..| { { }  . . .} { { { { { ] ' ..~ ) S r.N.*. .( @.>.#.#.e.*.y M *.~ ~ O.' ..)  .@.@. . .+.@.....( Y q.-.G H [ ",
"| u g ;.*.p A (  .| } }  ....... .} { }  . .[ ` } F L h.k.&.+...X.[ -. .q.#.4 T X.T  .| W / ` $.+.*.&.X. .@.$.+.&.Y S i.:.i w P ",
"I.&.( ;.{ a I ' ...... . . . . ...X.) } ..] / X.T B p.c.1.3.| } / $.-.>.O.v h ..[ } | } ' ` { ..O.O.@.$.+.X.O.%.' ! A 8.7.' %.8.",
"( 4 w #.+.q B _ } } } } } | | | ` %...~ | / / H x 4.5.+.&. .' ' } ..t.$.r M &.~ _ { } ' ` } .. .{ [ { ..X...O.$.=.W M q.*.r 0 m ",
"7.T F ] E u L E ' ] ] [ { } } | *.~ #.{ E ] G V <.8.{ :.3.~ [ +.| w.` u m / _  .' { ] ) _ |  .[ ` / / ' } | ..+.` / V &.o.L ( X.",
"5.A C ;.X.t S ( _ ` ' ] { |  ...| :.` } { K g &.8.X.] } { ..O...>.R s j Y ^ ~ |  .' ( ( ` ` _ ) ] / ! ( ] {  .X.) J m y.8.F K  .",
"D , e | } u H _ ) _ ' {  .X.O.+.] =.+.) ] u ,.*.E ' ' ^ ' | o.:.~ q j _ T H [ +.o.^ R ( ` ~ ! _ [ ( ! / ] | o.#.%./ D t.&.w 4 g ",
"d.o.' &.( a H J ) ` ] | X.@.$.%.#.@.! _ k i.,.` W ) ~ &...) ;.^ q V J T } _ / ;.{ E U ^ _ ~ ^ [ ' / ! / ]  .$.:.( / L e.7._ O.1.",
"R 5 y O.| w D { ) ` [  .O.$.*.=.-.[ ..e d.h.Y ` E ^ ' ] R } } 5 k K ^ Q ~ o.$.} ) ^ Q E ! ) ' ' ' ( ^ / ` } $.<.*.E Z f.<.0 2 b ",
"$.H I -.| d H I ( _ [  .O.%.=.;.:.~ C l.e./ { ) ^ P ' _ =.^ < C Y ~ ` / W (  .o./ { ` Y T ] } ^ [ _ ( / ( ' +.:.;. .P e.-.M S ) ",
"t.) U %.X.s F _ _ ' [ { $.+.&.%.^ T r.u.] ` ` ~ T _ '  ./ y r | W ^ / Q ! ) ] ' ..) W ! / / ( ` _ _ _ ) _ } $.:.3.o.' d.;.I / #.",
"K   u 0.&.a Y ^ / $.} =.{ | { { Z 3.0.{ @.=.W Y ] W @.Q 2 x X.J _ ' ` ^ ^ ` { } } ) ! ~ / / ( ` Q ! ~ / ' ..&.>.@.] S 3.;.q & G ",
"f.-.^ ..o.k G { &.J :.} [ ( ( W h.q.[ [ *.| _ ..^ 3.Q 0 v ( _ { | | [ ( ^ _ { | ' ) / / / ^ ( ` ` ` ` ] | O.#.$.} P L 2.( L O.*.",
"] q j :.o.a Y ] ` *.Q ] _ ' A >.r.2.} O...' o.Y } I l n / | ] .. .| [ ) ^ / _ ` ) ) ) ( / ^ ( _  .} {  .o.O.X.| _ U m =.| t 9 J ",
"..i b 4.$.s I ) ) *.| ^ / N y.;.^ ,.@.O.O.} #...I 4 a ) ) ( .._ } { [ ' ( ~ ~ ^ / ) ) ( / / ) _ ` ` ] | o.o. .[ ( U B <.#.d t Y ",
"s.-.) #.%.x G ' o.' ] ^ n 7.8.{ O.} | #.+.-.1.` 9 m A K [ ` ! o.} [ [ [ _ ~ Q ! / ) ( ^ / ) _ ) { | ..O.+.o.} ] ] P I 7.[ U O.$.",
"B   q 8.&.f Q ' } ) ] l 0.k.L } / ! @...| 9.} - h J ( ~ Q [ X.{ } ] ' ' ( Q W ^ ) ) / ! / ' ' / X.@.%.*.$.O. .} ' E v *.O.1   n ",
"g.{ R %.X.d K { } U H f.y.| ;.~ ..} [ | 3.' r n Y U Q ` [ { [ ' { ` ( ( ~ R E / _ ) ~ Q / ] ' / ` | @.&.%.#.@.@._ K A 1. .J ` >.",
"=.v c *.X.v } R S C h.g.O.-.| ..{ } ..$.` f i Q U ! ' [ ' _ ` { { { { ] ^ E ~ ] ^ ( ) ( ( _ _ ( ' [ ..#.#...} |  .^ G ;.{ c n T ",
"Y 8 n =.:.j C ! F p.e.O.%.%.$.@.}  .&.Q t h ! ~ ^ _ ] ] _ ) ` [ [ { } } ` ~ ~ _ ) / / ( ) ) _ ` { } X.#.@.X. .X.} L F s.1.f 0 Z ",
"m.8.! ] $.i H c y.u.{ *.2.) o.;.,.%.L p f J ^ ( | } [ ` ) ( _ ] ` ` { ..| ` ( ) ] ( ( ] { ' ' } { [ }  .| [ [ | ( W S %.o.! @.r.",
"D   e ;.5.: t u.s.=.o.+...o.=.,.7.R q g ) ^ I ..O...[ ) ( ( ` ' ( ( ' |  .[ ` ` | ` ' o.#...| X.[ ' ' [ ' _ ` { ~ D C 0.#.u 7 n ",
"m.=.O.<.[ g 6.e. .@.X.] ..$.,.p.[ a g / ( R [ $...| ] _ ) _ ` ' ` ) ` { { ' ) _ { ' } $.=.#.X...| { [ { [ ' [  .[ H M 7.;.A T 7.",
"d.B ^ @.+.1.7.;.#. .T o.@.#.r.X.Z F T Q W ( { { ] [ { { ] ' ' ' } [ { } ' / ~ / ) _ { O.&.%.X.] { ] [ } [ ' ] | ! W P 5.$.J T o.",
"+.B Z 7.2.X.*.&.&.+.| { { 8.5.i G ..) L [ X.~ ^ ^ ] X.O...[ ' ' { }  ...] ^ ~ ) ~ _ ] [ X.$.o._ ` ` ] } { ' ' { #.K B e.$.e r ^ ",
"t._ L $.>.8. .%. .' &.O.q.-.p G ) T ` +.{ [ X.[ Q ] @.&.+.} ' ` _ [ X.O.} ) ( ] ~ ` ' ( { $.+._ ] ] | o.X.| }  .) Y H 9.-.G R ,.",
"u.J H 2.,.8.#.{ o.{ 2.q.Q s m ( ) ! ( } } ) ) } ' { O.%.@.} ' ] | { { } [ ) ~ ^ ! ^ / ^ _ { [ ( ) ] |  .{ ' ` ` O.H K 6.2.A L 1.",
"w.Y E 5.,.8.&.X.o.O.O.U i i F E E I U W E L K T Y T ~ _ ) Q R R ~ W E Q E U I U I U P K P T U J P Y W Q W R R R L M K 6.4.K L o.",
"~ f z U F I A m M G F d 7 h D Z P G D G F V B A D S F P U L J J L G D F F S F K L J D C C A C N Z S F G G G G H B x x Y G r y c ",
"S.9.9.r.7.t.9.2.:.,.6.e.t.i.p.u.s.i.t.r.r.e.e.r.i.r.r.p.d.s.a.a.i.r.q.w.e.r.i.f.l.f.u.e.w.e.w.0.w.e.e.e.r.r.t.y.y.r.5.q.7.,.r.f.",
"H.w.4.;.;.4.3.>.>.O.| $.>.&.+.&.*.&.#.+.#.*.=.*.=.#.+.$.*.&.%.%.$.o...o.+.#.=.<.3.;.#.O.o.O.O.O.@.+.O.o.o.O.O.O.o.-.%.=.=.=.6.4.",
"A.7.>.O.-.1.2.1.6.<.o.{ +.+. .X.&.=.%.@.&.<.<.;.-.$.+.+.+.X...o.X.| } ..O.@.*.,.>.%.X. .....X.O.+.o.X...X.o.X...} &.$.*.*.&.1.-.",
"A.w.0.<.r.w.w.t.8.0.>.&.2.2.:.3.4.7.4.,.3.w.q.4.6.2.,.;.%.O.o.@...} | O.#.%.-.<.4.;.#.#.$.#.$.*.&.%.#.$.&.*.&.$.&.1.<.9.r.t.j.h.",
"k.1.6.>.e.3.2.6.2.>.o.+.>.%.$.q.9.e.9.3.6.t.e.3.q.8.5.1.*.o.X.@.` _ ' | o.O.#.*.6.:.%.&.*.%.&.-.%.$.#.%.=.;.=.&.&.<.1.q.0.>.,.*."
};
